solid OpenSCAD_Model
  facet normal 0.999507 0.0314118 0
    outer loop
      vertex 45 0 0.7
      vertex 44.9112 2.82557 0
      vertex 44.9112 2.82557 0.7
    endloop
  endfacet
  facet normal 0.999507 0.0314118 0
    outer loop
      vertex 44.9112 2.82557 0
      vertex 45 0 0.7
      vertex 45 0 0
    endloop
  endfacet
  facet normal -0.999507 0.0314118 0
    outer loop
      vertex -45 0 0
      vertex -44.9112 2.82557 0.7
      vertex -44.9112 2.82557 0
    endloop
  endfacet
  facet normal -0.999507 0.0314118 0
    outer loop
      vertex -44.9112 2.82557 0.7
      vertex -45 0 0
      vertex -45 0 0.7
    endloop
  endfacet
  facet normal 0.0314118 0.999507 -0
    outer loop
      vertex 2.82557 44.9112 0
      vertex 0 45 0.7
      vertex 2.82557 44.9112 0.7
    endloop
  endfacet
  facet normal 0.0314118 0.999507 0
    outer loop
      vertex 0 45 0.7
      vertex 2.82557 44.9112 0
      vertex 0 45 0
    endloop
  endfacet
  facet normal 0.707107 0.707107 0
    outer loop
      vertex 32.8036 30.8046 0.7
      vertex 30.8046 32.8036 0
      vertex 30.8046 32.8036 0.7
    endloop
  endfacet
  facet normal 0.707107 0.707107 0
    outer loop
      vertex 30.8046 32.8036 0
      vertex 32.8036 30.8046 0.7
      vertex 32.8036 30.8046 0
    endloop
  endfacet
  facet normal -0.661317 0.750106 0
    outer loop
      vertex -28.6841 34.6731 0
      vertex -30.8046 32.8036 0.7
      vertex -28.6841 34.6731 0.7
    endloop
  endfacet
  facet normal -0.661317 0.750106 0
    outer loop
      vertex -30.8046 32.8036 0.7
      vertex -28.6841 34.6731 0
      vertex -30.8046 32.8036 0
    endloop
  endfacet
  facet normal -0.338742 0.940879 0
    outer loop
      vertex -13.9058 42.7975 0
      vertex -16.5656 41.8399 0.7
      vertex -13.9058 42.7975 0.7
    endloop
  endfacet
  facet normal -0.338742 0.940879 0
    outer loop
      vertex -16.5656 41.8399 0.7
      vertex -13.9058 42.7975 0
      vertex -16.5656 41.8399 0
    endloop
  endfacet
  facet normal 0.91776 0.397136 0
    outer loop
      vertex 41.8399 16.5656 0.7
      vertex 40.7172 19.1601 0
      vertex 40.7172 19.1601 0.7
    endloop
  endfacet
  facet normal 0.91776 0.397136 0
    outer loop
      vertex 40.7172 19.1601 0
      vertex 41.8399 16.5656 0.7
      vertex 41.8399 16.5656 0
    endloop
  endfacet
  facet normal 0.397136 0.91776 -0
    outer loop
      vertex 19.1601 40.7172 0
      vertex 16.5656 41.8399 0.7
      vertex 19.1601 40.7172 0.7
    endloop
  endfacet
  facet normal 0.397136 0.91776 0
    outer loop
      vertex 16.5656 41.8399 0.7
      vertex 19.1601 40.7172 0
      vertex 16.5656 41.8399 0
    endloop
  endfacet
  facet normal 0.56209 0.827076 -0
    outer loop
      vertex 26.4503 36.4058 0
      vertex 24.1122 37.9948 0.7
      vertex 26.4503 36.4058 0.7
    endloop
  endfacet
  facet normal 0.56209 0.827076 0
    outer loop
      vertex 24.1122 37.9948 0.7
      vertex 26.4503 36.4058 0
      vertex 24.1122 37.9948 0
    endloop
  endfacet
  facet normal -0.891005 0.453993 0
    outer loop
      vertex -40.7172 19.1601 0
      vertex -39.4338 21.6789 0.7
      vertex -39.4338 21.6789 0
    endloop
  endfacet
  facet normal -0.891005 0.453993 0
    outer loop
      vertex -39.4338 21.6789 0.7
      vertex -40.7172 19.1601 0
      vertex -40.7172 19.1601 0.7
    endloop
  endfacet
  facet normal -0.156456 0.987685 0
    outer loop
      vertex -5.63999 44.6452 0
      vertex -8.43216 44.2029 0.7
      vertex -5.63999 44.6452 0.7
    endloop
  endfacet
  facet normal -0.156456 0.987685 0
    outer loop
      vertex -8.43216 44.2029 0.7
      vertex -5.63999 44.6452 0
      vertex -8.43216 44.2029 0
    endloop
  endfacet
  facet normal 0 0 -1
    outer loop
      vertex 1.5 0 0
      vertex 45 0 0
      vertex 44.9112 -2.82557 0
    endloop
  endfacet
  facet normal 0 0 -1
    outer loop
      vertex 1.5 0 0
      vertex 44.9112 -2.82557 0
      vertex 44.6452 -5.63999 0
    endloop
  endfacet
  facet normal 0 0 -1
    outer loop
      vertex 45 0 0
      vertex 1.5 0 0
      vertex 44.9112 2.82557 0
    endloop
  endfacet
  facet normal 0 0 -1
    outer loop
      vertex 1.5 0 0
      vertex 44.6452 -5.63999 0
      vertex 44.2029 -8.43216 0
    endloop
  endfacet
  facet normal -0 0 -1
    outer loop
      vertex 44.9112 2.82557 0
      vertex 1.5 0 0
      vertex 44.6452 5.63999 0
    endloop
  endfacet
  facet normal 0 0 -1
    outer loop
      vertex 1.42658 -0.463525 0
      vertex 44.2029 -8.43216 0
      vertex 43.5862 -11.191 0
    endloop
  endfacet
  facet normal -0 0 -1
    outer loop
      vertex 44.6452 5.63999 0
      vertex 1.5 0 0
      vertex 44.2029 8.43216 0
    endloop
  endfacet
  facet normal 0 0 -1
    outer loop
      vertex 1.42658 -0.463525 0
      vertex 43.5862 -11.191 0
      vertex 42.7975 -13.9058 0
    endloop
  endfacet
  facet normal 0 0 -1
    outer loop
      vertex 1.42658 0.463525 0
      vertex 44.2029 8.43216 0
      vertex 1.5 0 0
    endloop
  endfacet
  facet normal 0 0 -1
    outer loop
      vertex 1.42658 -0.463525 0
      vertex 42.7975 -13.9058 0
      vertex 41.8399 -16.5656 0
    endloop
  endfacet
  facet normal -0 0 -1
    outer loop
      vertex 44.2029 8.43216 0
      vertex 1.42658 0.463525 0
      vertex 43.5862 11.191 0
    endloop
  endfacet
  facet normal 0 0 -1
    outer loop
      vertex 1.42658 -0.463525 0
      vertex 41.8399 -16.5656 0
      vertex 40.7172 -19.1601 0
    endloop
  endfacet
  facet normal -0 0 -1
    outer loop
      vertex 43.5862 11.191 0
      vertex 1.42658 0.463525 0
      vertex 42.7975 13.9058 0
    endloop
  endfacet
  facet normal 0 0 -1
    outer loop
      vertex 1.42658 -0.463525 0
      vertex 40.7172 -19.1601 0
      vertex 39.4338 -21.6789 0
    endloop
  endfacet
  facet normal -0 0 -1
    outer loop
      vertex 42.7975 13.9058 0
      vertex 1.42658 0.463525 0
      vertex 41.8399 16.5656 0
    endloop
  endfacet
  facet normal 0 0 -1
    outer loop
      vertex 1.21352 -0.881678 0
      vertex 39.4338 -21.6789 0
      vertex 37.9948 -24.1122 0
    endloop
  endfacet
  facet normal -0 0 -1
    outer loop
      vertex 41.8399 16.5656 0
      vertex 1.42658 0.463525 0
      vertex 40.7172 19.1601 0
    endloop
  endfacet
  facet normal 0 0 -1
    outer loop
      vertex 1.21352 -0.881678 0
      vertex 37.9948 -24.1122 0
      vertex 36.4058 -26.4503 0
    endloop
  endfacet
  facet normal -0 0 -1
    outer loop
      vertex 40.7172 19.1601 0
      vertex 1.42658 0.463525 0
      vertex 39.4338 21.6789 0
    endloop
  endfacet
  facet normal 0 0 -1
    outer loop
      vertex 1.21352 -0.881678 0
      vertex 36.4058 -26.4503 0
      vertex 34.6731 -28.6841 0
    endloop
  endfacet
  facet normal 0 0 -1
    outer loop
      vertex 1.21352 0.881678 0
      vertex 39.4338 21.6789 0
      vertex 1.42658 0.463525 0
    endloop
  endfacet
  facet normal 0 0 -1
    outer loop
      vertex 1.21352 -0.881678 0
      vertex 34.6731 -28.6841 0
      vertex 32.8036 -30.8046 0
    endloop
  endfacet
  facet normal -0 0 -1
    outer loop
      vertex 39.4338 21.6789 0
      vertex 1.21352 0.881678 0
      vertex 37.9948 24.1122 0
    endloop
  endfacet
  facet normal 0 0 -1
    outer loop
      vertex 1.21352 -0.881678 0
      vertex 32.8036 -30.8046 0
      vertex 30.8046 -32.8036 0
    endloop
  endfacet
  facet normal -0 0 -1
    outer loop
      vertex 37.9948 24.1122 0
      vertex 1.21352 0.881678 0
      vertex 36.4058 26.4503 0
    endloop
  endfacet
  facet normal 0 0 -1
    outer loop
      vertex 0.881678 -1.21352 0
      vertex 30.8046 -32.8036 0
      vertex 28.6841 -34.6731 0
    endloop
  endfacet
  facet normal -0 0 -1
    outer loop
      vertex 36.4058 26.4503 0
      vertex 1.21352 0.881678 0
      vertex 34.6731 28.6841 0
    endloop
  endfacet
  facet normal 0 0 -1
    outer loop
      vertex 0.881678 -1.21352 0
      vertex 28.6841 -34.6731 0
      vertex 26.4503 -36.4058 0
    endloop
  endfacet
  facet normal -0 0 -1
    outer loop
      vertex 34.6731 28.6841 0
      vertex 1.21352 0.881678 0
      vertex 32.8036 30.8046 0
    endloop
  endfacet
  facet normal 0 0 -1
    outer loop
      vertex 0.881678 -1.21352 0
      vertex 26.4503 -36.4058 0
      vertex 24.1122 -37.9948 0
    endloop
  endfacet
  facet normal -0 0 -1
    outer loop
      vertex 32.8036 30.8046 0
      vertex 1.21352 0.881678 0
      vertex 30.8046 32.8036 0
    endloop
  endfacet
  facet normal 0 0 -1
    outer loop
      vertex 0.881678 -1.21352 0
      vertex 24.1122 -37.9948 0
      vertex 21.6789 -39.4338 0
    endloop
  endfacet
  facet normal 0 0 -1
    outer loop
      vertex 0.881678 1.21352 0
      vertex 30.8046 32.8036 0
      vertex 1.21352 0.881678 0
    endloop
  endfacet
  facet normal 0 0 -1
    outer loop
      vertex 0.881678 -1.21352 0
      vertex 21.6789 -39.4338 0
      vertex 19.1601 -40.7172 0
    endloop
  endfacet
  facet normal -0 0 -1
    outer loop
      vertex 30.8046 32.8036 0
      vertex 0.881678 1.21352 0
      vertex 28.6841 34.6731 0
    endloop
  endfacet
  facet normal 0 0 -1
    outer loop
      vertex 0.463525 -1.42658 0
      vertex 19.1601 -40.7172 0
      vertex 16.5656 -41.8399 0
    endloop
  endfacet
  facet normal -0 0 -1
    outer loop
      vertex 28.6841 34.6731 0
      vertex 0.881678 1.21352 0
      vertex 26.4503 36.4058 0
    endloop
  endfacet
  facet normal 0 0 -1
    outer loop
      vertex 0.463525 -1.42658 0
      vertex 16.5656 -41.8399 0
      vertex 13.9058 -42.7975 0
    endloop
  endfacet
  facet normal -0 0 -1
    outer loop
      vertex 26.4503 36.4058 0
      vertex 0.881678 1.21352 0
      vertex 24.1122 37.9948 0
    endloop
  endfacet
  facet normal 0 0 -1
    outer loop
      vertex 0.463525 -1.42658 0
      vertex 13.9058 -42.7975 0
      vertex 11.191 -43.5862 0
    endloop
  endfacet
  facet normal -0 0 -1
    outer loop
      vertex 24.1122 37.9948 0
      vertex 0.881678 1.21352 0
      vertex 21.6789 39.4338 0
    endloop
  endfacet
  facet normal 0 0 -1
    outer loop
      vertex 0.463525 -1.42658 0
      vertex 11.191 -43.5862 0
      vertex 8.43216 -44.2029 0
    endloop
  endfacet
  facet normal -0 0 -1
    outer loop
      vertex 21.6789 39.4338 0
      vertex 0.881678 1.21352 0
      vertex 19.1601 40.7172 0
    endloop
  endfacet
  facet normal 0 0 -1
    outer loop
      vertex 0.463525 -1.42658 0
      vertex 8.43216 -44.2029 0
      vertex 5.63999 -44.6452 0
    endloop
  endfacet
  facet normal 0 0 -1
    outer loop
      vertex 0.463525 1.42658 0
      vertex 19.1601 40.7172 0
      vertex 0.881678 1.21352 0
    endloop
  endfacet
  facet normal 0 0 -1
    outer loop
      vertex 0 -1.5 0
      vertex 5.63999 -44.6452 0
      vertex 2.82557 -44.9112 0
    endloop
  endfacet
  facet normal -0 0 -1
    outer loop
      vertex 19.1601 40.7172 0
      vertex 0.463525 1.42658 0
      vertex 16.5656 41.8399 0
    endloop
  endfacet
  facet normal -0 0 -1
    outer loop
      vertex 16.5656 41.8399 0
      vertex 0.463525 1.42658 0
      vertex 13.9058 42.7975 0
    endloop
  endfacet
  facet normal 0 0 -1
    outer loop
      vertex 44.2029 -8.43216 0
      vertex 1.42658 -0.463525 0
      vertex 1.5 0 0
    endloop
  endfacet
  facet normal 0 0 -1
    outer loop
      vertex 39.4338 -21.6789 0
      vertex 1.21352 -0.881678 0
      vertex 1.42658 -0.463525 0
    endloop
  endfacet
  facet normal 0 0 -1
    outer loop
      vertex 30.8046 -32.8036 0
      vertex 0.881678 -1.21352 0
      vertex 1.21352 -0.881678 0
    endloop
  endfacet
  facet normal 0 0 -1
    outer loop
      vertex 19.1601 -40.7172 0
      vertex 0.463525 -1.42658 0
      vertex 0.881678 -1.21352 0
    endloop
  endfacet
  facet normal 0 0 -1
    outer loop
      vertex 0 -1.5 0
      vertex 2.82557 -44.9112 0
      vertex 0 -45 0
    endloop
  endfacet
  facet normal 0 0 -1
    outer loop
      vertex 5.63999 -44.6452 0
      vertex 0 -1.5 0
      vertex 0.463525 -1.42658 0
    endloop
  endfacet
  facet normal 0 0 -1
    outer loop
      vertex -2.82557 -44.9112 0
      vertex 0 -1.5 0
      vertex 0 -45 0
    endloop
  endfacet
  facet normal 0 0 -1
    outer loop
      vertex -5.63999 -44.6452 0
      vertex 0 -1.5 0
      vertex -2.82557 -44.9112 0
    endloop
  endfacet
  facet normal -0 0 -1
    outer loop
      vertex 0 -1.5 0
      vertex -5.63999 -44.6452 0
      vertex -0.463525 -1.42658 0
    endloop
  endfacet
  facet normal 0 0 -1
    outer loop
      vertex -8.43216 -44.2029 0
      vertex -0.463525 -1.42658 0
      vertex -5.63999 -44.6452 0
    endloop
  endfacet
  facet normal 0 0 -1
    outer loop
      vertex -11.191 -43.5862 0
      vertex -0.463525 -1.42658 0
      vertex -8.43216 -44.2029 0
    endloop
  endfacet
  facet normal 0 0 -1
    outer loop
      vertex -13.9058 -42.7975 0
      vertex -0.463525 -1.42658 0
      vertex -11.191 -43.5862 0
    endloop
  endfacet
  facet normal -0 0 -1
    outer loop
      vertex 13.9058 42.7975 0
      vertex 0.463525 1.42658 0
      vertex 11.191 43.5862 0
    endloop
  endfacet
  facet normal -0 0 -1
    outer loop
      vertex 11.191 43.5862 0
      vertex 0.463525 1.42658 0
      vertex 8.43216 44.2029 0
    endloop
  endfacet
  facet normal -0 0 -1
    outer loop
      vertex 8.43216 44.2029 0
      vertex 0.463525 1.42658 0
      vertex 5.63999 44.6452 0
    endloop
  endfacet
  facet normal 0 0 -1
    outer loop
      vertex 0 1.5 0
      vertex 5.63999 44.6452 0
      vertex 0.463525 1.42658 0
    endloop
  endfacet
  facet normal -0 0 -1
    outer loop
      vertex 5.63999 44.6452 0
      vertex 0 1.5 0
      vertex 2.82557 44.9112 0
    endloop
  endfacet
  facet normal 0 0 -1
    outer loop
      vertex 0 1.5 0
      vertex 0 45 0
      vertex 2.82557 44.9112 0
    endloop
  endfacet
  facet normal 0 0 -1
    outer loop
      vertex -5.63999 44.6452 0
      vertex 0 1.5 0
      vertex -0.463525 1.42658 0
    endloop
  endfacet
  facet normal 0 0 -1
    outer loop
      vertex -19.1601 40.7172 0
      vertex -0.463525 1.42658 0
      vertex -0.881678 1.21352 0
    endloop
  endfacet
  facet normal 0 0 -1
    outer loop
      vertex -30.8046 32.8036 0
      vertex -0.881678 1.21352 0
      vertex -1.21352 0.881678 0
    endloop
  endfacet
  facet normal 0 0 -1
    outer loop
      vertex -39.4338 21.6789 0
      vertex -1.21352 0.881678 0
      vertex -1.42658 0.463525 0
    endloop
  endfacet
  facet normal 0 0 -1
    outer loop
      vertex -44.2029 8.43216 0
      vertex -1.42658 0.463525 0
      vertex -1.5 0 0
    endloop
  endfacet
  facet normal 0 0 -1
    outer loop
      vertex 0 1.5 0
      vertex -2.82557 44.9112 0
      vertex 0 45 0
    endloop
  endfacet
  facet normal 0 0 -1
    outer loop
      vertex -16.5656 -41.8399 0
      vertex -0.463525 -1.42658 0
      vertex -13.9058 -42.7975 0
    endloop
  endfacet
  facet normal 0 0 -1
    outer loop
      vertex -19.1601 -40.7172 0
      vertex -0.463525 -1.42658 0
      vertex -16.5656 -41.8399 0
    endloop
  endfacet
  facet normal 0 0 -1
    outer loop
      vertex 0 1.5 0
      vertex -5.63999 44.6452 0
      vertex -2.82557 44.9112 0
    endloop
  endfacet
  facet normal -0 0 -1
    outer loop
      vertex -0.463525 -1.42658 0
      vertex -19.1601 -40.7172 0
      vertex -0.881678 -1.21352 0
    endloop
  endfacet
  facet normal 0 0 -1
    outer loop
      vertex -0.463525 1.42658 0
      vertex -8.43216 44.2029 0
      vertex -5.63999 44.6452 0
    endloop
  endfacet
  facet normal 0 0 -1
    outer loop
      vertex -21.6789 -39.4338 0
      vertex -0.881678 -1.21352 0
      vertex -19.1601 -40.7172 0
    endloop
  endfacet
  facet normal 0 0 -1
    outer loop
      vertex -0.463525 1.42658 0
      vertex -11.191 43.5862 0
      vertex -8.43216 44.2029 0
    endloop
  endfacet
  facet normal 0 0 -1
    outer loop
      vertex -24.1122 -37.9948 0
      vertex -0.881678 -1.21352 0
      vertex -21.6789 -39.4338 0
    endloop
  endfacet
  facet normal 0 0 -1
    outer loop
      vertex -0.463525 1.42658 0
      vertex -13.9058 42.7975 0
      vertex -11.191 43.5862 0
    endloop
  endfacet
  facet normal 0 0 -1
    outer loop
      vertex -26.4503 -36.4058 0
      vertex -0.881678 -1.21352 0
      vertex -24.1122 -37.9948 0
    endloop
  endfacet
  facet normal 0 0 -1
    outer loop
      vertex -0.463525 1.42658 0
      vertex -16.5656 41.8399 0
      vertex -13.9058 42.7975 0
    endloop
  endfacet
  facet normal 0 0 -1
    outer loop
      vertex -28.6841 -34.6731 0
      vertex -0.881678 -1.21352 0
      vertex -26.4503 -36.4058 0
    endloop
  endfacet
  facet normal 0 0 -1
    outer loop
      vertex -0.463525 1.42658 0
      vertex -19.1601 40.7172 0
      vertex -16.5656 41.8399 0
    endloop
  endfacet
  facet normal 0 0 -1
    outer loop
      vertex -30.8046 -32.8036 0
      vertex -0.881678 -1.21352 0
      vertex -28.6841 -34.6731 0
    endloop
  endfacet
  facet normal 0 0 -1
    outer loop
      vertex -0.881678 1.21352 0
      vertex -21.6789 39.4338 0
      vertex -19.1601 40.7172 0
    endloop
  endfacet
  facet normal -0 0 -1
    outer loop
      vertex -0.881678 -1.21352 0
      vertex -30.8046 -32.8036 0
      vertex -1.21352 -0.881678 0
    endloop
  endfacet
  facet normal 0 0 -1
    outer loop
      vertex -0.881678 1.21352 0
      vertex -24.1122 37.9948 0
      vertex -21.6789 39.4338 0
    endloop
  endfacet
  facet normal 0 0 -1
    outer loop
      vertex -32.8036 -30.8046 0
      vertex -1.21352 -0.881678 0
      vertex -30.8046 -32.8036 0
    endloop
  endfacet
  facet normal 0 0 -1
    outer loop
      vertex -0.881678 1.21352 0
      vertex -26.4503 36.4058 0
      vertex -24.1122 37.9948 0
    endloop
  endfacet
  facet normal 0 0 -1
    outer loop
      vertex -34.6731 -28.6841 0
      vertex -1.21352 -0.881678 0
      vertex -32.8036 -30.8046 0
    endloop
  endfacet
  facet normal 0 0 -1
    outer loop
      vertex -0.881678 1.21352 0
      vertex -28.6841 34.6731 0
      vertex -26.4503 36.4058 0
    endloop
  endfacet
  facet normal 0 0 -1
    outer loop
      vertex -36.4058 -26.4503 0
      vertex -1.21352 -0.881678 0
      vertex -34.6731 -28.6841 0
    endloop
  endfacet
  facet normal 0 0 -1
    outer loop
      vertex -0.881678 1.21352 0
      vertex -30.8046 32.8036 0
      vertex -28.6841 34.6731 0
    endloop
  endfacet
  facet normal 0 0 -1
    outer loop
      vertex -37.9948 -24.1122 0
      vertex -1.21352 -0.881678 0
      vertex -36.4058 -26.4503 0
    endloop
  endfacet
  facet normal 0 0 -1
    outer loop
      vertex -1.21352 0.881678 0
      vertex -32.8036 30.8046 0
      vertex -30.8046 32.8036 0
    endloop
  endfacet
  facet normal 0 0 -1
    outer loop
      vertex -39.4338 -21.6789 0
      vertex -1.21352 -0.881678 0
      vertex -37.9948 -24.1122 0
    endloop
  endfacet
  facet normal 0 0 -1
    outer loop
      vertex -1.21352 0.881678 0
      vertex -34.6731 28.6841 0
      vertex -32.8036 30.8046 0
    endloop
  endfacet
  facet normal -0 0 -1
    outer loop
      vertex -1.21352 -0.881678 0
      vertex -39.4338 -21.6789 0
      vertex -1.42658 -0.463525 0
    endloop
  endfacet
  facet normal 0 0 -1
    outer loop
      vertex -1.21352 0.881678 0
      vertex -36.4058 26.4503 0
      vertex -34.6731 28.6841 0
    endloop
  endfacet
  facet normal 0 0 -1
    outer loop
      vertex -40.7172 -19.1601 0
      vertex -1.42658 -0.463525 0
      vertex -39.4338 -21.6789 0
    endloop
  endfacet
  facet normal 0 0 -1
    outer loop
      vertex -1.21352 0.881678 0
      vertex -37.9948 24.1122 0
      vertex -36.4058 26.4503 0
    endloop
  endfacet
  facet normal 0 0 -1
    outer loop
      vertex -41.8399 -16.5656 0
      vertex -1.42658 -0.463525 0
      vertex -40.7172 -19.1601 0
    endloop
  endfacet
  facet normal 0 0 -1
    outer loop
      vertex -1.21352 0.881678 0
      vertex -39.4338 21.6789 0
      vertex -37.9948 24.1122 0
    endloop
  endfacet
  facet normal 0 0 -1
    outer loop
      vertex -42.7975 -13.9058 0
      vertex -1.42658 -0.463525 0
      vertex -41.8399 -16.5656 0
    endloop
  endfacet
  facet normal 0 0 -1
    outer loop
      vertex -1.42658 0.463525 0
      vertex -40.7172 19.1601 0
      vertex -39.4338 21.6789 0
    endloop
  endfacet
  facet normal 0 0 -1
    outer loop
      vertex -43.5862 -11.191 0
      vertex -1.42658 -0.463525 0
      vertex -42.7975 -13.9058 0
    endloop
  endfacet
  facet normal 0 0 -1
    outer loop
      vertex -1.42658 0.463525 0
      vertex -41.8399 16.5656 0
      vertex -40.7172 19.1601 0
    endloop
  endfacet
  facet normal 0 0 -1
    outer loop
      vertex -44.2029 -8.43216 0
      vertex -1.42658 -0.463525 0
      vertex -43.5862 -11.191 0
    endloop
  endfacet
  facet normal 0 0 -1
    outer loop
      vertex -1.42658 0.463525 0
      vertex -42.7975 13.9058 0
      vertex -41.8399 16.5656 0
    endloop
  endfacet
  facet normal -0 0 -1
    outer loop
      vertex -1.42658 -0.463525 0
      vertex -44.2029 -8.43216 0
      vertex -1.5 0 0
    endloop
  endfacet
  facet normal 0 0 -1
    outer loop
      vertex -1.42658 0.463525 0
      vertex -43.5862 11.191 0
      vertex -42.7975 13.9058 0
    endloop
  endfacet
  facet normal 0 0 -1
    outer loop
      vertex -44.6452 -5.63999 0
      vertex -1.5 0 0
      vertex -44.2029 -8.43216 0
    endloop
  endfacet
  facet normal 0 0 -1
    outer loop
      vertex -1.42658 0.463525 0
      vertex -44.2029 8.43216 0
      vertex -43.5862 11.191 0
    endloop
  endfacet
  facet normal 0 0 -1
    outer loop
      vertex -44.9112 -2.82557 0
      vertex -1.5 0 0
      vertex -44.6452 -5.63999 0
    endloop
  endfacet
  facet normal 0 0 -1
    outer loop
      vertex -1.5 0 0
      vertex -44.6452 5.63999 0
      vertex -44.2029 8.43216 0
    endloop
  endfacet
  facet normal 0 0 -1
    outer loop
      vertex -45 0 0
      vertex -1.5 0 0
      vertex -44.9112 -2.82557 0
    endloop
  endfacet
  facet normal 0 0 -1
    outer loop
      vertex -1.5 0 0
      vertex -44.9112 2.82557 0
      vertex -44.6452 5.63999 0
    endloop
  endfacet
  facet normal 0 0 -1
    outer loop
      vertex -1.5 0 0
      vertex -45 0 0
      vertex -44.9112 2.82557 0
    endloop
  endfacet
  facet normal 0.975915 0.218152 0
    outer loop
      vertex 44.2029 8.43216 0.7
      vertex 43.5862 11.191 0
      vertex 43.5862 11.191 0.7
    endloop
  endfacet
  facet normal 0.975915 0.218152 0
    outer loop
      vertex 43.5862 11.191 0
      vertex 44.2029 8.43216 0.7
      vertex 44.2029 8.43216 0
    endloop
  endfacet
  facet normal 0.960296 0.278984 0
    outer loop
      vertex 43.5862 11.191 0.7
      vertex 42.7975 13.9058 0
      vertex 42.7975 13.9058 0.7
    endloop
  endfacet
  facet normal 0.960296 0.278984 0
    outer loop
      vertex 42.7975 13.9058 0
      vertex 43.5862 11.191 0.7
      vertex 43.5862 11.191 0
    endloop
  endfacet
  facet normal 0.827076 0.56209 0
    outer loop
      vertex 37.9948 24.1122 0.7
      vertex 36.4058 26.4503 0
      vertex 36.4058 26.4503 0.7
    endloop
  endfacet
  facet normal 0.827076 0.56209 0
    outer loop
      vertex 36.4058 26.4503 0
      vertex 37.9948 24.1122 0.7
      vertex 37.9948 24.1122 0
    endloop
  endfacet
  facet normal 0.790157 0.612904 0
    outer loop
      vertex 36.4058 26.4503 0.7
      vertex 34.6731 28.6841 0
      vertex 34.6731 28.6841 0.7
    endloop
  endfacet
  facet normal 0.790157 0.612904 0
    outer loop
      vertex 34.6731 28.6841 0
      vertex 36.4058 26.4503 0.7
      vertex 36.4058 26.4503 0
    endloop
  endfacet
  facet normal 0.891005 0.453993 0
    outer loop
      vertex 40.7172 19.1601 0.7
      vertex 39.4338 21.6789 0
      vertex 39.4338 21.6789 0.7
    endloop
  endfacet
  facet normal 0.891005 0.453993 0
    outer loop
      vertex 39.4338 21.6789 0
      vertex 40.7172 19.1601 0.7
      vertex 40.7172 19.1601 0
    endloop
  endfacet
  facet normal 0.218152 0.975915 -0
    outer loop
      vertex 11.191 43.5862 0
      vertex 8.43216 44.2029 0.7
      vertex 11.191 43.5862 0.7
    endloop
  endfacet
  facet normal 0.218152 0.975915 0
    outer loop
      vertex 8.43216 44.2029 0.7
      vertex 11.191 43.5862 0
      vertex 8.43216 44.2029 0
    endloop
  endfacet
  facet normal 0.509028 0.86075 -0
    outer loop
      vertex 24.1122 37.9948 0
      vertex 21.6789 39.4338 0.7
      vertex 24.1122 37.9948 0.7
    endloop
  endfacet
  facet normal 0.509028 0.86075 0
    outer loop
      vertex 21.6789 39.4338 0.7
      vertex 24.1122 37.9948 0
      vertex 21.6789 39.4338 0
    endloop
  endfacet
  facet normal 0.661317 0.750106 -0
    outer loop
      vertex 30.8046 32.8036 0
      vertex 28.6841 34.6731 0.7
      vertex 30.8046 32.8036 0.7
    endloop
  endfacet
  facet normal 0.661317 0.750106 0
    outer loop
      vertex 28.6841 34.6731 0.7
      vertex 30.8046 32.8036 0
      vertex 28.6841 34.6731 0
    endloop
  endfacet
  facet normal -0.960296 0.278984 0
    outer loop
      vertex -43.5862 11.191 0
      vertex -42.7975 13.9058 0.7
      vertex -42.7975 13.9058 0
    endloop
  endfacet
  facet normal -0.960296 0.278984 0
    outer loop
      vertex -42.7975 13.9058 0.7
      vertex -43.5862 11.191 0
      vertex -43.5862 11.191 0.7
    endloop
  endfacet
  facet normal -0.790157 0.612904 0
    outer loop
      vertex -36.4058 26.4503 0
      vertex -34.6731 28.6841 0.7
      vertex -34.6731 28.6841 0
    endloop
  endfacet
  facet normal -0.790157 0.612904 0
    outer loop
      vertex -34.6731 28.6841 0.7
      vertex -36.4058 26.4503 0
      vertex -36.4058 26.4503 0.7
    endloop
  endfacet
  facet normal -0.509028 0.86075 0
    outer loop
      vertex -21.6789 39.4338 0
      vertex -24.1122 37.9948 0.7
      vertex -21.6789 39.4338 0.7
    endloop
  endfacet
  facet normal -0.509028 0.86075 0
    outer loop
      vertex -24.1122 37.9948 0.7
      vertex -21.6789 39.4338 0
      vertex -24.1122 37.9948 0
    endloop
  endfacet
  facet normal -0.218152 0.975915 0
    outer loop
      vertex -8.43216 44.2029 0
      vertex -11.191 43.5862 0.7
      vertex -8.43216 44.2029 0.7
    endloop
  endfacet
  facet normal -0.218152 0.975915 0
    outer loop
      vertex -11.191 43.5862 0.7
      vertex -8.43216 44.2029 0
      vertex -11.191 43.5862 0
    endloop
  endfacet
  facet normal -0.0314118 0.999507 0
    outer loop
      vertex 0 45 0
      vertex -2.82557 44.9112 0.7
      vertex 0 45 0.7
    endloop
  endfacet
  facet normal -0.0314118 0.999507 0
    outer loop
      vertex -2.82557 44.9112 0.7
      vertex 0 45 0
      vertex -2.82557 44.9112 0
    endloop
  endfacet
  facet normal 0.278984 -0.960296 0
    outer loop
      vertex 11.191 -43.5862 0
      vertex 13.9058 -42.7975 0.7
      vertex 11.191 -43.5862 0.7
    endloop
  endfacet
  facet normal 0.278984 -0.960296 0
    outer loop
      vertex 13.9058 -42.7975 0.7
      vertex 11.191 -43.5862 0
      vertex 13.9058 -42.7975 0
    endloop
  endfacet
  facet normal 0.612904 -0.790157 0
    outer loop
      vertex 26.4503 -36.4058 0
      vertex 28.6841 -34.6731 0.7
      vertex 26.4503 -36.4058 0.7
    endloop
  endfacet
  facet normal 0.612904 -0.790157 0
    outer loop
      vertex 28.6841 -34.6731 0.7
      vertex 26.4503 -36.4058 0
      vertex 28.6841 -34.6731 0
    endloop
  endfacet
  facet normal 0.453993 -0.891005 0
    outer loop
      vertex 19.1601 -40.7172 0
      vertex 21.6789 -39.4338 0.7
      vertex 19.1601 -40.7172 0.7
    endloop
  endfacet
  facet normal 0.453993 -0.891005 0
    outer loop
      vertex 21.6789 -39.4338 0.7
      vertex 19.1601 -40.7172 0
      vertex 21.6789 -39.4338 0
    endloop
  endfacet
  facet normal 0.891005 -0.453993 0
    outer loop
      vertex 39.4338 -21.6789 0.7
      vertex 40.7172 -19.1601 0
      vertex 40.7172 -19.1601 0.7
    endloop
  endfacet
  facet normal 0.891005 -0.453993 0
    outer loop
      vertex 40.7172 -19.1601 0
      vertex 39.4338 -21.6789 0.7
      vertex 39.4338 -21.6789 0
    endloop
  endfacet
  facet normal -0.975915 -0.218152 0
    outer loop
      vertex -43.5862 -11.191 0
      vertex -44.2029 -8.43216 0.7
      vertex -44.2029 -8.43216 0
    endloop
  endfacet
  facet normal -0.975915 -0.218152 0
    outer loop
      vertex -44.2029 -8.43216 0.7
      vertex -43.5862 -11.191 0
      vertex -43.5862 -11.191 0.7
    endloop
  endfacet
  facet normal -0.999507 -0.0314118 0
    outer loop
      vertex -44.9112 -2.82557 0
      vertex -45 0 0.7
      vertex -45 0 0
    endloop
  endfacet
  facet normal -0.999507 -0.0314118 0
    outer loop
      vertex -45 0 0.7
      vertex -44.9112 -2.82557 0
      vertex -44.9112 -2.82557 0.7
    endloop
  endfacet
  facet normal 0.987685 0.156456 0
    outer loop
      vertex 44.6452 5.63999 0.7
      vertex 44.2029 8.43216 0
      vertex 44.2029 8.43216 0.7
    endloop
  endfacet
  facet normal 0.987685 0.156456 0
    outer loop
      vertex 44.2029 8.43216 0
      vertex 44.6452 5.63999 0.7
      vertex 44.6452 5.63999 0
    endloop
  endfacet
  facet normal 0.995563 0.0940939 0
    outer loop
      vertex 44.9112 2.82557 0.7
      vertex 44.6452 5.63999 0
      vertex 44.6452 5.63999 0.7
    endloop
  endfacet
  facet normal 0.995563 0.0940939 0
    outer loop
      vertex 44.6452 5.63999 0
      vertex 44.9112 2.82557 0.7
      vertex 44.9112 2.82557 0
    endloop
  endfacet
  facet normal 0.940879 0.338742 0
    outer loop
      vertex 42.7975 13.9058 0.7
      vertex 41.8399 16.5656 0
      vertex 41.8399 16.5656 0.7
    endloop
  endfacet
  facet normal 0.940879 0.338742 0
    outer loop
      vertex 41.8399 16.5656 0
      vertex 42.7975 13.9058 0.7
      vertex 42.7975 13.9058 0
    endloop
  endfacet
  facet normal 0.750106 0.661317 0
    outer loop
      vertex 34.6731 28.6841 0.7
      vertex 32.8036 30.8046 0
      vertex 32.8036 30.8046 0.7
    endloop
  endfacet
  facet normal 0.750106 0.661317 0
    outer loop
      vertex 32.8036 30.8046 0
      vertex 34.6731 28.6841 0.7
      vertex 34.6731 28.6841 0
    endloop
  endfacet
  facet normal 0.86075 0.509028 0
    outer loop
      vertex 39.4338 21.6789 0.7
      vertex 37.9948 24.1122 0
      vertex 37.9948 24.1122 0.7
    endloop
  endfacet
  facet normal 0.86075 0.509028 0
    outer loop
      vertex 37.9948 24.1122 0
      vertex 39.4338 21.6789 0.7
      vertex 39.4338 21.6789 0
    endloop
  endfacet
  facet normal 0.278984 0.960296 -0
    outer loop
      vertex 13.9058 42.7975 0
      vertex 11.191 43.5862 0.7
      vertex 13.9058 42.7975 0.7
    endloop
  endfacet
  facet normal 0.278984 0.960296 0
    outer loop
      vertex 11.191 43.5862 0.7
      vertex 13.9058 42.7975 0
      vertex 11.191 43.5862 0
    endloop
  endfacet
  facet normal 0.338742 0.940879 -0
    outer loop
      vertex 16.5656 41.8399 0
      vertex 13.9058 42.7975 0.7
      vertex 16.5656 41.8399 0.7
    endloop
  endfacet
  facet normal 0.338742 0.940879 0
    outer loop
      vertex 13.9058 42.7975 0.7
      vertex 16.5656 41.8399 0
      vertex 13.9058 42.7975 0
    endloop
  endfacet
  facet normal 0.156456 0.987685 -0
    outer loop
      vertex 8.43216 44.2029 0
      vertex 5.63999 44.6452 0.7
      vertex 8.43216 44.2029 0.7
    endloop
  endfacet
  facet normal 0.156456 0.987685 0
    outer loop
      vertex 5.63999 44.6452 0.7
      vertex 8.43216 44.2029 0
      vertex 5.63999 44.6452 0
    endloop
  endfacet
  facet normal 0.0940939 0.995563 -0
    outer loop
      vertex 5.63999 44.6452 0
      vertex 2.82557 44.9112 0.7
      vertex 5.63999 44.6452 0.7
    endloop
  endfacet
  facet normal 0.0940939 0.995563 0
    outer loop
      vertex 2.82557 44.9112 0.7
      vertex 5.63999 44.6452 0
      vertex 2.82557 44.9112 0
    endloop
  endfacet
  facet normal 0.453993 0.891005 -0
    outer loop
      vertex 21.6789 39.4338 0
      vertex 19.1601 40.7172 0.7
      vertex 21.6789 39.4338 0.7
    endloop
  endfacet
  facet normal 0.453993 0.891005 0
    outer loop
      vertex 19.1601 40.7172 0.7
      vertex 21.6789 39.4338 0
      vertex 19.1601 40.7172 0
    endloop
  endfacet
  facet normal 0.612904 0.790157 -0
    outer loop
      vertex 28.6841 34.6731 0
      vertex 26.4503 36.4058 0.7
      vertex 28.6841 34.6731 0.7
    endloop
  endfacet
  facet normal 0.612904 0.790157 0
    outer loop
      vertex 26.4503 36.4058 0.7
      vertex 28.6841 34.6731 0
      vertex 26.4503 36.4058 0
    endloop
  endfacet
  facet normal -0.987685 0.156456 0
    outer loop
      vertex -44.6452 5.63999 0
      vertex -44.2029 8.43216 0.7
      vertex -44.2029 8.43216 0
    endloop
  endfacet
  facet normal -0.987685 0.156456 0
    outer loop
      vertex -44.2029 8.43216 0.7
      vertex -44.6452 5.63999 0
      vertex -44.6452 5.63999 0.7
    endloop
  endfacet
  facet normal -0.750106 0.661317 0
    outer loop
      vertex -34.6731 28.6841 0
      vertex -32.8036 30.8046 0.7
      vertex -32.8036 30.8046 0
    endloop
  endfacet
  facet normal -0.750106 0.661317 0
    outer loop
      vertex -32.8036 30.8046 0.7
      vertex -34.6731 28.6841 0
      vertex -34.6731 28.6841 0.7
    endloop
  endfacet
  facet normal -0.707107 0.707107 0
    outer loop
      vertex -32.8036 30.8046 0
      vertex -30.8046 32.8036 0.7
      vertex -30.8046 32.8036 0
    endloop
  endfacet
  facet normal -0.707107 0.707107 0
    outer loop
      vertex -30.8046 32.8036 0.7
      vertex -32.8036 30.8046 0
      vertex -32.8036 30.8046 0.7
    endloop
  endfacet
  facet normal -0.86075 0.509028 0
    outer loop
      vertex -39.4338 21.6789 0
      vertex -37.9948 24.1122 0.7
      vertex -37.9948 24.1122 0
    endloop
  endfacet
  facet normal -0.86075 0.509028 0
    outer loop
      vertex -37.9948 24.1122 0.7
      vertex -39.4338 21.6789 0
      vertex -39.4338 21.6789 0.7
    endloop
  endfacet
  facet normal -0.827076 0.56209 0
    outer loop
      vertex -37.9948 24.1122 0
      vertex -36.4058 26.4503 0.7
      vertex -36.4058 26.4503 0
    endloop
  endfacet
  facet normal -0.827076 0.56209 0
    outer loop
      vertex -36.4058 26.4503 0.7
      vertex -37.9948 24.1122 0
      vertex -37.9948 24.1122 0.7
    endloop
  endfacet
  facet normal -0.940879 0.338742 0
    outer loop
      vertex -42.7975 13.9058 0
      vertex -41.8399 16.5656 0.7
      vertex -41.8399 16.5656 0
    endloop
  endfacet
  facet normal -0.940879 0.338742 0
    outer loop
      vertex -41.8399 16.5656 0.7
      vertex -42.7975 13.9058 0
      vertex -42.7975 13.9058 0.7
    endloop
  endfacet
  facet normal -0.91776 0.397136 0
    outer loop
      vertex -41.8399 16.5656 0
      vertex -40.7172 19.1601 0.7
      vertex -40.7172 19.1601 0
    endloop
  endfacet
  facet normal -0.91776 0.397136 0
    outer loop
      vertex -40.7172 19.1601 0.7
      vertex -41.8399 16.5656 0
      vertex -41.8399 16.5656 0.7
    endloop
  endfacet
  facet normal -0.975915 0.218152 0
    outer loop
      vertex -44.2029 8.43216 0
      vertex -43.5862 11.191 0.7
      vertex -43.5862 11.191 0
    endloop
  endfacet
  facet normal -0.975915 0.218152 0
    outer loop
      vertex -43.5862 11.191 0.7
      vertex -44.2029 8.43216 0
      vertex -44.2029 8.43216 0.7
    endloop
  endfacet
  facet normal -0.995563 0.0940939 0
    outer loop
      vertex -44.9112 2.82557 0
      vertex -44.6452 5.63999 0.7
      vertex -44.6452 5.63999 0
    endloop
  endfacet
  facet normal -0.995563 0.0940939 0
    outer loop
      vertex -44.6452 5.63999 0.7
      vertex -44.9112 2.82557 0
      vertex -44.9112 2.82557 0.7
    endloop
  endfacet
  facet normal 0 0 1
    outer loop
      vertex 1.5 0 0.7
      vertex 45 0 0.7
      vertex 44.9112 2.82557 0.7
    endloop
  endfacet
  facet normal 0 0 1
    outer loop
      vertex 1.5 0 0.7
      vertex 44.9112 2.82557 0.7
      vertex 44.6452 5.63999 0.7
    endloop
  endfacet
  facet normal 0 0 1
    outer loop
      vertex 45 0 0.7
      vertex 1.5 0 0.7
      vertex 44.9112 -2.82557 0.7
    endloop
  endfacet
  facet normal 0 0 1
    outer loop
      vertex 1.5 0 0.7
      vertex 44.6452 5.63999 0.7
      vertex 44.2029 8.43216 0.7
    endloop
  endfacet
  facet normal 0 0 1
    outer loop
      vertex 44.9112 -2.82557 0.7
      vertex 1.5 0 0.7
      vertex 44.6452 -5.63999 0.7
    endloop
  endfacet
  facet normal 0 0 1
    outer loop
      vertex 1.42658 0.463525 0.7
      vertex 44.2029 8.43216 0.7
      vertex 43.5862 11.191 0.7
    endloop
  endfacet
  facet normal 0 0 1
    outer loop
      vertex 44.6452 -5.63999 0.7
      vertex 1.5 0 0.7
      vertex 44.2029 -8.43216 0.7
    endloop
  endfacet
  facet normal 0 0 1
    outer loop
      vertex 1.42658 0.463525 0.7
      vertex 43.5862 11.191 0.7
      vertex 42.7975 13.9058 0.7
    endloop
  endfacet
  facet normal -0 0 1
    outer loop
      vertex 1.42658 -0.463525 0.7
      vertex 44.2029 -8.43216 0.7
      vertex 1.5 0 0.7
    endloop
  endfacet
  facet normal 0 0 1
    outer loop
      vertex 1.42658 0.463525 0.7
      vertex 42.7975 13.9058 0.7
      vertex 41.8399 16.5656 0.7
    endloop
  endfacet
  facet normal 0 0 1
    outer loop
      vertex 44.2029 -8.43216 0.7
      vertex 1.42658 -0.463525 0.7
      vertex 43.5862 -11.191 0.7
    endloop
  endfacet
  facet normal 0 0 1
    outer loop
      vertex 1.42658 0.463525 0.7
      vertex 41.8399 16.5656 0.7
      vertex 40.7172 19.1601 0.7
    endloop
  endfacet
  facet normal 0 0 1
    outer loop
      vertex 43.5862 -11.191 0.7
      vertex 1.42658 -0.463525 0.7
      vertex 42.7975 -13.9058 0.7
    endloop
  endfacet
  facet normal 0 0 1
    outer loop
      vertex 1.42658 0.463525 0.7
      vertex 40.7172 19.1601 0.7
      vertex 39.4338 21.6789 0.7
    endloop
  endfacet
  facet normal 0 0 1
    outer loop
      vertex 42.7975 -13.9058 0.7
      vertex 1.42658 -0.463525 0.7
      vertex 41.8399 -16.5656 0.7
    endloop
  endfacet
  facet normal 0 0 1
    outer loop
      vertex 1.21352 0.881678 0.7
      vertex 39.4338 21.6789 0.7
      vertex 37.9948 24.1122 0.7
    endloop
  endfacet
  facet normal 0 0 1
    outer loop
      vertex 41.8399 -16.5656 0.7
      vertex 1.42658 -0.463525 0.7
      vertex 40.7172 -19.1601 0.7
    endloop
  endfacet
  facet normal 0 0 1
    outer loop
      vertex 1.21352 0.881678 0.7
      vertex 37.9948 24.1122 0.7
      vertex 36.4058 26.4503 0.7
    endloop
  endfacet
  facet normal 0 0 1
    outer loop
      vertex 40.7172 -19.1601 0.7
      vertex 1.42658 -0.463525 0.7
      vertex 39.4338 -21.6789 0.7
    endloop
  endfacet
  facet normal 0 0 1
    outer loop
      vertex 1.21352 0.881678 0.7
      vertex 36.4058 26.4503 0.7
      vertex 34.6731 28.6841 0.7
    endloop
  endfacet
  facet normal -0 0 1
    outer loop
      vertex 1.21352 -0.881678 0.7
      vertex 39.4338 -21.6789 0.7
      vertex 1.42658 -0.463525 0.7
    endloop
  endfacet
  facet normal 0 0 1
    outer loop
      vertex 1.21352 0.881678 0.7
      vertex 34.6731 28.6841 0.7
      vertex 32.8036 30.8046 0.7
    endloop
  endfacet
  facet normal 0 0 1
    outer loop
      vertex 39.4338 -21.6789 0.7
      vertex 1.21352 -0.881678 0.7
      vertex 37.9948 -24.1122 0.7
    endloop
  endfacet
  facet normal 0 0 1
    outer loop
      vertex 1.21352 0.881678 0.7
      vertex 32.8036 30.8046 0.7
      vertex 30.8046 32.8036 0.7
    endloop
  endfacet
  facet normal 0 0 1
    outer loop
      vertex 37.9948 -24.1122 0.7
      vertex 1.21352 -0.881678 0.7
      vertex 36.4058 -26.4503 0.7
    endloop
  endfacet
  facet normal 0 0 1
    outer loop
      vertex 0.881678 1.21352 0.7
      vertex 30.8046 32.8036 0.7
      vertex 28.6841 34.6731 0.7
    endloop
  endfacet
  facet normal 0 0 1
    outer loop
      vertex 36.4058 -26.4503 0.7
      vertex 1.21352 -0.881678 0.7
      vertex 34.6731 -28.6841 0.7
    endloop
  endfacet
  facet normal 0 0 1
    outer loop
      vertex 0.881678 1.21352 0.7
      vertex 28.6841 34.6731 0.7
      vertex 26.4503 36.4058 0.7
    endloop
  endfacet
  facet normal 0 0 1
    outer loop
      vertex 34.6731 -28.6841 0.7
      vertex 1.21352 -0.881678 0.7
      vertex 32.8036 -30.8046 0.7
    endloop
  endfacet
  facet normal 0 0 1
    outer loop
      vertex 0.881678 1.21352 0.7
      vertex 26.4503 36.4058 0.7
      vertex 24.1122 37.9948 0.7
    endloop
  endfacet
  facet normal 0 0 1
    outer loop
      vertex 32.8036 -30.8046 0.7
      vertex 1.21352 -0.881678 0.7
      vertex 30.8046 -32.8036 0.7
    endloop
  endfacet
  facet normal 0 0 1
    outer loop
      vertex 0.881678 1.21352 0.7
      vertex 24.1122 37.9948 0.7
      vertex 21.6789 39.4338 0.7
    endloop
  endfacet
  facet normal -0 0 1
    outer loop
      vertex 0.881678 -1.21352 0.7
      vertex 30.8046 -32.8036 0.7
      vertex 1.21352 -0.881678 0.7
    endloop
  endfacet
  facet normal 0 0 1
    outer loop
      vertex 0.881678 1.21352 0.7
      vertex 21.6789 39.4338 0.7
      vertex 19.1601 40.7172 0.7
    endloop
  endfacet
  facet normal 0 0 1
    outer loop
      vertex 30.8046 -32.8036 0.7
      vertex 0.881678 -1.21352 0.7
      vertex 28.6841 -34.6731 0.7
    endloop
  endfacet
  facet normal 0 0 1
    outer loop
      vertex 0.463525 1.42658 0.7
      vertex 19.1601 40.7172 0.7
      vertex 16.5656 41.8399 0.7
    endloop
  endfacet
  facet normal 0 0 1
    outer loop
      vertex 28.6841 -34.6731 0.7
      vertex 0.881678 -1.21352 0.7
      vertex 26.4503 -36.4058 0.7
    endloop
  endfacet
  facet normal 0 0 1
    outer loop
      vertex 0.463525 1.42658 0.7
      vertex 16.5656 41.8399 0.7
      vertex 13.9058 42.7975 0.7
    endloop
  endfacet
  facet normal 0 0 1
    outer loop
      vertex 26.4503 -36.4058 0.7
      vertex 0.881678 -1.21352 0.7
      vertex 24.1122 -37.9948 0.7
    endloop
  endfacet
  facet normal 0 0 1
    outer loop
      vertex 0.463525 1.42658 0.7
      vertex 13.9058 42.7975 0.7
      vertex 11.191 43.5862 0.7
    endloop
  endfacet
  facet normal 0 0 1
    outer loop
      vertex 24.1122 -37.9948 0.7
      vertex 0.881678 -1.21352 0.7
      vertex 21.6789 -39.4338 0.7
    endloop
  endfacet
  facet normal 0 0 1
    outer loop
      vertex 0.463525 1.42658 0.7
      vertex 11.191 43.5862 0.7
      vertex 8.43216 44.2029 0.7
    endloop
  endfacet
  facet normal 0 0 1
    outer loop
      vertex 21.6789 -39.4338 0.7
      vertex 0.881678 -1.21352 0.7
      vertex 19.1601 -40.7172 0.7
    endloop
  endfacet
  facet normal 0 0 1
    outer loop
      vertex 0.463525 1.42658 0.7
      vertex 8.43216 44.2029 0.7
      vertex 5.63999 44.6452 0.7
    endloop
  endfacet
  facet normal -0 0 1
    outer loop
      vertex 0.463525 -1.42658 0.7
      vertex 19.1601 -40.7172 0.7
      vertex 0.881678 -1.21352 0.7
    endloop
  endfacet
  facet normal 0 0 1
    outer loop
      vertex 0 1.5 0.7
      vertex 5.63999 44.6452 0.7
      vertex 2.82557 44.9112 0.7
    endloop
  endfacet
  facet normal 0 0 1
    outer loop
      vertex 19.1601 -40.7172 0.7
      vertex 0.463525 -1.42658 0.7
      vertex 16.5656 -41.8399 0.7
    endloop
  endfacet
  facet normal 0 0 1
    outer loop
      vertex 16.5656 -41.8399 0.7
      vertex 0.463525 -1.42658 0.7
      vertex 13.9058 -42.7975 0.7
    endloop
  endfacet
  facet normal 0 0 1
    outer loop
      vertex 44.2029 8.43216 0.7
      vertex 1.42658 0.463525 0.7
      vertex 1.5 0 0.7
    endloop
  endfacet
  facet normal 0 0 1
    outer loop
      vertex 39.4338 21.6789 0.7
      vertex 1.21352 0.881678 0.7
      vertex 1.42658 0.463525 0.7
    endloop
  endfacet
  facet normal 0 0 1
    outer loop
      vertex 30.8046 32.8036 0.7
      vertex 0.881678 1.21352 0.7
      vertex 1.21352 0.881678 0.7
    endloop
  endfacet
  facet normal 0 0 1
    outer loop
      vertex 19.1601 40.7172 0.7
      vertex 0.463525 1.42658 0.7
      vertex 0.881678 1.21352 0.7
    endloop
  endfacet
  facet normal 0 0 1
    outer loop
      vertex 0 1.5 0.7
      vertex 2.82557 44.9112 0.7
      vertex 0 45 0.7
    endloop
  endfacet
  facet normal 0 0 1
    outer loop
      vertex 5.63999 44.6452 0.7
      vertex 0 1.5 0.7
      vertex 0.463525 1.42658 0.7
    endloop
  endfacet
  facet normal -0 0 1
    outer loop
      vertex -2.82557 44.9112 0.7
      vertex 0 1.5 0.7
      vertex 0 45 0.7
    endloop
  endfacet
  facet normal -0 0 1
    outer loop
      vertex -5.63999 44.6452 0.7
      vertex 0 1.5 0.7
      vertex -2.82557 44.9112 0.7
    endloop
  endfacet
  facet normal 0 0 1
    outer loop
      vertex 0 1.5 0.7
      vertex -5.63999 44.6452 0.7
      vertex -0.463525 1.42658 0.7
    endloop
  endfacet
  facet normal -0 0 1
    outer loop
      vertex -8.43216 44.2029 0.7
      vertex -0.463525 1.42658 0.7
      vertex -5.63999 44.6452 0.7
    endloop
  endfacet
  facet normal -0 0 1
    outer loop
      vertex -11.191 43.5862 0.7
      vertex -0.463525 1.42658 0.7
      vertex -8.43216 44.2029 0.7
    endloop
  endfacet
  facet normal -0 0 1
    outer loop
      vertex -13.9058 42.7975 0.7
      vertex -0.463525 1.42658 0.7
      vertex -11.191 43.5862 0.7
    endloop
  endfacet
  facet normal 0 0 1
    outer loop
      vertex 13.9058 -42.7975 0.7
      vertex 0.463525 -1.42658 0.7
      vertex 11.191 -43.5862 0.7
    endloop
  endfacet
  facet normal 0 0 1
    outer loop
      vertex 11.191 -43.5862 0.7
      vertex 0.463525 -1.42658 0.7
      vertex 8.43216 -44.2029 0.7
    endloop
  endfacet
  facet normal 0 0 1
    outer loop
      vertex 8.43216 -44.2029 0.7
      vertex 0.463525 -1.42658 0.7
      vertex 5.63999 -44.6452 0.7
    endloop
  endfacet
  facet normal -0 0 1
    outer loop
      vertex 0 -1.5 0.7
      vertex 5.63999 -44.6452 0.7
      vertex 0.463525 -1.42658 0.7
    endloop
  endfacet
  facet normal 0 0 1
    outer loop
      vertex 5.63999 -44.6452 0.7
      vertex 0 -1.5 0.7
      vertex 2.82557 -44.9112 0.7
    endloop
  endfacet
  facet normal 0 0 1
    outer loop
      vertex 0 -1.5 0.7
      vertex 0 -45 0.7
      vertex 2.82557 -44.9112 0.7
    endloop
  endfacet
  facet normal 0 0 1
    outer loop
      vertex -5.63999 -44.6452 0.7
      vertex 0 -1.5 0.7
      vertex -0.463525 -1.42658 0.7
    endloop
  endfacet
  facet normal 0 0 1
    outer loop
      vertex -19.1601 -40.7172 0.7
      vertex -0.463525 -1.42658 0.7
      vertex -0.881678 -1.21352 0.7
    endloop
  endfacet
  facet normal 0 0 1
    outer loop
      vertex -30.8046 -32.8036 0.7
      vertex -0.881678 -1.21352 0.7
      vertex -1.21352 -0.881678 0.7
    endloop
  endfacet
  facet normal 0 0 1
    outer loop
      vertex -39.4338 -21.6789 0.7
      vertex -1.21352 -0.881678 0.7
      vertex -1.42658 -0.463525 0.7
    endloop
  endfacet
  facet normal 0 0 1
    outer loop
      vertex -44.2029 -8.43216 0.7
      vertex -1.42658 -0.463525 0.7
      vertex -1.5 0 0.7
    endloop
  endfacet
  facet normal 0 0 1
    outer loop
      vertex 0 -1.5 0.7
      vertex -2.82557 -44.9112 0.7
      vertex 0 -45 0.7
    endloop
  endfacet
  facet normal -0 0 1
    outer loop
      vertex -16.5656 41.8399 0.7
      vertex -0.463525 1.42658 0.7
      vertex -13.9058 42.7975 0.7
    endloop
  endfacet
  facet normal -0 0 1
    outer loop
      vertex -19.1601 40.7172 0.7
      vertex -0.463525 1.42658 0.7
      vertex -16.5656 41.8399 0.7
    endloop
  endfacet
  facet normal 0 0 1
    outer loop
      vertex 0 -1.5 0.7
      vertex -5.63999 -44.6452 0.7
      vertex -2.82557 -44.9112 0.7
    endloop
  endfacet
  facet normal 0 0 1
    outer loop
      vertex -0.463525 1.42658 0.7
      vertex -19.1601 40.7172 0.7
      vertex -0.881678 1.21352 0.7
    endloop
  endfacet
  facet normal 0 0 1
    outer loop
      vertex -0.463525 -1.42658 0.7
      vertex -8.43216 -44.2029 0.7
      vertex -5.63999 -44.6452 0.7
    endloop
  endfacet
  facet normal -0 0 1
    outer loop
      vertex -21.6789 39.4338 0.7
      vertex -0.881678 1.21352 0.7
      vertex -19.1601 40.7172 0.7
    endloop
  endfacet
  facet normal 0 0 1
    outer loop
      vertex -0.463525 -1.42658 0.7
      vertex -11.191 -43.5862 0.7
      vertex -8.43216 -44.2029 0.7
    endloop
  endfacet
  facet normal -0 0 1
    outer loop
      vertex -24.1122 37.9948 0.7
      vertex -0.881678 1.21352 0.7
      vertex -21.6789 39.4338 0.7
    endloop
  endfacet
  facet normal 0 0 1
    outer loop
      vertex -0.463525 -1.42658 0.7
      vertex -13.9058 -42.7975 0.7
      vertex -11.191 -43.5862 0.7
    endloop
  endfacet
  facet normal -0 0 1
    outer loop
      vertex -26.4503 36.4058 0.7
      vertex -0.881678 1.21352 0.7
      vertex -24.1122 37.9948 0.7
    endloop
  endfacet
  facet normal 0 0 1
    outer loop
      vertex -0.463525 -1.42658 0.7
      vertex -16.5656 -41.8399 0.7
      vertex -13.9058 -42.7975 0.7
    endloop
  endfacet
  facet normal -0 0 1
    outer loop
      vertex -28.6841 34.6731 0.7
      vertex -0.881678 1.21352 0.7
      vertex -26.4503 36.4058 0.7
    endloop
  endfacet
  facet normal 0 0 1
    outer loop
      vertex -0.463525 -1.42658 0.7
      vertex -19.1601 -40.7172 0.7
      vertex -16.5656 -41.8399 0.7
    endloop
  endfacet
  facet normal -0 0 1
    outer loop
      vertex -30.8046 32.8036 0.7
      vertex -0.881678 1.21352 0.7
      vertex -28.6841 34.6731 0.7
    endloop
  endfacet
  facet normal 0 0 1
    outer loop
      vertex -0.881678 -1.21352 0.7
      vertex -21.6789 -39.4338 0.7
      vertex -19.1601 -40.7172 0.7
    endloop
  endfacet
  facet normal 0 0 1
    outer loop
      vertex -0.881678 1.21352 0.7
      vertex -30.8046 32.8036 0.7
      vertex -1.21352 0.881678 0.7
    endloop
  endfacet
  facet normal 0 0 1
    outer loop
      vertex -0.881678 -1.21352 0.7
      vertex -24.1122 -37.9948 0.7
      vertex -21.6789 -39.4338 0.7
    endloop
  endfacet
  facet normal -0 0 1
    outer loop
      vertex -32.8036 30.8046 0.7
      vertex -1.21352 0.881678 0.7
      vertex -30.8046 32.8036 0.7
    endloop
  endfacet
  facet normal 0 0 1
    outer loop
      vertex -0.881678 -1.21352 0.7
      vertex -26.4503 -36.4058 0.7
      vertex -24.1122 -37.9948 0.7
    endloop
  endfacet
  facet normal -0 0 1
    outer loop
      vertex -34.6731 28.6841 0.7
      vertex -1.21352 0.881678 0.7
      vertex -32.8036 30.8046 0.7
    endloop
  endfacet
  facet normal 0 0 1
    outer loop
      vertex -0.881678 -1.21352 0.7
      vertex -28.6841 -34.6731 0.7
      vertex -26.4503 -36.4058 0.7
    endloop
  endfacet
  facet normal -0 0 1
    outer loop
      vertex -36.4058 26.4503 0.7
      vertex -1.21352 0.881678 0.7
      vertex -34.6731 28.6841 0.7
    endloop
  endfacet
  facet normal 0 0 1
    outer loop
      vertex -0.881678 -1.21352 0.7
      vertex -30.8046 -32.8036 0.7
      vertex -28.6841 -34.6731 0.7
    endloop
  endfacet
  facet normal -0 0 1
    outer loop
      vertex -37.9948 24.1122 0.7
      vertex -1.21352 0.881678 0.7
      vertex -36.4058 26.4503 0.7
    endloop
  endfacet
  facet normal 0 0 1
    outer loop
      vertex -1.21352 -0.881678 0.7
      vertex -32.8036 -30.8046 0.7
      vertex -30.8046 -32.8036 0.7
    endloop
  endfacet
  facet normal -0 0 1
    outer loop
      vertex -39.4338 21.6789 0.7
      vertex -1.21352 0.881678 0.7
      vertex -37.9948 24.1122 0.7
    endloop
  endfacet
  facet normal 0 0 1
    outer loop
      vertex -1.21352 -0.881678 0.7
      vertex -34.6731 -28.6841 0.7
      vertex -32.8036 -30.8046 0.7
    endloop
  endfacet
  facet normal 0 0 1
    outer loop
      vertex -1.21352 0.881678 0.7
      vertex -39.4338 21.6789 0.7
      vertex -1.42658 0.463525 0.7
    endloop
  endfacet
  facet normal 0 0 1
    outer loop
      vertex -1.21352 -0.881678 0.7
      vertex -36.4058 -26.4503 0.7
      vertex -34.6731 -28.6841 0.7
    endloop
  endfacet
  facet normal -0 0 1
    outer loop
      vertex -40.7172 19.1601 0.7
      vertex -1.42658 0.463525 0.7
      vertex -39.4338 21.6789 0.7
    endloop
  endfacet
  facet normal 0 0 1
    outer loop
      vertex -1.21352 -0.881678 0.7
      vertex -37.9948 -24.1122 0.7
      vertex -36.4058 -26.4503 0.7
    endloop
  endfacet
  facet normal -0 0 1
    outer loop
      vertex -41.8399 16.5656 0.7
      vertex -1.42658 0.463525 0.7
      vertex -40.7172 19.1601 0.7
    endloop
  endfacet
  facet normal 0 0 1
    outer loop
      vertex -1.21352 -0.881678 0.7
      vertex -39.4338 -21.6789 0.7
      vertex -37.9948 -24.1122 0.7
    endloop
  endfacet
  facet normal -0 0 1
    outer loop
      vertex -42.7975 13.9058 0.7
      vertex -1.42658 0.463525 0.7
      vertex -41.8399 16.5656 0.7
    endloop
  endfacet
  facet normal 0 0 1
    outer loop
      vertex -1.42658 -0.463525 0.7
      vertex -40.7172 -19.1601 0.7
      vertex -39.4338 -21.6789 0.7
    endloop
  endfacet
  facet normal -0 0 1
    outer loop
      vertex -43.5862 11.191 0.7
      vertex -1.42658 0.463525 0.7
      vertex -42.7975 13.9058 0.7
    endloop
  endfacet
  facet normal 0 0 1
    outer loop
      vertex -1.42658 -0.463525 0.7
      vertex -41.8399 -16.5656 0.7
      vertex -40.7172 -19.1601 0.7
    endloop
  endfacet
  facet normal -0 0 1
    outer loop
      vertex -44.2029 8.43216 0.7
      vertex -1.42658 0.463525 0.7
      vertex -43.5862 11.191 0.7
    endloop
  endfacet
  facet normal 0 0 1
    outer loop
      vertex -1.42658 -0.463525 0.7
      vertex -42.7975 -13.9058 0.7
      vertex -41.8399 -16.5656 0.7
    endloop
  endfacet
  facet normal 0 0 1
    outer loop
      vertex -1.42658 0.463525 0.7
      vertex -44.2029 8.43216 0.7
      vertex -1.5 0 0.7
    endloop
  endfacet
  facet normal 0 0 1
    outer loop
      vertex -1.42658 -0.463525 0.7
      vertex -43.5862 -11.191 0.7
      vertex -42.7975 -13.9058 0.7
    endloop
  endfacet
  facet normal -0 0 1
    outer loop
      vertex -44.6452 5.63999 0.7
      vertex -1.5 0 0.7
      vertex -44.2029 8.43216 0.7
    endloop
  endfacet
  facet normal 0 0 1
    outer loop
      vertex -1.42658 -0.463525 0.7
      vertex -44.2029 -8.43216 0.7
      vertex -43.5862 -11.191 0.7
    endloop
  endfacet
  facet normal -0 0 1
    outer loop
      vertex -44.9112 2.82557 0.7
      vertex -1.5 0 0.7
      vertex -44.6452 5.63999 0.7
    endloop
  endfacet
  facet normal 0 0 1
    outer loop
      vertex -1.5 0 0.7
      vertex -44.6452 -5.63999 0.7
      vertex -44.2029 -8.43216 0.7
    endloop
  endfacet
  facet normal 0 0 1
    outer loop
      vertex -45 0 0.7
      vertex -1.5 0 0.7
      vertex -44.9112 2.82557 0.7
    endloop
  endfacet
  facet normal 0 0 1
    outer loop
      vertex -1.5 0 0.7
      vertex -44.9112 -2.82557 0.7
      vertex -44.6452 -5.63999 0.7
    endloop
  endfacet
  facet normal 0 0 1
    outer loop
      vertex -1.5 0 0.7
      vertex -45 0 0.7
      vertex -44.9112 -2.82557 0.7
    endloop
  endfacet
  facet normal -0.453993 0.891005 0
    outer loop
      vertex -19.1601 40.7172 0
      vertex -21.6789 39.4338 0.7
      vertex -19.1601 40.7172 0.7
    endloop
  endfacet
  facet normal -0.453993 0.891005 0
    outer loop
      vertex -21.6789 39.4338 0.7
      vertex -19.1601 40.7172 0
      vertex -21.6789 39.4338 0
    endloop
  endfacet
  facet normal -0.397136 0.91776 0
    outer loop
      vertex -16.5656 41.8399 0
      vertex -19.1601 40.7172 0.7
      vertex -16.5656 41.8399 0.7
    endloop
  endfacet
  facet normal -0.397136 0.91776 0
    outer loop
      vertex -19.1601 40.7172 0.7
      vertex -16.5656 41.8399 0
      vertex -19.1601 40.7172 0
    endloop
  endfacet
  facet normal -0.56209 0.827076 0
    outer loop
      vertex -24.1122 37.9948 0
      vertex -26.4503 36.4058 0.7
      vertex -24.1122 37.9948 0.7
    endloop
  endfacet
  facet normal -0.56209 0.827076 0
    outer loop
      vertex -26.4503 36.4058 0.7
      vertex -24.1122 37.9948 0
      vertex -26.4503 36.4058 0
    endloop
  endfacet
  facet normal -0.612904 0.790157 0
    outer loop
      vertex -26.4503 36.4058 0
      vertex -28.6841 34.6731 0.7
      vertex -26.4503 36.4058 0.7
    endloop
  endfacet
  facet normal -0.612904 0.790157 0
    outer loop
      vertex -28.6841 34.6731 0.7
      vertex -26.4503 36.4058 0
      vertex -28.6841 34.6731 0
    endloop
  endfacet
  facet normal -0.278984 0.960296 0
    outer loop
      vertex -11.191 43.5862 0
      vertex -13.9058 42.7975 0.7
      vertex -11.191 43.5862 0.7
    endloop
  endfacet
  facet normal -0.278984 0.960296 0
    outer loop
      vertex -13.9058 42.7975 0.7
      vertex -11.191 43.5862 0
      vertex -13.9058 42.7975 0
    endloop
  endfacet
  facet normal -0.0940939 0.995563 0
    outer loop
      vertex -2.82557 44.9112 0
      vertex -5.63999 44.6452 0.7
      vertex -2.82557 44.9112 0.7
    endloop
  endfacet
  facet normal -0.0940939 0.995563 0
    outer loop
      vertex -5.63999 44.6452 0.7
      vertex -2.82557 44.9112 0
      vertex -5.63999 44.6452 0
    endloop
  endfacet
  facet normal 0.999507 -0.0314118 0
    outer loop
      vertex 44.9112 -2.82557 0.7
      vertex 45 0 0
      vertex 45 0 0.7
    endloop
  endfacet
  facet normal 0.999507 -0.0314118 0
    outer loop
      vertex 45 0 0
      vertex 44.9112 -2.82557 0.7
      vertex 44.9112 -2.82557 0
    endloop
  endfacet
  facet normal 0.0314118 -0.999507 0
    outer loop
      vertex 0 -45 0
      vertex 2.82557 -44.9112 0.7
      vertex 0 -45 0.7
    endloop
  endfacet
  facet normal 0.0314118 -0.999507 0
    outer loop
      vertex 2.82557 -44.9112 0.7
      vertex 0 -45 0
      vertex 2.82557 -44.9112 0
    endloop
  endfacet
  facet normal 0.156456 -0.987685 0
    outer loop
      vertex 5.63999 -44.6452 0
      vertex 8.43216 -44.2029 0.7
      vertex 5.63999 -44.6452 0.7
    endloop
  endfacet
  facet normal 0.156456 -0.987685 0
    outer loop
      vertex 8.43216 -44.2029 0.7
      vertex 5.63999 -44.6452 0
      vertex 8.43216 -44.2029 0
    endloop
  endfacet
  facet normal 0.338742 -0.940879 0
    outer loop
      vertex 13.9058 -42.7975 0
      vertex 16.5656 -41.8399 0.7
      vertex 13.9058 -42.7975 0.7
    endloop
  endfacet
  facet normal 0.338742 -0.940879 0
    outer loop
      vertex 16.5656 -41.8399 0.7
      vertex 13.9058 -42.7975 0
      vertex 16.5656 -41.8399 0
    endloop
  endfacet
  facet normal 0.661317 -0.750106 0
    outer loop
      vertex 28.6841 -34.6731 0
      vertex 30.8046 -32.8036 0.7
      vertex 28.6841 -34.6731 0.7
    endloop
  endfacet
  facet normal 0.661317 -0.750106 0
    outer loop
      vertex 30.8046 -32.8036 0.7
      vertex 28.6841 -34.6731 0
      vertex 30.8046 -32.8036 0
    endloop
  endfacet
  facet normal 0.509028 -0.86075 0
    outer loop
      vertex 21.6789 -39.4338 0
      vertex 24.1122 -37.9948 0.7
      vertex 21.6789 -39.4338 0.7
    endloop
  endfacet
  facet normal 0.509028 -0.86075 0
    outer loop
      vertex 24.1122 -37.9948 0.7
      vertex 21.6789 -39.4338 0
      vertex 24.1122 -37.9948 0
    endloop
  endfacet
  facet normal 0.750106 -0.661317 0
    outer loop
      vertex 32.8036 -30.8046 0.7
      vertex 34.6731 -28.6841 0
      vertex 34.6731 -28.6841 0.7
    endloop
  endfacet
  facet normal 0.750106 -0.661317 0
    outer loop
      vertex 34.6731 -28.6841 0
      vertex 32.8036 -30.8046 0.7
      vertex 32.8036 -30.8046 0
    endloop
  endfacet
  facet normal 0.827076 -0.56209 0
    outer loop
      vertex 36.4058 -26.4503 0.7
      vertex 37.9948 -24.1122 0
      vertex 37.9948 -24.1122 0.7
    endloop
  endfacet
  facet normal 0.827076 -0.56209 0
    outer loop
      vertex 37.9948 -24.1122 0
      vertex 36.4058 -26.4503 0.7
      vertex 36.4058 -26.4503 0
    endloop
  endfacet
  facet normal 0.91776 -0.397136 0
    outer loop
      vertex 40.7172 -19.1601 0.7
      vertex 41.8399 -16.5656 0
      vertex 41.8399 -16.5656 0.7
    endloop
  endfacet
  facet normal 0.91776 -0.397136 0
    outer loop
      vertex 41.8399 -16.5656 0
      vertex 40.7172 -19.1601 0.7
      vertex 40.7172 -19.1601 0
    endloop
  endfacet
  facet normal 0.960296 -0.278984 0
    outer loop
      vertex 42.7975 -13.9058 0.7
      vertex 43.5862 -11.191 0
      vertex 43.5862 -11.191 0.7
    endloop
  endfacet
  facet normal 0.960296 -0.278984 0
    outer loop
      vertex 43.5862 -11.191 0
      vertex 42.7975 -13.9058 0.7
      vertex 42.7975 -13.9058 0
    endloop
  endfacet
  facet normal 0.995563 -0.0940939 0
    outer loop
      vertex 44.6452 -5.63999 0.7
      vertex 44.9112 -2.82557 0
      vertex 44.9112 -2.82557 0.7
    endloop
  endfacet
  facet normal 0.995563 -0.0940939 0
    outer loop
      vertex 44.9112 -2.82557 0
      vertex 44.6452 -5.63999 0.7
      vertex 44.6452 -5.63999 0
    endloop
  endfacet
  facet normal -0.707107 -0.707107 0
    outer loop
      vertex -30.8046 -32.8036 0
      vertex -32.8036 -30.8046 0.7
      vertex -32.8036 -30.8046 0
    endloop
  endfacet
  facet normal -0.707107 -0.707107 0
    outer loop
      vertex -32.8036 -30.8046 0.7
      vertex -30.8046 -32.8036 0
      vertex -30.8046 -32.8036 0.7
    endloop
  endfacet
  facet normal -0.612904 -0.790157 0
    outer loop
      vertex -28.6841 -34.6731 0
      vertex -26.4503 -36.4058 0.7
      vertex -28.6841 -34.6731 0.7
    endloop
  endfacet
  facet normal -0.612904 -0.790157 -0
    outer loop
      vertex -26.4503 -36.4058 0.7
      vertex -28.6841 -34.6731 0
      vertex -26.4503 -36.4058 0
    endloop
  endfacet
  facet normal -0.453993 -0.891005 0
    outer loop
      vertex -21.6789 -39.4338 0
      vertex -19.1601 -40.7172 0.7
      vertex -21.6789 -39.4338 0.7
    endloop
  endfacet
  facet normal -0.453993 -0.891005 -0
    outer loop
      vertex -19.1601 -40.7172 0.7
      vertex -21.6789 -39.4338 0
      vertex -19.1601 -40.7172 0
    endloop
  endfacet
  facet normal -0.56209 -0.827076 0
    outer loop
      vertex -26.4503 -36.4058 0
      vertex -24.1122 -37.9948 0.7
      vertex -26.4503 -36.4058 0.7
    endloop
  endfacet
  facet normal -0.56209 -0.827076 -0
    outer loop
      vertex -24.1122 -37.9948 0.7
      vertex -26.4503 -36.4058 0
      vertex -24.1122 -37.9948 0
    endloop
  endfacet
  facet normal -0.397136 -0.91776 0
    outer loop
      vertex -19.1601 -40.7172 0
      vertex -16.5656 -41.8399 0.7
      vertex -19.1601 -40.7172 0.7
    endloop
  endfacet
  facet normal -0.397136 -0.91776 -0
    outer loop
      vertex -16.5656 -41.8399 0.7
      vertex -19.1601 -40.7172 0
      vertex -16.5656 -41.8399 0
    endloop
  endfacet
  facet normal -0.278984 -0.960296 0
    outer loop
      vertex -13.9058 -42.7975 0
      vertex -11.191 -43.5862 0.7
      vertex -13.9058 -42.7975 0.7
    endloop
  endfacet
  facet normal -0.278984 -0.960296 -0
    outer loop
      vertex -11.191 -43.5862 0.7
      vertex -13.9058 -42.7975 0
      vertex -11.191 -43.5862 0
    endloop
  endfacet
  facet normal -0.218152 -0.975915 0
    outer loop
      vertex -11.191 -43.5862 0
      vertex -8.43216 -44.2029 0.7
      vertex -11.191 -43.5862 0.7
    endloop
  endfacet
  facet normal -0.218152 -0.975915 -0
    outer loop
      vertex -8.43216 -44.2029 0.7
      vertex -11.191 -43.5862 0
      vertex -8.43216 -44.2029 0
    endloop
  endfacet
  facet normal -0.0940939 -0.995563 0
    outer loop
      vertex -5.63999 -44.6452 0
      vertex -2.82557 -44.9112 0.7
      vertex -5.63999 -44.6452 0.7
    endloop
  endfacet
  facet normal -0.0940939 -0.995563 -0
    outer loop
      vertex -2.82557 -44.9112 0.7
      vertex -5.63999 -44.6452 0
      vertex -2.82557 -44.9112 0
    endloop
  endfacet
  facet normal -0.91776 -0.397136 0
    outer loop
      vertex -40.7172 -19.1601 0
      vertex -41.8399 -16.5656 0.7
      vertex -41.8399 -16.5656 0
    endloop
  endfacet
  facet normal -0.91776 -0.397136 0
    outer loop
      vertex -41.8399 -16.5656 0.7
      vertex -40.7172 -19.1601 0
      vertex -40.7172 -19.1601 0.7
    endloop
  endfacet
  facet normal -0.86075 -0.509028 0
    outer loop
      vertex -37.9948 -24.1122 0
      vertex -39.4338 -21.6789 0.7
      vertex -39.4338 -21.6789 0
    endloop
  endfacet
  facet normal -0.86075 -0.509028 0
    outer loop
      vertex -39.4338 -21.6789 0.7
      vertex -37.9948 -24.1122 0
      vertex -37.9948 -24.1122 0.7
    endloop
  endfacet
  facet normal -0.827076 -0.56209 0
    outer loop
      vertex -36.4058 -26.4503 0
      vertex -37.9948 -24.1122 0.7
      vertex -37.9948 -24.1122 0
    endloop
  endfacet
  facet normal -0.827076 -0.56209 0
    outer loop
      vertex -37.9948 -24.1122 0.7
      vertex -36.4058 -26.4503 0
      vertex -36.4058 -26.4503 0.7
    endloop
  endfacet
  facet normal -0.750106 -0.661317 0
    outer loop
      vertex -32.8036 -30.8046 0
      vertex -34.6731 -28.6841 0.7
      vertex -34.6731 -28.6841 0
    endloop
  endfacet
  facet normal -0.750106 -0.661317 0
    outer loop
      vertex -34.6731 -28.6841 0.7
      vertex -32.8036 -30.8046 0
      vertex -32.8036 -30.8046 0.7
    endloop
  endfacet
  facet normal -0.960296 -0.278984 0
    outer loop
      vertex -42.7975 -13.9058 0
      vertex -43.5862 -11.191 0.7
      vertex -43.5862 -11.191 0
    endloop
  endfacet
  facet normal -0.960296 -0.278984 0
    outer loop
      vertex -43.5862 -11.191 0.7
      vertex -42.7975 -13.9058 0
      vertex -42.7975 -13.9058 0.7
    endloop
  endfacet
  facet normal -0.995563 -0.0940939 0
    outer loop
      vertex -44.6452 -5.63999 0
      vertex -44.9112 -2.82557 0.7
      vertex -44.9112 -2.82557 0
    endloop
  endfacet
  facet normal -0.995563 -0.0940939 0
    outer loop
      vertex -44.9112 -2.82557 0.7
      vertex -44.6452 -5.63999 0
      vertex -44.6452 -5.63999 0.7
    endloop
  endfacet
  facet normal 0.0940939 -0.995563 0
    outer loop
      vertex 2.82557 -44.9112 0
      vertex 5.63999 -44.6452 0.7
      vertex 2.82557 -44.9112 0.7
    endloop
  endfacet
  facet normal 0.0940939 -0.995563 0
    outer loop
      vertex 5.63999 -44.6452 0.7
      vertex 2.82557 -44.9112 0
      vertex 5.63999 -44.6452 0
    endloop
  endfacet
  facet normal 0.218152 -0.975915 0
    outer loop
      vertex 8.43216 -44.2029 0
      vertex 11.191 -43.5862 0.7
      vertex 8.43216 -44.2029 0.7
    endloop
  endfacet
  facet normal 0.218152 -0.975915 0
    outer loop
      vertex 11.191 -43.5862 0.7
      vertex 8.43216 -44.2029 0
      vertex 11.191 -43.5862 0
    endloop
  endfacet
  facet normal 0.397136 -0.91776 0
    outer loop
      vertex 16.5656 -41.8399 0
      vertex 19.1601 -40.7172 0.7
      vertex 16.5656 -41.8399 0.7
    endloop
  endfacet
  facet normal 0.397136 -0.91776 0
    outer loop
      vertex 19.1601 -40.7172 0.7
      vertex 16.5656 -41.8399 0
      vertex 19.1601 -40.7172 0
    endloop
  endfacet
  facet normal 0.707107 -0.707107 0
    outer loop
      vertex 30.8046 -32.8036 0.7
      vertex 32.8036 -30.8046 0
      vertex 32.8036 -30.8046 0.7
    endloop
  endfacet
  facet normal 0.707107 -0.707107 0
    outer loop
      vertex 32.8036 -30.8046 0
      vertex 30.8046 -32.8036 0.7
      vertex 30.8046 -32.8036 0
    endloop
  endfacet
  facet normal 0.56209 -0.827076 0
    outer loop
      vertex 24.1122 -37.9948 0
      vertex 26.4503 -36.4058 0.7
      vertex 24.1122 -37.9948 0.7
    endloop
  endfacet
  facet normal 0.56209 -0.827076 0
    outer loop
      vertex 26.4503 -36.4058 0.7
      vertex 24.1122 -37.9948 0
      vertex 26.4503 -36.4058 0
    endloop
  endfacet
  facet normal 0.790157 -0.612904 0
    outer loop
      vertex 34.6731 -28.6841 0.7
      vertex 36.4058 -26.4503 0
      vertex 36.4058 -26.4503 0.7
    endloop
  endfacet
  facet normal 0.790157 -0.612904 0
    outer loop
      vertex 36.4058 -26.4503 0
      vertex 34.6731 -28.6841 0.7
      vertex 34.6731 -28.6841 0
    endloop
  endfacet
  facet normal 0.86075 -0.509028 0
    outer loop
      vertex 37.9948 -24.1122 0.7
      vertex 39.4338 -21.6789 0
      vertex 39.4338 -21.6789 0.7
    endloop
  endfacet
  facet normal 0.86075 -0.509028 0
    outer loop
      vertex 39.4338 -21.6789 0
      vertex 37.9948 -24.1122 0.7
      vertex 37.9948 -24.1122 0
    endloop
  endfacet
  facet normal 0.940879 -0.338742 0
    outer loop
      vertex 41.8399 -16.5656 0.7
      vertex 42.7975 -13.9058 0
      vertex 42.7975 -13.9058 0.7
    endloop
  endfacet
  facet normal 0.940879 -0.338742 0
    outer loop
      vertex 42.7975 -13.9058 0
      vertex 41.8399 -16.5656 0.7
      vertex 41.8399 -16.5656 0
    endloop
  endfacet
  facet normal 0.975915 -0.218152 0
    outer loop
      vertex 43.5862 -11.191 0.7
      vertex 44.2029 -8.43216 0
      vertex 44.2029 -8.43216 0.7
    endloop
  endfacet
  facet normal 0.975915 -0.218152 0
    outer loop
      vertex 44.2029 -8.43216 0
      vertex 43.5862 -11.191 0.7
      vertex 43.5862 -11.191 0
    endloop
  endfacet
  facet normal -0.661317 -0.750106 0
    outer loop
      vertex -30.8046 -32.8036 0
      vertex -28.6841 -34.6731 0.7
      vertex -30.8046 -32.8036 0.7
    endloop
  endfacet
  facet normal -0.661317 -0.750106 -0
    outer loop
      vertex -28.6841 -34.6731 0.7
      vertex -30.8046 -32.8036 0
      vertex -28.6841 -34.6731 0
    endloop
  endfacet
  facet normal -0.509028 -0.86075 0
    outer loop
      vertex -24.1122 -37.9948 0
      vertex -21.6789 -39.4338 0.7
      vertex -24.1122 -37.9948 0.7
    endloop
  endfacet
  facet normal -0.509028 -0.86075 -0
    outer loop
      vertex -21.6789 -39.4338 0.7
      vertex -24.1122 -37.9948 0
      vertex -21.6789 -39.4338 0
    endloop
  endfacet
  facet normal -0.338742 -0.940879 0
    outer loop
      vertex -16.5656 -41.8399 0
      vertex -13.9058 -42.7975 0.7
      vertex -16.5656 -41.8399 0.7
    endloop
  endfacet
  facet normal -0.338742 -0.940879 -0
    outer loop
      vertex -13.9058 -42.7975 0.7
      vertex -16.5656 -41.8399 0
      vertex -13.9058 -42.7975 0
    endloop
  endfacet
  facet normal -0.156456 -0.987685 0
    outer loop
      vertex -8.43216 -44.2029 0
      vertex -5.63999 -44.6452 0.7
      vertex -8.43216 -44.2029 0.7
    endloop
  endfacet
  facet normal -0.156456 -0.987685 -0
    outer loop
      vertex -5.63999 -44.6452 0.7
      vertex -8.43216 -44.2029 0
      vertex -5.63999 -44.6452 0
    endloop
  endfacet
  facet normal -0.0314118 -0.999507 0
    outer loop
      vertex -2.82557 -44.9112 0
      vertex 0 -45 0.7
      vertex -2.82557 -44.9112 0.7
    endloop
  endfacet
  facet normal -0.0314118 -0.999507 -0
    outer loop
      vertex 0 -45 0.7
      vertex -2.82557 -44.9112 0
      vertex 0 -45 0
    endloop
  endfacet
  facet normal -0.891005 -0.453993 0
    outer loop
      vertex -39.4338 -21.6789 0
      vertex -40.7172 -19.1601 0.7
      vertex -40.7172 -19.1601 0
    endloop
  endfacet
  facet normal -0.891005 -0.453993 0
    outer loop
      vertex -40.7172 -19.1601 0.7
      vertex -39.4338 -21.6789 0
      vertex -39.4338 -21.6789 0.7
    endloop
  endfacet
  facet normal -0.790157 -0.612904 0
    outer loop
      vertex -34.6731 -28.6841 0
      vertex -36.4058 -26.4503 0.7
      vertex -36.4058 -26.4503 0
    endloop
  endfacet
  facet normal -0.790157 -0.612904 0
    outer loop
      vertex -36.4058 -26.4503 0.7
      vertex -34.6731 -28.6841 0
      vertex -34.6731 -28.6841 0.7
    endloop
  endfacet
  facet normal -0.940879 -0.338742 0
    outer loop
      vertex -41.8399 -16.5656 0
      vertex -42.7975 -13.9058 0.7
      vertex -42.7975 -13.9058 0
    endloop
  endfacet
  facet normal -0.940879 -0.338742 0
    outer loop
      vertex -42.7975 -13.9058 0.7
      vertex -41.8399 -16.5656 0
      vertex -41.8399 -16.5656 0.7
    endloop
  endfacet
  facet normal -0.987685 -0.156456 0
    outer loop
      vertex -44.2029 -8.43216 0
      vertex -44.6452 -5.63999 0.7
      vertex -44.6452 -5.63999 0
    endloop
  endfacet
  facet normal -0.987685 -0.156456 0
    outer loop
      vertex -44.6452 -5.63999 0.7
      vertex -44.2029 -8.43216 0
      vertex -44.2029 -8.43216 0.7
    endloop
  endfacet
  facet normal 0.987685 -0.156456 0
    outer loop
      vertex 44.2029 -8.43216 0.7
      vertex 44.6452 -5.63999 0
      vertex 44.6452 -5.63999 0.7
    endloop
  endfacet
  facet normal 0.987685 -0.156456 0
    outer loop
      vertex 44.6452 -5.63999 0
      vertex 44.2029 -8.43216 0.7
      vertex 44.2029 -8.43216 0
    endloop
  endfacet
  facet normal -0.987687 -0.156445 0
    outer loop
      vertex 1.5 0 0
      vertex 1.42658 0.463525 0.7
      vertex 1.42658 0.463525 0
    endloop
  endfacet
  facet normal -0.987687 -0.156445 0
    outer loop
      vertex 1.42658 0.463525 0.7
      vertex 1.5 0 0
      vertex 1.5 0 0.7
    endloop
  endfacet
  facet normal 0.987687 -0.156445 0
    outer loop
      vertex -1.5 0 0.7
      vertex -1.42658 0.463525 0
      vertex -1.42658 0.463525 0.7
    endloop
  endfacet
  facet normal 0.987687 -0.156445 0
    outer loop
      vertex -1.42658 0.463525 0
      vertex -1.5 0 0.7
      vertex -1.5 0 0
    endloop
  endfacet
  facet normal -0.156445 -0.987687 0
    outer loop
      vertex 0 1.5 0
      vertex 0.463525 1.42658 0.7
      vertex 0 1.5 0.7
    endloop
  endfacet
  facet normal -0.156445 -0.987687 -0
    outer loop
      vertex 0.463525 1.42658 0.7
      vertex 0 1.5 0
      vertex 0.463525 1.42658 0
    endloop
  endfacet
  facet normal 0.156445 0.987687 -0
    outer loop
      vertex 0 -1.5 0
      vertex -0.463525 -1.42658 0.7
      vertex 0 -1.5 0.7
    endloop
  endfacet
  facet normal 0.156445 0.987687 0
    outer loop
      vertex -0.463525 -1.42658 0.7
      vertex 0 -1.5 0
      vertex -0.463525 -1.42658 0
    endloop
  endfacet
  facet normal -0.707107 -0.707107 0
    outer loop
      vertex 1.21352 0.881678 0
      vertex 0.881678 1.21352 0.7
      vertex 0.881678 1.21352 0
    endloop
  endfacet
  facet normal -0.707107 -0.707107 0
    outer loop
      vertex 0.881678 1.21352 0.7
      vertex 1.21352 0.881678 0
      vertex 1.21352 0.881678 0.7
    endloop
  endfacet
  facet normal -0.891006 -0.453991 0
    outer loop
      vertex 1.42658 0.463525 0
      vertex 1.21352 0.881678 0.7
      vertex 1.21352 0.881678 0
    endloop
  endfacet
  facet normal -0.891006 -0.453991 0
    outer loop
      vertex 1.21352 0.881678 0.7
      vertex 1.42658 0.463525 0
      vertex 1.42658 0.463525 0.7
    endloop
  endfacet
  facet normal -0.453991 -0.891006 0
    outer loop
      vertex 0.463525 1.42658 0
      vertex 0.881678 1.21352 0.7
      vertex 0.463525 1.42658 0.7
    endloop
  endfacet
  facet normal -0.453991 -0.891006 -0
    outer loop
      vertex 0.881678 1.21352 0.7
      vertex 0.463525 1.42658 0
      vertex 0.881678 1.21352 0
    endloop
  endfacet
  facet normal 0.453991 -0.891006 0
    outer loop
      vertex -0.881678 1.21352 0
      vertex -0.463525 1.42658 0.7
      vertex -0.881678 1.21352 0.7
    endloop
  endfacet
  facet normal 0.453991 -0.891006 0
    outer loop
      vertex -0.463525 1.42658 0.7
      vertex -0.881678 1.21352 0
      vertex -0.463525 1.42658 0
    endloop
  endfacet
  facet normal 0.707107 -0.707107 0
    outer loop
      vertex -1.21352 0.881678 0.7
      vertex -0.881678 1.21352 0
      vertex -0.881678 1.21352 0.7
    endloop
  endfacet
  facet normal 0.707107 -0.707107 0
    outer loop
      vertex -0.881678 1.21352 0
      vertex -1.21352 0.881678 0.7
      vertex -1.21352 0.881678 0
    endloop
  endfacet
  facet normal 0.156445 -0.987687 0
    outer loop
      vertex -0.463525 1.42658 0
      vertex 0 1.5 0.7
      vertex -0.463525 1.42658 0.7
    endloop
  endfacet
  facet normal 0.156445 -0.987687 0
    outer loop
      vertex 0 1.5 0.7
      vertex -0.463525 1.42658 0
      vertex 0 1.5 0
    endloop
  endfacet
  facet normal -0.891006 0.453991 0
    outer loop
      vertex 1.21352 -0.881678 0
      vertex 1.42658 -0.463525 0.7
      vertex 1.42658 -0.463525 0
    endloop
  endfacet
  facet normal -0.891006 0.453991 0
    outer loop
      vertex 1.42658 -0.463525 0.7
      vertex 1.21352 -0.881678 0
      vertex 1.21352 -0.881678 0.7
    endloop
  endfacet
  facet normal 0.707107 0.707107 0
    outer loop
      vertex -0.881678 -1.21352 0.7
      vertex -1.21352 -0.881678 0
      vertex -1.21352 -0.881678 0.7
    endloop
  endfacet
  facet normal 0.707107 0.707107 0
    outer loop
      vertex -1.21352 -0.881678 0
      vertex -0.881678 -1.21352 0.7
      vertex -0.881678 -1.21352 0
    endloop
  endfacet
  facet normal 0.987687 0.156445 0
    outer loop
      vertex -1.42658 -0.463525 0.7
      vertex -1.5 0 0
      vertex -1.5 0 0.7
    endloop
  endfacet
  facet normal 0.987687 0.156445 0
    outer loop
      vertex -1.5 0 0
      vertex -1.42658 -0.463525 0.7
      vertex -1.42658 -0.463525 0
    endloop
  endfacet
  facet normal 0.891006 -0.453991 0
    outer loop
      vertex -1.42658 0.463525 0.7
      vertex -1.21352 0.881678 0
      vertex -1.21352 0.881678 0.7
    endloop
  endfacet
  facet normal 0.891006 -0.453991 0
    outer loop
      vertex -1.21352 0.881678 0
      vertex -1.42658 0.463525 0.7
      vertex -1.42658 0.463525 0
    endloop
  endfacet
  facet normal -0.156445 0.987687 0
    outer loop
      vertex 0.463525 -1.42658 0
      vertex 0 -1.5 0.7
      vertex 0.463525 -1.42658 0.7
    endloop
  endfacet
  facet normal -0.156445 0.987687 0
    outer loop
      vertex 0 -1.5 0.7
      vertex 0.463525 -1.42658 0
      vertex 0 -1.5 0
    endloop
  endfacet
  facet normal -0.707107 0.707107 0
    outer loop
      vertex 0.881678 -1.21352 0
      vertex 1.21352 -0.881678 0.7
      vertex 1.21352 -0.881678 0
    endloop
  endfacet
  facet normal -0.707107 0.707107 0
    outer loop
      vertex 1.21352 -0.881678 0.7
      vertex 0.881678 -1.21352 0
      vertex 0.881678 -1.21352 0.7
    endloop
  endfacet
  facet normal 0.453991 0.891006 -0
    outer loop
      vertex -0.463525 -1.42658 0
      vertex -0.881678 -1.21352 0.7
      vertex -0.463525 -1.42658 0.7
    endloop
  endfacet
  facet normal 0.453991 0.891006 0
    outer loop
      vertex -0.881678 -1.21352 0.7
      vertex -0.463525 -1.42658 0
      vertex -0.881678 -1.21352 0
    endloop
  endfacet
  facet normal 0.891006 0.453991 0
    outer loop
      vertex -1.21352 -0.881678 0.7
      vertex -1.42658 -0.463525 0
      vertex -1.42658 -0.463525 0.7
    endloop
  endfacet
  facet normal 0.891006 0.453991 0
    outer loop
      vertex -1.42658 -0.463525 0
      vertex -1.21352 -0.881678 0.7
      vertex -1.21352 -0.881678 0
    endloop
  endfacet
  facet normal -0.987687 0.156445 0
    outer loop
      vertex 1.42658 -0.463525 0
      vertex 1.5 0 0.7
      vertex 1.5 0 0
    endloop
  endfacet
  facet normal -0.987687 0.156445 0
    outer loop
      vertex 1.5 0 0.7
      vertex 1.42658 -0.463525 0
      vertex 1.42658 -0.463525 0.7
    endloop
  endfacet
  facet normal -0.453991 0.891006 0
    outer loop
      vertex 0.881678 -1.21352 0
      vertex 0.463525 -1.42658 0.7
      vertex 0.881678 -1.21352 0.7
    endloop
  endfacet
  facet normal -0.453991 0.891006 0
    outer loop
      vertex 0.463525 -1.42658 0.7
      vertex 0.881678 -1.21352 0
      vertex 0.463525 -1.42658 0
    endloop
  endfacet
endsolid OpenSCAD_Model
