solid OpenSCAD_Model
  facet normal 0.661333 0.750092 -0
    outer loop
      vertex 14.3755 15.3083 0
      vertex 13.3859 16.1808 0.25
      vertex 14.3755 15.3083 0.25
    endloop
  endfacet
  facet normal 0.661333 0.750092 0
    outer loop
      vertex 13.3859 16.1808 0.25
      vertex 14.3755 15.3083 0
      vertex 13.3859 16.1808 0
    endloop
  endfacet
  facet normal -0.338753 0.940875 0
    outer loop
      vertex -6.48936 19.9722 0
      vertex -7.73061 19.5253 0.25
      vertex -6.48936 19.9722 0.25
    endloop
  endfacet
  facet normal -0.338753 0.940875 0
    outer loop
      vertex -7.73061 19.5253 0.25
      vertex -6.48936 19.9722 0
      vertex -7.73061 19.5253 0
    endloop
  endfacet
  facet normal -0.890981 0.454041 0
    outer loop
      vertex -19.0014 8.94136 0
      vertex -18.4024 10.1168 0.25
      vertex -18.4024 10.1168 0
    endloop
  endfacet
  facet normal -0.890981 0.454041 0
    outer loop
      vertex -18.4024 10.1168 0.25
      vertex -19.0014 8.94136 0
      vertex -19.0014 8.94136 0.25
    endloop
  endfacet
  facet normal 0.562078 -0.827084 0
    outer loop
      vertex 11.2524 -17.7309 0
      vertex 12.3435 -16.9894 0.25
      vertex 11.2524 -17.7309 0.25
    endloop
  endfacet
  facet normal 0.562078 -0.827084 0
    outer loop
      vertex 12.3435 -16.9894 0.25
      vertex 11.2524 -17.7309 0
      vertex 12.3435 -16.9894 0
    endloop
  endfacet
  facet normal 0.917765 -0.397123 0
    outer loop
      vertex 19.0014 -8.94136 0.25
      vertex 19.5253 -7.73061 0
      vertex 19.5253 -7.73061 0.25
    endloop
  endfacet
  facet normal 0.917765 -0.397123 0
    outer loop
      vertex 19.5253 -7.73061 0
      vertex 19.0014 -8.94136 0.25
      vertex 19.0014 -8.94136 0
    endloop
  endfacet
  facet normal 0.917765 0.397123 0
    outer loop
      vertex 19.5253 7.73061 0.25
      vertex 19.0014 8.94136 0
      vertex 19.0014 8.94136 0.25
    endloop
  endfacet
  facet normal 0.917765 0.397123 0
    outer loop
      vertex 19.0014 8.94136 0
      vertex 19.5253 7.73061 0.25
      vertex 19.5253 7.73061 0
    endloop
  endfacet
  facet normal 0.890981 0.454041 0
    outer loop
      vertex 19.0014 8.94136 0.25
      vertex 18.4024 10.1168 0
      vertex 18.4024 10.1168 0.25
    endloop
  endfacet
  facet normal 0.890981 0.454041 0
    outer loop
      vertex 18.4024 10.1168 0
      vertex 19.0014 8.94136 0.25
      vertex 19.0014 8.94136 0
    endloop
  endfacet
  facet normal 0.397123 0.917765 -0
    outer loop
      vertex 8.94136 19.0014 0
      vertex 7.73061 19.5253 0.25
      vertex 8.94136 19.0014 0.25
    endloop
  endfacet
  facet normal 0.397123 0.917765 0
    outer loop
      vertex 7.73061 19.5253 0.25
      vertex 8.94136 19.0014 0
      vertex 7.73061 19.5253 0
    endloop
  endfacet
  facet normal -0.707107 0.707107 0
    outer loop
      vertex -15.3083 14.3755 0
      vertex -14.3755 15.3083 0.25
      vertex -14.3755 15.3083 0
    endloop
  endfacet
  facet normal -0.707107 0.707107 0
    outer loop
      vertex -14.3755 15.3083 0.25
      vertex -15.3083 14.3755 0
      vertex -15.3083 14.3755 0.25
    endloop
  endfacet
  facet normal -0.156452 0.987686 0
    outer loop
      vertex -2.632 20.8344 0
      vertex -3.93501 20.628 0.25
      vertex -2.632 20.8344 0.25
    endloop
  endfacet
  facet normal -0.156452 0.987686 0
    outer loop
      vertex -3.93501 20.628 0.25
      vertex -2.632 20.8344 0
      vertex -3.93501 20.628 0
    endloop
  endfacet
  facet normal 0.750092 -0.661333 0
    outer loop
      vertex 15.3083 -14.3755 0.25
      vertex 16.1808 -13.3859 0
      vertex 16.1808 -13.3859 0.25
    endloop
  endfacet
  facet normal 0.750092 -0.661333 0
    outer loop
      vertex 16.1808 -13.3859 0
      vertex 15.3083 -14.3755 0.25
      vertex 15.3083 -14.3755 0
    endloop
  endfacet
  facet normal -0.707107 -0.707107 0
    outer loop
      vertex -14.3755 -15.3083 0
      vertex -15.3083 -14.3755 0.25
      vertex -15.3083 -14.3755 0
    endloop
  endfacet
  facet normal -0.707107 -0.707107 0
    outer loop
      vertex -15.3083 -14.3755 0.25
      vertex -14.3755 -15.3083 0
      vertex -14.3755 -15.3083 0.25
    endloop
  endfacet
  facet normal 0 0 -1
    outer loop
      vertex 1.5 0 0
      vertex 21 0 0
      vertex 20.9586 -1.3186 0
    endloop
  endfacet
  facet normal 0 0 -1
    outer loop
      vertex 1.5 0 0
      vertex 20.9586 -1.3186 0
      vertex 20.8344 -2.632 0
    endloop
  endfacet
  facet normal 0 0 -1
    outer loop
      vertex 21 0 0
      vertex 1.5 0 0
      vertex 20.9586 1.3186 0
    endloop
  endfacet
  facet normal 0 0 -1
    outer loop
      vertex 1.5 0 0
      vertex 20.8344 -2.632 0
      vertex 20.628 -3.93501 0
    endloop
  endfacet
  facet normal -0 0 -1
    outer loop
      vertex 20.9586 1.3186 0
      vertex 1.5 0 0
      vertex 20.8344 2.632 0
    endloop
  endfacet
  facet normal 0 0 -1
    outer loop
      vertex 1.42658 -0.463525 0
      vertex 20.628 -3.93501 0
      vertex 20.3402 -5.22249 0
    endloop
  endfacet
  facet normal -0 0 -1
    outer loop
      vertex 20.8344 2.632 0
      vertex 1.5 0 0
      vertex 20.628 3.93501 0
    endloop
  endfacet
  facet normal 0 0 -1
    outer loop
      vertex 1.42658 -0.463525 0
      vertex 20.3402 -5.22249 0
      vertex 19.9722 -6.48936 0
    endloop
  endfacet
  facet normal 0 0 -1
    outer loop
      vertex 1.42658 0.463525 0
      vertex 20.628 3.93501 0
      vertex 1.5 0 0
    endloop
  endfacet
  facet normal 0 0 -1
    outer loop
      vertex 1.42658 -0.463525 0
      vertex 19.9722 -6.48936 0
      vertex 19.5253 -7.73061 0
    endloop
  endfacet
  facet normal -0 0 -1
    outer loop
      vertex 20.628 3.93501 0
      vertex 1.42658 0.463525 0
      vertex 20.3402 5.22249 0
    endloop
  endfacet
  facet normal 0 0 -1
    outer loop
      vertex 1.42658 -0.463525 0
      vertex 19.5253 -7.73061 0
      vertex 19.0014 -8.94136 0
    endloop
  endfacet
  facet normal -0 0 -1
    outer loop
      vertex 20.3402 5.22249 0
      vertex 1.42658 0.463525 0
      vertex 19.9722 6.48936 0
    endloop
  endfacet
  facet normal 0 0 -1
    outer loop
      vertex 1.42658 -0.463525 0
      vertex 19.0014 -8.94136 0
      vertex 18.4024 -10.1168 0
    endloop
  endfacet
  facet normal -0 0 -1
    outer loop
      vertex 19.9722 6.48936 0
      vertex 1.42658 0.463525 0
      vertex 19.5253 7.73061 0
    endloop
  endfacet
  facet normal 0 0 -1
    outer loop
      vertex 1.21352 -0.881678 0
      vertex 18.4024 -10.1168 0
      vertex 17.7309 -11.2524 0
    endloop
  endfacet
  facet normal -0 0 -1
    outer loop
      vertex 19.5253 7.73061 0
      vertex 1.42658 0.463525 0
      vertex 19.0014 8.94136 0
    endloop
  endfacet
  facet normal 0 0 -1
    outer loop
      vertex 1.21352 -0.881678 0
      vertex 17.7309 -11.2524 0
      vertex 16.9894 -12.3435 0
    endloop
  endfacet
  facet normal -0 0 -1
    outer loop
      vertex 19.0014 8.94136 0
      vertex 1.42658 0.463525 0
      vertex 18.4024 10.1168 0
    endloop
  endfacet
  facet normal 0 0 -1
    outer loop
      vertex 1.21352 -0.881678 0
      vertex 16.9894 -12.3435 0
      vertex 16.1808 -13.3859 0
    endloop
  endfacet
  facet normal 0 0 -1
    outer loop
      vertex 1.21352 0.881678 0
      vertex 18.4024 10.1168 0
      vertex 1.42658 0.463525 0
    endloop
  endfacet
  facet normal 0 0 -1
    outer loop
      vertex 1.21352 -0.881678 0
      vertex 16.1808 -13.3859 0
      vertex 15.3083 -14.3755 0
    endloop
  endfacet
  facet normal -0 0 -1
    outer loop
      vertex 18.4024 10.1168 0
      vertex 1.21352 0.881678 0
      vertex 17.7309 11.2524 0
    endloop
  endfacet
  facet normal 0 0 -1
    outer loop
      vertex 1.21352 -0.881678 0
      vertex 15.3083 -14.3755 0
      vertex 14.3755 -15.3083 0
    endloop
  endfacet
  facet normal -0 0 -1
    outer loop
      vertex 17.7309 11.2524 0
      vertex 1.21352 0.881678 0
      vertex 16.9894 12.3435 0
    endloop
  endfacet
  facet normal 0 0 -1
    outer loop
      vertex 0.881678 -1.21352 0
      vertex 14.3755 -15.3083 0
      vertex 13.3859 -16.1808 0
    endloop
  endfacet
  facet normal -0 0 -1
    outer loop
      vertex 16.9894 12.3435 0
      vertex 1.21352 0.881678 0
      vertex 16.1808 13.3859 0
    endloop
  endfacet
  facet normal 0 0 -1
    outer loop
      vertex 0.881678 -1.21352 0
      vertex 13.3859 -16.1808 0
      vertex 12.3435 -16.9894 0
    endloop
  endfacet
  facet normal -0 0 -1
    outer loop
      vertex 16.1808 13.3859 0
      vertex 1.21352 0.881678 0
      vertex 15.3083 14.3755 0
    endloop
  endfacet
  facet normal 0 0 -1
    outer loop
      vertex 0.881678 -1.21352 0
      vertex 12.3435 -16.9894 0
      vertex 11.2524 -17.7309 0
    endloop
  endfacet
  facet normal -0 0 -1
    outer loop
      vertex 15.3083 14.3755 0
      vertex 1.21352 0.881678 0
      vertex 14.3755 15.3083 0
    endloop
  endfacet
  facet normal 0 0 -1
    outer loop
      vertex 0.881678 -1.21352 0
      vertex 11.2524 -17.7309 0
      vertex 10.1168 -18.4024 0
    endloop
  endfacet
  facet normal 0 0 -1
    outer loop
      vertex 0.881678 1.21352 0
      vertex 14.3755 15.3083 0
      vertex 1.21352 0.881678 0
    endloop
  endfacet
  facet normal 0 0 -1
    outer loop
      vertex 0.881678 -1.21352 0
      vertex 10.1168 -18.4024 0
      vertex 8.94136 -19.0014 0
    endloop
  endfacet
  facet normal -0 0 -1
    outer loop
      vertex 14.3755 15.3083 0
      vertex 0.881678 1.21352 0
      vertex 13.3859 16.1808 0
    endloop
  endfacet
  facet normal 0 0 -1
    outer loop
      vertex 0.463525 -1.42658 0
      vertex 8.94136 -19.0014 0
      vertex 7.73061 -19.5253 0
    endloop
  endfacet
  facet normal -0 0 -1
    outer loop
      vertex 13.3859 16.1808 0
      vertex 0.881678 1.21352 0
      vertex 12.3435 16.9894 0
    endloop
  endfacet
  facet normal 0 0 -1
    outer loop
      vertex 0.463525 -1.42658 0
      vertex 7.73061 -19.5253 0
      vertex 6.48936 -19.9722 0
    endloop
  endfacet
  facet normal -0 0 -1
    outer loop
      vertex 12.3435 16.9894 0
      vertex 0.881678 1.21352 0
      vertex 11.2524 17.7309 0
    endloop
  endfacet
  facet normal 0 0 -1
    outer loop
      vertex 0.463525 -1.42658 0
      vertex 6.48936 -19.9722 0
      vertex 5.22249 -20.3402 0
    endloop
  endfacet
  facet normal -0 0 -1
    outer loop
      vertex 11.2524 17.7309 0
      vertex 0.881678 1.21352 0
      vertex 10.1168 18.4024 0
    endloop
  endfacet
  facet normal 0 0 -1
    outer loop
      vertex 0.463525 -1.42658 0
      vertex 5.22249 -20.3402 0
      vertex 3.93501 -20.628 0
    endloop
  endfacet
  facet normal -0 0 -1
    outer loop
      vertex 10.1168 18.4024 0
      vertex 0.881678 1.21352 0
      vertex 8.94136 19.0014 0
    endloop
  endfacet
  facet normal 0 0 -1
    outer loop
      vertex 0.463525 -1.42658 0
      vertex 3.93501 -20.628 0
      vertex 2.632 -20.8344 0
    endloop
  endfacet
  facet normal 0 0 -1
    outer loop
      vertex 0.463525 1.42658 0
      vertex 8.94136 19.0014 0
      vertex 0.881678 1.21352 0
    endloop
  endfacet
  facet normal -0 0 -1
    outer loop
      vertex 8.94136 19.0014 0
      vertex 0.463525 1.42658 0
      vertex 7.73061 19.5253 0
    endloop
  endfacet
  facet normal 0 0 -1
    outer loop
      vertex 20.628 -3.93501 0
      vertex 1.42658 -0.463525 0
      vertex 1.5 0 0
    endloop
  endfacet
  facet normal 0 0 -1
    outer loop
      vertex 0 -1.5 0
      vertex 2.632 -20.8344 0
      vertex 1.3186 -20.9586 0
    endloop
  endfacet
  facet normal 0 0 -1
    outer loop
      vertex 18.4024 -10.1168 0
      vertex 1.21352 -0.881678 0
      vertex 1.42658 -0.463525 0
    endloop
  endfacet
  facet normal 0 0 -1
    outer loop
      vertex 14.3755 -15.3083 0
      vertex 0.881678 -1.21352 0
      vertex 1.21352 -0.881678 0
    endloop
  endfacet
  facet normal 0 0 -1
    outer loop
      vertex 8.94136 -19.0014 0
      vertex 0.463525 -1.42658 0
      vertex 0.881678 -1.21352 0
    endloop
  endfacet
  facet normal 0 0 -1
    outer loop
      vertex 0 -1.5 0
      vertex 1.3186 -20.9586 0
      vertex 0 -21 0
    endloop
  endfacet
  facet normal 0 0 -1
    outer loop
      vertex 2.632 -20.8344 0
      vertex 0 -1.5 0
      vertex 0.463525 -1.42658 0
    endloop
  endfacet
  facet normal 0 0 -1
    outer loop
      vertex -1.3186 -20.9586 0
      vertex 0 -1.5 0
      vertex 0 -21 0
    endloop
  endfacet
  facet normal 0 0 -1
    outer loop
      vertex -2.632 -20.8344 0
      vertex 0 -1.5 0
      vertex -1.3186 -20.9586 0
    endloop
  endfacet
  facet normal -0 0 -1
    outer loop
      vertex 0 -1.5 0
      vertex -2.632 -20.8344 0
      vertex -0.463525 -1.42658 0
    endloop
  endfacet
  facet normal 0 0 -1
    outer loop
      vertex -3.93501 -20.628 0
      vertex -0.463525 -1.42658 0
      vertex -2.632 -20.8344 0
    endloop
  endfacet
  facet normal 0 0 -1
    outer loop
      vertex -5.22249 -20.3402 0
      vertex -0.463525 -1.42658 0
      vertex -3.93501 -20.628 0
    endloop
  endfacet
  facet normal 0 0 -1
    outer loop
      vertex -6.48936 -19.9722 0
      vertex -0.463525 -1.42658 0
      vertex -5.22249 -20.3402 0
    endloop
  endfacet
  facet normal 0 0 -1
    outer loop
      vertex -7.73061 -19.5253 0
      vertex -0.463525 -1.42658 0
      vertex -6.48936 -19.9722 0
    endloop
  endfacet
  facet normal -0 0 -1
    outer loop
      vertex 7.73061 19.5253 0
      vertex 0.463525 1.42658 0
      vertex 6.48936 19.9722 0
    endloop
  endfacet
  facet normal -0 0 -1
    outer loop
      vertex 6.48936 19.9722 0
      vertex 0.463525 1.42658 0
      vertex 5.22249 20.3402 0
    endloop
  endfacet
  facet normal -0 0 -1
    outer loop
      vertex 5.22249 20.3402 0
      vertex 0.463525 1.42658 0
      vertex 3.93501 20.628 0
    endloop
  endfacet
  facet normal -0 0 -1
    outer loop
      vertex 3.93501 20.628 0
      vertex 0.463525 1.42658 0
      vertex 2.632 20.8344 0
    endloop
  endfacet
  facet normal 0 0 -1
    outer loop
      vertex 0 1.5 0
      vertex 2.632 20.8344 0
      vertex 0.463525 1.42658 0
    endloop
  endfacet
  facet normal -0 0 -1
    outer loop
      vertex 2.632 20.8344 0
      vertex 0 1.5 0
      vertex 1.3186 20.9586 0
    endloop
  endfacet
  facet normal 0 0 -1
    outer loop
      vertex 0 1.5 0
      vertex 0 21 0
      vertex 1.3186 20.9586 0
    endloop
  endfacet
  facet normal 0 0 -1
    outer loop
      vertex -2.632 20.8344 0
      vertex 0 1.5 0
      vertex -0.463525 1.42658 0
    endloop
  endfacet
  facet normal 0 0 -1
    outer loop
      vertex -8.94136 19.0014 0
      vertex -0.463525 1.42658 0
      vertex -0.881678 1.21352 0
    endloop
  endfacet
  facet normal 0 0 -1
    outer loop
      vertex -14.3755 15.3083 0
      vertex -0.881678 1.21352 0
      vertex -1.21352 0.881678 0
    endloop
  endfacet
  facet normal 0 0 -1
    outer loop
      vertex 0 1.5 0
      vertex -1.3186 20.9586 0
      vertex 0 21 0
    endloop
  endfacet
  facet normal 0 0 -1
    outer loop
      vertex -18.4024 10.1168 0
      vertex -1.21352 0.881678 0
      vertex -1.42658 0.463525 0
    endloop
  endfacet
  facet normal 0 0 -1
    outer loop
      vertex -20.628 3.93501 0
      vertex -1.42658 0.463525 0
      vertex -1.5 0 0
    endloop
  endfacet
  facet normal 0 0 -1
    outer loop
      vertex -8.94136 -19.0014 0
      vertex -0.463525 -1.42658 0
      vertex -7.73061 -19.5253 0
    endloop
  endfacet
  facet normal 0 0 -1
    outer loop
      vertex 0 1.5 0
      vertex -2.632 20.8344 0
      vertex -1.3186 20.9586 0
    endloop
  endfacet
  facet normal -0 0 -1
    outer loop
      vertex -0.463525 -1.42658 0
      vertex -8.94136 -19.0014 0
      vertex -0.881678 -1.21352 0
    endloop
  endfacet
  facet normal 0 0 -1
    outer loop
      vertex -0.463525 1.42658 0
      vertex -3.93501 20.628 0
      vertex -2.632 20.8344 0
    endloop
  endfacet
  facet normal 0 0 -1
    outer loop
      vertex -10.1168 -18.4024 0
      vertex -0.881678 -1.21352 0
      vertex -8.94136 -19.0014 0
    endloop
  endfacet
  facet normal 0 0 -1
    outer loop
      vertex -0.463525 1.42658 0
      vertex -5.22249 20.3402 0
      vertex -3.93501 20.628 0
    endloop
  endfacet
  facet normal 0 0 -1
    outer loop
      vertex -11.2524 -17.7309 0
      vertex -0.881678 -1.21352 0
      vertex -10.1168 -18.4024 0
    endloop
  endfacet
  facet normal 0 0 -1
    outer loop
      vertex -0.463525 1.42658 0
      vertex -6.48936 19.9722 0
      vertex -5.22249 20.3402 0
    endloop
  endfacet
  facet normal 0 0 -1
    outer loop
      vertex -12.3435 -16.9894 0
      vertex -0.881678 -1.21352 0
      vertex -11.2524 -17.7309 0
    endloop
  endfacet
  facet normal 0 0 -1
    outer loop
      vertex -0.463525 1.42658 0
      vertex -7.73061 19.5253 0
      vertex -6.48936 19.9722 0
    endloop
  endfacet
  facet normal 0 0 -1
    outer loop
      vertex -13.3859 -16.1808 0
      vertex -0.881678 -1.21352 0
      vertex -12.3435 -16.9894 0
    endloop
  endfacet
  facet normal 0 0 -1
    outer loop
      vertex -0.463525 1.42658 0
      vertex -8.94136 19.0014 0
      vertex -7.73061 19.5253 0
    endloop
  endfacet
  facet normal 0 0 -1
    outer loop
      vertex -14.3755 -15.3083 0
      vertex -0.881678 -1.21352 0
      vertex -13.3859 -16.1808 0
    endloop
  endfacet
  facet normal 0 0 -1
    outer loop
      vertex -0.881678 1.21352 0
      vertex -10.1168 18.4024 0
      vertex -8.94136 19.0014 0
    endloop
  endfacet
  facet normal -0 0 -1
    outer loop
      vertex -0.881678 -1.21352 0
      vertex -14.3755 -15.3083 0
      vertex -1.21352 -0.881678 0
    endloop
  endfacet
  facet normal 0 0 -1
    outer loop
      vertex -0.881678 1.21352 0
      vertex -11.2524 17.7309 0
      vertex -10.1168 18.4024 0
    endloop
  endfacet
  facet normal 0 0 -1
    outer loop
      vertex -15.3083 -14.3755 0
      vertex -1.21352 -0.881678 0
      vertex -14.3755 -15.3083 0
    endloop
  endfacet
  facet normal 0 0 -1
    outer loop
      vertex -0.881678 1.21352 0
      vertex -12.3435 16.9894 0
      vertex -11.2524 17.7309 0
    endloop
  endfacet
  facet normal 0 0 -1
    outer loop
      vertex -16.1808 -13.3859 0
      vertex -1.21352 -0.881678 0
      vertex -15.3083 -14.3755 0
    endloop
  endfacet
  facet normal 0 0 -1
    outer loop
      vertex -0.881678 1.21352 0
      vertex -13.3859 16.1808 0
      vertex -12.3435 16.9894 0
    endloop
  endfacet
  facet normal 0 0 -1
    outer loop
      vertex -16.9894 -12.3435 0
      vertex -1.21352 -0.881678 0
      vertex -16.1808 -13.3859 0
    endloop
  endfacet
  facet normal 0 0 -1
    outer loop
      vertex -0.881678 1.21352 0
      vertex -14.3755 15.3083 0
      vertex -13.3859 16.1808 0
    endloop
  endfacet
  facet normal 0 0 -1
    outer loop
      vertex -17.7309 -11.2524 0
      vertex -1.21352 -0.881678 0
      vertex -16.9894 -12.3435 0
    endloop
  endfacet
  facet normal 0 0 -1
    outer loop
      vertex -1.21352 0.881678 0
      vertex -15.3083 14.3755 0
      vertex -14.3755 15.3083 0
    endloop
  endfacet
  facet normal 0 0 -1
    outer loop
      vertex -18.4024 -10.1168 0
      vertex -1.21352 -0.881678 0
      vertex -17.7309 -11.2524 0
    endloop
  endfacet
  facet normal 0 0 -1
    outer loop
      vertex -1.21352 0.881678 0
      vertex -16.1808 13.3859 0
      vertex -15.3083 14.3755 0
    endloop
  endfacet
  facet normal -0 0 -1
    outer loop
      vertex -1.21352 -0.881678 0
      vertex -18.4024 -10.1168 0
      vertex -1.42658 -0.463525 0
    endloop
  endfacet
  facet normal 0 0 -1
    outer loop
      vertex -1.21352 0.881678 0
      vertex -16.9894 12.3435 0
      vertex -16.1808 13.3859 0
    endloop
  endfacet
  facet normal 0 0 -1
    outer loop
      vertex -19.0014 -8.94136 0
      vertex -1.42658 -0.463525 0
      vertex -18.4024 -10.1168 0
    endloop
  endfacet
  facet normal 0 0 -1
    outer loop
      vertex -1.21352 0.881678 0
      vertex -17.7309 11.2524 0
      vertex -16.9894 12.3435 0
    endloop
  endfacet
  facet normal 0 0 -1
    outer loop
      vertex -19.5253 -7.73061 0
      vertex -1.42658 -0.463525 0
      vertex -19.0014 -8.94136 0
    endloop
  endfacet
  facet normal 0 0 -1
    outer loop
      vertex -1.21352 0.881678 0
      vertex -18.4024 10.1168 0
      vertex -17.7309 11.2524 0
    endloop
  endfacet
  facet normal 0 0 -1
    outer loop
      vertex -19.9722 -6.48936 0
      vertex -1.42658 -0.463525 0
      vertex -19.5253 -7.73061 0
    endloop
  endfacet
  facet normal 0 0 -1
    outer loop
      vertex -1.42658 0.463525 0
      vertex -19.0014 8.94136 0
      vertex -18.4024 10.1168 0
    endloop
  endfacet
  facet normal 0 0 -1
    outer loop
      vertex -20.3402 -5.22249 0
      vertex -1.42658 -0.463525 0
      vertex -19.9722 -6.48936 0
    endloop
  endfacet
  facet normal 0 0 -1
    outer loop
      vertex -1.42658 0.463525 0
      vertex -19.5253 7.73061 0
      vertex -19.0014 8.94136 0
    endloop
  endfacet
  facet normal 0 0 -1
    outer loop
      vertex -20.628 -3.93501 0
      vertex -1.42658 -0.463525 0
      vertex -20.3402 -5.22249 0
    endloop
  endfacet
  facet normal 0 0 -1
    outer loop
      vertex -1.42658 0.463525 0
      vertex -19.9722 6.48936 0
      vertex -19.5253 7.73061 0
    endloop
  endfacet
  facet normal -0 0 -1
    outer loop
      vertex -1.42658 -0.463525 0
      vertex -20.628 -3.93501 0
      vertex -1.5 0 0
    endloop
  endfacet
  facet normal 0 0 -1
    outer loop
      vertex -1.42658 0.463525 0
      vertex -20.3402 5.22249 0
      vertex -19.9722 6.48936 0
    endloop
  endfacet
  facet normal 0 0 -1
    outer loop
      vertex -20.8344 -2.632 0
      vertex -1.5 0 0
      vertex -20.628 -3.93501 0
    endloop
  endfacet
  facet normal 0 0 -1
    outer loop
      vertex -1.42658 0.463525 0
      vertex -20.628 3.93501 0
      vertex -20.3402 5.22249 0
    endloop
  endfacet
  facet normal 0 0 -1
    outer loop
      vertex -20.9586 -1.3186 0
      vertex -1.5 0 0
      vertex -20.8344 -2.632 0
    endloop
  endfacet
  facet normal 0 0 -1
    outer loop
      vertex -1.5 0 0
      vertex -20.8344 2.632 0
      vertex -20.628 3.93501 0
    endloop
  endfacet
  facet normal 0 0 -1
    outer loop
      vertex -21 0 0
      vertex -1.5 0 0
      vertex -20.9586 -1.3186 0
    endloop
  endfacet
  facet normal 0 0 -1
    outer loop
      vertex -1.5 0 0
      vertex -20.9586 1.3186 0
      vertex -20.8344 2.632 0
    endloop
  endfacet
  facet normal 0 0 -1
    outer loop
      vertex -1.5 0 0
      vertex -21 0 0
      vertex -20.9586 1.3186 0
    endloop
  endfacet
  facet normal 0.975914 0.218153 0
    outer loop
      vertex 20.628 3.93501 0.25
      vertex 20.3402 5.22249 0
      vertex 20.3402 5.22249 0.25
    endloop
  endfacet
  facet normal 0.975914 0.218153 0
    outer loop
      vertex 20.3402 5.22249 0
      vertex 20.628 3.93501 0.25
      vertex 20.628 3.93501 0
    endloop
  endfacet
  facet normal 0.790143 0.612922 0
    outer loop
      vertex 16.9894 12.3435 0.25
      vertex 16.1808 13.3859 0
      vertex 16.1808 13.3859 0.25
    endloop
  endfacet
  facet normal 0.790143 0.612922 0
    outer loop
      vertex 16.1808 13.3859 0
      vertex 16.9894 12.3435 0.25
      vertex 16.9894 12.3435 0
    endloop
  endfacet
  facet normal 0.827084 0.562078 0
    outer loop
      vertex 17.7309 11.2524 0.25
      vertex 16.9894 12.3435 0
      vertex 16.9894 12.3435 0.25
    endloop
  endfacet
  facet normal 0.827084 0.562078 0
    outer loop
      vertex 16.9894 12.3435 0
      vertex 17.7309 11.2524 0.25
      vertex 17.7309 11.2524 0
    endloop
  endfacet
  facet normal 0.562078 0.827084 -0
    outer loop
      vertex 12.3435 16.9894 0
      vertex 11.2524 17.7309 0.25
      vertex 12.3435 16.9894 0.25
    endloop
  endfacet
  facet normal 0.562078 0.827084 0
    outer loop
      vertex 11.2524 17.7309 0.25
      vertex 12.3435 16.9894 0
      vertex 11.2524 17.7309 0
    endloop
  endfacet
  facet normal 0.0313815 0.999507 -0
    outer loop
      vertex 1.3186 20.9586 0
      vertex 0 21 0.25
      vertex 1.3186 20.9586 0.25
    endloop
  endfacet
  facet normal 0.0313815 0.999507 0
    outer loop
      vertex 0 21 0.25
      vertex 1.3186 20.9586 0
      vertex 0 21 0
    endloop
  endfacet
  facet normal 0.50899 0.860773 -0
    outer loop
      vertex 11.2524 17.7309 0
      vertex 10.1168 18.4024 0.25
      vertex 11.2524 17.7309 0.25
    endloop
  endfacet
  facet normal 0.50899 0.860773 0
    outer loop
      vertex 10.1168 18.4024 0.25
      vertex 11.2524 17.7309 0
      vertex 10.1168 18.4024 0
    endloop
  endfacet
  facet normal 0.218153 0.975914 -0
    outer loop
      vertex 5.22249 20.3402 0
      vertex 3.93501 20.628 0.25
      vertex 5.22249 20.3402 0.25
    endloop
  endfacet
  facet normal 0.218153 0.975914 0
    outer loop
      vertex 3.93501 20.628 0.25
      vertex 5.22249 20.3402 0
      vertex 3.93501 20.628 0
    endloop
  endfacet
  facet normal -0.999507 0.0313815 0
    outer loop
      vertex -21 0 0
      vertex -20.9586 1.3186 0.25
      vertex -20.9586 1.3186 0
    endloop
  endfacet
  facet normal -0.999507 0.0313815 0
    outer loop
      vertex -20.9586 1.3186 0.25
      vertex -21 0 0
      vertex -21 0 0.25
    endloop
  endfacet
  facet normal -0.917765 0.397123 0
    outer loop
      vertex -19.5253 7.73061 0
      vertex -19.0014 8.94136 0.25
      vertex -19.0014 8.94136 0
    endloop
  endfacet
  facet normal -0.917765 0.397123 0
    outer loop
      vertex -19.0014 8.94136 0.25
      vertex -19.5253 7.73061 0
      vertex -19.5253 7.73061 0.25
    endloop
  endfacet
  facet normal -0.960306 0.278949 0
    outer loop
      vertex -20.3402 5.22249 0
      vertex -19.9722 6.48936 0.25
      vertex -19.9722 6.48936 0
    endloop
  endfacet
  facet normal -0.960306 0.278949 0
    outer loop
      vertex -19.9722 6.48936 0.25
      vertex -20.3402 5.22249 0
      vertex -20.3402 5.22249 0.25
    endloop
  endfacet
  facet normal -0.790143 0.612922 0
    outer loop
      vertex -16.9894 12.3435 0
      vertex -16.1808 13.3859 0.25
      vertex -16.1808 13.3859 0
    endloop
  endfacet
  facet normal -0.790143 0.612922 0
    outer loop
      vertex -16.1808 13.3859 0.25
      vertex -16.9894 12.3435 0
      vertex -16.9894 12.3435 0.25
    endloop
  endfacet
  facet normal -0.218153 0.975914 0
    outer loop
      vertex -3.93501 20.628 0
      vertex -5.22249 20.3402 0.25
      vertex -3.93501 20.628 0.25
    endloop
  endfacet
  facet normal -0.218153 0.975914 0
    outer loop
      vertex -5.22249 20.3402 0.25
      vertex -3.93501 20.628 0
      vertex -5.22249 20.3402 0
    endloop
  endfacet
  facet normal -0.0313815 0.999507 0
    outer loop
      vertex 0 21 0
      vertex -1.3186 20.9586 0.25
      vertex 0 21 0.25
    endloop
  endfacet
  facet normal -0.0313815 0.999507 0
    outer loop
      vertex -1.3186 20.9586 0.25
      vertex 0 21 0
      vertex -1.3186 20.9586 0
    endloop
  endfacet
  facet normal -0.50899 0.860773 0
    outer loop
      vertex -10.1168 18.4024 0
      vertex -11.2524 17.7309 0.25
      vertex -10.1168 18.4024 0.25
    endloop
  endfacet
  facet normal -0.50899 0.860773 0
    outer loop
      vertex -11.2524 17.7309 0.25
      vertex -10.1168 18.4024 0
      vertex -11.2524 17.7309 0
    endloop
  endfacet
  facet normal -0.454041 0.890981 0
    outer loop
      vertex -8.94136 19.0014 0
      vertex -10.1168 18.4024 0.25
      vertex -8.94136 19.0014 0.25
    endloop
  endfacet
  facet normal -0.454041 0.890981 0
    outer loop
      vertex -10.1168 18.4024 0.25
      vertex -8.94136 19.0014 0
      vertex -10.1168 18.4024 0
    endloop
  endfacet
  facet normal -0.661333 0.750092 0
    outer loop
      vertex -13.3859 16.1808 0
      vertex -14.3755 15.3083 0.25
      vertex -13.3859 16.1808 0.25
    endloop
  endfacet
  facet normal -0.661333 0.750092 0
    outer loop
      vertex -14.3755 15.3083 0.25
      vertex -13.3859 16.1808 0
      vertex -14.3755 15.3083 0
    endloop
  endfacet
  facet normal 0.999507 0.0313815 0
    outer loop
      vertex 21 0 0.25
      vertex 20.9586 1.3186 0
      vertex 20.9586 1.3186 0.25
    endloop
  endfacet
  facet normal 0.999507 0.0313815 0
    outer loop
      vertex 20.9586 1.3186 0
      vertex 21 0 0.25
      vertex 21 0 0
    endloop
  endfacet
  facet normal 0.612922 -0.790143 0
    outer loop
      vertex 12.3435 -16.9894 0
      vertex 13.3859 -16.1808 0.25
      vertex 12.3435 -16.9894 0.25
    endloop
  endfacet
  facet normal 0.612922 -0.790143 0
    outer loop
      vertex 13.3859 -16.1808 0.25
      vertex 12.3435 -16.9894 0
      vertex 13.3859 -16.1808 0
    endloop
  endfacet
  facet normal 0.454041 -0.890981 0
    outer loop
      vertex 8.94136 -19.0014 0
      vertex 10.1168 -18.4024 0.25
      vertex 8.94136 -19.0014 0.25
    endloop
  endfacet
  facet normal 0.454041 -0.890981 0
    outer loop
      vertex 10.1168 -18.4024 0.25
      vertex 8.94136 -19.0014 0
      vertex 10.1168 -18.4024 0
    endloop
  endfacet
  facet normal 0.860773 -0.50899 0
    outer loop
      vertex 17.7309 -11.2524 0.25
      vertex 18.4024 -10.1168 0
      vertex 18.4024 -10.1168 0.25
    endloop
  endfacet
  facet normal 0.860773 -0.50899 0
    outer loop
      vertex 18.4024 -10.1168 0
      vertex 17.7309 -11.2524 0.25
      vertex 17.7309 -11.2524 0
    endloop
  endfacet
  facet normal 0.827084 -0.562078 0
    outer loop
      vertex 16.9894 -12.3435 0.25
      vertex 17.7309 -11.2524 0
      vertex 17.7309 -11.2524 0.25
    endloop
  endfacet
  facet normal 0.827084 -0.562078 0
    outer loop
      vertex 17.7309 -11.2524 0
      vertex 16.9894 -12.3435 0.25
      vertex 16.9894 -12.3435 0
    endloop
  endfacet
  facet normal -0.0313815 -0.999507 0
    outer loop
      vertex -1.3186 -20.9586 0
      vertex 0 -21 0.25
      vertex -1.3186 -20.9586 0.25
    endloop
  endfacet
  facet normal -0.0313815 -0.999507 -0
    outer loop
      vertex 0 -21 0.25
      vertex -1.3186 -20.9586 0
      vertex 0 -21 0
    endloop
  endfacet
  facet normal -0.397123 -0.917765 0
    outer loop
      vertex -8.94136 -19.0014 0
      vertex -7.73061 -19.5253 0.25
      vertex -8.94136 -19.0014 0.25
    endloop
  endfacet
  facet normal -0.397123 -0.917765 -0
    outer loop
      vertex -7.73061 -19.5253 0.25
      vertex -8.94136 -19.0014 0
      vertex -7.73061 -19.5253 0
    endloop
  endfacet
  facet normal -0.278949 -0.960306 0
    outer loop
      vertex -6.48936 -19.9722 0
      vertex -5.22249 -20.3402 0.25
      vertex -6.48936 -19.9722 0.25
    endloop
  endfacet
  facet normal -0.278949 -0.960306 -0
    outer loop
      vertex -5.22249 -20.3402 0.25
      vertex -6.48936 -19.9722 0
      vertex -5.22249 -20.3402 0
    endloop
  endfacet
  facet normal -0.975914 -0.218153 0
    outer loop
      vertex -20.3402 -5.22249 0
      vertex -20.628 -3.93501 0.25
      vertex -20.628 -3.93501 0
    endloop
  endfacet
  facet normal -0.975914 -0.218153 0
    outer loop
      vertex -20.628 -3.93501 0.25
      vertex -20.3402 -5.22249 0
      vertex -20.3402 -5.22249 0.25
    endloop
  endfacet
  facet normal -0.940875 -0.338753 0
    outer loop
      vertex -19.5253 -7.73061 0
      vertex -19.9722 -6.48936 0.25
      vertex -19.9722 -6.48936 0
    endloop
  endfacet
  facet normal -0.940875 -0.338753 0
    outer loop
      vertex -19.9722 -6.48936 0.25
      vertex -19.5253 -7.73061 0
      vertex -19.5253 -7.73061 0.25
    endloop
  endfacet
  facet normal -0.987686 -0.156452 0
    outer loop
      vertex -20.628 -3.93501 0
      vertex -20.8344 -2.632 0.25
      vertex -20.8344 -2.632 0
    endloop
  endfacet
  facet normal -0.987686 -0.156452 0
    outer loop
      vertex -20.8344 -2.632 0.25
      vertex -20.628 -3.93501 0
      vertex -20.628 -3.93501 0.25
    endloop
  endfacet
  facet normal -0.999507 -0.0313815 0
    outer loop
      vertex -20.9586 -1.3186 0
      vertex -21 0 0.25
      vertex -21 0 0
    endloop
  endfacet
  facet normal -0.999507 -0.0313815 0
    outer loop
      vertex -21 0 0.25
      vertex -20.9586 -1.3186 0
      vertex -20.9586 -1.3186 0.25
    endloop
  endfacet
  facet normal -0.917765 -0.397123 0
    outer loop
      vertex -19.0014 -8.94136 0
      vertex -19.5253 -7.73061 0.25
      vertex -19.5253 -7.73061 0
    endloop
  endfacet
  facet normal -0.917765 -0.397123 0
    outer loop
      vertex -19.5253 -7.73061 0.25
      vertex -19.0014 -8.94136 0
      vertex -19.0014 -8.94136 0.25
    endloop
  endfacet
  facet normal 0.987686 0.156452 0
    outer loop
      vertex 20.8344 2.632 0.25
      vertex 20.628 3.93501 0
      vertex 20.628 3.93501 0.25
    endloop
  endfacet
  facet normal 0.987686 0.156452 0
    outer loop
      vertex 20.628 3.93501 0
      vertex 20.8344 2.632 0.25
      vertex 20.8344 2.632 0
    endloop
  endfacet
  facet normal 0.995559 0.0941437 0
    outer loop
      vertex 20.9586 1.3186 0.25
      vertex 20.8344 2.632 0
      vertex 20.8344 2.632 0.25
    endloop
  endfacet
  facet normal 0.995559 0.0941437 0
    outer loop
      vertex 20.8344 2.632 0
      vertex 20.9586 1.3186 0.25
      vertex 20.9586 1.3186 0
    endloop
  endfacet
  facet normal 0.940875 0.338753 0
    outer loop
      vertex 19.9722 6.48936 0.25
      vertex 19.5253 7.73061 0
      vertex 19.5253 7.73061 0.25
    endloop
  endfacet
  facet normal 0.940875 0.338753 0
    outer loop
      vertex 19.5253 7.73061 0
      vertex 19.9722 6.48936 0.25
      vertex 19.9722 6.48936 0
    endloop
  endfacet
  facet normal 0.960306 0.278949 0
    outer loop
      vertex 20.3402 5.22249 0.25
      vertex 19.9722 6.48936 0
      vertex 19.9722 6.48936 0.25
    endloop
  endfacet
  facet normal 0.960306 0.278949 0
    outer loop
      vertex 19.9722 6.48936 0
      vertex 20.3402 5.22249 0.25
      vertex 20.3402 5.22249 0
    endloop
  endfacet
  facet normal 0.860773 0.50899 0
    outer loop
      vertex 18.4024 10.1168 0.25
      vertex 17.7309 11.2524 0
      vertex 17.7309 11.2524 0.25
    endloop
  endfacet
  facet normal 0.860773 0.50899 0
    outer loop
      vertex 17.7309 11.2524 0
      vertex 18.4024 10.1168 0.25
      vertex 18.4024 10.1168 0
    endloop
  endfacet
  facet normal 0.750092 0.661333 0
    outer loop
      vertex 16.1808 13.3859 0.25
      vertex 15.3083 14.3755 0
      vertex 15.3083 14.3755 0.25
    endloop
  endfacet
  facet normal 0.750092 0.661333 0
    outer loop
      vertex 15.3083 14.3755 0
      vertex 16.1808 13.3859 0.25
      vertex 16.1808 13.3859 0
    endloop
  endfacet
  facet normal 0.707107 0.707107 0
    outer loop
      vertex 15.3083 14.3755 0.25
      vertex 14.3755 15.3083 0
      vertex 14.3755 15.3083 0.25
    endloop
  endfacet
  facet normal 0.707107 0.707107 0
    outer loop
      vertex 14.3755 15.3083 0
      vertex 15.3083 14.3755 0.25
      vertex 15.3083 14.3755 0
    endloop
  endfacet
  facet normal 0.612922 0.790143 -0
    outer loop
      vertex 13.3859 16.1808 0
      vertex 12.3435 16.9894 0.25
      vertex 13.3859 16.1808 0.25
    endloop
  endfacet
  facet normal 0.612922 0.790143 0
    outer loop
      vertex 12.3435 16.9894 0.25
      vertex 13.3859 16.1808 0
      vertex 12.3435 16.9894 0
    endloop
  endfacet
  facet normal 0.454041 0.890981 -0
    outer loop
      vertex 10.1168 18.4024 0
      vertex 8.94136 19.0014 0.25
      vertex 10.1168 18.4024 0.25
    endloop
  endfacet
  facet normal 0.454041 0.890981 0
    outer loop
      vertex 8.94136 19.0014 0.25
      vertex 10.1168 18.4024 0
      vertex 8.94136 19.0014 0
    endloop
  endfacet
  facet normal 0.278949 0.960306 -0
    outer loop
      vertex 6.48936 19.9722 0
      vertex 5.22249 20.3402 0.25
      vertex 6.48936 19.9722 0.25
    endloop
  endfacet
  facet normal 0.278949 0.960306 0
    outer loop
      vertex 5.22249 20.3402 0.25
      vertex 6.48936 19.9722 0
      vertex 5.22249 20.3402 0
    endloop
  endfacet
  facet normal 0.338753 0.940875 -0
    outer loop
      vertex 7.73061 19.5253 0
      vertex 6.48936 19.9722 0.25
      vertex 7.73061 19.5253 0.25
    endloop
  endfacet
  facet normal 0.338753 0.940875 0
    outer loop
      vertex 6.48936 19.9722 0.25
      vertex 7.73061 19.5253 0
      vertex 6.48936 19.9722 0
    endloop
  endfacet
  facet normal 0.156452 0.987686 -0
    outer loop
      vertex 3.93501 20.628 0
      vertex 2.632 20.8344 0.25
      vertex 3.93501 20.628 0.25
    endloop
  endfacet
  facet normal 0.156452 0.987686 0
    outer loop
      vertex 2.632 20.8344 0.25
      vertex 3.93501 20.628 0
      vertex 2.632 20.8344 0
    endloop
  endfacet
  facet normal 0.0941437 0.995559 -0
    outer loop
      vertex 2.632 20.8344 0
      vertex 1.3186 20.9586 0.25
      vertex 2.632 20.8344 0.25
    endloop
  endfacet
  facet normal 0.0941437 0.995559 0
    outer loop
      vertex 1.3186 20.9586 0.25
      vertex 2.632 20.8344 0
      vertex 1.3186 20.9586 0
    endloop
  endfacet
  facet normal -0.987686 0.156452 0
    outer loop
      vertex -20.8344 2.632 0
      vertex -20.628 3.93501 0.25
      vertex -20.628 3.93501 0
    endloop
  endfacet
  facet normal -0.987686 0.156452 0
    outer loop
      vertex -20.628 3.93501 0.25
      vertex -20.8344 2.632 0
      vertex -20.8344 2.632 0.25
    endloop
  endfacet
  facet normal -0.975914 0.218153 0
    outer loop
      vertex -20.628 3.93501 0
      vertex -20.3402 5.22249 0.25
      vertex -20.3402 5.22249 0
    endloop
  endfacet
  facet normal -0.975914 0.218153 0
    outer loop
      vertex -20.3402 5.22249 0.25
      vertex -20.628 3.93501 0
      vertex -20.628 3.93501 0.25
    endloop
  endfacet
  facet normal -0.995559 0.0941437 0
    outer loop
      vertex -20.9586 1.3186 0
      vertex -20.8344 2.632 0.25
      vertex -20.8344 2.632 0
    endloop
  endfacet
  facet normal -0.995559 0.0941437 0
    outer loop
      vertex -20.8344 2.632 0.25
      vertex -20.9586 1.3186 0
      vertex -20.9586 1.3186 0.25
    endloop
  endfacet
  facet normal 0 0 1
    outer loop
      vertex 1.5 0 0.25
      vertex 21 0 0.25
      vertex 20.9586 1.3186 0.25
    endloop
  endfacet
  facet normal 0 0 1
    outer loop
      vertex 1.5 0 0.25
      vertex 20.9586 1.3186 0.25
      vertex 20.8344 2.632 0.25
    endloop
  endfacet
  facet normal 0 0 1
    outer loop
      vertex 21 0 0.25
      vertex 1.5 0 0.25
      vertex 20.9586 -1.3186 0.25
    endloop
  endfacet
  facet normal 0 0 1
    outer loop
      vertex 1.5 0 0.25
      vertex 20.8344 2.632 0.25
      vertex 20.628 3.93501 0.25
    endloop
  endfacet
  facet normal 0 0 1
    outer loop
      vertex 20.9586 -1.3186 0.25
      vertex 1.5 0 0.25
      vertex 20.8344 -2.632 0.25
    endloop
  endfacet
  facet normal 0 0 1
    outer loop
      vertex 1.42658 0.463525 0.25
      vertex 20.628 3.93501 0.25
      vertex 20.3402 5.22249 0.25
    endloop
  endfacet
  facet normal 0 0 1
    outer loop
      vertex 20.8344 -2.632 0.25
      vertex 1.5 0 0.25
      vertex 20.628 -3.93501 0.25
    endloop
  endfacet
  facet normal 0 0 1
    outer loop
      vertex 1.42658 0.463525 0.25
      vertex 20.3402 5.22249 0.25
      vertex 19.9722 6.48936 0.25
    endloop
  endfacet
  facet normal -0 0 1
    outer loop
      vertex 1.42658 -0.463525 0.25
      vertex 20.628 -3.93501 0.25
      vertex 1.5 0 0.25
    endloop
  endfacet
  facet normal 0 0 1
    outer loop
      vertex 1.42658 0.463525 0.25
      vertex 19.9722 6.48936 0.25
      vertex 19.5253 7.73061 0.25
    endloop
  endfacet
  facet normal 0 0 1
    outer loop
      vertex 20.628 -3.93501 0.25
      vertex 1.42658 -0.463525 0.25
      vertex 20.3402 -5.22249 0.25
    endloop
  endfacet
  facet normal 0 0 1
    outer loop
      vertex 1.42658 0.463525 0.25
      vertex 19.5253 7.73061 0.25
      vertex 19.0014 8.94136 0.25
    endloop
  endfacet
  facet normal 0 0 1
    outer loop
      vertex 20.3402 -5.22249 0.25
      vertex 1.42658 -0.463525 0.25
      vertex 19.9722 -6.48936 0.25
    endloop
  endfacet
  facet normal 0 0 1
    outer loop
      vertex 1.42658 0.463525 0.25
      vertex 19.0014 8.94136 0.25
      vertex 18.4024 10.1168 0.25
    endloop
  endfacet
  facet normal 0 0 1
    outer loop
      vertex 19.9722 -6.48936 0.25
      vertex 1.42658 -0.463525 0.25
      vertex 19.5253 -7.73061 0.25
    endloop
  endfacet
  facet normal 0 0 1
    outer loop
      vertex 1.21352 0.881678 0.25
      vertex 18.4024 10.1168 0.25
      vertex 17.7309 11.2524 0.25
    endloop
  endfacet
  facet normal 0 0 1
    outer loop
      vertex 19.5253 -7.73061 0.25
      vertex 1.42658 -0.463525 0.25
      vertex 19.0014 -8.94136 0.25
    endloop
  endfacet
  facet normal 0 0 1
    outer loop
      vertex 1.21352 0.881678 0.25
      vertex 17.7309 11.2524 0.25
      vertex 16.9894 12.3435 0.25
    endloop
  endfacet
  facet normal 0 0 1
    outer loop
      vertex 19.0014 -8.94136 0.25
      vertex 1.42658 -0.463525 0.25
      vertex 18.4024 -10.1168 0.25
    endloop
  endfacet
  facet normal 0 0 1
    outer loop
      vertex 1.21352 0.881678 0.25
      vertex 16.9894 12.3435 0.25
      vertex 16.1808 13.3859 0.25
    endloop
  endfacet
  facet normal -0 0 1
    outer loop
      vertex 1.21352 -0.881678 0.25
      vertex 18.4024 -10.1168 0.25
      vertex 1.42658 -0.463525 0.25
    endloop
  endfacet
  facet normal 0 0 1
    outer loop
      vertex 1.21352 0.881678 0.25
      vertex 16.1808 13.3859 0.25
      vertex 15.3083 14.3755 0.25
    endloop
  endfacet
  facet normal 0 0 1
    outer loop
      vertex 18.4024 -10.1168 0.25
      vertex 1.21352 -0.881678 0.25
      vertex 17.7309 -11.2524 0.25
    endloop
  endfacet
  facet normal 0 0 1
    outer loop
      vertex 1.21352 0.881678 0.25
      vertex 15.3083 14.3755 0.25
      vertex 14.3755 15.3083 0.25
    endloop
  endfacet
  facet normal 0 0 1
    outer loop
      vertex 17.7309 -11.2524 0.25
      vertex 1.21352 -0.881678 0.25
      vertex 16.9894 -12.3435 0.25
    endloop
  endfacet
  facet normal 0 0 1
    outer loop
      vertex 0.881678 1.21352 0.25
      vertex 14.3755 15.3083 0.25
      vertex 13.3859 16.1808 0.25
    endloop
  endfacet
  facet normal 0 0 1
    outer loop
      vertex 16.9894 -12.3435 0.25
      vertex 1.21352 -0.881678 0.25
      vertex 16.1808 -13.3859 0.25
    endloop
  endfacet
  facet normal 0 0 1
    outer loop
      vertex 0.881678 1.21352 0.25
      vertex 13.3859 16.1808 0.25
      vertex 12.3435 16.9894 0.25
    endloop
  endfacet
  facet normal 0 0 1
    outer loop
      vertex 16.1808 -13.3859 0.25
      vertex 1.21352 -0.881678 0.25
      vertex 15.3083 -14.3755 0.25
    endloop
  endfacet
  facet normal 0 0 1
    outer loop
      vertex 0.881678 1.21352 0.25
      vertex 12.3435 16.9894 0.25
      vertex 11.2524 17.7309 0.25
    endloop
  endfacet
  facet normal 0 0 1
    outer loop
      vertex 15.3083 -14.3755 0.25
      vertex 1.21352 -0.881678 0.25
      vertex 14.3755 -15.3083 0.25
    endloop
  endfacet
  facet normal 0 0 1
    outer loop
      vertex 0.881678 1.21352 0.25
      vertex 11.2524 17.7309 0.25
      vertex 10.1168 18.4024 0.25
    endloop
  endfacet
  facet normal -0 0 1
    outer loop
      vertex 0.881678 -1.21352 0.25
      vertex 14.3755 -15.3083 0.25
      vertex 1.21352 -0.881678 0.25
    endloop
  endfacet
  facet normal 0 0 1
    outer loop
      vertex 0.881678 1.21352 0.25
      vertex 10.1168 18.4024 0.25
      vertex 8.94136 19.0014 0.25
    endloop
  endfacet
  facet normal 0 0 1
    outer loop
      vertex 14.3755 -15.3083 0.25
      vertex 0.881678 -1.21352 0.25
      vertex 13.3859 -16.1808 0.25
    endloop
  endfacet
  facet normal 0 0 1
    outer loop
      vertex 0.463525 1.42658 0.25
      vertex 8.94136 19.0014 0.25
      vertex 7.73061 19.5253 0.25
    endloop
  endfacet
  facet normal 0 0 1
    outer loop
      vertex 13.3859 -16.1808 0.25
      vertex 0.881678 -1.21352 0.25
      vertex 12.3435 -16.9894 0.25
    endloop
  endfacet
  facet normal 0 0 1
    outer loop
      vertex 0.463525 1.42658 0.25
      vertex 7.73061 19.5253 0.25
      vertex 6.48936 19.9722 0.25
    endloop
  endfacet
  facet normal 0 0 1
    outer loop
      vertex 12.3435 -16.9894 0.25
      vertex 0.881678 -1.21352 0.25
      vertex 11.2524 -17.7309 0.25
    endloop
  endfacet
  facet normal 0 0 1
    outer loop
      vertex 0.463525 1.42658 0.25
      vertex 6.48936 19.9722 0.25
      vertex 5.22249 20.3402 0.25
    endloop
  endfacet
  facet normal 0 0 1
    outer loop
      vertex 11.2524 -17.7309 0.25
      vertex 0.881678 -1.21352 0.25
      vertex 10.1168 -18.4024 0.25
    endloop
  endfacet
  facet normal 0 0 1
    outer loop
      vertex 0.463525 1.42658 0.25
      vertex 5.22249 20.3402 0.25
      vertex 3.93501 20.628 0.25
    endloop
  endfacet
  facet normal 0 0 1
    outer loop
      vertex 10.1168 -18.4024 0.25
      vertex 0.881678 -1.21352 0.25
      vertex 8.94136 -19.0014 0.25
    endloop
  endfacet
  facet normal 0 0 1
    outer loop
      vertex 0.463525 1.42658 0.25
      vertex 3.93501 20.628 0.25
      vertex 2.632 20.8344 0.25
    endloop
  endfacet
  facet normal -0 0 1
    outer loop
      vertex 0.463525 -1.42658 0.25
      vertex 8.94136 -19.0014 0.25
      vertex 0.881678 -1.21352 0.25
    endloop
  endfacet
  facet normal 0 0 1
    outer loop
      vertex 8.94136 -19.0014 0.25
      vertex 0.463525 -1.42658 0.25
      vertex 7.73061 -19.5253 0.25
    endloop
  endfacet
  facet normal 0 0 1
    outer loop
      vertex 20.628 3.93501 0.25
      vertex 1.42658 0.463525 0.25
      vertex 1.5 0 0.25
    endloop
  endfacet
  facet normal 0 0 1
    outer loop
      vertex 0 1.5 0.25
      vertex 2.632 20.8344 0.25
      vertex 1.3186 20.9586 0.25
    endloop
  endfacet
  facet normal 0 0 1
    outer loop
      vertex 18.4024 10.1168 0.25
      vertex 1.21352 0.881678 0.25
      vertex 1.42658 0.463525 0.25
    endloop
  endfacet
  facet normal 0 0 1
    outer loop
      vertex 14.3755 15.3083 0.25
      vertex 0.881678 1.21352 0.25
      vertex 1.21352 0.881678 0.25
    endloop
  endfacet
  facet normal 0 0 1
    outer loop
      vertex 8.94136 19.0014 0.25
      vertex 0.463525 1.42658 0.25
      vertex 0.881678 1.21352 0.25
    endloop
  endfacet
  facet normal 0 0 1
    outer loop
      vertex 0 1.5 0.25
      vertex 1.3186 20.9586 0.25
      vertex 0 21 0.25
    endloop
  endfacet
  facet normal 0 0 1
    outer loop
      vertex 2.632 20.8344 0.25
      vertex 0 1.5 0.25
      vertex 0.463525 1.42658 0.25
    endloop
  endfacet
  facet normal -0 0 1
    outer loop
      vertex -1.3186 20.9586 0.25
      vertex 0 1.5 0.25
      vertex 0 21 0.25
    endloop
  endfacet
  facet normal -0 0 1
    outer loop
      vertex -2.632 20.8344 0.25
      vertex 0 1.5 0.25
      vertex -1.3186 20.9586 0.25
    endloop
  endfacet
  facet normal 0 0 1
    outer loop
      vertex 0 1.5 0.25
      vertex -2.632 20.8344 0.25
      vertex -0.463525 1.42658 0.25
    endloop
  endfacet
  facet normal -0 0 1
    outer loop
      vertex -3.93501 20.628 0.25
      vertex -0.463525 1.42658 0.25
      vertex -2.632 20.8344 0.25
    endloop
  endfacet
  facet normal -0 0 1
    outer loop
      vertex -5.22249 20.3402 0.25
      vertex -0.463525 1.42658 0.25
      vertex -3.93501 20.628 0.25
    endloop
  endfacet
  facet normal -0 0 1
    outer loop
      vertex -6.48936 19.9722 0.25
      vertex -0.463525 1.42658 0.25
      vertex -5.22249 20.3402 0.25
    endloop
  endfacet
  facet normal -0 0 1
    outer loop
      vertex -7.73061 19.5253 0.25
      vertex -0.463525 1.42658 0.25
      vertex -6.48936 19.9722 0.25
    endloop
  endfacet
  facet normal 0 0 1
    outer loop
      vertex 7.73061 -19.5253 0.25
      vertex 0.463525 -1.42658 0.25
      vertex 6.48936 -19.9722 0.25
    endloop
  endfacet
  facet normal 0 0 1
    outer loop
      vertex 6.48936 -19.9722 0.25
      vertex 0.463525 -1.42658 0.25
      vertex 5.22249 -20.3402 0.25
    endloop
  endfacet
  facet normal 0 0 1
    outer loop
      vertex 5.22249 -20.3402 0.25
      vertex 0.463525 -1.42658 0.25
      vertex 3.93501 -20.628 0.25
    endloop
  endfacet
  facet normal 0 0 1
    outer loop
      vertex 3.93501 -20.628 0.25
      vertex 0.463525 -1.42658 0.25
      vertex 2.632 -20.8344 0.25
    endloop
  endfacet
  facet normal -0 0 1
    outer loop
      vertex 0 -1.5 0.25
      vertex 2.632 -20.8344 0.25
      vertex 0.463525 -1.42658 0.25
    endloop
  endfacet
  facet normal 0 0 1
    outer loop
      vertex 2.632 -20.8344 0.25
      vertex 0 -1.5 0.25
      vertex 1.3186 -20.9586 0.25
    endloop
  endfacet
  facet normal 0 0 1
    outer loop
      vertex 0 -1.5 0.25
      vertex 0 -21 0.25
      vertex 1.3186 -20.9586 0.25
    endloop
  endfacet
  facet normal 0 0 1
    outer loop
      vertex -2.632 -20.8344 0.25
      vertex 0 -1.5 0.25
      vertex -0.463525 -1.42658 0.25
    endloop
  endfacet
  facet normal 0 0 1
    outer loop
      vertex -8.94136 -19.0014 0.25
      vertex -0.463525 -1.42658 0.25
      vertex -0.881678 -1.21352 0.25
    endloop
  endfacet
  facet normal 0 0 1
    outer loop
      vertex -14.3755 -15.3083 0.25
      vertex -0.881678 -1.21352 0.25
      vertex -1.21352 -0.881678 0.25
    endloop
  endfacet
  facet normal 0 0 1
    outer loop
      vertex 0 -1.5 0.25
      vertex -1.3186 -20.9586 0.25
      vertex 0 -21 0.25
    endloop
  endfacet
  facet normal 0 0 1
    outer loop
      vertex -18.4024 -10.1168 0.25
      vertex -1.21352 -0.881678 0.25
      vertex -1.42658 -0.463525 0.25
    endloop
  endfacet
  facet normal 0 0 1
    outer loop
      vertex -20.628 -3.93501 0.25
      vertex -1.42658 -0.463525 0.25
      vertex -1.5 0 0.25
    endloop
  endfacet
  facet normal -0 0 1
    outer loop
      vertex -8.94136 19.0014 0.25
      vertex -0.463525 1.42658 0.25
      vertex -7.73061 19.5253 0.25
    endloop
  endfacet
  facet normal 0 0 1
    outer loop
      vertex 0 -1.5 0.25
      vertex -2.632 -20.8344 0.25
      vertex -1.3186 -20.9586 0.25
    endloop
  endfacet
  facet normal 0 0 1
    outer loop
      vertex -0.463525 1.42658 0.25
      vertex -8.94136 19.0014 0.25
      vertex -0.881678 1.21352 0.25
    endloop
  endfacet
  facet normal 0 0 1
    outer loop
      vertex -0.463525 -1.42658 0.25
      vertex -3.93501 -20.628 0.25
      vertex -2.632 -20.8344 0.25
    endloop
  endfacet
  facet normal -0 0 1
    outer loop
      vertex -10.1168 18.4024 0.25
      vertex -0.881678 1.21352 0.25
      vertex -8.94136 19.0014 0.25
    endloop
  endfacet
  facet normal 0 0 1
    outer loop
      vertex -0.463525 -1.42658 0.25
      vertex -5.22249 -20.3402 0.25
      vertex -3.93501 -20.628 0.25
    endloop
  endfacet
  facet normal -0 0 1
    outer loop
      vertex -11.2524 17.7309 0.25
      vertex -0.881678 1.21352 0.25
      vertex -10.1168 18.4024 0.25
    endloop
  endfacet
  facet normal 0 0 1
    outer loop
      vertex -0.463525 -1.42658 0.25
      vertex -6.48936 -19.9722 0.25
      vertex -5.22249 -20.3402 0.25
    endloop
  endfacet
  facet normal -0 0 1
    outer loop
      vertex -12.3435 16.9894 0.25
      vertex -0.881678 1.21352 0.25
      vertex -11.2524 17.7309 0.25
    endloop
  endfacet
  facet normal 0 0 1
    outer loop
      vertex -0.463525 -1.42658 0.25
      vertex -7.73061 -19.5253 0.25
      vertex -6.48936 -19.9722 0.25
    endloop
  endfacet
  facet normal -0 0 1
    outer loop
      vertex -13.3859 16.1808 0.25
      vertex -0.881678 1.21352 0.25
      vertex -12.3435 16.9894 0.25
    endloop
  endfacet
  facet normal 0 0 1
    outer loop
      vertex -0.463525 -1.42658 0.25
      vertex -8.94136 -19.0014 0.25
      vertex -7.73061 -19.5253 0.25
    endloop
  endfacet
  facet normal -0 0 1
    outer loop
      vertex -14.3755 15.3083 0.25
      vertex -0.881678 1.21352 0.25
      vertex -13.3859 16.1808 0.25
    endloop
  endfacet
  facet normal 0 0 1
    outer loop
      vertex -0.881678 -1.21352 0.25
      vertex -10.1168 -18.4024 0.25
      vertex -8.94136 -19.0014 0.25
    endloop
  endfacet
  facet normal 0 0 1
    outer loop
      vertex -0.881678 1.21352 0.25
      vertex -14.3755 15.3083 0.25
      vertex -1.21352 0.881678 0.25
    endloop
  endfacet
  facet normal 0 0 1
    outer loop
      vertex -0.881678 -1.21352 0.25
      vertex -11.2524 -17.7309 0.25
      vertex -10.1168 -18.4024 0.25
    endloop
  endfacet
  facet normal -0 0 1
    outer loop
      vertex -15.3083 14.3755 0.25
      vertex -1.21352 0.881678 0.25
      vertex -14.3755 15.3083 0.25
    endloop
  endfacet
  facet normal 0 0 1
    outer loop
      vertex -0.881678 -1.21352 0.25
      vertex -12.3435 -16.9894 0.25
      vertex -11.2524 -17.7309 0.25
    endloop
  endfacet
  facet normal -0 0 1
    outer loop
      vertex -16.1808 13.3859 0.25
      vertex -1.21352 0.881678 0.25
      vertex -15.3083 14.3755 0.25
    endloop
  endfacet
  facet normal 0 0 1
    outer loop
      vertex -0.881678 -1.21352 0.25
      vertex -13.3859 -16.1808 0.25
      vertex -12.3435 -16.9894 0.25
    endloop
  endfacet
  facet normal -0 0 1
    outer loop
      vertex -16.9894 12.3435 0.25
      vertex -1.21352 0.881678 0.25
      vertex -16.1808 13.3859 0.25
    endloop
  endfacet
  facet normal 0 0 1
    outer loop
      vertex -0.881678 -1.21352 0.25
      vertex -14.3755 -15.3083 0.25
      vertex -13.3859 -16.1808 0.25
    endloop
  endfacet
  facet normal -0 0 1
    outer loop
      vertex -17.7309 11.2524 0.25
      vertex -1.21352 0.881678 0.25
      vertex -16.9894 12.3435 0.25
    endloop
  endfacet
  facet normal 0 0 1
    outer loop
      vertex -1.21352 -0.881678 0.25
      vertex -15.3083 -14.3755 0.25
      vertex -14.3755 -15.3083 0.25
    endloop
  endfacet
  facet normal -0 0 1
    outer loop
      vertex -18.4024 10.1168 0.25
      vertex -1.21352 0.881678 0.25
      vertex -17.7309 11.2524 0.25
    endloop
  endfacet
  facet normal 0 0 1
    outer loop
      vertex -1.21352 -0.881678 0.25
      vertex -16.1808 -13.3859 0.25
      vertex -15.3083 -14.3755 0.25
    endloop
  endfacet
  facet normal 0 0 1
    outer loop
      vertex -1.21352 0.881678 0.25
      vertex -18.4024 10.1168 0.25
      vertex -1.42658 0.463525 0.25
    endloop
  endfacet
  facet normal 0 0 1
    outer loop
      vertex -1.21352 -0.881678 0.25
      vertex -16.9894 -12.3435 0.25
      vertex -16.1808 -13.3859 0.25
    endloop
  endfacet
  facet normal -0 0 1
    outer loop
      vertex -19.0014 8.94136 0.25
      vertex -1.42658 0.463525 0.25
      vertex -18.4024 10.1168 0.25
    endloop
  endfacet
  facet normal 0 0 1
    outer loop
      vertex -1.21352 -0.881678 0.25
      vertex -17.7309 -11.2524 0.25
      vertex -16.9894 -12.3435 0.25
    endloop
  endfacet
  facet normal -0 0 1
    outer loop
      vertex -19.5253 7.73061 0.25
      vertex -1.42658 0.463525 0.25
      vertex -19.0014 8.94136 0.25
    endloop
  endfacet
  facet normal 0 0 1
    outer loop
      vertex -1.21352 -0.881678 0.25
      vertex -18.4024 -10.1168 0.25
      vertex -17.7309 -11.2524 0.25
    endloop
  endfacet
  facet normal -0 0 1
    outer loop
      vertex -19.9722 6.48936 0.25
      vertex -1.42658 0.463525 0.25
      vertex -19.5253 7.73061 0.25
    endloop
  endfacet
  facet normal 0 0 1
    outer loop
      vertex -1.42658 -0.463525 0.25
      vertex -19.0014 -8.94136 0.25
      vertex -18.4024 -10.1168 0.25
    endloop
  endfacet
  facet normal -0 0 1
    outer loop
      vertex -20.3402 5.22249 0.25
      vertex -1.42658 0.463525 0.25
      vertex -19.9722 6.48936 0.25
    endloop
  endfacet
  facet normal 0 0 1
    outer loop
      vertex -1.42658 -0.463525 0.25
      vertex -19.5253 -7.73061 0.25
      vertex -19.0014 -8.94136 0.25
    endloop
  endfacet
  facet normal -0 0 1
    outer loop
      vertex -20.628 3.93501 0.25
      vertex -1.42658 0.463525 0.25
      vertex -20.3402 5.22249 0.25
    endloop
  endfacet
  facet normal 0 0 1
    outer loop
      vertex -1.42658 -0.463525 0.25
      vertex -19.9722 -6.48936 0.25
      vertex -19.5253 -7.73061 0.25
    endloop
  endfacet
  facet normal 0 0 1
    outer loop
      vertex -1.42658 0.463525 0.25
      vertex -20.628 3.93501 0.25
      vertex -1.5 0 0.25
    endloop
  endfacet
  facet normal 0 0 1
    outer loop
      vertex -1.42658 -0.463525 0.25
      vertex -20.3402 -5.22249 0.25
      vertex -19.9722 -6.48936 0.25
    endloop
  endfacet
  facet normal -0 0 1
    outer loop
      vertex -20.8344 2.632 0.25
      vertex -1.5 0 0.25
      vertex -20.628 3.93501 0.25
    endloop
  endfacet
  facet normal 0 0 1
    outer loop
      vertex -1.42658 -0.463525 0.25
      vertex -20.628 -3.93501 0.25
      vertex -20.3402 -5.22249 0.25
    endloop
  endfacet
  facet normal -0 0 1
    outer loop
      vertex -20.9586 1.3186 0.25
      vertex -1.5 0 0.25
      vertex -20.8344 2.632 0.25
    endloop
  endfacet
  facet normal 0 0 1
    outer loop
      vertex -1.5 0 0.25
      vertex -20.8344 -2.632 0.25
      vertex -20.628 -3.93501 0.25
    endloop
  endfacet
  facet normal 0 0 1
    outer loop
      vertex -21 0 0.25
      vertex -1.5 0 0.25
      vertex -20.9586 1.3186 0.25
    endloop
  endfacet
  facet normal 0 0 1
    outer loop
      vertex -1.5 0 0.25
      vertex -20.9586 -1.3186 0.25
      vertex -20.8344 -2.632 0.25
    endloop
  endfacet
  facet normal 0 0 1
    outer loop
      vertex -1.5 0 0.25
      vertex -21 0 0.25
      vertex -20.9586 -1.3186 0.25
    endloop
  endfacet
  facet normal -0.940875 0.338753 0
    outer loop
      vertex -19.9722 6.48936 0
      vertex -19.5253 7.73061 0.25
      vertex -19.5253 7.73061 0
    endloop
  endfacet
  facet normal -0.940875 0.338753 0
    outer loop
      vertex -19.5253 7.73061 0.25
      vertex -19.9722 6.48936 0
      vertex -19.9722 6.48936 0.25
    endloop
  endfacet
  facet normal -0.827084 0.562078 0
    outer loop
      vertex -17.7309 11.2524 0
      vertex -16.9894 12.3435 0.25
      vertex -16.9894 12.3435 0
    endloop
  endfacet
  facet normal -0.827084 0.562078 0
    outer loop
      vertex -16.9894 12.3435 0.25
      vertex -17.7309 11.2524 0
      vertex -17.7309 11.2524 0.25
    endloop
  endfacet
  facet normal -0.860773 0.50899 0
    outer loop
      vertex -18.4024 10.1168 0
      vertex -17.7309 11.2524 0.25
      vertex -17.7309 11.2524 0
    endloop
  endfacet
  facet normal -0.860773 0.50899 0
    outer loop
      vertex -17.7309 11.2524 0.25
      vertex -18.4024 10.1168 0
      vertex -18.4024 10.1168 0.25
    endloop
  endfacet
  facet normal -0.750092 0.661333 0
    outer loop
      vertex -16.1808 13.3859 0
      vertex -15.3083 14.3755 0.25
      vertex -15.3083 14.3755 0
    endloop
  endfacet
  facet normal -0.750092 0.661333 0
    outer loop
      vertex -15.3083 14.3755 0.25
      vertex -16.1808 13.3859 0
      vertex -16.1808 13.3859 0.25
    endloop
  endfacet
  facet normal -0.278949 0.960306 0
    outer loop
      vertex -5.22249 20.3402 0
      vertex -6.48936 19.9722 0.25
      vertex -5.22249 20.3402 0.25
    endloop
  endfacet
  facet normal -0.278949 0.960306 0
    outer loop
      vertex -6.48936 19.9722 0.25
      vertex -5.22249 20.3402 0
      vertex -6.48936 19.9722 0
    endloop
  endfacet
  facet normal -0.0941437 0.995559 0
    outer loop
      vertex -1.3186 20.9586 0
      vertex -2.632 20.8344 0.25
      vertex -1.3186 20.9586 0.25
    endloop
  endfacet
  facet normal -0.0941437 0.995559 0
    outer loop
      vertex -2.632 20.8344 0.25
      vertex -1.3186 20.9586 0
      vertex -2.632 20.8344 0
    endloop
  endfacet
  facet normal -0.397123 0.917765 0
    outer loop
      vertex -7.73061 19.5253 0
      vertex -8.94136 19.0014 0.25
      vertex -7.73061 19.5253 0.25
    endloop
  endfacet
  facet normal -0.397123 0.917765 0
    outer loop
      vertex -8.94136 19.0014 0.25
      vertex -7.73061 19.5253 0
      vertex -8.94136 19.0014 0
    endloop
  endfacet
  facet normal -0.612922 0.790143 0
    outer loop
      vertex -12.3435 16.9894 0
      vertex -13.3859 16.1808 0.25
      vertex -12.3435 16.9894 0.25
    endloop
  endfacet
  facet normal -0.612922 0.790143 0
    outer loop
      vertex -13.3859 16.1808 0.25
      vertex -12.3435 16.9894 0
      vertex -13.3859 16.1808 0
    endloop
  endfacet
  facet normal -0.562078 0.827084 0
    outer loop
      vertex -11.2524 17.7309 0
      vertex -12.3435 16.9894 0.25
      vertex -11.2524 17.7309 0.25
    endloop
  endfacet
  facet normal -0.562078 0.827084 0
    outer loop
      vertex -12.3435 16.9894 0.25
      vertex -11.2524 17.7309 0
      vertex -12.3435 16.9894 0
    endloop
  endfacet
  facet normal 0.999507 -0.0313815 0
    outer loop
      vertex 20.9586 -1.3186 0.25
      vertex 21 0 0
      vertex 21 0 0.25
    endloop
  endfacet
  facet normal 0.999507 -0.0313815 0
    outer loop
      vertex 21 0 0
      vertex 20.9586 -1.3186 0.25
      vertex 20.9586 -1.3186 0
    endloop
  endfacet
  facet normal 0.0313815 -0.999507 0
    outer loop
      vertex 0 -21 0
      vertex 1.3186 -20.9586 0.25
      vertex 0 -21 0.25
    endloop
  endfacet
  facet normal 0.0313815 -0.999507 0
    outer loop
      vertex 1.3186 -20.9586 0.25
      vertex 0 -21 0
      vertex 1.3186 -20.9586 0
    endloop
  endfacet
  facet normal 0.940875 -0.338753 0
    outer loop
      vertex 19.5253 -7.73061 0.25
      vertex 19.9722 -6.48936 0
      vertex 19.9722 -6.48936 0.25
    endloop
  endfacet
  facet normal 0.940875 -0.338753 0
    outer loop
      vertex 19.9722 -6.48936 0
      vertex 19.5253 -7.73061 0.25
      vertex 19.5253 -7.73061 0
    endloop
  endfacet
  facet normal 0.975914 -0.218153 0
    outer loop
      vertex 20.3402 -5.22249 0.25
      vertex 20.628 -3.93501 0
      vertex 20.628 -3.93501 0.25
    endloop
  endfacet
  facet normal 0.975914 -0.218153 0
    outer loop
      vertex 20.628 -3.93501 0
      vertex 20.3402 -5.22249 0.25
      vertex 20.3402 -5.22249 0
    endloop
  endfacet
  facet normal 0.156452 -0.987686 0
    outer loop
      vertex 2.632 -20.8344 0
      vertex 3.93501 -20.628 0.25
      vertex 2.632 -20.8344 0.25
    endloop
  endfacet
  facet normal 0.156452 -0.987686 0
    outer loop
      vertex 3.93501 -20.628 0.25
      vertex 2.632 -20.8344 0
      vertex 3.93501 -20.628 0
    endloop
  endfacet
  facet normal 0.397123 -0.917765 0
    outer loop
      vertex 7.73061 -19.5253 0
      vertex 8.94136 -19.0014 0.25
      vertex 7.73061 -19.5253 0.25
    endloop
  endfacet
  facet normal 0.397123 -0.917765 0
    outer loop
      vertex 8.94136 -19.0014 0.25
      vertex 7.73061 -19.5253 0
      vertex 8.94136 -19.0014 0
    endloop
  endfacet
  facet normal 0.278949 -0.960306 0
    outer loop
      vertex 5.22249 -20.3402 0
      vertex 6.48936 -19.9722 0.25
      vertex 5.22249 -20.3402 0.25
    endloop
  endfacet
  facet normal 0.278949 -0.960306 0
    outer loop
      vertex 6.48936 -19.9722 0.25
      vertex 5.22249 -20.3402 0
      vertex 6.48936 -19.9722 0
    endloop
  endfacet
  facet normal 0.707107 -0.707107 0
    outer loop
      vertex 14.3755 -15.3083 0.25
      vertex 15.3083 -14.3755 0
      vertex 15.3083 -14.3755 0.25
    endloop
  endfacet
  facet normal 0.707107 -0.707107 0
    outer loop
      vertex 15.3083 -14.3755 0
      vertex 14.3755 -15.3083 0.25
      vertex 14.3755 -15.3083 0
    endloop
  endfacet
  facet normal 0.661333 -0.750092 0
    outer loop
      vertex 13.3859 -16.1808 0
      vertex 14.3755 -15.3083 0.25
      vertex 13.3859 -16.1808 0.25
    endloop
  endfacet
  facet normal 0.661333 -0.750092 0
    outer loop
      vertex 14.3755 -15.3083 0.25
      vertex 13.3859 -16.1808 0
      vertex 14.3755 -15.3083 0
    endloop
  endfacet
  facet normal 0.50899 -0.860773 0
    outer loop
      vertex 10.1168 -18.4024 0
      vertex 11.2524 -17.7309 0.25
      vertex 10.1168 -18.4024 0.25
    endloop
  endfacet
  facet normal 0.50899 -0.860773 0
    outer loop
      vertex 11.2524 -17.7309 0.25
      vertex 10.1168 -18.4024 0
      vertex 11.2524 -17.7309 0
    endloop
  endfacet
  facet normal 0.890981 -0.454041 0
    outer loop
      vertex 18.4024 -10.1168 0.25
      vertex 19.0014 -8.94136 0
      vertex 19.0014 -8.94136 0.25
    endloop
  endfacet
  facet normal 0.890981 -0.454041 0
    outer loop
      vertex 19.0014 -8.94136 0
      vertex 18.4024 -10.1168 0.25
      vertex 18.4024 -10.1168 0
    endloop
  endfacet
  facet normal 0.790143 -0.612922 0
    outer loop
      vertex 16.1808 -13.3859 0.25
      vertex 16.9894 -12.3435 0
      vertex 16.9894 -12.3435 0.25
    endloop
  endfacet
  facet normal 0.790143 -0.612922 0
    outer loop
      vertex 16.9894 -12.3435 0
      vertex 16.1808 -13.3859 0.25
      vertex 16.1808 -13.3859 0
    endloop
  endfacet
  facet normal -0.218153 -0.975914 0
    outer loop
      vertex -5.22249 -20.3402 0
      vertex -3.93501 -20.628 0.25
      vertex -5.22249 -20.3402 0.25
    endloop
  endfacet
  facet normal -0.218153 -0.975914 -0
    outer loop
      vertex -3.93501 -20.628 0.25
      vertex -5.22249 -20.3402 0
      vertex -3.93501 -20.628 0
    endloop
  endfacet
  facet normal -0.0941437 -0.995559 0
    outer loop
      vertex -2.632 -20.8344 0
      vertex -1.3186 -20.9586 0.25
      vertex -2.632 -20.8344 0.25
    endloop
  endfacet
  facet normal -0.0941437 -0.995559 -0
    outer loop
      vertex -1.3186 -20.9586 0.25
      vertex -2.632 -20.8344 0
      vertex -1.3186 -20.9586 0
    endloop
  endfacet
  facet normal -0.338753 -0.940875 0
    outer loop
      vertex -7.73061 -19.5253 0
      vertex -6.48936 -19.9722 0.25
      vertex -7.73061 -19.5253 0.25
    endloop
  endfacet
  facet normal -0.338753 -0.940875 -0
    outer loop
      vertex -6.48936 -19.9722 0.25
      vertex -7.73061 -19.5253 0
      vertex -6.48936 -19.9722 0
    endloop
  endfacet
  facet normal -0.454041 -0.890981 0
    outer loop
      vertex -10.1168 -18.4024 0
      vertex -8.94136 -19.0014 0.25
      vertex -10.1168 -18.4024 0.25
    endloop
  endfacet
  facet normal -0.454041 -0.890981 -0
    outer loop
      vertex -8.94136 -19.0014 0.25
      vertex -10.1168 -18.4024 0
      vertex -8.94136 -19.0014 0
    endloop
  endfacet
  facet normal -0.562078 -0.827084 0
    outer loop
      vertex -12.3435 -16.9894 0
      vertex -11.2524 -17.7309 0.25
      vertex -12.3435 -16.9894 0.25
    endloop
  endfacet
  facet normal -0.562078 -0.827084 -0
    outer loop
      vertex -11.2524 -17.7309 0.25
      vertex -12.3435 -16.9894 0
      vertex -11.2524 -17.7309 0
    endloop
  endfacet
  facet normal -0.50899 -0.860773 0
    outer loop
      vertex -11.2524 -17.7309 0
      vertex -10.1168 -18.4024 0.25
      vertex -11.2524 -17.7309 0.25
    endloop
  endfacet
  facet normal -0.50899 -0.860773 -0
    outer loop
      vertex -10.1168 -18.4024 0.25
      vertex -11.2524 -17.7309 0
      vertex -10.1168 -18.4024 0
    endloop
  endfacet
  facet normal -0.612922 -0.790143 0
    outer loop
      vertex -13.3859 -16.1808 0
      vertex -12.3435 -16.9894 0.25
      vertex -13.3859 -16.1808 0.25
    endloop
  endfacet
  facet normal -0.612922 -0.790143 -0
    outer loop
      vertex -12.3435 -16.9894 0.25
      vertex -13.3859 -16.1808 0
      vertex -12.3435 -16.9894 0
    endloop
  endfacet
  facet normal -0.661333 -0.750092 0
    outer loop
      vertex -14.3755 -15.3083 0
      vertex -13.3859 -16.1808 0.25
      vertex -14.3755 -15.3083 0.25
    endloop
  endfacet
  facet normal -0.661333 -0.750092 -0
    outer loop
      vertex -13.3859 -16.1808 0.25
      vertex -14.3755 -15.3083 0
      vertex -13.3859 -16.1808 0
    endloop
  endfacet
  facet normal -0.960306 -0.278949 0
    outer loop
      vertex -19.9722 -6.48936 0
      vertex -20.3402 -5.22249 0.25
      vertex -20.3402 -5.22249 0
    endloop
  endfacet
  facet normal -0.960306 -0.278949 0
    outer loop
      vertex -20.3402 -5.22249 0.25
      vertex -19.9722 -6.48936 0
      vertex -19.9722 -6.48936 0.25
    endloop
  endfacet
  facet normal -0.995559 -0.0941437 0
    outer loop
      vertex -20.8344 -2.632 0
      vertex -20.9586 -1.3186 0.25
      vertex -20.9586 -1.3186 0
    endloop
  endfacet
  facet normal -0.995559 -0.0941437 0
    outer loop
      vertex -20.9586 -1.3186 0.25
      vertex -20.8344 -2.632 0
      vertex -20.8344 -2.632 0.25
    endloop
  endfacet
  facet normal -0.860773 -0.50899 0
    outer loop
      vertex -17.7309 -11.2524 0
      vertex -18.4024 -10.1168 0.25
      vertex -18.4024 -10.1168 0
    endloop
  endfacet
  facet normal -0.860773 -0.50899 0
    outer loop
      vertex -18.4024 -10.1168 0.25
      vertex -17.7309 -11.2524 0
      vertex -17.7309 -11.2524 0.25
    endloop
  endfacet
  facet normal -0.890981 -0.454041 0
    outer loop
      vertex -18.4024 -10.1168 0
      vertex -19.0014 -8.94136 0.25
      vertex -19.0014 -8.94136 0
    endloop
  endfacet
  facet normal -0.890981 -0.454041 0
    outer loop
      vertex -19.0014 -8.94136 0.25
      vertex -18.4024 -10.1168 0
      vertex -18.4024 -10.1168 0.25
    endloop
  endfacet
  facet normal -0.827084 -0.562078 0
    outer loop
      vertex -16.9894 -12.3435 0
      vertex -17.7309 -11.2524 0.25
      vertex -17.7309 -11.2524 0
    endloop
  endfacet
  facet normal -0.827084 -0.562078 0
    outer loop
      vertex -17.7309 -11.2524 0.25
      vertex -16.9894 -12.3435 0
      vertex -16.9894 -12.3435 0.25
    endloop
  endfacet
  facet normal -0.750092 -0.661333 0
    outer loop
      vertex -15.3083 -14.3755 0
      vertex -16.1808 -13.3859 0.25
      vertex -16.1808 -13.3859 0
    endloop
  endfacet
  facet normal -0.750092 -0.661333 0
    outer loop
      vertex -16.1808 -13.3859 0.25
      vertex -15.3083 -14.3755 0
      vertex -15.3083 -14.3755 0.25
    endloop
  endfacet
  facet normal -0.790143 -0.612922 0
    outer loop
      vertex -16.1808 -13.3859 0
      vertex -16.9894 -12.3435 0.25
      vertex -16.9894 -12.3435 0
    endloop
  endfacet
  facet normal -0.790143 -0.612922 0
    outer loop
      vertex -16.9894 -12.3435 0.25
      vertex -16.1808 -13.3859 0
      vertex -16.1808 -13.3859 0.25
    endloop
  endfacet
  facet normal 0.995559 -0.0941437 0
    outer loop
      vertex 20.8344 -2.632 0.25
      vertex 20.9586 -1.3186 0
      vertex 20.9586 -1.3186 0.25
    endloop
  endfacet
  facet normal 0.995559 -0.0941437 0
    outer loop
      vertex 20.9586 -1.3186 0
      vertex 20.8344 -2.632 0.25
      vertex 20.8344 -2.632 0
    endloop
  endfacet
  facet normal 0.987686 -0.156452 0
    outer loop
      vertex 20.628 -3.93501 0.25
      vertex 20.8344 -2.632 0
      vertex 20.8344 -2.632 0.25
    endloop
  endfacet
  facet normal 0.987686 -0.156452 0
    outer loop
      vertex 20.8344 -2.632 0
      vertex 20.628 -3.93501 0.25
      vertex 20.628 -3.93501 0
    endloop
  endfacet
  facet normal 0.960306 -0.278949 0
    outer loop
      vertex 19.9722 -6.48936 0.25
      vertex 20.3402 -5.22249 0
      vertex 20.3402 -5.22249 0.25
    endloop
  endfacet
  facet normal 0.960306 -0.278949 0
    outer loop
      vertex 20.3402 -5.22249 0
      vertex 19.9722 -6.48936 0.25
      vertex 19.9722 -6.48936 0
    endloop
  endfacet
  facet normal 0.0941437 -0.995559 0
    outer loop
      vertex 1.3186 -20.9586 0
      vertex 2.632 -20.8344 0.25
      vertex 1.3186 -20.9586 0.25
    endloop
  endfacet
  facet normal 0.0941437 -0.995559 0
    outer loop
      vertex 2.632 -20.8344 0.25
      vertex 1.3186 -20.9586 0
      vertex 2.632 -20.8344 0
    endloop
  endfacet
  facet normal 0.218153 -0.975914 0
    outer loop
      vertex 3.93501 -20.628 0
      vertex 5.22249 -20.3402 0.25
      vertex 3.93501 -20.628 0.25
    endloop
  endfacet
  facet normal 0.218153 -0.975914 0
    outer loop
      vertex 5.22249 -20.3402 0.25
      vertex 3.93501 -20.628 0
      vertex 5.22249 -20.3402 0
    endloop
  endfacet
  facet normal 0.338753 -0.940875 0
    outer loop
      vertex 6.48936 -19.9722 0
      vertex 7.73061 -19.5253 0.25
      vertex 6.48936 -19.9722 0.25
    endloop
  endfacet
  facet normal 0.338753 -0.940875 0
    outer loop
      vertex 7.73061 -19.5253 0.25
      vertex 6.48936 -19.9722 0
      vertex 7.73061 -19.5253 0
    endloop
  endfacet
  facet normal -0.156452 -0.987686 0
    outer loop
      vertex -3.93501 -20.628 0
      vertex -2.632 -20.8344 0.25
      vertex -3.93501 -20.628 0.25
    endloop
  endfacet
  facet normal -0.156452 -0.987686 -0
    outer loop
      vertex -2.632 -20.8344 0.25
      vertex -3.93501 -20.628 0
      vertex -2.632 -20.8344 0
    endloop
  endfacet
  facet normal -0.987687 -0.156445 0
    outer loop
      vertex 1.5 0 0
      vertex 1.42658 0.463525 0.25
      vertex 1.42658 0.463525 0
    endloop
  endfacet
  facet normal -0.987687 -0.156445 0
    outer loop
      vertex 1.42658 0.463525 0.25
      vertex 1.5 0 0
      vertex 1.5 0 0.25
    endloop
  endfacet
  facet normal 0.987687 -0.156445 0
    outer loop
      vertex -1.5 0 0.25
      vertex -1.42658 0.463525 0
      vertex -1.42658 0.463525 0.25
    endloop
  endfacet
  facet normal 0.987687 -0.156445 0
    outer loop
      vertex -1.42658 0.463525 0
      vertex -1.5 0 0.25
      vertex -1.5 0 0
    endloop
  endfacet
  facet normal -0.156445 -0.987687 0
    outer loop
      vertex 0 1.5 0
      vertex 0.463525 1.42658 0.25
      vertex 0 1.5 0.25
    endloop
  endfacet
  facet normal -0.156445 -0.987687 -0
    outer loop
      vertex 0.463525 1.42658 0.25
      vertex 0 1.5 0
      vertex 0.463525 1.42658 0
    endloop
  endfacet
  facet normal -0.707107 -0.707107 0
    outer loop
      vertex 1.21352 0.881678 0
      vertex 0.881678 1.21352 0.25
      vertex 0.881678 1.21352 0
    endloop
  endfacet
  facet normal -0.707107 -0.707107 0
    outer loop
      vertex 0.881678 1.21352 0.25
      vertex 1.21352 0.881678 0
      vertex 1.21352 0.881678 0.25
    endloop
  endfacet
  facet normal -0.891006 -0.453991 0
    outer loop
      vertex 1.42658 0.463525 0
      vertex 1.21352 0.881678 0.25
      vertex 1.21352 0.881678 0
    endloop
  endfacet
  facet normal -0.891006 -0.453991 0
    outer loop
      vertex 1.21352 0.881678 0.25
      vertex 1.42658 0.463525 0
      vertex 1.42658 0.463525 0.25
    endloop
  endfacet
  facet normal -0.453991 -0.891006 0
    outer loop
      vertex 0.463525 1.42658 0
      vertex 0.881678 1.21352 0.25
      vertex 0.463525 1.42658 0.25
    endloop
  endfacet
  facet normal -0.453991 -0.891006 -0
    outer loop
      vertex 0.881678 1.21352 0.25
      vertex 0.463525 1.42658 0
      vertex 0.881678 1.21352 0
    endloop
  endfacet
  facet normal 0.453991 -0.891006 0
    outer loop
      vertex -0.881678 1.21352 0
      vertex -0.463525 1.42658 0.25
      vertex -0.881678 1.21352 0.25
    endloop
  endfacet
  facet normal 0.453991 -0.891006 0
    outer loop
      vertex -0.463525 1.42658 0.25
      vertex -0.881678 1.21352 0
      vertex -0.463525 1.42658 0
    endloop
  endfacet
  facet normal 0.707107 -0.707107 0
    outer loop
      vertex -1.21352 0.881678 0.25
      vertex -0.881678 1.21352 0
      vertex -0.881678 1.21352 0.25
    endloop
  endfacet
  facet normal 0.707107 -0.707107 0
    outer loop
      vertex -0.881678 1.21352 0
      vertex -1.21352 0.881678 0.25
      vertex -1.21352 0.881678 0
    endloop
  endfacet
  facet normal 0.156445 -0.987687 0
    outer loop
      vertex -0.463525 1.42658 0
      vertex 0 1.5 0.25
      vertex -0.463525 1.42658 0.25
    endloop
  endfacet
  facet normal 0.156445 -0.987687 0
    outer loop
      vertex 0 1.5 0.25
      vertex -0.463525 1.42658 0
      vertex 0 1.5 0
    endloop
  endfacet
  facet normal -0.891006 0.453991 0
    outer loop
      vertex 1.21352 -0.881678 0
      vertex 1.42658 -0.463525 0.25
      vertex 1.42658 -0.463525 0
    endloop
  endfacet
  facet normal -0.891006 0.453991 0
    outer loop
      vertex 1.42658 -0.463525 0.25
      vertex 1.21352 -0.881678 0
      vertex 1.21352 -0.881678 0.25
    endloop
  endfacet
  facet normal 0.707107 0.707107 0
    outer loop
      vertex -0.881678 -1.21352 0.25
      vertex -1.21352 -0.881678 0
      vertex -1.21352 -0.881678 0.25
    endloop
  endfacet
  facet normal 0.707107 0.707107 0
    outer loop
      vertex -1.21352 -0.881678 0
      vertex -0.881678 -1.21352 0.25
      vertex -0.881678 -1.21352 0
    endloop
  endfacet
  facet normal 0.987687 0.156445 0
    outer loop
      vertex -1.42658 -0.463525 0.25
      vertex -1.5 0 0
      vertex -1.5 0 0.25
    endloop
  endfacet
  facet normal 0.987687 0.156445 0
    outer loop
      vertex -1.5 0 0
      vertex -1.42658 -0.463525 0.25
      vertex -1.42658 -0.463525 0
    endloop
  endfacet
  facet normal 0.891006 -0.453991 0
    outer loop
      vertex -1.42658 0.463525 0.25
      vertex -1.21352 0.881678 0
      vertex -1.21352 0.881678 0.25
    endloop
  endfacet
  facet normal 0.891006 -0.453991 0
    outer loop
      vertex -1.21352 0.881678 0
      vertex -1.42658 0.463525 0.25
      vertex -1.42658 0.463525 0
    endloop
  endfacet
  facet normal -0.987687 0.156445 0
    outer loop
      vertex 1.42658 -0.463525 0
      vertex 1.5 0 0.25
      vertex 1.5 0 0
    endloop
  endfacet
  facet normal -0.987687 0.156445 0
    outer loop
      vertex 1.5 0 0.25
      vertex 1.42658 -0.463525 0
      vertex 1.42658 -0.463525 0.25
    endloop
  endfacet
  facet normal -0.156445 0.987687 0
    outer loop
      vertex 0.463525 -1.42658 0
      vertex 0 -1.5 0.25
      vertex 0.463525 -1.42658 0.25
    endloop
  endfacet
  facet normal -0.156445 0.987687 0
    outer loop
      vertex 0 -1.5 0.25
      vertex 0.463525 -1.42658 0
      vertex 0 -1.5 0
    endloop
  endfacet
  facet normal -0.707107 0.707107 0
    outer loop
      vertex 0.881678 -1.21352 0
      vertex 1.21352 -0.881678 0.25
      vertex 1.21352 -0.881678 0
    endloop
  endfacet
  facet normal -0.707107 0.707107 0
    outer loop
      vertex 1.21352 -0.881678 0.25
      vertex 0.881678 -1.21352 0
      vertex 0.881678 -1.21352 0.25
    endloop
  endfacet
  facet normal 0.453991 0.891006 -0
    outer loop
      vertex -0.463525 -1.42658 0
      vertex -0.881678 -1.21352 0.25
      vertex -0.463525 -1.42658 0.25
    endloop
  endfacet
  facet normal 0.453991 0.891006 0
    outer loop
      vertex -0.881678 -1.21352 0.25
      vertex -0.463525 -1.42658 0
      vertex -0.881678 -1.21352 0
    endloop
  endfacet
  facet normal 0.891006 0.453991 0
    outer loop
      vertex -1.21352 -0.881678 0.25
      vertex -1.42658 -0.463525 0
      vertex -1.42658 -0.463525 0.25
    endloop
  endfacet
  facet normal 0.891006 0.453991 0
    outer loop
      vertex -1.42658 -0.463525 0
      vertex -1.21352 -0.881678 0.25
      vertex -1.21352 -0.881678 0
    endloop
  endfacet
  facet normal -0.453991 0.891006 0
    outer loop
      vertex 0.881678 -1.21352 0
      vertex 0.463525 -1.42658 0.25
      vertex 0.881678 -1.21352 0.25
    endloop
  endfacet
  facet normal -0.453991 0.891006 0
    outer loop
      vertex 0.463525 -1.42658 0.25
      vertex 0.881678 -1.21352 0
      vertex 0.463525 -1.42658 0
    endloop
  endfacet
  facet normal 0.156445 0.987687 -0
    outer loop
      vertex 0 -1.5 0
      vertex -0.463525 -1.42658 0.25
      vertex 0 -1.5 0.25
    endloop
  endfacet
  facet normal 0.156445 0.987687 0
    outer loop
      vertex -0.463525 -1.42658 0.25
      vertex 0 -1.5 0
      vertex -0.463525 -1.42658 0
    endloop
  endfacet
endsolid OpenSCAD_Model
