solid OpenSCAD_Model
  facet normal 0.661353 0.750075 -0
    outer loop
      vertex 13.0064 13.8504 0
      vertex 12.1111 14.6398 0.25
      vertex 13.0064 13.8504 0.25
    endloop
  endfacet
  facet normal 0.661353 0.750075 0
    outer loop
      vertex 12.1111 14.6398 0.25
      vertex 13.0064 13.8504 0
      vertex 12.1111 14.6398 0
    endloop
  endfacet
  facet normal -0.338721 0.940887 0
    outer loop
      vertex -5.87132 18.0701 0
      vertex -6.99437 17.6658 0.25
      vertex -5.87132 18.0701 0.25
    endloop
  endfacet
  facet normal -0.338721 0.940887 0
    outer loop
      vertex -6.99437 17.6658 0.25
      vertex -5.87132 18.0701 0
      vertex -6.99437 17.6658 0
    endloop
  endfacet
  facet normal -0.891002 0.454 0
    outer loop
      vertex -17.1917 8.08981 0
      vertex -16.6498 9.15332 0.25
      vertex -16.6498 9.15332 0
    endloop
  endfacet
  facet normal -0.891002 0.454 0
    outer loop
      vertex -16.6498 9.15332 0.25
      vertex -17.1917 8.08981 0
      vertex -17.1917 8.08981 0.25
    endloop
  endfacet
  facet normal 0.995564 -0.0940848 0
    outer loop
      vertex 18.8502 -2.38133 0.25
      vertex 18.9625 -1.19302 0
      vertex 18.9625 -1.19302 0.25
    endloop
  endfacet
  facet normal 0.995564 -0.0940848 0
    outer loop
      vertex 18.9625 -1.19302 0
      vertex 18.8502 -2.38133 0.25
      vertex 18.8502 -2.38133 0
    endloop
  endfacet
  facet normal 0.891002 0.454 0
    outer loop
      vertex 17.1917 8.08981 0.25
      vertex 16.6498 9.15332 0
      vertex 16.6498 9.15332 0.25
    endloop
  endfacet
  facet normal 0.891002 0.454 0
    outer loop
      vertex 16.6498 9.15332 0
      vertex 17.1917 8.08981 0.25
      vertex 17.1917 8.08981 0
    endloop
  endfacet
  facet normal 0.397191 0.917736 -0
    outer loop
      vertex 8.08981 17.1917 0
      vertex 6.99437 17.6658 0.25
      vertex 8.08981 17.1917 0.25
    endloop
  endfacet
  facet normal 0.397191 0.917736 0
    outer loop
      vertex 6.99437 17.6658 0.25
      vertex 8.08981 17.1917 0
      vertex 6.99437 17.6658 0
    endloop
  endfacet
  facet normal 0.156417 0.987691 -0
    outer loop
      vertex 3.56024 18.6635 0
      vertex 2.38133 18.8502 0.25
      vertex 3.56024 18.6635 0.25
    endloop
  endfacet
  facet normal 0.156417 0.987691 0
    outer loop
      vertex 2.38133 18.8502 0.25
      vertex 3.56024 18.6635 0
      vertex 2.38133 18.8502 0
    endloop
  endfacet
  facet normal -0.707107 0.707107 0
    outer loop
      vertex -13.8504 13.0064 0
      vertex -13.0064 13.8504 0.25
      vertex -13.0064 13.8504 0
    endloop
  endfacet
  facet normal -0.707107 0.707107 0
    outer loop
      vertex -13.0064 13.8504 0.25
      vertex -13.8504 13.0064 0
      vertex -13.8504 13.0064 0.25
    endloop
  endfacet
  facet normal -0.156417 0.987691 0
    outer loop
      vertex -2.38133 18.8502 0
      vertex -3.56024 18.6635 0.25
      vertex -2.38133 18.8502 0.25
    endloop
  endfacet
  facet normal -0.156417 0.987691 0
    outer loop
      vertex -3.56024 18.6635 0.25
      vertex -2.38133 18.8502 0
      vertex -3.56024 18.6635 0
    endloop
  endfacet
  facet normal 0.940887 -0.338721 0
    outer loop
      vertex 17.6658 -6.99437 0.25
      vertex 18.0701 -5.87132 0
      vertex 18.0701 -5.87132 0.25
    endloop
  endfacet
  facet normal 0.940887 -0.338721 0
    outer loop
      vertex 18.0701 -5.87132 0
      vertex 17.6658 -6.99437 0.25
      vertex 17.6658 -6.99437 0
    endloop
  endfacet
  facet normal 0.397191 -0.917736 0
    outer loop
      vertex 6.99437 -17.6658 0
      vertex 8.08981 -17.1917 0.25
      vertex 6.99437 -17.6658 0.25
    endloop
  endfacet
  facet normal 0.397191 -0.917736 0
    outer loop
      vertex 8.08981 -17.1917 0.25
      vertex 6.99437 -17.6658 0
      vertex 8.08981 -17.1917 0
    endloop
  endfacet
  facet normal -0.707107 -0.707107 0
    outer loop
      vertex -13.0064 -13.8504 0
      vertex -13.8504 -13.0064 0.25
      vertex -13.8504 -13.0064 0
    endloop
  endfacet
  facet normal -0.707107 -0.707107 0
    outer loop
      vertex -13.8504 -13.0064 0.25
      vertex -13.0064 -13.8504 0
      vertex -13.0064 -13.8504 0.25
    endloop
  endfacet
  facet normal 0.995564 0.0940848 0
    outer loop
      vertex 18.9625 1.19302 0.25
      vertex 18.8502 2.38133 0
      vertex 18.8502 2.38133 0.25
    endloop
  endfacet
  facet normal 0.995564 0.0940848 0
    outer loop
      vertex 18.8502 2.38133 0
      vertex 18.9625 1.19302 0.25
      vertex 18.9625 1.19302 0
    endloop
  endfacet
  facet normal 0.975913 0.21816 0
    outer loop
      vertex 18.6635 3.56024 0.25
      vertex 18.4031 4.72511 0
      vertex 18.4031 4.72511 0.25
    endloop
  endfacet
  facet normal 0.975913 0.21816 0
    outer loop
      vertex 18.4031 4.72511 0
      vertex 18.6635 3.56024 0.25
      vertex 18.6635 3.56024 0
    endloop
  endfacet
  facet normal 0.960295 0.278987 0
    outer loop
      vertex 18.4031 4.72511 0.25
      vertex 18.0701 5.87132 0
      vertex 18.0701 5.87132 0.25
    endloop
  endfacet
  facet normal 0.960295 0.278987 0
    outer loop
      vertex 18.0701 5.87132 0
      vertex 18.4031 4.72511 0.25
      vertex 18.4031 4.72511 0
    endloop
  endfacet
  facet normal 0.790204 0.612844 0
    outer loop
      vertex 15.3713 11.1679 0.25
      vertex 14.6398 12.1111 0
      vertex 14.6398 12.1111 0.25
    endloop
  endfacet
  facet normal 0.790204 0.612844 0
    outer loop
      vertex 14.6398 12.1111 0
      vertex 15.3713 11.1679 0.25
      vertex 15.3713 11.1679 0
    endloop
  endfacet
  facet normal 0.827081 0.562083 0
    outer loop
      vertex 16.0422 10.1807 0.25
      vertex 15.3713 11.1679 0
      vertex 15.3713 11.1679 0.25
    endloop
  endfacet
  facet normal 0.827081 0.562083 0
    outer loop
      vertex 15.3713 11.1679 0
      vertex 16.0422 10.1807 0.25
      vertex 16.0422 10.1807 0
    endloop
  endfacet
  facet normal 0.562083 0.827081 -0
    outer loop
      vertex 11.1679 15.3713 0
      vertex 10.1807 16.0422 0.25
      vertex 11.1679 15.3713 0.25
    endloop
  endfacet
  facet normal 0.562083 0.827081 0
    outer loop
      vertex 10.1807 16.0422 0.25
      vertex 11.1679 15.3713 0
      vertex 10.1807 16.0422 0
    endloop
  endfacet
  facet normal 0.0314173 0.999506 -0
    outer loop
      vertex 1.19302 18.9625 0
      vertex 0 19 0.25
      vertex 1.19302 18.9625 0.25
    endloop
  endfacet
  facet normal 0.0314173 0.999506 0
    outer loop
      vertex 0 19 0.25
      vertex 1.19302 18.9625 0
      vertex 0 19 0
    endloop
  endfacet
  facet normal 0.21816 0.975913 -0
    outer loop
      vertex 4.72511 18.4031 0
      vertex 3.56024 18.6635 0.25
      vertex 4.72511 18.4031 0.25
    endloop
  endfacet
  facet normal 0.21816 0.975913 0
    outer loop
      vertex 3.56024 18.6635 0.25
      vertex 4.72511 18.4031 0
      vertex 3.56024 18.6635 0
    endloop
  endfacet
  facet normal -0.999506 0.0314173 0
    outer loop
      vertex -19 0 0
      vertex -18.9625 1.19302 0.25
      vertex -18.9625 1.19302 0
    endloop
  endfacet
  facet normal -0.999506 0.0314173 0
    outer loop
      vertex -18.9625 1.19302 0.25
      vertex -19 0 0
      vertex -19 0 0.25
    endloop
  endfacet
  facet normal -0.960295 0.278987 0
    outer loop
      vertex -18.4031 4.72511 0
      vertex -18.0701 5.87132 0.25
      vertex -18.0701 5.87132 0
    endloop
  endfacet
  facet normal -0.960295 0.278987 0
    outer loop
      vertex -18.0701 5.87132 0.25
      vertex -18.4031 4.72511 0
      vertex -18.4031 4.72511 0.25
    endloop
  endfacet
  facet normal -0.790204 0.612844 0
    outer loop
      vertex -15.3713 11.1679 0
      vertex -14.6398 12.1111 0.25
      vertex -14.6398 12.1111 0
    endloop
  endfacet
  facet normal -0.790204 0.612844 0
    outer loop
      vertex -14.6398 12.1111 0.25
      vertex -15.3713 11.1679 0
      vertex -15.3713 11.1679 0.25
    endloop
  endfacet
  facet normal -0.0940848 0.995564 0
    outer loop
      vertex -1.19302 18.9625 0
      vertex -2.38133 18.8502 0.25
      vertex -1.19302 18.9625 0.25
    endloop
  endfacet
  facet normal -0.0940848 0.995564 0
    outer loop
      vertex -2.38133 18.8502 0.25
      vertex -1.19302 18.9625 0
      vertex -2.38133 18.8502 0
    endloop
  endfacet
  facet normal -0.21816 0.975913 0
    outer loop
      vertex -3.56024 18.6635 0
      vertex -4.72511 18.4031 0.25
      vertex -3.56024 18.6635 0.25
    endloop
  endfacet
  facet normal -0.21816 0.975913 0
    outer loop
      vertex -4.72511 18.4031 0.25
      vertex -3.56024 18.6635 0
      vertex -4.72511 18.4031 0
    endloop
  endfacet
  facet normal -0.509047 0.860739 0
    outer loop
      vertex -9.15332 16.6498 0
      vertex -10.1807 16.0422 0.25
      vertex -9.15332 16.6498 0.25
    endloop
  endfacet
  facet normal -0.509047 0.860739 0
    outer loop
      vertex -10.1807 16.0422 0.25
      vertex -9.15332 16.6498 0
      vertex -10.1807 16.0422 0
    endloop
  endfacet
  facet normal -0.397191 0.917736 0
    outer loop
      vertex -6.99437 17.6658 0
      vertex -8.08981 17.1917 0.25
      vertex -6.99437 17.6658 0.25
    endloop
  endfacet
  facet normal -0.397191 0.917736 0
    outer loop
      vertex -8.08981 17.1917 0.25
      vertex -6.99437 17.6658 0
      vertex -8.08981 17.1917 0
    endloop
  endfacet
  facet normal -0.661353 0.750075 0
    outer loop
      vertex -12.1111 14.6398 0
      vertex -13.0064 13.8504 0.25
      vertex -12.1111 14.6398 0.25
    endloop
  endfacet
  facet normal -0.661353 0.750075 0
    outer loop
      vertex -13.0064 13.8504 0.25
      vertex -12.1111 14.6398 0
      vertex -13.0064 13.8504 0
    endloop
  endfacet
  facet normal 0.999506 0.0314173 0
    outer loop
      vertex 19 0 0.25
      vertex 18.9625 1.19302 0
      vertex 18.9625 1.19302 0.25
    endloop
  endfacet
  facet normal 0.999506 0.0314173 0
    outer loop
      vertex 18.9625 1.19302 0
      vertex 19 0 0.25
      vertex 19 0 0
    endloop
  endfacet
  facet normal 0.960295 -0.278987 0
    outer loop
      vertex 18.0701 -5.87132 0.25
      vertex 18.4031 -4.72511 0
      vertex 18.4031 -4.72511 0.25
    endloop
  endfacet
  facet normal 0.960295 -0.278987 0
    outer loop
      vertex 18.4031 -4.72511 0
      vertex 18.0701 -5.87132 0.25
      vertex 18.0701 -5.87132 0
    endloop
  endfacet
  facet normal 0.750075 -0.661353 0
    outer loop
      vertex 13.8504 -13.0064 0.25
      vertex 14.6398 -12.1111 0
      vertex 14.6398 -12.1111 0.25
    endloop
  endfacet
  facet normal 0.750075 -0.661353 0
    outer loop
      vertex 14.6398 -12.1111 0
      vertex 13.8504 -13.0064 0.25
      vertex 13.8504 -13.0064 0
    endloop
  endfacet
  facet normal 0.278987 -0.960295 0
    outer loop
      vertex 4.72511 -18.4031 0
      vertex 5.87132 -18.0701 0.25
      vertex 4.72511 -18.4031 0.25
    endloop
  endfacet
  facet normal 0.278987 -0.960295 0
    outer loop
      vertex 5.87132 -18.0701 0.25
      vertex 4.72511 -18.4031 0
      vertex 5.87132 -18.0701 0
    endloop
  endfacet
  facet normal 0.612844 -0.790204 0
    outer loop
      vertex 11.1679 -15.3713 0
      vertex 12.1111 -14.6398 0.25
      vertex 11.1679 -15.3713 0.25
    endloop
  endfacet
  facet normal 0.612844 -0.790204 0
    outer loop
      vertex 12.1111 -14.6398 0.25
      vertex 11.1679 -15.3713 0
      vertex 12.1111 -14.6398 0
    endloop
  endfacet
  facet normal 0.454 -0.891002 0
    outer loop
      vertex 8.08981 -17.1917 0
      vertex 9.15332 -16.6498 0.25
      vertex 8.08981 -17.1917 0.25
    endloop
  endfacet
  facet normal 0.454 -0.891002 0
    outer loop
      vertex 9.15332 -16.6498 0.25
      vertex 8.08981 -17.1917 0
      vertex 9.15332 -16.6498 0
    endloop
  endfacet
  facet normal -0.975913 -0.21816 0
    outer loop
      vertex -18.4031 -4.72511 0
      vertex -18.6635 -3.56024 0.25
      vertex -18.6635 -3.56024 0
    endloop
  endfacet
  facet normal -0.975913 -0.21816 0
    outer loop
      vertex -18.6635 -3.56024 0.25
      vertex -18.4031 -4.72511 0
      vertex -18.4031 -4.72511 0.25
    endloop
  endfacet
  facet normal -0.940887 -0.338721 0
    outer loop
      vertex -17.6658 -6.99437 0
      vertex -18.0701 -5.87132 0.25
      vertex -18.0701 -5.87132 0
    endloop
  endfacet
  facet normal -0.940887 -0.338721 0
    outer loop
      vertex -18.0701 -5.87132 0.25
      vertex -17.6658 -6.99437 0
      vertex -17.6658 -6.99437 0.25
    endloop
  endfacet
  facet normal 0 0 -1
    outer loop
      vertex 1.5 0 0
      vertex 19 0 0
      vertex 18.9625 -1.19302 0
    endloop
  endfacet
  facet normal 0 0 -1
    outer loop
      vertex 1.5 0 0
      vertex 18.9625 -1.19302 0
      vertex 18.8502 -2.38133 0
    endloop
  endfacet
  facet normal 0 0 -1
    outer loop
      vertex 19 0 0
      vertex 1.5 0 0
      vertex 18.9625 1.19302 0
    endloop
  endfacet
  facet normal 0 0 -1
    outer loop
      vertex 1.5 0 0
      vertex 18.8502 -2.38133 0
      vertex 18.6635 -3.56024 0
    endloop
  endfacet
  facet normal -0 0 -1
    outer loop
      vertex 18.9625 1.19302 0
      vertex 1.5 0 0
      vertex 18.8502 2.38133 0
    endloop
  endfacet
  facet normal 0 0 -1
    outer loop
      vertex 1.42658 -0.463525 0
      vertex 18.6635 -3.56024 0
      vertex 18.4031 -4.72511 0
    endloop
  endfacet
  facet normal -0 0 -1
    outer loop
      vertex 18.8502 2.38133 0
      vertex 1.5 0 0
      vertex 18.6635 3.56024 0
    endloop
  endfacet
  facet normal 0 0 -1
    outer loop
      vertex 1.42658 -0.463525 0
      vertex 18.4031 -4.72511 0
      vertex 18.0701 -5.87132 0
    endloop
  endfacet
  facet normal 0 0 -1
    outer loop
      vertex 1.42658 0.463525 0
      vertex 18.6635 3.56024 0
      vertex 1.5 0 0
    endloop
  endfacet
  facet normal 0 0 -1
    outer loop
      vertex 1.42658 -0.463525 0
      vertex 18.0701 -5.87132 0
      vertex 17.6658 -6.99437 0
    endloop
  endfacet
  facet normal -0 0 -1
    outer loop
      vertex 18.6635 3.56024 0
      vertex 1.42658 0.463525 0
      vertex 18.4031 4.72511 0
    endloop
  endfacet
  facet normal 0 0 -1
    outer loop
      vertex 1.42658 -0.463525 0
      vertex 17.6658 -6.99437 0
      vertex 17.1917 -8.08981 0
    endloop
  endfacet
  facet normal -0 0 -1
    outer loop
      vertex 18.4031 4.72511 0
      vertex 1.42658 0.463525 0
      vertex 18.0701 5.87132 0
    endloop
  endfacet
  facet normal 0 0 -1
    outer loop
      vertex 1.42658 -0.463525 0
      vertex 17.1917 -8.08981 0
      vertex 16.6498 -9.15332 0
    endloop
  endfacet
  facet normal -0 0 -1
    outer loop
      vertex 18.0701 5.87132 0
      vertex 1.42658 0.463525 0
      vertex 17.6658 6.99437 0
    endloop
  endfacet
  facet normal 0 0 -1
    outer loop
      vertex 1.21352 -0.881678 0
      vertex 16.6498 -9.15332 0
      vertex 16.0422 -10.1807 0
    endloop
  endfacet
  facet normal -0 0 -1
    outer loop
      vertex 17.6658 6.99437 0
      vertex 1.42658 0.463525 0
      vertex 17.1917 8.08981 0
    endloop
  endfacet
  facet normal 0 0 -1
    outer loop
      vertex 1.21352 -0.881678 0
      vertex 16.0422 -10.1807 0
      vertex 15.3713 -11.1679 0
    endloop
  endfacet
  facet normal -0 0 -1
    outer loop
      vertex 17.1917 8.08981 0
      vertex 1.42658 0.463525 0
      vertex 16.6498 9.15332 0
    endloop
  endfacet
  facet normal 0 0 -1
    outer loop
      vertex 1.21352 -0.881678 0
      vertex 15.3713 -11.1679 0
      vertex 14.6398 -12.1111 0
    endloop
  endfacet
  facet normal 0 0 -1
    outer loop
      vertex 1.21352 0.881678 0
      vertex 16.6498 9.15332 0
      vertex 1.42658 0.463525 0
    endloop
  endfacet
  facet normal 0 0 -1
    outer loop
      vertex 1.21352 -0.881678 0
      vertex 14.6398 -12.1111 0
      vertex 13.8504 -13.0064 0
    endloop
  endfacet
  facet normal -0 0 -1
    outer loop
      vertex 16.6498 9.15332 0
      vertex 1.21352 0.881678 0
      vertex 16.0422 10.1807 0
    endloop
  endfacet
  facet normal 0 0 -1
    outer loop
      vertex 1.21352 -0.881678 0
      vertex 13.8504 -13.0064 0
      vertex 13.0064 -13.8504 0
    endloop
  endfacet
  facet normal -0 0 -1
    outer loop
      vertex 16.0422 10.1807 0
      vertex 1.21352 0.881678 0
      vertex 15.3713 11.1679 0
    endloop
  endfacet
  facet normal 0 0 -1
    outer loop
      vertex 0.881678 -1.21352 0
      vertex 13.0064 -13.8504 0
      vertex 12.1111 -14.6398 0
    endloop
  endfacet
  facet normal -0 0 -1
    outer loop
      vertex 15.3713 11.1679 0
      vertex 1.21352 0.881678 0
      vertex 14.6398 12.1111 0
    endloop
  endfacet
  facet normal 0 0 -1
    outer loop
      vertex 0.881678 -1.21352 0
      vertex 12.1111 -14.6398 0
      vertex 11.1679 -15.3713 0
    endloop
  endfacet
  facet normal -0 0 -1
    outer loop
      vertex 14.6398 12.1111 0
      vertex 1.21352 0.881678 0
      vertex 13.8504 13.0064 0
    endloop
  endfacet
  facet normal 0 0 -1
    outer loop
      vertex 0.881678 -1.21352 0
      vertex 11.1679 -15.3713 0
      vertex 10.1807 -16.0422 0
    endloop
  endfacet
  facet normal -0 0 -1
    outer loop
      vertex 13.8504 13.0064 0
      vertex 1.21352 0.881678 0
      vertex 13.0064 13.8504 0
    endloop
  endfacet
  facet normal 0 0 -1
    outer loop
      vertex 0.881678 -1.21352 0
      vertex 10.1807 -16.0422 0
      vertex 9.15332 -16.6498 0
    endloop
  endfacet
  facet normal 0 0 -1
    outer loop
      vertex 0.881678 1.21352 0
      vertex 13.0064 13.8504 0
      vertex 1.21352 0.881678 0
    endloop
  endfacet
  facet normal 0 0 -1
    outer loop
      vertex 0.881678 -1.21352 0
      vertex 9.15332 -16.6498 0
      vertex 8.08981 -17.1917 0
    endloop
  endfacet
  facet normal -0 0 -1
    outer loop
      vertex 13.0064 13.8504 0
      vertex 0.881678 1.21352 0
      vertex 12.1111 14.6398 0
    endloop
  endfacet
  facet normal 0 0 -1
    outer loop
      vertex 0.463525 -1.42658 0
      vertex 8.08981 -17.1917 0
      vertex 6.99437 -17.6658 0
    endloop
  endfacet
  facet normal -0 0 -1
    outer loop
      vertex 12.1111 14.6398 0
      vertex 0.881678 1.21352 0
      vertex 11.1679 15.3713 0
    endloop
  endfacet
  facet normal 0 0 -1
    outer loop
      vertex 0.463525 -1.42658 0
      vertex 6.99437 -17.6658 0
      vertex 5.87132 -18.0701 0
    endloop
  endfacet
  facet normal -0 0 -1
    outer loop
      vertex 11.1679 15.3713 0
      vertex 0.881678 1.21352 0
      vertex 10.1807 16.0422 0
    endloop
  endfacet
  facet normal 0 0 -1
    outer loop
      vertex 0.463525 -1.42658 0
      vertex 5.87132 -18.0701 0
      vertex 4.72511 -18.4031 0
    endloop
  endfacet
  facet normal -0 0 -1
    outer loop
      vertex 10.1807 16.0422 0
      vertex 0.881678 1.21352 0
      vertex 9.15332 16.6498 0
    endloop
  endfacet
  facet normal 0 0 -1
    outer loop
      vertex 0.463525 -1.42658 0
      vertex 4.72511 -18.4031 0
      vertex 3.56024 -18.6635 0
    endloop
  endfacet
  facet normal -0 0 -1
    outer loop
      vertex 9.15332 16.6498 0
      vertex 0.881678 1.21352 0
      vertex 8.08981 17.1917 0
    endloop
  endfacet
  facet normal 0 0 -1
    outer loop
      vertex 0.463525 -1.42658 0
      vertex 3.56024 -18.6635 0
      vertex 2.38133 -18.8502 0
    endloop
  endfacet
  facet normal 0 0 -1
    outer loop
      vertex 0.463525 1.42658 0
      vertex 8.08981 17.1917 0
      vertex 0.881678 1.21352 0
    endloop
  endfacet
  facet normal -0 0 -1
    outer loop
      vertex 8.08981 17.1917 0
      vertex 0.463525 1.42658 0
      vertex 6.99437 17.6658 0
    endloop
  endfacet
  facet normal 0 0 -1
    outer loop
      vertex 18.6635 -3.56024 0
      vertex 1.42658 -0.463525 0
      vertex 1.5 0 0
    endloop
  endfacet
  facet normal 0 0 -1
    outer loop
      vertex 16.6498 -9.15332 0
      vertex 1.21352 -0.881678 0
      vertex 1.42658 -0.463525 0
    endloop
  endfacet
  facet normal 0 0 -1
    outer loop
      vertex 0 -1.5 0
      vertex 2.38133 -18.8502 0
      vertex 1.19302 -18.9625 0
    endloop
  endfacet
  facet normal 0 0 -1
    outer loop
      vertex 13.0064 -13.8504 0
      vertex 0.881678 -1.21352 0
      vertex 1.21352 -0.881678 0
    endloop
  endfacet
  facet normal 0 0 -1
    outer loop
      vertex 8.08981 -17.1917 0
      vertex 0.463525 -1.42658 0
      vertex 0.881678 -1.21352 0
    endloop
  endfacet
  facet normal 0 0 -1
    outer loop
      vertex 0 -1.5 0
      vertex 1.19302 -18.9625 0
      vertex 0 -19 0
    endloop
  endfacet
  facet normal 0 0 -1
    outer loop
      vertex 2.38133 -18.8502 0
      vertex 0 -1.5 0
      vertex 0.463525 -1.42658 0
    endloop
  endfacet
  facet normal 0 0 -1
    outer loop
      vertex -1.19302 -18.9625 0
      vertex 0 -1.5 0
      vertex 0 -19 0
    endloop
  endfacet
  facet normal 0 0 -1
    outer loop
      vertex -2.38133 -18.8502 0
      vertex 0 -1.5 0
      vertex -1.19302 -18.9625 0
    endloop
  endfacet
  facet normal -0 0 -1
    outer loop
      vertex 0 -1.5 0
      vertex -2.38133 -18.8502 0
      vertex -0.463525 -1.42658 0
    endloop
  endfacet
  facet normal 0 0 -1
    outer loop
      vertex -3.56024 -18.6635 0
      vertex -0.463525 -1.42658 0
      vertex -2.38133 -18.8502 0
    endloop
  endfacet
  facet normal 0 0 -1
    outer loop
      vertex -4.72511 -18.4031 0
      vertex -0.463525 -1.42658 0
      vertex -3.56024 -18.6635 0
    endloop
  endfacet
  facet normal 0 0 -1
    outer loop
      vertex -5.87132 -18.0701 0
      vertex -0.463525 -1.42658 0
      vertex -4.72511 -18.4031 0
    endloop
  endfacet
  facet normal 0 0 -1
    outer loop
      vertex -6.99437 -17.6658 0
      vertex -0.463525 -1.42658 0
      vertex -5.87132 -18.0701 0
    endloop
  endfacet
  facet normal -0 0 -1
    outer loop
      vertex 6.99437 17.6658 0
      vertex 0.463525 1.42658 0
      vertex 5.87132 18.0701 0
    endloop
  endfacet
  facet normal -0 0 -1
    outer loop
      vertex 5.87132 18.0701 0
      vertex 0.463525 1.42658 0
      vertex 4.72511 18.4031 0
    endloop
  endfacet
  facet normal -0 0 -1
    outer loop
      vertex 4.72511 18.4031 0
      vertex 0.463525 1.42658 0
      vertex 3.56024 18.6635 0
    endloop
  endfacet
  facet normal -0 0 -1
    outer loop
      vertex 3.56024 18.6635 0
      vertex 0.463525 1.42658 0
      vertex 2.38133 18.8502 0
    endloop
  endfacet
  facet normal 0 0 -1
    outer loop
      vertex 0 1.5 0
      vertex 2.38133 18.8502 0
      vertex 0.463525 1.42658 0
    endloop
  endfacet
  facet normal -0 0 -1
    outer loop
      vertex 2.38133 18.8502 0
      vertex 0 1.5 0
      vertex 1.19302 18.9625 0
    endloop
  endfacet
  facet normal 0 0 -1
    outer loop
      vertex 0 1.5 0
      vertex 0 19 0
      vertex 1.19302 18.9625 0
    endloop
  endfacet
  facet normal 0 0 -1
    outer loop
      vertex -2.38133 18.8502 0
      vertex 0 1.5 0
      vertex -0.463525 1.42658 0
    endloop
  endfacet
  facet normal 0 0 -1
    outer loop
      vertex -8.08981 17.1917 0
      vertex -0.463525 1.42658 0
      vertex -0.881678 1.21352 0
    endloop
  endfacet
  facet normal 0 0 -1
    outer loop
      vertex 0 1.5 0
      vertex -1.19302 18.9625 0
      vertex 0 19 0
    endloop
  endfacet
  facet normal 0 0 -1
    outer loop
      vertex -13.0064 13.8504 0
      vertex -0.881678 1.21352 0
      vertex -1.21352 0.881678 0
    endloop
  endfacet
  facet normal 0 0 -1
    outer loop
      vertex -16.6498 9.15332 0
      vertex -1.21352 0.881678 0
      vertex -1.42658 0.463525 0
    endloop
  endfacet
  facet normal 0 0 -1
    outer loop
      vertex -18.6635 3.56024 0
      vertex -1.42658 0.463525 0
      vertex -1.5 0 0
    endloop
  endfacet
  facet normal 0 0 -1
    outer loop
      vertex -8.08981 -17.1917 0
      vertex -0.463525 -1.42658 0
      vertex -6.99437 -17.6658 0
    endloop
  endfacet
  facet normal 0 0 -1
    outer loop
      vertex 0 1.5 0
      vertex -2.38133 18.8502 0
      vertex -1.19302 18.9625 0
    endloop
  endfacet
  facet normal -0 0 -1
    outer loop
      vertex -0.463525 -1.42658 0
      vertex -8.08981 -17.1917 0
      vertex -0.881678 -1.21352 0
    endloop
  endfacet
  facet normal 0 0 -1
    outer loop
      vertex -0.463525 1.42658 0
      vertex -3.56024 18.6635 0
      vertex -2.38133 18.8502 0
    endloop
  endfacet
  facet normal 0 0 -1
    outer loop
      vertex -9.15332 -16.6498 0
      vertex -0.881678 -1.21352 0
      vertex -8.08981 -17.1917 0
    endloop
  endfacet
  facet normal 0 0 -1
    outer loop
      vertex -0.463525 1.42658 0
      vertex -4.72511 18.4031 0
      vertex -3.56024 18.6635 0
    endloop
  endfacet
  facet normal 0 0 -1
    outer loop
      vertex -10.1807 -16.0422 0
      vertex -0.881678 -1.21352 0
      vertex -9.15332 -16.6498 0
    endloop
  endfacet
  facet normal 0 0 -1
    outer loop
      vertex -0.463525 1.42658 0
      vertex -5.87132 18.0701 0
      vertex -4.72511 18.4031 0
    endloop
  endfacet
  facet normal 0 0 -1
    outer loop
      vertex -11.1679 -15.3713 0
      vertex -0.881678 -1.21352 0
      vertex -10.1807 -16.0422 0
    endloop
  endfacet
  facet normal 0 0 -1
    outer loop
      vertex -0.463525 1.42658 0
      vertex -6.99437 17.6658 0
      vertex -5.87132 18.0701 0
    endloop
  endfacet
  facet normal 0 0 -1
    outer loop
      vertex -12.1111 -14.6398 0
      vertex -0.881678 -1.21352 0
      vertex -11.1679 -15.3713 0
    endloop
  endfacet
  facet normal 0 0 -1
    outer loop
      vertex -0.463525 1.42658 0
      vertex -8.08981 17.1917 0
      vertex -6.99437 17.6658 0
    endloop
  endfacet
  facet normal 0 0 -1
    outer loop
      vertex -13.0064 -13.8504 0
      vertex -0.881678 -1.21352 0
      vertex -12.1111 -14.6398 0
    endloop
  endfacet
  facet normal 0 0 -1
    outer loop
      vertex -0.881678 1.21352 0
      vertex -9.15332 16.6498 0
      vertex -8.08981 17.1917 0
    endloop
  endfacet
  facet normal -0 0 -1
    outer loop
      vertex -0.881678 -1.21352 0
      vertex -13.0064 -13.8504 0
      vertex -1.21352 -0.881678 0
    endloop
  endfacet
  facet normal 0 0 -1
    outer loop
      vertex -0.881678 1.21352 0
      vertex -10.1807 16.0422 0
      vertex -9.15332 16.6498 0
    endloop
  endfacet
  facet normal 0 0 -1
    outer loop
      vertex -13.8504 -13.0064 0
      vertex -1.21352 -0.881678 0
      vertex -13.0064 -13.8504 0
    endloop
  endfacet
  facet normal 0 0 -1
    outer loop
      vertex -0.881678 1.21352 0
      vertex -11.1679 15.3713 0
      vertex -10.1807 16.0422 0
    endloop
  endfacet
  facet normal 0 0 -1
    outer loop
      vertex -14.6398 -12.1111 0
      vertex -1.21352 -0.881678 0
      vertex -13.8504 -13.0064 0
    endloop
  endfacet
  facet normal 0 0 -1
    outer loop
      vertex -0.881678 1.21352 0
      vertex -12.1111 14.6398 0
      vertex -11.1679 15.3713 0
    endloop
  endfacet
  facet normal 0 0 -1
    outer loop
      vertex -15.3713 -11.1679 0
      vertex -1.21352 -0.881678 0
      vertex -14.6398 -12.1111 0
    endloop
  endfacet
  facet normal 0 0 -1
    outer loop
      vertex -0.881678 1.21352 0
      vertex -13.0064 13.8504 0
      vertex -12.1111 14.6398 0
    endloop
  endfacet
  facet normal 0 0 -1
    outer loop
      vertex -16.0422 -10.1807 0
      vertex -1.21352 -0.881678 0
      vertex -15.3713 -11.1679 0
    endloop
  endfacet
  facet normal 0 0 -1
    outer loop
      vertex -1.21352 0.881678 0
      vertex -13.8504 13.0064 0
      vertex -13.0064 13.8504 0
    endloop
  endfacet
  facet normal 0 0 -1
    outer loop
      vertex -16.6498 -9.15332 0
      vertex -1.21352 -0.881678 0
      vertex -16.0422 -10.1807 0
    endloop
  endfacet
  facet normal 0 0 -1
    outer loop
      vertex -1.21352 0.881678 0
      vertex -14.6398 12.1111 0
      vertex -13.8504 13.0064 0
    endloop
  endfacet
  facet normal -0 0 -1
    outer loop
      vertex -1.21352 -0.881678 0
      vertex -16.6498 -9.15332 0
      vertex -1.42658 -0.463525 0
    endloop
  endfacet
  facet normal 0 0 -1
    outer loop
      vertex -1.21352 0.881678 0
      vertex -15.3713 11.1679 0
      vertex -14.6398 12.1111 0
    endloop
  endfacet
  facet normal 0 0 -1
    outer loop
      vertex -17.1917 -8.08981 0
      vertex -1.42658 -0.463525 0
      vertex -16.6498 -9.15332 0
    endloop
  endfacet
  facet normal 0 0 -1
    outer loop
      vertex -1.21352 0.881678 0
      vertex -16.0422 10.1807 0
      vertex -15.3713 11.1679 0
    endloop
  endfacet
  facet normal 0 0 -1
    outer loop
      vertex -17.6658 -6.99437 0
      vertex -1.42658 -0.463525 0
      vertex -17.1917 -8.08981 0
    endloop
  endfacet
  facet normal 0 0 -1
    outer loop
      vertex -1.21352 0.881678 0
      vertex -16.6498 9.15332 0
      vertex -16.0422 10.1807 0
    endloop
  endfacet
  facet normal 0 0 -1
    outer loop
      vertex -18.0701 -5.87132 0
      vertex -1.42658 -0.463525 0
      vertex -17.6658 -6.99437 0
    endloop
  endfacet
  facet normal 0 0 -1
    outer loop
      vertex -1.42658 0.463525 0
      vertex -17.1917 8.08981 0
      vertex -16.6498 9.15332 0
    endloop
  endfacet
  facet normal 0 0 -1
    outer loop
      vertex -18.4031 -4.72511 0
      vertex -1.42658 -0.463525 0
      vertex -18.0701 -5.87132 0
    endloop
  endfacet
  facet normal 0 0 -1
    outer loop
      vertex -1.42658 0.463525 0
      vertex -17.6658 6.99437 0
      vertex -17.1917 8.08981 0
    endloop
  endfacet
  facet normal 0 0 -1
    outer loop
      vertex -18.6635 -3.56024 0
      vertex -1.42658 -0.463525 0
      vertex -18.4031 -4.72511 0
    endloop
  endfacet
  facet normal 0 0 -1
    outer loop
      vertex -1.42658 0.463525 0
      vertex -18.0701 5.87132 0
      vertex -17.6658 6.99437 0
    endloop
  endfacet
  facet normal -0 0 -1
    outer loop
      vertex -1.42658 -0.463525 0
      vertex -18.6635 -3.56024 0
      vertex -1.5 0 0
    endloop
  endfacet
  facet normal 0 0 -1
    outer loop
      vertex -1.42658 0.463525 0
      vertex -18.4031 4.72511 0
      vertex -18.0701 5.87132 0
    endloop
  endfacet
  facet normal 0 0 -1
    outer loop
      vertex -18.8502 -2.38133 0
      vertex -1.5 0 0
      vertex -18.6635 -3.56024 0
    endloop
  endfacet
  facet normal 0 0 -1
    outer loop
      vertex -1.42658 0.463525 0
      vertex -18.6635 3.56024 0
      vertex -18.4031 4.72511 0
    endloop
  endfacet
  facet normal 0 0 -1
    outer loop
      vertex -18.9625 -1.19302 0
      vertex -1.5 0 0
      vertex -18.8502 -2.38133 0
    endloop
  endfacet
  facet normal 0 0 -1
    outer loop
      vertex -1.5 0 0
      vertex -18.8502 2.38133 0
      vertex -18.6635 3.56024 0
    endloop
  endfacet
  facet normal 0 0 -1
    outer loop
      vertex -19 0 0
      vertex -1.5 0 0
      vertex -18.9625 -1.19302 0
    endloop
  endfacet
  facet normal 0 0 -1
    outer loop
      vertex -1.5 0 0
      vertex -18.9625 1.19302 0
      vertex -18.8502 2.38133 0
    endloop
  endfacet
  facet normal 0 0 -1
    outer loop
      vertex -1.5 0 0
      vertex -19 0 0
      vertex -18.9625 1.19302 0
    endloop
  endfacet
  facet normal -0.827081 -0.562083 0
    outer loop
      vertex -15.3713 -11.1679 0
      vertex -16.0422 -10.1807 0.25
      vertex -16.0422 -10.1807 0
    endloop
  endfacet
  facet normal -0.827081 -0.562083 0
    outer loop
      vertex -16.0422 -10.1807 0.25
      vertex -15.3713 -11.1679 0
      vertex -15.3713 -11.1679 0.25
    endloop
  endfacet
  facet normal -0.917736 -0.397191 0
    outer loop
      vertex -17.1917 -8.08981 0
      vertex -17.6658 -6.99437 0.25
      vertex -17.6658 -6.99437 0
    endloop
  endfacet
  facet normal -0.917736 -0.397191 0
    outer loop
      vertex -17.6658 -6.99437 0.25
      vertex -17.1917 -8.08981 0
      vertex -17.1917 -8.08981 0.25
    endloop
  endfacet
  facet normal 0.987691 0.156417 0
    outer loop
      vertex 18.8502 2.38133 0.25
      vertex 18.6635 3.56024 0
      vertex 18.6635 3.56024 0.25
    endloop
  endfacet
  facet normal 0.987691 0.156417 0
    outer loop
      vertex 18.6635 3.56024 0
      vertex 18.8502 2.38133 0.25
      vertex 18.8502 2.38133 0
    endloop
  endfacet
  facet normal 0.917736 0.397191 0
    outer loop
      vertex 17.6658 6.99437 0.25
      vertex 17.1917 8.08981 0
      vertex 17.1917 8.08981 0.25
    endloop
  endfacet
  facet normal 0.917736 0.397191 0
    outer loop
      vertex 17.1917 8.08981 0
      vertex 17.6658 6.99437 0.25
      vertex 17.6658 6.99437 0
    endloop
  endfacet
  facet normal 0.940887 0.338721 0
    outer loop
      vertex 18.0701 5.87132 0.25
      vertex 17.6658 6.99437 0
      vertex 17.6658 6.99437 0.25
    endloop
  endfacet
  facet normal 0.940887 0.338721 0
    outer loop
      vertex 17.6658 6.99437 0
      vertex 18.0701 5.87132 0.25
      vertex 18.0701 5.87132 0
    endloop
  endfacet
  facet normal 0.860739 0.509047 0
    outer loop
      vertex 16.6498 9.15332 0.25
      vertex 16.0422 10.1807 0
      vertex 16.0422 10.1807 0.25
    endloop
  endfacet
  facet normal 0.860739 0.509047 0
    outer loop
      vertex 16.0422 10.1807 0
      vertex 16.6498 9.15332 0.25
      vertex 16.6498 9.15332 0
    endloop
  endfacet
  facet normal 0.750075 0.661353 0
    outer loop
      vertex 14.6398 12.1111 0.25
      vertex 13.8504 13.0064 0
      vertex 13.8504 13.0064 0.25
    endloop
  endfacet
  facet normal 0.750075 0.661353 0
    outer loop
      vertex 13.8504 13.0064 0
      vertex 14.6398 12.1111 0.25
      vertex 14.6398 12.1111 0
    endloop
  endfacet
  facet normal 0.707107 0.707107 0
    outer loop
      vertex 13.8504 13.0064 0.25
      vertex 13.0064 13.8504 0
      vertex 13.0064 13.8504 0.25
    endloop
  endfacet
  facet normal 0.707107 0.707107 0
    outer loop
      vertex 13.0064 13.8504 0
      vertex 13.8504 13.0064 0.25
      vertex 13.8504 13.0064 0
    endloop
  endfacet
  facet normal 0.612844 0.790204 -0
    outer loop
      vertex 12.1111 14.6398 0
      vertex 11.1679 15.3713 0.25
      vertex 12.1111 14.6398 0.25
    endloop
  endfacet
  facet normal 0.612844 0.790204 0
    outer loop
      vertex 11.1679 15.3713 0.25
      vertex 12.1111 14.6398 0
      vertex 11.1679 15.3713 0
    endloop
  endfacet
  facet normal 0.454 0.891002 -0
    outer loop
      vertex 9.15332 16.6498 0
      vertex 8.08981 17.1917 0.25
      vertex 9.15332 16.6498 0.25
    endloop
  endfacet
  facet normal 0.454 0.891002 0
    outer loop
      vertex 8.08981 17.1917 0.25
      vertex 9.15332 16.6498 0
      vertex 8.08981 17.1917 0
    endloop
  endfacet
  facet normal 0.509047 0.860739 -0
    outer loop
      vertex 10.1807 16.0422 0
      vertex 9.15332 16.6498 0.25
      vertex 10.1807 16.0422 0.25
    endloop
  endfacet
  facet normal 0.509047 0.860739 0
    outer loop
      vertex 9.15332 16.6498 0.25
      vertex 10.1807 16.0422 0
      vertex 9.15332 16.6498 0
    endloop
  endfacet
  facet normal 0.278987 0.960295 -0
    outer loop
      vertex 5.87132 18.0701 0
      vertex 4.72511 18.4031 0.25
      vertex 5.87132 18.0701 0.25
    endloop
  endfacet
  facet normal 0.278987 0.960295 0
    outer loop
      vertex 4.72511 18.4031 0.25
      vertex 5.87132 18.0701 0
      vertex 4.72511 18.4031 0
    endloop
  endfacet
  facet normal 0.338721 0.940887 -0
    outer loop
      vertex 6.99437 17.6658 0
      vertex 5.87132 18.0701 0.25
      vertex 6.99437 17.6658 0.25
    endloop
  endfacet
  facet normal 0.338721 0.940887 0
    outer loop
      vertex 5.87132 18.0701 0.25
      vertex 6.99437 17.6658 0
      vertex 5.87132 18.0701 0
    endloop
  endfacet
  facet normal 0.0940848 0.995564 -0
    outer loop
      vertex 2.38133 18.8502 0
      vertex 1.19302 18.9625 0.25
      vertex 2.38133 18.8502 0.25
    endloop
  endfacet
  facet normal 0.0940848 0.995564 0
    outer loop
      vertex 1.19302 18.9625 0.25
      vertex 2.38133 18.8502 0
      vertex 1.19302 18.9625 0
    endloop
  endfacet
  facet normal -0.987691 0.156417 0
    outer loop
      vertex -18.8502 2.38133 0
      vertex -18.6635 3.56024 0.25
      vertex -18.6635 3.56024 0
    endloop
  endfacet
  facet normal -0.987691 0.156417 0
    outer loop
      vertex -18.6635 3.56024 0.25
      vertex -18.8502 2.38133 0
      vertex -18.8502 2.38133 0.25
    endloop
  endfacet
  facet normal -0.940887 0.338721 0
    outer loop
      vertex -18.0701 5.87132 0
      vertex -17.6658 6.99437 0.25
      vertex -17.6658 6.99437 0
    endloop
  endfacet
  facet normal -0.940887 0.338721 0
    outer loop
      vertex -17.6658 6.99437 0.25
      vertex -18.0701 5.87132 0
      vertex -18.0701 5.87132 0.25
    endloop
  endfacet
  facet normal -0.917736 0.397191 0
    outer loop
      vertex -17.6658 6.99437 0
      vertex -17.1917 8.08981 0.25
      vertex -17.1917 8.08981 0
    endloop
  endfacet
  facet normal -0.917736 0.397191 0
    outer loop
      vertex -17.1917 8.08981 0.25
      vertex -17.6658 6.99437 0
      vertex -17.6658 6.99437 0.25
    endloop
  endfacet
  facet normal -0.975913 0.21816 0
    outer loop
      vertex -18.6635 3.56024 0
      vertex -18.4031 4.72511 0.25
      vertex -18.4031 4.72511 0
    endloop
  endfacet
  facet normal -0.975913 0.21816 0
    outer loop
      vertex -18.4031 4.72511 0.25
      vertex -18.6635 3.56024 0
      vertex -18.6635 3.56024 0.25
    endloop
  endfacet
  facet normal -0.995564 0.0940848 0
    outer loop
      vertex -18.9625 1.19302 0
      vertex -18.8502 2.38133 0.25
      vertex -18.8502 2.38133 0
    endloop
  endfacet
  facet normal -0.995564 0.0940848 0
    outer loop
      vertex -18.8502 2.38133 0.25
      vertex -18.9625 1.19302 0
      vertex -18.9625 1.19302 0.25
    endloop
  endfacet
  facet normal 0 0 1
    outer loop
      vertex 1.5 0 0.25
      vertex 19 0 0.25
      vertex 18.9625 1.19302 0.25
    endloop
  endfacet
  facet normal 0 0 1
    outer loop
      vertex 1.5 0 0.25
      vertex 18.9625 1.19302 0.25
      vertex 18.8502 2.38133 0.25
    endloop
  endfacet
  facet normal 0 0 1
    outer loop
      vertex 19 0 0.25
      vertex 1.5 0 0.25
      vertex 18.9625 -1.19302 0.25
    endloop
  endfacet
  facet normal 0 0 1
    outer loop
      vertex 1.5 0 0.25
      vertex 18.8502 2.38133 0.25
      vertex 18.6635 3.56024 0.25
    endloop
  endfacet
  facet normal 0 0 1
    outer loop
      vertex 18.9625 -1.19302 0.25
      vertex 1.5 0 0.25
      vertex 18.8502 -2.38133 0.25
    endloop
  endfacet
  facet normal 0 0 1
    outer loop
      vertex 1.42658 0.463525 0.25
      vertex 18.6635 3.56024 0.25
      vertex 18.4031 4.72511 0.25
    endloop
  endfacet
  facet normal 0 0 1
    outer loop
      vertex 18.8502 -2.38133 0.25
      vertex 1.5 0 0.25
      vertex 18.6635 -3.56024 0.25
    endloop
  endfacet
  facet normal 0 0 1
    outer loop
      vertex 1.42658 0.463525 0.25
      vertex 18.4031 4.72511 0.25
      vertex 18.0701 5.87132 0.25
    endloop
  endfacet
  facet normal -0 0 1
    outer loop
      vertex 1.42658 -0.463525 0.25
      vertex 18.6635 -3.56024 0.25
      vertex 1.5 0 0.25
    endloop
  endfacet
  facet normal 0 0 1
    outer loop
      vertex 1.42658 0.463525 0.25
      vertex 18.0701 5.87132 0.25
      vertex 17.6658 6.99437 0.25
    endloop
  endfacet
  facet normal 0 0 1
    outer loop
      vertex 18.6635 -3.56024 0.25
      vertex 1.42658 -0.463525 0.25
      vertex 18.4031 -4.72511 0.25
    endloop
  endfacet
  facet normal 0 0 1
    outer loop
      vertex 1.42658 0.463525 0.25
      vertex 17.6658 6.99437 0.25
      vertex 17.1917 8.08981 0.25
    endloop
  endfacet
  facet normal 0 0 1
    outer loop
      vertex 18.4031 -4.72511 0.25
      vertex 1.42658 -0.463525 0.25
      vertex 18.0701 -5.87132 0.25
    endloop
  endfacet
  facet normal 0 0 1
    outer loop
      vertex 1.42658 0.463525 0.25
      vertex 17.1917 8.08981 0.25
      vertex 16.6498 9.15332 0.25
    endloop
  endfacet
  facet normal 0 0 1
    outer loop
      vertex 18.0701 -5.87132 0.25
      vertex 1.42658 -0.463525 0.25
      vertex 17.6658 -6.99437 0.25
    endloop
  endfacet
  facet normal 0 0 1
    outer loop
      vertex 1.21352 0.881678 0.25
      vertex 16.6498 9.15332 0.25
      vertex 16.0422 10.1807 0.25
    endloop
  endfacet
  facet normal 0 0 1
    outer loop
      vertex 17.6658 -6.99437 0.25
      vertex 1.42658 -0.463525 0.25
      vertex 17.1917 -8.08981 0.25
    endloop
  endfacet
  facet normal 0 0 1
    outer loop
      vertex 1.21352 0.881678 0.25
      vertex 16.0422 10.1807 0.25
      vertex 15.3713 11.1679 0.25
    endloop
  endfacet
  facet normal 0 0 1
    outer loop
      vertex 17.1917 -8.08981 0.25
      vertex 1.42658 -0.463525 0.25
      vertex 16.6498 -9.15332 0.25
    endloop
  endfacet
  facet normal 0 0 1
    outer loop
      vertex 1.21352 0.881678 0.25
      vertex 15.3713 11.1679 0.25
      vertex 14.6398 12.1111 0.25
    endloop
  endfacet
  facet normal -0 0 1
    outer loop
      vertex 1.21352 -0.881678 0.25
      vertex 16.6498 -9.15332 0.25
      vertex 1.42658 -0.463525 0.25
    endloop
  endfacet
  facet normal 0 0 1
    outer loop
      vertex 1.21352 0.881678 0.25
      vertex 14.6398 12.1111 0.25
      vertex 13.8504 13.0064 0.25
    endloop
  endfacet
  facet normal 0 0 1
    outer loop
      vertex 16.6498 -9.15332 0.25
      vertex 1.21352 -0.881678 0.25
      vertex 16.0422 -10.1807 0.25
    endloop
  endfacet
  facet normal 0 0 1
    outer loop
      vertex 1.21352 0.881678 0.25
      vertex 13.8504 13.0064 0.25
      vertex 13.0064 13.8504 0.25
    endloop
  endfacet
  facet normal 0 0 1
    outer loop
      vertex 16.0422 -10.1807 0.25
      vertex 1.21352 -0.881678 0.25
      vertex 15.3713 -11.1679 0.25
    endloop
  endfacet
  facet normal 0 0 1
    outer loop
      vertex 0.881678 1.21352 0.25
      vertex 13.0064 13.8504 0.25
      vertex 12.1111 14.6398 0.25
    endloop
  endfacet
  facet normal 0 0 1
    outer loop
      vertex 15.3713 -11.1679 0.25
      vertex 1.21352 -0.881678 0.25
      vertex 14.6398 -12.1111 0.25
    endloop
  endfacet
  facet normal 0 0 1
    outer loop
      vertex 0.881678 1.21352 0.25
      vertex 12.1111 14.6398 0.25
      vertex 11.1679 15.3713 0.25
    endloop
  endfacet
  facet normal 0 0 1
    outer loop
      vertex 14.6398 -12.1111 0.25
      vertex 1.21352 -0.881678 0.25
      vertex 13.8504 -13.0064 0.25
    endloop
  endfacet
  facet normal 0 0 1
    outer loop
      vertex 0.881678 1.21352 0.25
      vertex 11.1679 15.3713 0.25
      vertex 10.1807 16.0422 0.25
    endloop
  endfacet
  facet normal 0 0 1
    outer loop
      vertex 13.8504 -13.0064 0.25
      vertex 1.21352 -0.881678 0.25
      vertex 13.0064 -13.8504 0.25
    endloop
  endfacet
  facet normal 0 0 1
    outer loop
      vertex 0.881678 1.21352 0.25
      vertex 10.1807 16.0422 0.25
      vertex 9.15332 16.6498 0.25
    endloop
  endfacet
  facet normal -0 0 1
    outer loop
      vertex 0.881678 -1.21352 0.25
      vertex 13.0064 -13.8504 0.25
      vertex 1.21352 -0.881678 0.25
    endloop
  endfacet
  facet normal 0 0 1
    outer loop
      vertex 0.881678 1.21352 0.25
      vertex 9.15332 16.6498 0.25
      vertex 8.08981 17.1917 0.25
    endloop
  endfacet
  facet normal 0 0 1
    outer loop
      vertex 13.0064 -13.8504 0.25
      vertex 0.881678 -1.21352 0.25
      vertex 12.1111 -14.6398 0.25
    endloop
  endfacet
  facet normal 0 0 1
    outer loop
      vertex 0.463525 1.42658 0.25
      vertex 8.08981 17.1917 0.25
      vertex 6.99437 17.6658 0.25
    endloop
  endfacet
  facet normal 0 0 1
    outer loop
      vertex 12.1111 -14.6398 0.25
      vertex 0.881678 -1.21352 0.25
      vertex 11.1679 -15.3713 0.25
    endloop
  endfacet
  facet normal 0 0 1
    outer loop
      vertex 0.463525 1.42658 0.25
      vertex 6.99437 17.6658 0.25
      vertex 5.87132 18.0701 0.25
    endloop
  endfacet
  facet normal 0 0 1
    outer loop
      vertex 11.1679 -15.3713 0.25
      vertex 0.881678 -1.21352 0.25
      vertex 10.1807 -16.0422 0.25
    endloop
  endfacet
  facet normal 0 0 1
    outer loop
      vertex 0.463525 1.42658 0.25
      vertex 5.87132 18.0701 0.25
      vertex 4.72511 18.4031 0.25
    endloop
  endfacet
  facet normal 0 0 1
    outer loop
      vertex 10.1807 -16.0422 0.25
      vertex 0.881678 -1.21352 0.25
      vertex 9.15332 -16.6498 0.25
    endloop
  endfacet
  facet normal 0 0 1
    outer loop
      vertex 0.463525 1.42658 0.25
      vertex 4.72511 18.4031 0.25
      vertex 3.56024 18.6635 0.25
    endloop
  endfacet
  facet normal 0 0 1
    outer loop
      vertex 9.15332 -16.6498 0.25
      vertex 0.881678 -1.21352 0.25
      vertex 8.08981 -17.1917 0.25
    endloop
  endfacet
  facet normal 0 0 1
    outer loop
      vertex 0.463525 1.42658 0.25
      vertex 3.56024 18.6635 0.25
      vertex 2.38133 18.8502 0.25
    endloop
  endfacet
  facet normal -0 0 1
    outer loop
      vertex 0.463525 -1.42658 0.25
      vertex 8.08981 -17.1917 0.25
      vertex 0.881678 -1.21352 0.25
    endloop
  endfacet
  facet normal 0 0 1
    outer loop
      vertex 8.08981 -17.1917 0.25
      vertex 0.463525 -1.42658 0.25
      vertex 6.99437 -17.6658 0.25
    endloop
  endfacet
  facet normal 0 0 1
    outer loop
      vertex 18.6635 3.56024 0.25
      vertex 1.42658 0.463525 0.25
      vertex 1.5 0 0.25
    endloop
  endfacet
  facet normal 0 0 1
    outer loop
      vertex 16.6498 9.15332 0.25
      vertex 1.21352 0.881678 0.25
      vertex 1.42658 0.463525 0.25
    endloop
  endfacet
  facet normal 0 0 1
    outer loop
      vertex 0 1.5 0.25
      vertex 2.38133 18.8502 0.25
      vertex 1.19302 18.9625 0.25
    endloop
  endfacet
  facet normal 0 0 1
    outer loop
      vertex 13.0064 13.8504 0.25
      vertex 0.881678 1.21352 0.25
      vertex 1.21352 0.881678 0.25
    endloop
  endfacet
  facet normal 0 0 1
    outer loop
      vertex 8.08981 17.1917 0.25
      vertex 0.463525 1.42658 0.25
      vertex 0.881678 1.21352 0.25
    endloop
  endfacet
  facet normal 0 0 1
    outer loop
      vertex 0 1.5 0.25
      vertex 1.19302 18.9625 0.25
      vertex 0 19 0.25
    endloop
  endfacet
  facet normal 0 0 1
    outer loop
      vertex 2.38133 18.8502 0.25
      vertex 0 1.5 0.25
      vertex 0.463525 1.42658 0.25
    endloop
  endfacet
  facet normal -0 0 1
    outer loop
      vertex -1.19302 18.9625 0.25
      vertex 0 1.5 0.25
      vertex 0 19 0.25
    endloop
  endfacet
  facet normal -0 0 1
    outer loop
      vertex -2.38133 18.8502 0.25
      vertex 0 1.5 0.25
      vertex -1.19302 18.9625 0.25
    endloop
  endfacet
  facet normal 0 0 1
    outer loop
      vertex 0 1.5 0.25
      vertex -2.38133 18.8502 0.25
      vertex -0.463525 1.42658 0.25
    endloop
  endfacet
  facet normal -0 0 1
    outer loop
      vertex -3.56024 18.6635 0.25
      vertex -0.463525 1.42658 0.25
      vertex -2.38133 18.8502 0.25
    endloop
  endfacet
  facet normal -0 0 1
    outer loop
      vertex -4.72511 18.4031 0.25
      vertex -0.463525 1.42658 0.25
      vertex -3.56024 18.6635 0.25
    endloop
  endfacet
  facet normal -0 0 1
    outer loop
      vertex -5.87132 18.0701 0.25
      vertex -0.463525 1.42658 0.25
      vertex -4.72511 18.4031 0.25
    endloop
  endfacet
  facet normal -0 0 1
    outer loop
      vertex -6.99437 17.6658 0.25
      vertex -0.463525 1.42658 0.25
      vertex -5.87132 18.0701 0.25
    endloop
  endfacet
  facet normal 0 0 1
    outer loop
      vertex 6.99437 -17.6658 0.25
      vertex 0.463525 -1.42658 0.25
      vertex 5.87132 -18.0701 0.25
    endloop
  endfacet
  facet normal 0 0 1
    outer loop
      vertex 5.87132 -18.0701 0.25
      vertex 0.463525 -1.42658 0.25
      vertex 4.72511 -18.4031 0.25
    endloop
  endfacet
  facet normal 0 0 1
    outer loop
      vertex 4.72511 -18.4031 0.25
      vertex 0.463525 -1.42658 0.25
      vertex 3.56024 -18.6635 0.25
    endloop
  endfacet
  facet normal 0 0 1
    outer loop
      vertex 3.56024 -18.6635 0.25
      vertex 0.463525 -1.42658 0.25
      vertex 2.38133 -18.8502 0.25
    endloop
  endfacet
  facet normal -0 0 1
    outer loop
      vertex 0 -1.5 0.25
      vertex 2.38133 -18.8502 0.25
      vertex 0.463525 -1.42658 0.25
    endloop
  endfacet
  facet normal 0 0 1
    outer loop
      vertex 2.38133 -18.8502 0.25
      vertex 0 -1.5 0.25
      vertex 1.19302 -18.9625 0.25
    endloop
  endfacet
  facet normal 0 0 1
    outer loop
      vertex 0 -1.5 0.25
      vertex 0 -19 0.25
      vertex 1.19302 -18.9625 0.25
    endloop
  endfacet
  facet normal 0 0 1
    outer loop
      vertex -2.38133 -18.8502 0.25
      vertex 0 -1.5 0.25
      vertex -0.463525 -1.42658 0.25
    endloop
  endfacet
  facet normal 0 0 1
    outer loop
      vertex -8.08981 -17.1917 0.25
      vertex -0.463525 -1.42658 0.25
      vertex -0.881678 -1.21352 0.25
    endloop
  endfacet
  facet normal 0 0 1
    outer loop
      vertex 0 -1.5 0.25
      vertex -1.19302 -18.9625 0.25
      vertex 0 -19 0.25
    endloop
  endfacet
  facet normal 0 0 1
    outer loop
      vertex -13.0064 -13.8504 0.25
      vertex -0.881678 -1.21352 0.25
      vertex -1.21352 -0.881678 0.25
    endloop
  endfacet
  facet normal 0 0 1
    outer loop
      vertex -16.6498 -9.15332 0.25
      vertex -1.21352 -0.881678 0.25
      vertex -1.42658 -0.463525 0.25
    endloop
  endfacet
  facet normal 0 0 1
    outer loop
      vertex -18.6635 -3.56024 0.25
      vertex -1.42658 -0.463525 0.25
      vertex -1.5 0 0.25
    endloop
  endfacet
  facet normal -0 0 1
    outer loop
      vertex -8.08981 17.1917 0.25
      vertex -0.463525 1.42658 0.25
      vertex -6.99437 17.6658 0.25
    endloop
  endfacet
  facet normal 0 0 1
    outer loop
      vertex 0 -1.5 0.25
      vertex -2.38133 -18.8502 0.25
      vertex -1.19302 -18.9625 0.25
    endloop
  endfacet
  facet normal 0 0 1
    outer loop
      vertex -0.463525 1.42658 0.25
      vertex -8.08981 17.1917 0.25
      vertex -0.881678 1.21352 0.25
    endloop
  endfacet
  facet normal 0 0 1
    outer loop
      vertex -0.463525 -1.42658 0.25
      vertex -3.56024 -18.6635 0.25
      vertex -2.38133 -18.8502 0.25
    endloop
  endfacet
  facet normal -0 0 1
    outer loop
      vertex -9.15332 16.6498 0.25
      vertex -0.881678 1.21352 0.25
      vertex -8.08981 17.1917 0.25
    endloop
  endfacet
  facet normal 0 0 1
    outer loop
      vertex -0.463525 -1.42658 0.25
      vertex -4.72511 -18.4031 0.25
      vertex -3.56024 -18.6635 0.25
    endloop
  endfacet
  facet normal -0 0 1
    outer loop
      vertex -10.1807 16.0422 0.25
      vertex -0.881678 1.21352 0.25
      vertex -9.15332 16.6498 0.25
    endloop
  endfacet
  facet normal 0 0 1
    outer loop
      vertex -0.463525 -1.42658 0.25
      vertex -5.87132 -18.0701 0.25
      vertex -4.72511 -18.4031 0.25
    endloop
  endfacet
  facet normal -0 0 1
    outer loop
      vertex -11.1679 15.3713 0.25
      vertex -0.881678 1.21352 0.25
      vertex -10.1807 16.0422 0.25
    endloop
  endfacet
  facet normal 0 0 1
    outer loop
      vertex -0.463525 -1.42658 0.25
      vertex -6.99437 -17.6658 0.25
      vertex -5.87132 -18.0701 0.25
    endloop
  endfacet
  facet normal -0 0 1
    outer loop
      vertex -12.1111 14.6398 0.25
      vertex -0.881678 1.21352 0.25
      vertex -11.1679 15.3713 0.25
    endloop
  endfacet
  facet normal 0 0 1
    outer loop
      vertex -0.463525 -1.42658 0.25
      vertex -8.08981 -17.1917 0.25
      vertex -6.99437 -17.6658 0.25
    endloop
  endfacet
  facet normal -0 0 1
    outer loop
      vertex -13.0064 13.8504 0.25
      vertex -0.881678 1.21352 0.25
      vertex -12.1111 14.6398 0.25
    endloop
  endfacet
  facet normal 0 0 1
    outer loop
      vertex -0.881678 -1.21352 0.25
      vertex -9.15332 -16.6498 0.25
      vertex -8.08981 -17.1917 0.25
    endloop
  endfacet
  facet normal 0 0 1
    outer loop
      vertex -0.881678 1.21352 0.25
      vertex -13.0064 13.8504 0.25
      vertex -1.21352 0.881678 0.25
    endloop
  endfacet
  facet normal 0 0 1
    outer loop
      vertex -0.881678 -1.21352 0.25
      vertex -10.1807 -16.0422 0.25
      vertex -9.15332 -16.6498 0.25
    endloop
  endfacet
  facet normal -0 0 1
    outer loop
      vertex -13.8504 13.0064 0.25
      vertex -1.21352 0.881678 0.25
      vertex -13.0064 13.8504 0.25
    endloop
  endfacet
  facet normal 0 0 1
    outer loop
      vertex -0.881678 -1.21352 0.25
      vertex -11.1679 -15.3713 0.25
      vertex -10.1807 -16.0422 0.25
    endloop
  endfacet
  facet normal -0 0 1
    outer loop
      vertex -14.6398 12.1111 0.25
      vertex -1.21352 0.881678 0.25
      vertex -13.8504 13.0064 0.25
    endloop
  endfacet
  facet normal 0 0 1
    outer loop
      vertex -0.881678 -1.21352 0.25
      vertex -12.1111 -14.6398 0.25
      vertex -11.1679 -15.3713 0.25
    endloop
  endfacet
  facet normal -0 0 1
    outer loop
      vertex -15.3713 11.1679 0.25
      vertex -1.21352 0.881678 0.25
      vertex -14.6398 12.1111 0.25
    endloop
  endfacet
  facet normal 0 0 1
    outer loop
      vertex -0.881678 -1.21352 0.25
      vertex -13.0064 -13.8504 0.25
      vertex -12.1111 -14.6398 0.25
    endloop
  endfacet
  facet normal -0 0 1
    outer loop
      vertex -16.0422 10.1807 0.25
      vertex -1.21352 0.881678 0.25
      vertex -15.3713 11.1679 0.25
    endloop
  endfacet
  facet normal 0 0 1
    outer loop
      vertex -1.21352 -0.881678 0.25
      vertex -13.8504 -13.0064 0.25
      vertex -13.0064 -13.8504 0.25
    endloop
  endfacet
  facet normal -0 0 1
    outer loop
      vertex -16.6498 9.15332 0.25
      vertex -1.21352 0.881678 0.25
      vertex -16.0422 10.1807 0.25
    endloop
  endfacet
  facet normal 0 0 1
    outer loop
      vertex -1.21352 -0.881678 0.25
      vertex -14.6398 -12.1111 0.25
      vertex -13.8504 -13.0064 0.25
    endloop
  endfacet
  facet normal 0 0 1
    outer loop
      vertex -1.21352 0.881678 0.25
      vertex -16.6498 9.15332 0.25
      vertex -1.42658 0.463525 0.25
    endloop
  endfacet
  facet normal 0 0 1
    outer loop
      vertex -1.21352 -0.881678 0.25
      vertex -15.3713 -11.1679 0.25
      vertex -14.6398 -12.1111 0.25
    endloop
  endfacet
  facet normal -0 0 1
    outer loop
      vertex -17.1917 8.08981 0.25
      vertex -1.42658 0.463525 0.25
      vertex -16.6498 9.15332 0.25
    endloop
  endfacet
  facet normal 0 0 1
    outer loop
      vertex -1.21352 -0.881678 0.25
      vertex -16.0422 -10.1807 0.25
      vertex -15.3713 -11.1679 0.25
    endloop
  endfacet
  facet normal -0 0 1
    outer loop
      vertex -17.6658 6.99437 0.25
      vertex -1.42658 0.463525 0.25
      vertex -17.1917 8.08981 0.25
    endloop
  endfacet
  facet normal 0 0 1
    outer loop
      vertex -1.21352 -0.881678 0.25
      vertex -16.6498 -9.15332 0.25
      vertex -16.0422 -10.1807 0.25
    endloop
  endfacet
  facet normal -0 0 1
    outer loop
      vertex -18.0701 5.87132 0.25
      vertex -1.42658 0.463525 0.25
      vertex -17.6658 6.99437 0.25
    endloop
  endfacet
  facet normal 0 0 1
    outer loop
      vertex -1.42658 -0.463525 0.25
      vertex -17.1917 -8.08981 0.25
      vertex -16.6498 -9.15332 0.25
    endloop
  endfacet
  facet normal -0 0 1
    outer loop
      vertex -18.4031 4.72511 0.25
      vertex -1.42658 0.463525 0.25
      vertex -18.0701 5.87132 0.25
    endloop
  endfacet
  facet normal 0 0 1
    outer loop
      vertex -1.42658 -0.463525 0.25
      vertex -17.6658 -6.99437 0.25
      vertex -17.1917 -8.08981 0.25
    endloop
  endfacet
  facet normal -0 0 1
    outer loop
      vertex -18.6635 3.56024 0.25
      vertex -1.42658 0.463525 0.25
      vertex -18.4031 4.72511 0.25
    endloop
  endfacet
  facet normal 0 0 1
    outer loop
      vertex -1.42658 -0.463525 0.25
      vertex -18.0701 -5.87132 0.25
      vertex -17.6658 -6.99437 0.25
    endloop
  endfacet
  facet normal 0 0 1
    outer loop
      vertex -1.42658 0.463525 0.25
      vertex -18.6635 3.56024 0.25
      vertex -1.5 0 0.25
    endloop
  endfacet
  facet normal 0 0 1
    outer loop
      vertex -1.42658 -0.463525 0.25
      vertex -18.4031 -4.72511 0.25
      vertex -18.0701 -5.87132 0.25
    endloop
  endfacet
  facet normal -0 0 1
    outer loop
      vertex -18.8502 2.38133 0.25
      vertex -1.5 0 0.25
      vertex -18.6635 3.56024 0.25
    endloop
  endfacet
  facet normal 0 0 1
    outer loop
      vertex -1.42658 -0.463525 0.25
      vertex -18.6635 -3.56024 0.25
      vertex -18.4031 -4.72511 0.25
    endloop
  endfacet
  facet normal -0 0 1
    outer loop
      vertex -18.9625 1.19302 0.25
      vertex -1.5 0 0.25
      vertex -18.8502 2.38133 0.25
    endloop
  endfacet
  facet normal 0 0 1
    outer loop
      vertex -1.5 0 0.25
      vertex -18.8502 -2.38133 0.25
      vertex -18.6635 -3.56024 0.25
    endloop
  endfacet
  facet normal 0 0 1
    outer loop
      vertex -19 0 0.25
      vertex -1.5 0 0.25
      vertex -18.9625 1.19302 0.25
    endloop
  endfacet
  facet normal 0 0 1
    outer loop
      vertex -1.5 0 0.25
      vertex -18.9625 -1.19302 0.25
      vertex -18.8502 -2.38133 0.25
    endloop
  endfacet
  facet normal 0 0 1
    outer loop
      vertex -1.5 0 0.25
      vertex -19 0 0.25
      vertex -18.9625 -1.19302 0.25
    endloop
  endfacet
  facet normal -0.860739 0.509047 0
    outer loop
      vertex -16.6498 9.15332 0
      vertex -16.0422 10.1807 0.25
      vertex -16.0422 10.1807 0
    endloop
  endfacet
  facet normal -0.860739 0.509047 0
    outer loop
      vertex -16.0422 10.1807 0.25
      vertex -16.6498 9.15332 0
      vertex -16.6498 9.15332 0.25
    endloop
  endfacet
  facet normal -0.750075 0.661353 0
    outer loop
      vertex -14.6398 12.1111 0
      vertex -13.8504 13.0064 0.25
      vertex -13.8504 13.0064 0
    endloop
  endfacet
  facet normal -0.750075 0.661353 0
    outer loop
      vertex -13.8504 13.0064 0.25
      vertex -14.6398 12.1111 0
      vertex -14.6398 12.1111 0.25
    endloop
  endfacet
  facet normal -0.278987 0.960295 0
    outer loop
      vertex -4.72511 18.4031 0
      vertex -5.87132 18.0701 0.25
      vertex -4.72511 18.4031 0.25
    endloop
  endfacet
  facet normal -0.278987 0.960295 0
    outer loop
      vertex -5.87132 18.0701 0.25
      vertex -4.72511 18.4031 0
      vertex -5.87132 18.0701 0
    endloop
  endfacet
  facet normal -0.0314173 0.999506 0
    outer loop
      vertex 0 19 0
      vertex -1.19302 18.9625 0.25
      vertex 0 19 0.25
    endloop
  endfacet
  facet normal -0.0314173 0.999506 0
    outer loop
      vertex -1.19302 18.9625 0.25
      vertex 0 19 0
      vertex -1.19302 18.9625 0
    endloop
  endfacet
  facet normal -0.454 0.891002 0
    outer loop
      vertex -8.08981 17.1917 0
      vertex -9.15332 16.6498 0.25
      vertex -8.08981 17.1917 0.25
    endloop
  endfacet
  facet normal -0.454 0.891002 0
    outer loop
      vertex -9.15332 16.6498 0.25
      vertex -8.08981 17.1917 0
      vertex -9.15332 16.6498 0
    endloop
  endfacet
  facet normal -0.612844 0.790204 0
    outer loop
      vertex -11.1679 15.3713 0
      vertex -12.1111 14.6398 0.25
      vertex -11.1679 15.3713 0.25
    endloop
  endfacet
  facet normal -0.612844 0.790204 0
    outer loop
      vertex -12.1111 14.6398 0.25
      vertex -11.1679 15.3713 0
      vertex -12.1111 14.6398 0
    endloop
  endfacet
  facet normal -0.562083 0.827081 0
    outer loop
      vertex -10.1807 16.0422 0
      vertex -11.1679 15.3713 0.25
      vertex -10.1807 16.0422 0.25
    endloop
  endfacet
  facet normal -0.562083 0.827081 0
    outer loop
      vertex -11.1679 15.3713 0.25
      vertex -10.1807 16.0422 0
      vertex -11.1679 15.3713 0
    endloop
  endfacet
  facet normal 0.999506 -0.0314173 0
    outer loop
      vertex 18.9625 -1.19302 0.25
      vertex 19 0 0
      vertex 19 0 0.25
    endloop
  endfacet
  facet normal 0.999506 -0.0314173 0
    outer loop
      vertex 19 0 0
      vertex 18.9625 -1.19302 0.25
      vertex 18.9625 -1.19302 0
    endloop
  endfacet
  facet normal 0.0314173 -0.999506 0
    outer loop
      vertex 0 -19 0
      vertex 1.19302 -18.9625 0.25
      vertex 0 -19 0.25
    endloop
  endfacet
  facet normal 0.0314173 -0.999506 0
    outer loop
      vertex 1.19302 -18.9625 0.25
      vertex 0 -19 0
      vertex 1.19302 -18.9625 0
    endloop
  endfacet
  facet normal 0.156417 -0.987691 0
    outer loop
      vertex 2.38133 -18.8502 0
      vertex 3.56024 -18.6635 0.25
      vertex 2.38133 -18.8502 0.25
    endloop
  endfacet
  facet normal 0.156417 -0.987691 0
    outer loop
      vertex 3.56024 -18.6635 0.25
      vertex 2.38133 -18.8502 0
      vertex 3.56024 -18.6635 0
    endloop
  endfacet
  facet normal 0.338721 -0.940887 0
    outer loop
      vertex 5.87132 -18.0701 0
      vertex 6.99437 -17.6658 0.25
      vertex 5.87132 -18.0701 0.25
    endloop
  endfacet
  facet normal 0.338721 -0.940887 0
    outer loop
      vertex 6.99437 -17.6658 0.25
      vertex 5.87132 -18.0701 0
      vertex 6.99437 -17.6658 0
    endloop
  endfacet
  facet normal 0.707107 -0.707107 0
    outer loop
      vertex 13.0064 -13.8504 0.25
      vertex 13.8504 -13.0064 0
      vertex 13.8504 -13.0064 0.25
    endloop
  endfacet
  facet normal 0.707107 -0.707107 0
    outer loop
      vertex 13.8504 -13.0064 0
      vertex 13.0064 -13.8504 0.25
      vertex 13.0064 -13.8504 0
    endloop
  endfacet
  facet normal 0.661353 -0.750075 0
    outer loop
      vertex 12.1111 -14.6398 0
      vertex 13.0064 -13.8504 0.25
      vertex 12.1111 -14.6398 0.25
    endloop
  endfacet
  facet normal 0.661353 -0.750075 0
    outer loop
      vertex 13.0064 -13.8504 0.25
      vertex 12.1111 -14.6398 0
      vertex 13.0064 -13.8504 0
    endloop
  endfacet
  facet normal 0.509047 -0.860739 0
    outer loop
      vertex 9.15332 -16.6498 0
      vertex 10.1807 -16.0422 0.25
      vertex 9.15332 -16.6498 0.25
    endloop
  endfacet
  facet normal 0.509047 -0.860739 0
    outer loop
      vertex 10.1807 -16.0422 0.25
      vertex 9.15332 -16.6498 0
      vertex 10.1807 -16.0422 0
    endloop
  endfacet
  facet normal 0.562083 -0.827081 0
    outer loop
      vertex 10.1807 -16.0422 0
      vertex 11.1679 -15.3713 0.25
      vertex 10.1807 -16.0422 0.25
    endloop
  endfacet
  facet normal 0.562083 -0.827081 0
    outer loop
      vertex 11.1679 -15.3713 0.25
      vertex 10.1807 -16.0422 0
      vertex 11.1679 -15.3713 0
    endloop
  endfacet
  facet normal -0.397191 -0.917736 0
    outer loop
      vertex -8.08981 -17.1917 0
      vertex -6.99437 -17.6658 0.25
      vertex -8.08981 -17.1917 0.25
    endloop
  endfacet
  facet normal -0.397191 -0.917736 -0
    outer loop
      vertex -6.99437 -17.6658 0.25
      vertex -8.08981 -17.1917 0
      vertex -6.99437 -17.6658 0
    endloop
  endfacet
  facet normal -0.156417 -0.987691 0
    outer loop
      vertex -3.56024 -18.6635 0
      vertex -2.38133 -18.8502 0.25
      vertex -3.56024 -18.6635 0.25
    endloop
  endfacet
  facet normal -0.156417 -0.987691 -0
    outer loop
      vertex -2.38133 -18.8502 0.25
      vertex -3.56024 -18.6635 0
      vertex -2.38133 -18.8502 0
    endloop
  endfacet
  facet normal -0.21816 -0.975913 0
    outer loop
      vertex -4.72511 -18.4031 0
      vertex -3.56024 -18.6635 0.25
      vertex -4.72511 -18.4031 0.25
    endloop
  endfacet
  facet normal -0.21816 -0.975913 -0
    outer loop
      vertex -3.56024 -18.6635 0.25
      vertex -4.72511 -18.4031 0
      vertex -3.56024 -18.6635 0
    endloop
  endfacet
  facet normal -0.0940848 -0.995564 0
    outer loop
      vertex -2.38133 -18.8502 0
      vertex -1.19302 -18.9625 0.25
      vertex -2.38133 -18.8502 0.25
    endloop
  endfacet
  facet normal -0.0940848 -0.995564 -0
    outer loop
      vertex -1.19302 -18.9625 0.25
      vertex -2.38133 -18.8502 0
      vertex -1.19302 -18.9625 0
    endloop
  endfacet
  facet normal -0.278987 -0.960295 0
    outer loop
      vertex -5.87132 -18.0701 0
      vertex -4.72511 -18.4031 0.25
      vertex -5.87132 -18.0701 0.25
    endloop
  endfacet
  facet normal -0.278987 -0.960295 -0
    outer loop
      vertex -4.72511 -18.4031 0.25
      vertex -5.87132 -18.0701 0
      vertex -4.72511 -18.4031 0
    endloop
  endfacet
  facet normal -0.509047 -0.860739 0
    outer loop
      vertex -10.1807 -16.0422 0
      vertex -9.15332 -16.6498 0.25
      vertex -10.1807 -16.0422 0.25
    endloop
  endfacet
  facet normal -0.509047 -0.860739 -0
    outer loop
      vertex -9.15332 -16.6498 0.25
      vertex -10.1807 -16.0422 0
      vertex -9.15332 -16.6498 0
    endloop
  endfacet
  facet normal -0.562083 -0.827081 0
    outer loop
      vertex -11.1679 -15.3713 0
      vertex -10.1807 -16.0422 0.25
      vertex -11.1679 -15.3713 0.25
    endloop
  endfacet
  facet normal -0.562083 -0.827081 -0
    outer loop
      vertex -10.1807 -16.0422 0.25
      vertex -11.1679 -15.3713 0
      vertex -10.1807 -16.0422 0
    endloop
  endfacet
  facet normal -0.454 -0.891002 0
    outer loop
      vertex -9.15332 -16.6498 0
      vertex -8.08981 -17.1917 0.25
      vertex -9.15332 -16.6498 0.25
    endloop
  endfacet
  facet normal -0.454 -0.891002 -0
    outer loop
      vertex -8.08981 -17.1917 0.25
      vertex -9.15332 -16.6498 0
      vertex -8.08981 -17.1917 0
    endloop
  endfacet
  facet normal -0.612844 -0.790204 0
    outer loop
      vertex -12.1111 -14.6398 0
      vertex -11.1679 -15.3713 0.25
      vertex -12.1111 -14.6398 0.25
    endloop
  endfacet
  facet normal -0.612844 -0.790204 -0
    outer loop
      vertex -11.1679 -15.3713 0.25
      vertex -12.1111 -14.6398 0
      vertex -11.1679 -15.3713 0
    endloop
  endfacet
  facet normal -0.960295 -0.278987 0
    outer loop
      vertex -18.0701 -5.87132 0
      vertex -18.4031 -4.72511 0.25
      vertex -18.4031 -4.72511 0
    endloop
  endfacet
  facet normal -0.960295 -0.278987 0
    outer loop
      vertex -18.4031 -4.72511 0.25
      vertex -18.0701 -5.87132 0
      vertex -18.0701 -5.87132 0.25
    endloop
  endfacet
  facet normal -0.987691 -0.156417 0
    outer loop
      vertex -18.6635 -3.56024 0
      vertex -18.8502 -2.38133 0.25
      vertex -18.8502 -2.38133 0
    endloop
  endfacet
  facet normal -0.987691 -0.156417 0
    outer loop
      vertex -18.8502 -2.38133 0.25
      vertex -18.6635 -3.56024 0
      vertex -18.6635 -3.56024 0.25
    endloop
  endfacet
  facet normal -0.999506 -0.0314173 0
    outer loop
      vertex -18.9625 -1.19302 0
      vertex -19 0 0.25
      vertex -19 0 0
    endloop
  endfacet
  facet normal -0.999506 -0.0314173 0
    outer loop
      vertex -19 0 0.25
      vertex -18.9625 -1.19302 0
      vertex -18.9625 -1.19302 0.25
    endloop
  endfacet
  facet normal -0.891002 -0.454 0
    outer loop
      vertex -16.6498 -9.15332 0
      vertex -17.1917 -8.08981 0.25
      vertex -17.1917 -8.08981 0
    endloop
  endfacet
  facet normal -0.891002 -0.454 0
    outer loop
      vertex -17.1917 -8.08981 0.25
      vertex -16.6498 -9.15332 0
      vertex -16.6498 -9.15332 0.25
    endloop
  endfacet
  facet normal -0.750075 -0.661353 0
    outer loop
      vertex -13.8504 -13.0064 0
      vertex -14.6398 -12.1111 0.25
      vertex -14.6398 -12.1111 0
    endloop
  endfacet
  facet normal -0.750075 -0.661353 0
    outer loop
      vertex -14.6398 -12.1111 0.25
      vertex -13.8504 -13.0064 0
      vertex -13.8504 -13.0064 0.25
    endloop
  endfacet
  facet normal -0.827081 0.562083 0
    outer loop
      vertex -16.0422 10.1807 0
      vertex -15.3713 11.1679 0.25
      vertex -15.3713 11.1679 0
    endloop
  endfacet
  facet normal -0.827081 0.562083 0
    outer loop
      vertex -15.3713 11.1679 0.25
      vertex -16.0422 10.1807 0
      vertex -16.0422 10.1807 0.25
    endloop
  endfacet
  facet normal 0.975913 -0.21816 0
    outer loop
      vertex 18.4031 -4.72511 0.25
      vertex 18.6635 -3.56024 0
      vertex 18.6635 -3.56024 0.25
    endloop
  endfacet
  facet normal 0.975913 -0.21816 0
    outer loop
      vertex 18.6635 -3.56024 0
      vertex 18.4031 -4.72511 0.25
      vertex 18.4031 -4.72511 0
    endloop
  endfacet
  facet normal 0.917736 -0.397191 0
    outer loop
      vertex 17.1917 -8.08981 0.25
      vertex 17.6658 -6.99437 0
      vertex 17.6658 -6.99437 0.25
    endloop
  endfacet
  facet normal 0.917736 -0.397191 0
    outer loop
      vertex 17.6658 -6.99437 0
      vertex 17.1917 -8.08981 0.25
      vertex 17.1917 -8.08981 0
    endloop
  endfacet
  facet normal 0.827081 -0.562083 0
    outer loop
      vertex 15.3713 -11.1679 0.25
      vertex 16.0422 -10.1807 0
      vertex 16.0422 -10.1807 0.25
    endloop
  endfacet
  facet normal 0.827081 -0.562083 0
    outer loop
      vertex 16.0422 -10.1807 0
      vertex 15.3713 -11.1679 0.25
      vertex 15.3713 -11.1679 0
    endloop
  endfacet
  facet normal 0.0940848 -0.995564 0
    outer loop
      vertex 1.19302 -18.9625 0
      vertex 2.38133 -18.8502 0.25
      vertex 1.19302 -18.9625 0.25
    endloop
  endfacet
  facet normal 0.0940848 -0.995564 0
    outer loop
      vertex 2.38133 -18.8502 0.25
      vertex 1.19302 -18.9625 0
      vertex 2.38133 -18.8502 0
    endloop
  endfacet
  facet normal 0.21816 -0.975913 0
    outer loop
      vertex 3.56024 -18.6635 0
      vertex 4.72511 -18.4031 0.25
      vertex 3.56024 -18.6635 0.25
    endloop
  endfacet
  facet normal 0.21816 -0.975913 0
    outer loop
      vertex 4.72511 -18.4031 0.25
      vertex 3.56024 -18.6635 0
      vertex 4.72511 -18.4031 0
    endloop
  endfacet
  facet normal -0.0314173 -0.999506 0
    outer loop
      vertex -1.19302 -18.9625 0
      vertex 0 -19 0.25
      vertex -1.19302 -18.9625 0.25
    endloop
  endfacet
  facet normal -0.0314173 -0.999506 -0
    outer loop
      vertex 0 -19 0.25
      vertex -1.19302 -18.9625 0
      vertex 0 -19 0
    endloop
  endfacet
  facet normal -0.338721 -0.940887 0
    outer loop
      vertex -6.99437 -17.6658 0
      vertex -5.87132 -18.0701 0.25
      vertex -6.99437 -17.6658 0.25
    endloop
  endfacet
  facet normal -0.338721 -0.940887 -0
    outer loop
      vertex -5.87132 -18.0701 0.25
      vertex -6.99437 -17.6658 0
      vertex -5.87132 -18.0701 0
    endloop
  endfacet
  facet normal -0.661353 -0.750075 0
    outer loop
      vertex -13.0064 -13.8504 0
      vertex -12.1111 -14.6398 0.25
      vertex -13.0064 -13.8504 0.25
    endloop
  endfacet
  facet normal -0.661353 -0.750075 -0
    outer loop
      vertex -12.1111 -14.6398 0.25
      vertex -13.0064 -13.8504 0
      vertex -12.1111 -14.6398 0
    endloop
  endfacet
  facet normal -0.995564 -0.0940848 0
    outer loop
      vertex -18.8502 -2.38133 0
      vertex -18.9625 -1.19302 0.25
      vertex -18.9625 -1.19302 0
    endloop
  endfacet
  facet normal -0.995564 -0.0940848 0
    outer loop
      vertex -18.9625 -1.19302 0.25
      vertex -18.8502 -2.38133 0
      vertex -18.8502 -2.38133 0.25
    endloop
  endfacet
  facet normal -0.860739 -0.509047 0
    outer loop
      vertex -16.0422 -10.1807 0
      vertex -16.6498 -9.15332 0.25
      vertex -16.6498 -9.15332 0
    endloop
  endfacet
  facet normal -0.860739 -0.509047 0
    outer loop
      vertex -16.6498 -9.15332 0.25
      vertex -16.0422 -10.1807 0
      vertex -16.0422 -10.1807 0.25
    endloop
  endfacet
  facet normal -0.790204 -0.612844 0
    outer loop
      vertex -14.6398 -12.1111 0
      vertex -15.3713 -11.1679 0.25
      vertex -15.3713 -11.1679 0
    endloop
  endfacet
  facet normal -0.790204 -0.612844 0
    outer loop
      vertex -15.3713 -11.1679 0.25
      vertex -14.6398 -12.1111 0
      vertex -14.6398 -12.1111 0.25
    endloop
  endfacet
  facet normal 0.987691 -0.156417 0
    outer loop
      vertex 18.6635 -3.56024 0.25
      vertex 18.8502 -2.38133 0
      vertex 18.8502 -2.38133 0.25
    endloop
  endfacet
  facet normal 0.987691 -0.156417 0
    outer loop
      vertex 18.8502 -2.38133 0
      vertex 18.6635 -3.56024 0.25
      vertex 18.6635 -3.56024 0
    endloop
  endfacet
  facet normal 0.860739 -0.509047 0
    outer loop
      vertex 16.0422 -10.1807 0.25
      vertex 16.6498 -9.15332 0
      vertex 16.6498 -9.15332 0.25
    endloop
  endfacet
  facet normal 0.860739 -0.509047 0
    outer loop
      vertex 16.6498 -9.15332 0
      vertex 16.0422 -10.1807 0.25
      vertex 16.0422 -10.1807 0
    endloop
  endfacet
  facet normal 0.891002 -0.454 0
    outer loop
      vertex 16.6498 -9.15332 0.25
      vertex 17.1917 -8.08981 0
      vertex 17.1917 -8.08981 0.25
    endloop
  endfacet
  facet normal 0.891002 -0.454 0
    outer loop
      vertex 17.1917 -8.08981 0
      vertex 16.6498 -9.15332 0.25
      vertex 16.6498 -9.15332 0
    endloop
  endfacet
  facet normal 0.790204 -0.612844 0
    outer loop
      vertex 14.6398 -12.1111 0.25
      vertex 15.3713 -11.1679 0
      vertex 15.3713 -11.1679 0.25
    endloop
  endfacet
  facet normal 0.790204 -0.612844 0
    outer loop
      vertex 15.3713 -11.1679 0
      vertex 14.6398 -12.1111 0.25
      vertex 14.6398 -12.1111 0
    endloop
  endfacet
  facet normal -0.987687 -0.156445 0
    outer loop
      vertex 1.5 0 0
      vertex 1.42658 0.463525 0.25
      vertex 1.42658 0.463525 0
    endloop
  endfacet
  facet normal -0.987687 -0.156445 0
    outer loop
      vertex 1.42658 0.463525 0.25
      vertex 1.5 0 0
      vertex 1.5 0 0.25
    endloop
  endfacet
  facet normal 0.987687 -0.156445 0
    outer loop
      vertex -1.5 0 0.25
      vertex -1.42658 0.463525 0
      vertex -1.42658 0.463525 0.25
    endloop
  endfacet
  facet normal 0.987687 -0.156445 0
    outer loop
      vertex -1.42658 0.463525 0
      vertex -1.5 0 0.25
      vertex -1.5 0 0
    endloop
  endfacet
  facet normal -0.156445 -0.987687 0
    outer loop
      vertex 0 1.5 0
      vertex 0.463525 1.42658 0.25
      vertex 0 1.5 0.25
    endloop
  endfacet
  facet normal -0.156445 -0.987687 -0
    outer loop
      vertex 0.463525 1.42658 0.25
      vertex 0 1.5 0
      vertex 0.463525 1.42658 0
    endloop
  endfacet
  facet normal -0.707107 -0.707107 0
    outer loop
      vertex 1.21352 0.881678 0
      vertex 0.881678 1.21352 0.25
      vertex 0.881678 1.21352 0
    endloop
  endfacet
  facet normal -0.707107 -0.707107 0
    outer loop
      vertex 0.881678 1.21352 0.25
      vertex 1.21352 0.881678 0
      vertex 1.21352 0.881678 0.25
    endloop
  endfacet
  facet normal -0.891006 -0.453991 0
    outer loop
      vertex 1.42658 0.463525 0
      vertex 1.21352 0.881678 0.25
      vertex 1.21352 0.881678 0
    endloop
  endfacet
  facet normal -0.891006 -0.453991 0
    outer loop
      vertex 1.21352 0.881678 0.25
      vertex 1.42658 0.463525 0
      vertex 1.42658 0.463525 0.25
    endloop
  endfacet
  facet normal -0.453991 -0.891006 0
    outer loop
      vertex 0.463525 1.42658 0
      vertex 0.881678 1.21352 0.25
      vertex 0.463525 1.42658 0.25
    endloop
  endfacet
  facet normal -0.453991 -0.891006 -0
    outer loop
      vertex 0.881678 1.21352 0.25
      vertex 0.463525 1.42658 0
      vertex 0.881678 1.21352 0
    endloop
  endfacet
  facet normal 0.453991 -0.891006 0
    outer loop
      vertex -0.881678 1.21352 0
      vertex -0.463525 1.42658 0.25
      vertex -0.881678 1.21352 0.25
    endloop
  endfacet
  facet normal 0.453991 -0.891006 0
    outer loop
      vertex -0.463525 1.42658 0.25
      vertex -0.881678 1.21352 0
      vertex -0.463525 1.42658 0
    endloop
  endfacet
  facet normal 0.707107 -0.707107 0
    outer loop
      vertex -1.21352 0.881678 0.25
      vertex -0.881678 1.21352 0
      vertex -0.881678 1.21352 0.25
    endloop
  endfacet
  facet normal 0.707107 -0.707107 0
    outer loop
      vertex -0.881678 1.21352 0
      vertex -1.21352 0.881678 0.25
      vertex -1.21352 0.881678 0
    endloop
  endfacet
  facet normal 0.156445 -0.987687 0
    outer loop
      vertex -0.463525 1.42658 0
      vertex 0 1.5 0.25
      vertex -0.463525 1.42658 0.25
    endloop
  endfacet
  facet normal 0.156445 -0.987687 0
    outer loop
      vertex 0 1.5 0.25
      vertex -0.463525 1.42658 0
      vertex 0 1.5 0
    endloop
  endfacet
  facet normal -0.891006 0.453991 0
    outer loop
      vertex 1.21352 -0.881678 0
      vertex 1.42658 -0.463525 0.25
      vertex 1.42658 -0.463525 0
    endloop
  endfacet
  facet normal -0.891006 0.453991 0
    outer loop
      vertex 1.42658 -0.463525 0.25
      vertex 1.21352 -0.881678 0
      vertex 1.21352 -0.881678 0.25
    endloop
  endfacet
  facet normal 0.707107 0.707107 0
    outer loop
      vertex -0.881678 -1.21352 0.25
      vertex -1.21352 -0.881678 0
      vertex -1.21352 -0.881678 0.25
    endloop
  endfacet
  facet normal 0.707107 0.707107 0
    outer loop
      vertex -1.21352 -0.881678 0
      vertex -0.881678 -1.21352 0.25
      vertex -0.881678 -1.21352 0
    endloop
  endfacet
  facet normal 0.987687 0.156445 0
    outer loop
      vertex -1.42658 -0.463525 0.25
      vertex -1.5 0 0
      vertex -1.5 0 0.25
    endloop
  endfacet
  facet normal 0.987687 0.156445 0
    outer loop
      vertex -1.5 0 0
      vertex -1.42658 -0.463525 0.25
      vertex -1.42658 -0.463525 0
    endloop
  endfacet
  facet normal 0.891006 -0.453991 0
    outer loop
      vertex -1.42658 0.463525 0.25
      vertex -1.21352 0.881678 0
      vertex -1.21352 0.881678 0.25
    endloop
  endfacet
  facet normal 0.891006 -0.453991 0
    outer loop
      vertex -1.21352 0.881678 0
      vertex -1.42658 0.463525 0.25
      vertex -1.42658 0.463525 0
    endloop
  endfacet
  facet normal -0.987687 0.156445 0
    outer loop
      vertex 1.42658 -0.463525 0
      vertex 1.5 0 0.25
      vertex 1.5 0 0
    endloop
  endfacet
  facet normal -0.987687 0.156445 0
    outer loop
      vertex 1.5 0 0.25
      vertex 1.42658 -0.463525 0
      vertex 1.42658 -0.463525 0.25
    endloop
  endfacet
  facet normal -0.156445 0.987687 0
    outer loop
      vertex 0.463525 -1.42658 0
      vertex 0 -1.5 0.25
      vertex 0.463525 -1.42658 0.25
    endloop
  endfacet
  facet normal -0.156445 0.987687 0
    outer loop
      vertex 0 -1.5 0.25
      vertex 0.463525 -1.42658 0
      vertex 0 -1.5 0
    endloop
  endfacet
  facet normal -0.707107 0.707107 0
    outer loop
      vertex 0.881678 -1.21352 0
      vertex 1.21352 -0.881678 0.25
      vertex 1.21352 -0.881678 0
    endloop
  endfacet
  facet normal -0.707107 0.707107 0
    outer loop
      vertex 1.21352 -0.881678 0.25
      vertex 0.881678 -1.21352 0
      vertex 0.881678 -1.21352 0.25
    endloop
  endfacet
  facet normal 0.453991 0.891006 -0
    outer loop
      vertex -0.463525 -1.42658 0
      vertex -0.881678 -1.21352 0.25
      vertex -0.463525 -1.42658 0.25
    endloop
  endfacet
  facet normal 0.453991 0.891006 0
    outer loop
      vertex -0.881678 -1.21352 0.25
      vertex -0.463525 -1.42658 0
      vertex -0.881678 -1.21352 0
    endloop
  endfacet
  facet normal 0.891006 0.453991 0
    outer loop
      vertex -1.21352 -0.881678 0.25
      vertex -1.42658 -0.463525 0
      vertex -1.42658 -0.463525 0.25
    endloop
  endfacet
  facet normal 0.891006 0.453991 0
    outer loop
      vertex -1.42658 -0.463525 0
      vertex -1.21352 -0.881678 0.25
      vertex -1.21352 -0.881678 0
    endloop
  endfacet
  facet normal -0.453991 0.891006 0
    outer loop
      vertex 0.881678 -1.21352 0
      vertex 0.463525 -1.42658 0.25
      vertex 0.881678 -1.21352 0.25
    endloop
  endfacet
  facet normal -0.453991 0.891006 0
    outer loop
      vertex 0.463525 -1.42658 0.25
      vertex 0.881678 -1.21352 0
      vertex 0.463525 -1.42658 0
    endloop
  endfacet
  facet normal 0.156445 0.987687 -0
    outer loop
      vertex 0 -1.5 0
      vertex -0.463525 -1.42658 0.25
      vertex 0 -1.5 0.25
    endloop
  endfacet
  facet normal 0.156445 0.987687 0
    outer loop
      vertex -0.463525 -1.42658 0.25
      vertex 0 -1.5 0
      vertex -0.463525 -1.42658 0
    endloop
  endfacet
endsolid OpenSCAD_Model
