solid OpenSCAD_Model
  facet normal 0.661306 0.750117 -0
    outer loop
      vertex 19.8519 21.1401 0
      vertex 18.4853 22.3449 0.25
      vertex 19.8519 21.1401 0.25
    endloop
  endfacet
  facet normal 0.661306 0.750117 0
    outer loop
      vertex 18.4853 22.3449 0.25
      vertex 19.8519 21.1401 0
      vertex 18.4853 22.3449 0
    endloop
  endfacet
  facet normal -0.338729 0.940884 0
    outer loop
      vertex -8.96149 27.5806 0
      vertex -10.6756 26.9635 0.25
      vertex -8.96149 27.5806 0.25
    endloop
  endfacet
  facet normal -0.338729 0.940884 0
    outer loop
      vertex -10.6756 26.9635 0.25
      vertex -8.96149 27.5806 0
      vertex -10.6756 26.9635 0
    endloop
  endfacet
  facet normal -0.891009 0.453985 0
    outer loop
      vertex -26.24 12.3476 0
      vertex -25.4129 13.9709 0.25
      vertex -25.4129 13.9709 0
    endloop
  endfacet
  facet normal -0.891009 0.453985 0
    outer loop
      vertex -25.4129 13.9709 0.25
      vertex -26.24 12.3476 0
      vertex -26.24 12.3476 0.25
    endloop
  endfacet
  facet normal 0.999507 -0.0313972 0
    outer loop
      vertex 28.9428 -1.82092 0.25
      vertex 29 0 0
      vertex 29 0 0.25
    endloop
  endfacet
  facet normal 0.999507 -0.0313972 0
    outer loop
      vertex 29 0 0
      vertex 28.9428 -1.82092 0.25
      vertex 28.9428 -1.82092 0
    endloop
  endfacet
  facet normal 0.891009 0.453985 0
    outer loop
      vertex 26.24 12.3476 0.25
      vertex 25.4129 13.9709 0
      vertex 25.4129 13.9709 0.25
    endloop
  endfacet
  facet normal 0.891009 0.453985 0
    outer loop
      vertex 25.4129 13.9709 0
      vertex 26.24 12.3476 0.25
      vertex 26.24 12.3476 0
    endloop
  endfacet
  facet normal 0.39713 0.917762 -0
    outer loop
      vertex 12.3476 26.24 0
      vertex 10.6756 26.9635 0.25
      vertex 12.3476 26.24 0.25
    endloop
  endfacet
  facet normal 0.39713 0.917762 0
    outer loop
      vertex 10.6756 26.9635 0.25
      vertex 12.3476 26.24 0
      vertex 10.6756 26.9635 0
    endloop
  endfacet
  facet normal 0.156436 0.987688 -0
    outer loop
      vertex 5.43406 28.4863 0
      vertex 3.63466 28.7713 0.25
      vertex 5.43406 28.4863 0.25
    endloop
  endfacet
  facet normal 0.156436 0.987688 0
    outer loop
      vertex 3.63466 28.7713 0.25
      vertex 5.43406 28.4863 0
      vertex 3.63466 28.7713 0
    endloop
  endfacet
  facet normal -0.987688 0.156436 0
    outer loop
      vertex -28.7713 3.63466 0
      vertex -28.4863 5.43406 0.25
      vertex -28.4863 5.43406 0
    endloop
  endfacet
  facet normal -0.987688 0.156436 0
    outer loop
      vertex -28.4863 5.43406 0.25
      vertex -28.7713 3.63466 0
      vertex -28.7713 3.63466 0.25
    endloop
  endfacet
  facet normal -0.707107 0.707107 0
    outer loop
      vertex -21.1401 19.8519 0
      vertex -19.8519 21.1401 0.25
      vertex -19.8519 21.1401 0
    endloop
  endfacet
  facet normal -0.707107 0.707107 0
    outer loop
      vertex -19.8519 21.1401 0.25
      vertex -21.1401 19.8519 0
      vertex -21.1401 19.8519 0.25
    endloop
  endfacet
  facet normal -0.156436 0.987688 0
    outer loop
      vertex -3.63466 28.7713 0
      vertex -5.43406 28.4863 0.25
      vertex -3.63466 28.7713 0.25
    endloop
  endfacet
  facet normal -0.156436 0.987688 0
    outer loop
      vertex -5.43406 28.4863 0.25
      vertex -3.63466 28.7713 0
      vertex -5.43406 28.4863 0
    endloop
  endfacet
  facet normal 0.39713 -0.917762 0
    outer loop
      vertex 10.6756 -26.9635 0
      vertex 12.3476 -26.24 0.25
      vertex 10.6756 -26.9635 0.25
    endloop
  endfacet
  facet normal 0.39713 -0.917762 0
    outer loop
      vertex 12.3476 -26.24 0.25
      vertex 10.6756 -26.9635 0
      vertex 12.3476 -26.24 0
    endloop
  endfacet
  facet normal -0.156436 -0.987688 0
    outer loop
      vertex -5.43406 -28.4863 0
      vertex -3.63466 -28.7713 0.25
      vertex -5.43406 -28.4863 0.25
    endloop
  endfacet
  facet normal -0.156436 -0.987688 -0
    outer loop
      vertex -3.63466 -28.7713 0.25
      vertex -5.43406 -28.4863 0
      vertex -3.63466 -28.7713 0
    endloop
  endfacet
  facet normal -0.707107 -0.707107 0
    outer loop
      vertex -19.8519 -21.1401 0
      vertex -21.1401 -19.8519 0.25
      vertex -21.1401 -19.8519 0
    endloop
  endfacet
  facet normal -0.707107 -0.707107 0
    outer loop
      vertex -21.1401 -19.8519 0.25
      vertex -19.8519 -21.1401 0
      vertex -19.8519 -21.1401 0.25
    endloop
  endfacet
  facet normal -0.827086 -0.562076 0
    outer loop
      vertex -23.4615 -17.0458 0
      vertex -24.4855 -15.539 0.25
      vertex -24.4855 -15.539 0
    endloop
  endfacet
  facet normal -0.827086 -0.562076 0
    outer loop
      vertex -24.4855 -15.539 0.25
      vertex -23.4615 -17.0458 0
      vertex -23.4615 -17.0458 0.25
    endloop
  endfacet
  facet normal 0.987688 0.156436 0
    outer loop
      vertex 28.7713 3.63466 0.25
      vertex 28.4863 5.43406 0
      vertex 28.4863 5.43406 0.25
    endloop
  endfacet
  facet normal 0.987688 0.156436 0
    outer loop
      vertex 28.4863 5.43406 0
      vertex 28.7713 3.63466 0.25
      vertex 28.7713 3.63466 0
    endloop
  endfacet
  facet normal 0.975919 0.218133 0
    outer loop
      vertex 28.4863 5.43406 0.25
      vertex 28.0889 7.21201 0
      vertex 28.0889 7.21201 0.25
    endloop
  endfacet
  facet normal 0.975919 0.218133 0
    outer loop
      vertex 28.0889 7.21201 0
      vertex 28.4863 5.43406 0.25
      vertex 28.4863 5.43406 0
    endloop
  endfacet
  facet normal 0.960289 0.279006 0
    outer loop
      vertex 28.0889 7.21201 0.25
      vertex 27.5806 8.96149 0
      vertex 27.5806 8.96149 0.25
    endloop
  endfacet
  facet normal 0.960289 0.279006 0
    outer loop
      vertex 27.5806 8.96149 0
      vertex 28.0889 7.21201 0.25
      vertex 28.0889 7.21201 0
    endloop
  endfacet
  facet normal 0.790153 0.61291 0
    outer loop
      vertex 23.4615 17.0458 0.25
      vertex 22.3449 18.4853 0
      vertex 22.3449 18.4853 0.25
    endloop
  endfacet
  facet normal 0.790153 0.61291 0
    outer loop
      vertex 22.3449 18.4853 0
      vertex 23.4615 17.0458 0.25
      vertex 23.4615 17.0458 0
    endloop
  endfacet
  facet normal 0.827086 0.562076 0
    outer loop
      vertex 24.4855 15.539 0.25
      vertex 23.4615 17.0458 0
      vertex 23.4615 17.0458 0.25
    endloop
  endfacet
  facet normal 0.827086 0.562076 0
    outer loop
      vertex 23.4615 17.0458 0
      vertex 24.4855 15.539 0.25
      vertex 24.4855 15.539 0
    endloop
  endfacet
  facet normal 0.750117 0.661306 0
    outer loop
      vertex 22.3449 18.4853 0.25
      vertex 21.1401 19.8519 0
      vertex 21.1401 19.8519 0.25
    endloop
  endfacet
  facet normal 0.750117 0.661306 0
    outer loop
      vertex 21.1401 19.8519 0
      vertex 22.3449 18.4853 0.25
      vertex 22.3449 18.4853 0
    endloop
  endfacet
  facet normal 0.61291 0.790153 -0
    outer loop
      vertex 18.4853 22.3449 0
      vertex 17.0458 23.4615 0.25
      vertex 18.4853 22.3449 0.25
    endloop
  endfacet
  facet normal 0.61291 0.790153 0
    outer loop
      vertex 17.0458 23.4615 0.25
      vertex 18.4853 22.3449 0
      vertex 17.0458 23.4615 0
    endloop
  endfacet
  facet normal 0.0313972 0.999507 -0
    outer loop
      vertex 1.82092 28.9428 0
      vertex 0 29 0.25
      vertex 1.82092 28.9428 0.25
    endloop
  endfacet
  facet normal 0.0313972 0.999507 0
    outer loop
      vertex 0 29 0.25
      vertex 1.82092 28.9428 0
      vertex 0 29 0
    endloop
  endfacet
  facet normal 0.338729 0.940884 -0
    outer loop
      vertex 10.6756 26.9635 0
      vertex 8.96149 27.5806 0.25
      vertex 10.6756 26.9635 0.25
    endloop
  endfacet
  facet normal 0.338729 0.940884 0
    outer loop
      vertex 8.96149 27.5806 0.25
      vertex 10.6756 26.9635 0
      vertex 8.96149 27.5806 0
    endloop
  endfacet
  facet normal 0.279006 0.960289 -0
    outer loop
      vertex 8.96149 27.5806 0
      vertex 7.21201 28.0889 0.25
      vertex 8.96149 27.5806 0.25
    endloop
  endfacet
  facet normal 0.279006 0.960289 0
    outer loop
      vertex 7.21201 28.0889 0.25
      vertex 8.96149 27.5806 0
      vertex 7.21201 28.0889 0
    endloop
  endfacet
  facet normal -0.999507 0.0313972 0
    outer loop
      vertex -29 0 0
      vertex -28.9428 1.82092 0.25
      vertex -28.9428 1.82092 0
    endloop
  endfacet
  facet normal -0.999507 0.0313972 0
    outer loop
      vertex -28.9428 1.82092 0.25
      vertex -29 0 0
      vertex -29 0 0.25
    endloop
  endfacet
  facet normal -0.940884 0.338729 0
    outer loop
      vertex -27.5806 8.96149 0
      vertex -26.9635 10.6756 0.25
      vertex -26.9635 10.6756 0
    endloop
  endfacet
  facet normal -0.940884 0.338729 0
    outer loop
      vertex -26.9635 10.6756 0.25
      vertex -27.5806 8.96149 0
      vertex -27.5806 8.96149 0.25
    endloop
  endfacet
  facet normal -0.960289 0.279006 0
    outer loop
      vertex -28.0889 7.21201 0
      vertex -27.5806 8.96149 0.25
      vertex -27.5806 8.96149 0
    endloop
  endfacet
  facet normal -0.960289 0.279006 0
    outer loop
      vertex -27.5806 8.96149 0.25
      vertex -28.0889 7.21201 0
      vertex -28.0889 7.21201 0.25
    endloop
  endfacet
  facet normal -0.860735 0.509053 0
    outer loop
      vertex -25.4129 13.9709 0
      vertex -24.4855 15.539 0.25
      vertex -24.4855 15.539 0
    endloop
  endfacet
  facet normal -0.860735 0.509053 0
    outer loop
      vertex -24.4855 15.539 0.25
      vertex -25.4129 13.9709 0
      vertex -25.4129 13.9709 0.25
    endloop
  endfacet
  facet normal -0.790153 0.61291 0
    outer loop
      vertex -23.4615 17.0458 0
      vertex -22.3449 18.4853 0.25
      vertex -22.3449 18.4853 0
    endloop
  endfacet
  facet normal -0.790153 0.61291 0
    outer loop
      vertex -22.3449 18.4853 0.25
      vertex -23.4615 17.0458 0
      vertex -23.4615 17.0458 0.25
    endloop
  endfacet
  facet normal -0.750117 0.661306 0
    outer loop
      vertex -22.3449 18.4853 0
      vertex -21.1401 19.8519 0.25
      vertex -21.1401 19.8519 0
    endloop
  endfacet
  facet normal -0.750117 0.661306 0
    outer loop
      vertex -21.1401 19.8519 0.25
      vertex -22.3449 18.4853 0
      vertex -22.3449 18.4853 0.25
    endloop
  endfacet
  facet normal -0.0313972 0.999507 0
    outer loop
      vertex 0 29 0
      vertex -1.82092 28.9428 0.25
      vertex 0 29 0.25
    endloop
  endfacet
  facet normal -0.0313972 0.999507 0
    outer loop
      vertex -1.82092 28.9428 0.25
      vertex 0 29 0
      vertex -1.82092 28.9428 0
    endloop
  endfacet
  facet normal -0.279006 0.960289 0
    outer loop
      vertex -7.21201 28.0889 0
      vertex -8.96149 27.5806 0.25
      vertex -7.21201 28.0889 0.25
    endloop
  endfacet
  facet normal -0.279006 0.960289 0
    outer loop
      vertex -8.96149 27.5806 0.25
      vertex -7.21201 28.0889 0
      vertex -8.96149 27.5806 0
    endloop
  endfacet
  facet normal -0.509053 0.860735 0
    outer loop
      vertex -13.9709 25.4129 0
      vertex -15.539 24.4855 0.25
      vertex -13.9709 25.4129 0.25
    endloop
  endfacet
  facet normal -0.509053 0.860735 0
    outer loop
      vertex -15.539 24.4855 0.25
      vertex -13.9709 25.4129 0
      vertex -15.539 24.4855 0
    endloop
  endfacet
  facet normal -0.39713 0.917762 0
    outer loop
      vertex -10.6756 26.9635 0
      vertex -12.3476 26.24 0.25
      vertex -10.6756 26.9635 0.25
    endloop
  endfacet
  facet normal -0.39713 0.917762 0
    outer loop
      vertex -12.3476 26.24 0.25
      vertex -10.6756 26.9635 0
      vertex -12.3476 26.24 0
    endloop
  endfacet
  facet normal -0.661306 0.750117 0
    outer loop
      vertex -18.4853 22.3449 0
      vertex -19.8519 21.1401 0.25
      vertex -18.4853 22.3449 0.25
    endloop
  endfacet
  facet normal -0.661306 0.750117 0
    outer loop
      vertex -19.8519 21.1401 0.25
      vertex -18.4853 22.3449 0
      vertex -19.8519 21.1401 0
    endloop
  endfacet
  facet normal 0.999507 0.0313972 0
    outer loop
      vertex 29 0 0.25
      vertex 28.9428 1.82092 0
      vertex 28.9428 1.82092 0.25
    endloop
  endfacet
  facet normal 0.999507 0.0313972 0
    outer loop
      vertex 28.9428 1.82092 0
      vertex 29 0 0.25
      vertex 29 0 0
    endloop
  endfacet
  facet normal 0.975919 -0.218133 0
    outer loop
      vertex 28.0889 -7.21201 0.25
      vertex 28.4863 -5.43406 0
      vertex 28.4863 -5.43406 0.25
    endloop
  endfacet
  facet normal 0.975919 -0.218133 0
    outer loop
      vertex 28.4863 -5.43406 0
      vertex 28.0889 -7.21201 0.25
      vertex 28.0889 -7.21201 0
    endloop
  endfacet
  facet normal 0.750117 -0.661306 0
    outer loop
      vertex 21.1401 -19.8519 0.25
      vertex 22.3449 -18.4853 0
      vertex 22.3449 -18.4853 0.25
    endloop
  endfacet
  facet normal 0.750117 -0.661306 0
    outer loop
      vertex 22.3449 -18.4853 0
      vertex 21.1401 -19.8519 0.25
      vertex 21.1401 -19.8519 0
    endloop
  endfacet
  facet normal 0.917762 -0.39713 0
    outer loop
      vertex 26.24 -12.3476 0.25
      vertex 26.9635 -10.6756 0
      vertex 26.9635 -10.6756 0.25
    endloop
  endfacet
  facet normal 0.917762 -0.39713 0
    outer loop
      vertex 26.9635 -10.6756 0
      vertex 26.24 -12.3476 0.25
      vertex 26.24 -12.3476 0
    endloop
  endfacet
  facet normal 0.61291 -0.790153 0
    outer loop
      vertex 17.0458 -23.4615 0
      vertex 18.4853 -22.3449 0.25
      vertex 17.0458 -23.4615 0.25
    endloop
  endfacet
  facet normal 0.61291 -0.790153 0
    outer loop
      vertex 18.4853 -22.3449 0.25
      vertex 17.0458 -23.4615 0
      vertex 18.4853 -22.3449 0
    endloop
  endfacet
  facet normal 0.707107 -0.707107 0
    outer loop
      vertex 19.8519 -21.1401 0.25
      vertex 21.1401 -19.8519 0
      vertex 21.1401 -19.8519 0.25
    endloop
  endfacet
  facet normal 0.707107 -0.707107 0
    outer loop
      vertex 21.1401 -19.8519 0
      vertex 19.8519 -21.1401 0.25
      vertex 19.8519 -21.1401 0
    endloop
  endfacet
  facet normal 0.562076 -0.827086 0
    outer loop
      vertex 15.539 -24.4855 0
      vertex 17.0458 -23.4615 0.25
      vertex 15.539 -24.4855 0.25
    endloop
  endfacet
  facet normal 0.562076 -0.827086 0
    outer loop
      vertex 17.0458 -23.4615 0.25
      vertex 15.539 -24.4855 0
      vertex 17.0458 -23.4615 0
    endloop
  endfacet
  facet normal 0.453985 -0.891009 0
    outer loop
      vertex 12.3476 -26.24 0
      vertex 13.9709 -25.4129 0.25
      vertex 12.3476 -26.24 0.25
    endloop
  endfacet
  facet normal 0.453985 -0.891009 0
    outer loop
      vertex 13.9709 -25.4129 0.25
      vertex 12.3476 -26.24 0
      vertex 13.9709 -25.4129 0
    endloop
  endfacet
  facet normal -0.0313972 -0.999507 0
    outer loop
      vertex -1.82092 -28.9428 0
      vertex 0 -29 0.25
      vertex -1.82092 -28.9428 0.25
    endloop
  endfacet
  facet normal -0.0313972 -0.999507 -0
    outer loop
      vertex 0 -29 0.25
      vertex -1.82092 -28.9428 0
      vertex 0 -29 0
    endloop
  endfacet
  facet normal -0.279006 -0.960289 0
    outer loop
      vertex -8.96149 -27.5806 0
      vertex -7.21201 -28.0889 0.25
      vertex -8.96149 -27.5806 0.25
    endloop
  endfacet
  facet normal -0.279006 -0.960289 -0
    outer loop
      vertex -7.21201 -28.0889 0.25
      vertex -8.96149 -27.5806 0
      vertex -7.21201 -28.0889 0
    endloop
  endfacet
  facet normal -0.999507 -0.0313972 0
    outer loop
      vertex -28.9428 -1.82092 0
      vertex -29 0 0.25
      vertex -29 0 0
    endloop
  endfacet
  facet normal -0.999507 -0.0313972 0
    outer loop
      vertex -29 0 0.25
      vertex -28.9428 -1.82092 0
      vertex -28.9428 -1.82092 0.25
    endloop
  endfacet
  facet normal -0.917762 -0.39713 0
    outer loop
      vertex -26.24 -12.3476 0
      vertex -26.9635 -10.6756 0.25
      vertex -26.9635 -10.6756 0
    endloop
  endfacet
  facet normal -0.917762 -0.39713 0
    outer loop
      vertex -26.9635 -10.6756 0.25
      vertex -26.24 -12.3476 0
      vertex -26.24 -12.3476 0.25
    endloop
  endfacet
  facet normal -0.891009 -0.453985 0
    outer loop
      vertex -25.4129 -13.9709 0
      vertex -26.24 -12.3476 0.25
      vertex -26.24 -12.3476 0
    endloop
  endfacet
  facet normal -0.891009 -0.453985 0
    outer loop
      vertex -26.24 -12.3476 0.25
      vertex -25.4129 -13.9709 0
      vertex -25.4129 -13.9709 0.25
    endloop
  endfacet
  facet normal 0.917762 0.39713 0
    outer loop
      vertex 26.9635 10.6756 0.25
      vertex 26.24 12.3476 0
      vertex 26.24 12.3476 0.25
    endloop
  endfacet
  facet normal 0.917762 0.39713 0
    outer loop
      vertex 26.24 12.3476 0
      vertex 26.9635 10.6756 0.25
      vertex 26.9635 10.6756 0
    endloop
  endfacet
  facet normal 0.707107 0.707107 0
    outer loop
      vertex 21.1401 19.8519 0.25
      vertex 19.8519 21.1401 0
      vertex 19.8519 21.1401 0.25
    endloop
  endfacet
  facet normal 0.707107 0.707107 0
    outer loop
      vertex 19.8519 21.1401 0
      vertex 21.1401 19.8519 0.25
      vertex 21.1401 19.8519 0
    endloop
  endfacet
  facet normal 0.562076 0.827086 -0
    outer loop
      vertex 17.0458 23.4615 0
      vertex 15.539 24.4855 0.25
      vertex 17.0458 23.4615 0.25
    endloop
  endfacet
  facet normal 0.562076 0.827086 0
    outer loop
      vertex 15.539 24.4855 0.25
      vertex 17.0458 23.4615 0
      vertex 15.539 24.4855 0
    endloop
  endfacet
  facet normal 0.509053 0.860735 -0
    outer loop
      vertex 15.539 24.4855 0
      vertex 13.9709 25.4129 0.25
      vertex 15.539 24.4855 0.25
    endloop
  endfacet
  facet normal 0.509053 0.860735 0
    outer loop
      vertex 13.9709 25.4129 0.25
      vertex 15.539 24.4855 0
      vertex 13.9709 25.4129 0
    endloop
  endfacet
  facet normal 0.453985 0.891009 -0
    outer loop
      vertex 13.9709 25.4129 0
      vertex 12.3476 26.24 0.25
      vertex 13.9709 25.4129 0.25
    endloop
  endfacet
  facet normal 0.453985 0.891009 0
    outer loop
      vertex 12.3476 26.24 0.25
      vertex 13.9709 25.4129 0
      vertex 12.3476 26.24 0
    endloop
  endfacet
  facet normal 0.218133 0.975919 -0
    outer loop
      vertex 7.21201 28.0889 0
      vertex 5.43406 28.4863 0.25
      vertex 7.21201 28.0889 0.25
    endloop
  endfacet
  facet normal 0.218133 0.975919 0
    outer loop
      vertex 5.43406 28.4863 0.25
      vertex 7.21201 28.0889 0
      vertex 5.43406 28.4863 0
    endloop
  endfacet
  facet normal -0.975919 0.218133 0
    outer loop
      vertex -28.4863 5.43406 0
      vertex -28.0889 7.21201 0.25
      vertex -28.0889 7.21201 0
    endloop
  endfacet
  facet normal -0.975919 0.218133 0
    outer loop
      vertex -28.0889 7.21201 0.25
      vertex -28.4863 5.43406 0
      vertex -28.4863 5.43406 0.25
    endloop
  endfacet
  facet normal -0.218133 0.975919 0
    outer loop
      vertex -5.43406 28.4863 0
      vertex -7.21201 28.0889 0.25
      vertex -5.43406 28.4863 0.25
    endloop
  endfacet
  facet normal -0.218133 0.975919 0
    outer loop
      vertex -7.21201 28.0889 0.25
      vertex -5.43406 28.4863 0
      vertex -7.21201 28.0889 0
    endloop
  endfacet
  facet normal -0.0941361 0.995559 0
    outer loop
      vertex -1.82092 28.9428 0
      vertex -3.63466 28.7713 0.25
      vertex -1.82092 28.9428 0.25
    endloop
  endfacet
  facet normal -0.0941361 0.995559 0
    outer loop
      vertex -3.63466 28.7713 0.25
      vertex -1.82092 28.9428 0
      vertex -3.63466 28.7713 0
    endloop
  endfacet
  facet normal -0.562076 0.827086 0
    outer loop
      vertex -15.539 24.4855 0
      vertex -17.0458 23.4615 0.25
      vertex -15.539 24.4855 0.25
    endloop
  endfacet
  facet normal -0.562076 0.827086 0
    outer loop
      vertex -17.0458 23.4615 0.25
      vertex -15.539 24.4855 0
      vertex -17.0458 23.4615 0
    endloop
  endfacet
  facet normal -0.61291 0.790153 0
    outer loop
      vertex -17.0458 23.4615 0
      vertex -18.4853 22.3449 0.25
      vertex -17.0458 23.4615 0.25
    endloop
  endfacet
  facet normal -0.61291 0.790153 0
    outer loop
      vertex -18.4853 22.3449 0.25
      vertex -17.0458 23.4615 0
      vertex -18.4853 22.3449 0
    endloop
  endfacet
  facet normal 0.156436 -0.987688 0
    outer loop
      vertex 3.63466 -28.7713 0
      vertex 5.43406 -28.4863 0.25
      vertex 3.63466 -28.7713 0.25
    endloop
  endfacet
  facet normal 0.156436 -0.987688 0
    outer loop
      vertex 5.43406 -28.4863 0.25
      vertex 3.63466 -28.7713 0
      vertex 5.43406 -28.4863 0
    endloop
  endfacet
  facet normal 0.0313972 -0.999507 0
    outer loop
      vertex 0 -29 0
      vertex 1.82092 -28.9428 0.25
      vertex 0 -29 0.25
    endloop
  endfacet
  facet normal 0.0313972 -0.999507 0
    outer loop
      vertex 1.82092 -28.9428 0.25
      vertex 0 -29 0
      vertex 1.82092 -28.9428 0
    endloop
  endfacet
  facet normal 0.987688 -0.156436 0
    outer loop
      vertex 28.4863 -5.43406 0.25
      vertex 28.7713 -3.63466 0
      vertex 28.7713 -3.63466 0.25
    endloop
  endfacet
  facet normal 0.987688 -0.156436 0
    outer loop
      vertex 28.7713 -3.63466 0
      vertex 28.4863 -5.43406 0.25
      vertex 28.4863 -5.43406 0
    endloop
  endfacet
  facet normal 0.995559 -0.0941361 0
    outer loop
      vertex 28.7713 -3.63466 0.25
      vertex 28.9428 -1.82092 0
      vertex 28.9428 -1.82092 0.25
    endloop
  endfacet
  facet normal 0.995559 -0.0941361 0
    outer loop
      vertex 28.9428 -1.82092 0
      vertex 28.7713 -3.63466 0.25
      vertex 28.7713 -3.63466 0
    endloop
  endfacet
  facet normal 0.860735 -0.509053 0
    outer loop
      vertex 24.4855 -15.539 0.25
      vertex 25.4129 -13.9709 0
      vertex 25.4129 -13.9709 0.25
    endloop
  endfacet
  facet normal 0.860735 -0.509053 0
    outer loop
      vertex 25.4129 -13.9709 0
      vertex 24.4855 -15.539 0.25
      vertex 24.4855 -15.539 0
    endloop
  endfacet
  facet normal 0.0941361 -0.995559 0
    outer loop
      vertex 1.82092 -28.9428 0
      vertex 3.63466 -28.7713 0.25
      vertex 1.82092 -28.9428 0.25
    endloop
  endfacet
  facet normal 0.0941361 -0.995559 0
    outer loop
      vertex 3.63466 -28.7713 0.25
      vertex 1.82092 -28.9428 0
      vertex 3.63466 -28.7713 0
    endloop
  endfacet
  facet normal 0.218133 -0.975919 0
    outer loop
      vertex 5.43406 -28.4863 0
      vertex 7.21201 -28.0889 0.25
      vertex 5.43406 -28.4863 0.25
    endloop
  endfacet
  facet normal 0.218133 -0.975919 0
    outer loop
      vertex 7.21201 -28.0889 0.25
      vertex 5.43406 -28.4863 0
      vertex 7.21201 -28.0889 0
    endloop
  endfacet
  facet normal 0.338729 -0.940884 0
    outer loop
      vertex 8.96149 -27.5806 0
      vertex 10.6756 -26.9635 0.25
      vertex 8.96149 -27.5806 0.25
    endloop
  endfacet
  facet normal 0.338729 -0.940884 0
    outer loop
      vertex 10.6756 -26.9635 0.25
      vertex 8.96149 -27.5806 0
      vertex 10.6756 -26.9635 0
    endloop
  endfacet
  facet normal 0.661306 -0.750117 0
    outer loop
      vertex 18.4853 -22.3449 0
      vertex 19.8519 -21.1401 0.25
      vertex 18.4853 -22.3449 0.25
    endloop
  endfacet
  facet normal 0.661306 -0.750117 0
    outer loop
      vertex 19.8519 -21.1401 0.25
      vertex 18.4853 -22.3449 0
      vertex 19.8519 -21.1401 0
    endloop
  endfacet
  facet normal 0.509053 -0.860735 0
    outer loop
      vertex 13.9709 -25.4129 0
      vertex 15.539 -24.4855 0.25
      vertex 13.9709 -25.4129 0.25
    endloop
  endfacet
  facet normal 0.509053 -0.860735 0
    outer loop
      vertex 15.539 -24.4855 0.25
      vertex 13.9709 -25.4129 0
      vertex 15.539 -24.4855 0
    endloop
  endfacet
  facet normal -0.39713 -0.917762 0
    outer loop
      vertex -12.3476 -26.24 0
      vertex -10.6756 -26.9635 0.25
      vertex -12.3476 -26.24 0.25
    endloop
  endfacet
  facet normal -0.39713 -0.917762 -0
    outer loop
      vertex -10.6756 -26.9635 0.25
      vertex -12.3476 -26.24 0
      vertex -10.6756 -26.9635 0
    endloop
  endfacet
  facet normal -0.0941361 -0.995559 0
    outer loop
      vertex -3.63466 -28.7713 0
      vertex -1.82092 -28.9428 0.25
      vertex -3.63466 -28.7713 0.25
    endloop
  endfacet
  facet normal -0.0941361 -0.995559 -0
    outer loop
      vertex -1.82092 -28.9428 0.25
      vertex -3.63466 -28.7713 0
      vertex -1.82092 -28.9428 0
    endloop
  endfacet
  facet normal -0.338729 -0.940884 0
    outer loop
      vertex -10.6756 -26.9635 0
      vertex -8.96149 -27.5806 0.25
      vertex -10.6756 -26.9635 0.25
    endloop
  endfacet
  facet normal -0.338729 -0.940884 -0
    outer loop
      vertex -8.96149 -27.5806 0.25
      vertex -10.6756 -26.9635 0
      vertex -8.96149 -27.5806 0
    endloop
  endfacet
  facet normal -0.453985 -0.891009 0
    outer loop
      vertex -13.9709 -25.4129 0
      vertex -12.3476 -26.24 0.25
      vertex -13.9709 -25.4129 0.25
    endloop
  endfacet
  facet normal -0.453985 -0.891009 -0
    outer loop
      vertex -12.3476 -26.24 0.25
      vertex -13.9709 -25.4129 0
      vertex -12.3476 -26.24 0
    endloop
  endfacet
  facet normal -0.562076 -0.827086 0
    outer loop
      vertex -17.0458 -23.4615 0
      vertex -15.539 -24.4855 0.25
      vertex -17.0458 -23.4615 0.25
    endloop
  endfacet
  facet normal -0.562076 -0.827086 -0
    outer loop
      vertex -15.539 -24.4855 0.25
      vertex -17.0458 -23.4615 0
      vertex -15.539 -24.4855 0
    endloop
  endfacet
  facet normal -0.509053 -0.860735 0
    outer loop
      vertex -15.539 -24.4855 0
      vertex -13.9709 -25.4129 0.25
      vertex -15.539 -24.4855 0.25
    endloop
  endfacet
  facet normal -0.509053 -0.860735 -0
    outer loop
      vertex -13.9709 -25.4129 0.25
      vertex -15.539 -24.4855 0
      vertex -13.9709 -25.4129 0
    endloop
  endfacet
  facet normal -0.61291 -0.790153 0
    outer loop
      vertex -18.4853 -22.3449 0
      vertex -17.0458 -23.4615 0.25
      vertex -18.4853 -22.3449 0.25
    endloop
  endfacet
  facet normal -0.61291 -0.790153 -0
    outer loop
      vertex -17.0458 -23.4615 0.25
      vertex -18.4853 -22.3449 0
      vertex -17.0458 -23.4615 0
    endloop
  endfacet
  facet normal -0.661306 -0.750117 0
    outer loop
      vertex -19.8519 -21.1401 0
      vertex -18.4853 -22.3449 0.25
      vertex -19.8519 -21.1401 0.25
    endloop
  endfacet
  facet normal -0.661306 -0.750117 -0
    outer loop
      vertex -18.4853 -22.3449 0.25
      vertex -19.8519 -21.1401 0
      vertex -18.4853 -22.3449 0
    endloop
  endfacet
  facet normal -0.940884 -0.338729 0
    outer loop
      vertex -26.9635 -10.6756 0
      vertex -27.5806 -8.96149 0.25
      vertex -27.5806 -8.96149 0
    endloop
  endfacet
  facet normal -0.940884 -0.338729 0
    outer loop
      vertex -27.5806 -8.96149 0.25
      vertex -26.9635 -10.6756 0
      vertex -26.9635 -10.6756 0.25
    endloop
  endfacet
  facet normal -0.975919 -0.218133 0
    outer loop
      vertex -28.0889 -7.21201 0
      vertex -28.4863 -5.43406 0.25
      vertex -28.4863 -5.43406 0
    endloop
  endfacet
  facet normal -0.975919 -0.218133 0
    outer loop
      vertex -28.4863 -5.43406 0.25
      vertex -28.0889 -7.21201 0
      vertex -28.0889 -7.21201 0.25
    endloop
  endfacet
  facet normal -0.960289 -0.279006 0
    outer loop
      vertex -27.5806 -8.96149 0
      vertex -28.0889 -7.21201 0.25
      vertex -28.0889 -7.21201 0
    endloop
  endfacet
  facet normal -0.960289 -0.279006 0
    outer loop
      vertex -28.0889 -7.21201 0.25
      vertex -27.5806 -8.96149 0
      vertex -27.5806 -8.96149 0.25
    endloop
  endfacet
  facet normal -0.987688 -0.156436 0
    outer loop
      vertex -28.4863 -5.43406 0
      vertex -28.7713 -3.63466 0.25
      vertex -28.7713 -3.63466 0
    endloop
  endfacet
  facet normal -0.987688 -0.156436 0
    outer loop
      vertex -28.7713 -3.63466 0.25
      vertex -28.4863 -5.43406 0
      vertex -28.4863 -5.43406 0.25
    endloop
  endfacet
  facet normal 0 0 -1
    outer loop
      vertex 1.5 0 0
      vertex 29 0 0
      vertex 28.9428 -1.82092 0
    endloop
  endfacet
  facet normal 0 0 -1
    outer loop
      vertex 1.5 0 0
      vertex 28.9428 -1.82092 0
      vertex 28.7713 -3.63466 0
    endloop
  endfacet
  facet normal 0 0 -1
    outer loop
      vertex 29 0 0
      vertex 1.5 0 0
      vertex 28.9428 1.82092 0
    endloop
  endfacet
  facet normal 0 0 -1
    outer loop
      vertex 1.5 0 0
      vertex 28.7713 -3.63466 0
      vertex 28.4863 -5.43406 0
    endloop
  endfacet
  facet normal -0 0 -1
    outer loop
      vertex 28.9428 1.82092 0
      vertex 1.5 0 0
      vertex 28.7713 3.63466 0
    endloop
  endfacet
  facet normal 0 0 -1
    outer loop
      vertex 1.42658 -0.463525 0
      vertex 28.4863 -5.43406 0
      vertex 28.0889 -7.21201 0
    endloop
  endfacet
  facet normal -0 0 -1
    outer loop
      vertex 28.7713 3.63466 0
      vertex 1.5 0 0
      vertex 28.4863 5.43406 0
    endloop
  endfacet
  facet normal 0 0 -1
    outer loop
      vertex 1.42658 -0.463525 0
      vertex 28.0889 -7.21201 0
      vertex 27.5806 -8.96149 0
    endloop
  endfacet
  facet normal 0 0 -1
    outer loop
      vertex 1.42658 0.463525 0
      vertex 28.4863 5.43406 0
      vertex 1.5 0 0
    endloop
  endfacet
  facet normal 0 0 -1
    outer loop
      vertex 1.42658 -0.463525 0
      vertex 27.5806 -8.96149 0
      vertex 26.9635 -10.6756 0
    endloop
  endfacet
  facet normal -0 0 -1
    outer loop
      vertex 28.4863 5.43406 0
      vertex 1.42658 0.463525 0
      vertex 28.0889 7.21201 0
    endloop
  endfacet
  facet normal 0 0 -1
    outer loop
      vertex 1.42658 -0.463525 0
      vertex 26.9635 -10.6756 0
      vertex 26.24 -12.3476 0
    endloop
  endfacet
  facet normal -0 0 -1
    outer loop
      vertex 28.0889 7.21201 0
      vertex 1.42658 0.463525 0
      vertex 27.5806 8.96149 0
    endloop
  endfacet
  facet normal 0 0 -1
    outer loop
      vertex 1.42658 -0.463525 0
      vertex 26.24 -12.3476 0
      vertex 25.4129 -13.9709 0
    endloop
  endfacet
  facet normal -0 0 -1
    outer loop
      vertex 27.5806 8.96149 0
      vertex 1.42658 0.463525 0
      vertex 26.9635 10.6756 0
    endloop
  endfacet
  facet normal 0 0 -1
    outer loop
      vertex 1.21352 -0.881678 0
      vertex 25.4129 -13.9709 0
      vertex 24.4855 -15.539 0
    endloop
  endfacet
  facet normal -0 0 -1
    outer loop
      vertex 26.9635 10.6756 0
      vertex 1.42658 0.463525 0
      vertex 26.24 12.3476 0
    endloop
  endfacet
  facet normal 0 0 -1
    outer loop
      vertex 1.21352 -0.881678 0
      vertex 24.4855 -15.539 0
      vertex 23.4615 -17.0458 0
    endloop
  endfacet
  facet normal -0 0 -1
    outer loop
      vertex 26.24 12.3476 0
      vertex 1.42658 0.463525 0
      vertex 25.4129 13.9709 0
    endloop
  endfacet
  facet normal 0 0 -1
    outer loop
      vertex 1.21352 -0.881678 0
      vertex 23.4615 -17.0458 0
      vertex 22.3449 -18.4853 0
    endloop
  endfacet
  facet normal 0 0 -1
    outer loop
      vertex 1.21352 0.881678 0
      vertex 25.4129 13.9709 0
      vertex 1.42658 0.463525 0
    endloop
  endfacet
  facet normal 0 0 -1
    outer loop
      vertex 1.21352 -0.881678 0
      vertex 22.3449 -18.4853 0
      vertex 21.1401 -19.8519 0
    endloop
  endfacet
  facet normal -0 0 -1
    outer loop
      vertex 25.4129 13.9709 0
      vertex 1.21352 0.881678 0
      vertex 24.4855 15.539 0
    endloop
  endfacet
  facet normal 0 0 -1
    outer loop
      vertex 1.21352 -0.881678 0
      vertex 21.1401 -19.8519 0
      vertex 19.8519 -21.1401 0
    endloop
  endfacet
  facet normal -0 0 -1
    outer loop
      vertex 24.4855 15.539 0
      vertex 1.21352 0.881678 0
      vertex 23.4615 17.0458 0
    endloop
  endfacet
  facet normal 0 0 -1
    outer loop
      vertex 0.881678 -1.21352 0
      vertex 19.8519 -21.1401 0
      vertex 18.4853 -22.3449 0
    endloop
  endfacet
  facet normal -0 0 -1
    outer loop
      vertex 23.4615 17.0458 0
      vertex 1.21352 0.881678 0
      vertex 22.3449 18.4853 0
    endloop
  endfacet
  facet normal 0 0 -1
    outer loop
      vertex 0.881678 -1.21352 0
      vertex 18.4853 -22.3449 0
      vertex 17.0458 -23.4615 0
    endloop
  endfacet
  facet normal -0 0 -1
    outer loop
      vertex 22.3449 18.4853 0
      vertex 1.21352 0.881678 0
      vertex 21.1401 19.8519 0
    endloop
  endfacet
  facet normal 0 0 -1
    outer loop
      vertex 0.881678 -1.21352 0
      vertex 17.0458 -23.4615 0
      vertex 15.539 -24.4855 0
    endloop
  endfacet
  facet normal -0 0 -1
    outer loop
      vertex 21.1401 19.8519 0
      vertex 1.21352 0.881678 0
      vertex 19.8519 21.1401 0
    endloop
  endfacet
  facet normal 0 0 -1
    outer loop
      vertex 0.881678 -1.21352 0
      vertex 15.539 -24.4855 0
      vertex 13.9709 -25.4129 0
    endloop
  endfacet
  facet normal 0 0 -1
    outer loop
      vertex 0.881678 1.21352 0
      vertex 19.8519 21.1401 0
      vertex 1.21352 0.881678 0
    endloop
  endfacet
  facet normal 0 0 -1
    outer loop
      vertex 0.881678 -1.21352 0
      vertex 13.9709 -25.4129 0
      vertex 12.3476 -26.24 0
    endloop
  endfacet
  facet normal -0 0 -1
    outer loop
      vertex 19.8519 21.1401 0
      vertex 0.881678 1.21352 0
      vertex 18.4853 22.3449 0
    endloop
  endfacet
  facet normal 0 0 -1
    outer loop
      vertex 0.463525 -1.42658 0
      vertex 12.3476 -26.24 0
      vertex 10.6756 -26.9635 0
    endloop
  endfacet
  facet normal -0 0 -1
    outer loop
      vertex 18.4853 22.3449 0
      vertex 0.881678 1.21352 0
      vertex 17.0458 23.4615 0
    endloop
  endfacet
  facet normal 0 0 -1
    outer loop
      vertex 0.463525 -1.42658 0
      vertex 10.6756 -26.9635 0
      vertex 8.96149 -27.5806 0
    endloop
  endfacet
  facet normal -0 0 -1
    outer loop
      vertex 17.0458 23.4615 0
      vertex 0.881678 1.21352 0
      vertex 15.539 24.4855 0
    endloop
  endfacet
  facet normal 0 0 -1
    outer loop
      vertex 0.463525 -1.42658 0
      vertex 8.96149 -27.5806 0
      vertex 7.21201 -28.0889 0
    endloop
  endfacet
  facet normal -0 0 -1
    outer loop
      vertex 15.539 24.4855 0
      vertex 0.881678 1.21352 0
      vertex 13.9709 25.4129 0
    endloop
  endfacet
  facet normal 0 0 -1
    outer loop
      vertex 0.463525 -1.42658 0
      vertex 7.21201 -28.0889 0
      vertex 5.43406 -28.4863 0
    endloop
  endfacet
  facet normal -0 0 -1
    outer loop
      vertex 13.9709 25.4129 0
      vertex 0.881678 1.21352 0
      vertex 12.3476 26.24 0
    endloop
  endfacet
  facet normal 0 0 -1
    outer loop
      vertex 0.463525 -1.42658 0
      vertex 5.43406 -28.4863 0
      vertex 3.63466 -28.7713 0
    endloop
  endfacet
  facet normal 0 0 -1
    outer loop
      vertex 0.463525 1.42658 0
      vertex 12.3476 26.24 0
      vertex 0.881678 1.21352 0
    endloop
  endfacet
  facet normal 0 0 -1
    outer loop
      vertex 0 -1.5 0
      vertex 3.63466 -28.7713 0
      vertex 1.82092 -28.9428 0
    endloop
  endfacet
  facet normal -0 0 -1
    outer loop
      vertex 12.3476 26.24 0
      vertex 0.463525 1.42658 0
      vertex 10.6756 26.9635 0
    endloop
  endfacet
  facet normal -0 0 -1
    outer loop
      vertex 10.6756 26.9635 0
      vertex 0.463525 1.42658 0
      vertex 8.96149 27.5806 0
    endloop
  endfacet
  facet normal 0 0 -1
    outer loop
      vertex 28.4863 -5.43406 0
      vertex 1.42658 -0.463525 0
      vertex 1.5 0 0
    endloop
  endfacet
  facet normal 0 0 -1
    outer loop
      vertex 25.4129 -13.9709 0
      vertex 1.21352 -0.881678 0
      vertex 1.42658 -0.463525 0
    endloop
  endfacet
  facet normal 0 0 -1
    outer loop
      vertex 19.8519 -21.1401 0
      vertex 0.881678 -1.21352 0
      vertex 1.21352 -0.881678 0
    endloop
  endfacet
  facet normal 0 0 -1
    outer loop
      vertex 12.3476 -26.24 0
      vertex 0.463525 -1.42658 0
      vertex 0.881678 -1.21352 0
    endloop
  endfacet
  facet normal 0 0 -1
    outer loop
      vertex 0 -1.5 0
      vertex 1.82092 -28.9428 0
      vertex 0 -29 0
    endloop
  endfacet
  facet normal 0 0 -1
    outer loop
      vertex 3.63466 -28.7713 0
      vertex 0 -1.5 0
      vertex 0.463525 -1.42658 0
    endloop
  endfacet
  facet normal 0 0 -1
    outer loop
      vertex -1.82092 -28.9428 0
      vertex 0 -1.5 0
      vertex 0 -29 0
    endloop
  endfacet
  facet normal 0 0 -1
    outer loop
      vertex -3.63466 -28.7713 0
      vertex 0 -1.5 0
      vertex -1.82092 -28.9428 0
    endloop
  endfacet
  facet normal -0 0 -1
    outer loop
      vertex 0 -1.5 0
      vertex -3.63466 -28.7713 0
      vertex -0.463525 -1.42658 0
    endloop
  endfacet
  facet normal 0 0 -1
    outer loop
      vertex -5.43406 -28.4863 0
      vertex -0.463525 -1.42658 0
      vertex -3.63466 -28.7713 0
    endloop
  endfacet
  facet normal 0 0 -1
    outer loop
      vertex -7.21201 -28.0889 0
      vertex -0.463525 -1.42658 0
      vertex -5.43406 -28.4863 0
    endloop
  endfacet
  facet normal 0 0 -1
    outer loop
      vertex -8.96149 -27.5806 0
      vertex -0.463525 -1.42658 0
      vertex -7.21201 -28.0889 0
    endloop
  endfacet
  facet normal -0 0 -1
    outer loop
      vertex 8.96149 27.5806 0
      vertex 0.463525 1.42658 0
      vertex 7.21201 28.0889 0
    endloop
  endfacet
  facet normal -0 0 -1
    outer loop
      vertex 7.21201 28.0889 0
      vertex 0.463525 1.42658 0
      vertex 5.43406 28.4863 0
    endloop
  endfacet
  facet normal -0 0 -1
    outer loop
      vertex 5.43406 28.4863 0
      vertex 0.463525 1.42658 0
      vertex 3.63466 28.7713 0
    endloop
  endfacet
  facet normal 0 0 -1
    outer loop
      vertex 0 1.5 0
      vertex 3.63466 28.7713 0
      vertex 0.463525 1.42658 0
    endloop
  endfacet
  facet normal -0 0 -1
    outer loop
      vertex 3.63466 28.7713 0
      vertex 0 1.5 0
      vertex 1.82092 28.9428 0
    endloop
  endfacet
  facet normal 0 0 -1
    outer loop
      vertex 0 1.5 0
      vertex 0 29 0
      vertex 1.82092 28.9428 0
    endloop
  endfacet
  facet normal 0 0 -1
    outer loop
      vertex -3.63466 28.7713 0
      vertex 0 1.5 0
      vertex -0.463525 1.42658 0
    endloop
  endfacet
  facet normal 0 0 -1
    outer loop
      vertex -12.3476 26.24 0
      vertex -0.463525 1.42658 0
      vertex -0.881678 1.21352 0
    endloop
  endfacet
  facet normal 0 0 -1
    outer loop
      vertex -19.8519 21.1401 0
      vertex -0.881678 1.21352 0
      vertex -1.21352 0.881678 0
    endloop
  endfacet
  facet normal 0 0 -1
    outer loop
      vertex -25.4129 13.9709 0
      vertex -1.21352 0.881678 0
      vertex -1.42658 0.463525 0
    endloop
  endfacet
  facet normal 0 0 -1
    outer loop
      vertex -28.4863 5.43406 0
      vertex -1.42658 0.463525 0
      vertex -1.5 0 0
    endloop
  endfacet
  facet normal 0 0 -1
    outer loop
      vertex 0 1.5 0
      vertex -1.82092 28.9428 0
      vertex 0 29 0
    endloop
  endfacet
  facet normal 0 0 -1
    outer loop
      vertex -10.6756 -26.9635 0
      vertex -0.463525 -1.42658 0
      vertex -8.96149 -27.5806 0
    endloop
  endfacet
  facet normal 0 0 -1
    outer loop
      vertex -12.3476 -26.24 0
      vertex -0.463525 -1.42658 0
      vertex -10.6756 -26.9635 0
    endloop
  endfacet
  facet normal 0 0 -1
    outer loop
      vertex 0 1.5 0
      vertex -3.63466 28.7713 0
      vertex -1.82092 28.9428 0
    endloop
  endfacet
  facet normal -0 0 -1
    outer loop
      vertex -0.463525 -1.42658 0
      vertex -12.3476 -26.24 0
      vertex -0.881678 -1.21352 0
    endloop
  endfacet
  facet normal 0 0 -1
    outer loop
      vertex -0.463525 1.42658 0
      vertex -5.43406 28.4863 0
      vertex -3.63466 28.7713 0
    endloop
  endfacet
  facet normal 0 0 -1
    outer loop
      vertex -13.9709 -25.4129 0
      vertex -0.881678 -1.21352 0
      vertex -12.3476 -26.24 0
    endloop
  endfacet
  facet normal 0 0 -1
    outer loop
      vertex -0.463525 1.42658 0
      vertex -7.21201 28.0889 0
      vertex -5.43406 28.4863 0
    endloop
  endfacet
  facet normal 0 0 -1
    outer loop
      vertex -15.539 -24.4855 0
      vertex -0.881678 -1.21352 0
      vertex -13.9709 -25.4129 0
    endloop
  endfacet
  facet normal 0 0 -1
    outer loop
      vertex -0.463525 1.42658 0
      vertex -8.96149 27.5806 0
      vertex -7.21201 28.0889 0
    endloop
  endfacet
  facet normal 0 0 -1
    outer loop
      vertex -17.0458 -23.4615 0
      vertex -0.881678 -1.21352 0
      vertex -15.539 -24.4855 0
    endloop
  endfacet
  facet normal 0 0 -1
    outer loop
      vertex -0.463525 1.42658 0
      vertex -10.6756 26.9635 0
      vertex -8.96149 27.5806 0
    endloop
  endfacet
  facet normal 0 0 -1
    outer loop
      vertex -18.4853 -22.3449 0
      vertex -0.881678 -1.21352 0
      vertex -17.0458 -23.4615 0
    endloop
  endfacet
  facet normal 0 0 -1
    outer loop
      vertex -0.463525 1.42658 0
      vertex -12.3476 26.24 0
      vertex -10.6756 26.9635 0
    endloop
  endfacet
  facet normal 0 0 -1
    outer loop
      vertex -19.8519 -21.1401 0
      vertex -0.881678 -1.21352 0
      vertex -18.4853 -22.3449 0
    endloop
  endfacet
  facet normal 0 0 -1
    outer loop
      vertex -0.881678 1.21352 0
      vertex -13.9709 25.4129 0
      vertex -12.3476 26.24 0
    endloop
  endfacet
  facet normal -0 0 -1
    outer loop
      vertex -0.881678 -1.21352 0
      vertex -19.8519 -21.1401 0
      vertex -1.21352 -0.881678 0
    endloop
  endfacet
  facet normal 0 0 -1
    outer loop
      vertex -0.881678 1.21352 0
      vertex -15.539 24.4855 0
      vertex -13.9709 25.4129 0
    endloop
  endfacet
  facet normal 0 0 -1
    outer loop
      vertex -21.1401 -19.8519 0
      vertex -1.21352 -0.881678 0
      vertex -19.8519 -21.1401 0
    endloop
  endfacet
  facet normal 0 0 -1
    outer loop
      vertex -0.881678 1.21352 0
      vertex -17.0458 23.4615 0
      vertex -15.539 24.4855 0
    endloop
  endfacet
  facet normal 0 0 -1
    outer loop
      vertex -22.3449 -18.4853 0
      vertex -1.21352 -0.881678 0
      vertex -21.1401 -19.8519 0
    endloop
  endfacet
  facet normal 0 0 -1
    outer loop
      vertex -0.881678 1.21352 0
      vertex -18.4853 22.3449 0
      vertex -17.0458 23.4615 0
    endloop
  endfacet
  facet normal 0 0 -1
    outer loop
      vertex -23.4615 -17.0458 0
      vertex -1.21352 -0.881678 0
      vertex -22.3449 -18.4853 0
    endloop
  endfacet
  facet normal 0 0 -1
    outer loop
      vertex -0.881678 1.21352 0
      vertex -19.8519 21.1401 0
      vertex -18.4853 22.3449 0
    endloop
  endfacet
  facet normal 0 0 -1
    outer loop
      vertex -24.4855 -15.539 0
      vertex -1.21352 -0.881678 0
      vertex -23.4615 -17.0458 0
    endloop
  endfacet
  facet normal 0 0 -1
    outer loop
      vertex -1.21352 0.881678 0
      vertex -21.1401 19.8519 0
      vertex -19.8519 21.1401 0
    endloop
  endfacet
  facet normal 0 0 -1
    outer loop
      vertex -25.4129 -13.9709 0
      vertex -1.21352 -0.881678 0
      vertex -24.4855 -15.539 0
    endloop
  endfacet
  facet normal 0 0 -1
    outer loop
      vertex -1.21352 0.881678 0
      vertex -22.3449 18.4853 0
      vertex -21.1401 19.8519 0
    endloop
  endfacet
  facet normal -0 0 -1
    outer loop
      vertex -1.21352 -0.881678 0
      vertex -25.4129 -13.9709 0
      vertex -1.42658 -0.463525 0
    endloop
  endfacet
  facet normal 0 0 -1
    outer loop
      vertex -1.21352 0.881678 0
      vertex -23.4615 17.0458 0
      vertex -22.3449 18.4853 0
    endloop
  endfacet
  facet normal 0 0 -1
    outer loop
      vertex -26.24 -12.3476 0
      vertex -1.42658 -0.463525 0
      vertex -25.4129 -13.9709 0
    endloop
  endfacet
  facet normal 0 0 -1
    outer loop
      vertex -1.21352 0.881678 0
      vertex -24.4855 15.539 0
      vertex -23.4615 17.0458 0
    endloop
  endfacet
  facet normal 0 0 -1
    outer loop
      vertex -26.9635 -10.6756 0
      vertex -1.42658 -0.463525 0
      vertex -26.24 -12.3476 0
    endloop
  endfacet
  facet normal 0 0 -1
    outer loop
      vertex -1.21352 0.881678 0
      vertex -25.4129 13.9709 0
      vertex -24.4855 15.539 0
    endloop
  endfacet
  facet normal 0 0 -1
    outer loop
      vertex -27.5806 -8.96149 0
      vertex -1.42658 -0.463525 0
      vertex -26.9635 -10.6756 0
    endloop
  endfacet
  facet normal 0 0 -1
    outer loop
      vertex -1.42658 0.463525 0
      vertex -26.24 12.3476 0
      vertex -25.4129 13.9709 0
    endloop
  endfacet
  facet normal 0 0 -1
    outer loop
      vertex -28.0889 -7.21201 0
      vertex -1.42658 -0.463525 0
      vertex -27.5806 -8.96149 0
    endloop
  endfacet
  facet normal 0 0 -1
    outer loop
      vertex -1.42658 0.463525 0
      vertex -26.9635 10.6756 0
      vertex -26.24 12.3476 0
    endloop
  endfacet
  facet normal 0 0 -1
    outer loop
      vertex -28.4863 -5.43406 0
      vertex -1.42658 -0.463525 0
      vertex -28.0889 -7.21201 0
    endloop
  endfacet
  facet normal 0 0 -1
    outer loop
      vertex -1.42658 0.463525 0
      vertex -27.5806 8.96149 0
      vertex -26.9635 10.6756 0
    endloop
  endfacet
  facet normal -0 0 -1
    outer loop
      vertex -1.42658 -0.463525 0
      vertex -28.4863 -5.43406 0
      vertex -1.5 0 0
    endloop
  endfacet
  facet normal 0 0 -1
    outer loop
      vertex -1.42658 0.463525 0
      vertex -28.0889 7.21201 0
      vertex -27.5806 8.96149 0
    endloop
  endfacet
  facet normal 0 0 -1
    outer loop
      vertex -28.7713 -3.63466 0
      vertex -1.5 0 0
      vertex -28.4863 -5.43406 0
    endloop
  endfacet
  facet normal 0 0 -1
    outer loop
      vertex -1.42658 0.463525 0
      vertex -28.4863 5.43406 0
      vertex -28.0889 7.21201 0
    endloop
  endfacet
  facet normal 0 0 -1
    outer loop
      vertex -28.9428 -1.82092 0
      vertex -1.5 0 0
      vertex -28.7713 -3.63466 0
    endloop
  endfacet
  facet normal 0 0 -1
    outer loop
      vertex -1.5 0 0
      vertex -28.7713 3.63466 0
      vertex -28.4863 5.43406 0
    endloop
  endfacet
  facet normal 0 0 -1
    outer loop
      vertex -29 0 0
      vertex -1.5 0 0
      vertex -28.9428 -1.82092 0
    endloop
  endfacet
  facet normal 0 0 -1
    outer loop
      vertex -1.5 0 0
      vertex -28.9428 1.82092 0
      vertex -28.7713 3.63466 0
    endloop
  endfacet
  facet normal 0 0 -1
    outer loop
      vertex -1.5 0 0
      vertex -29 0 0
      vertex -28.9428 1.82092 0
    endloop
  endfacet
  facet normal -0.995559 -0.0941361 0
    outer loop
      vertex -28.7713 -3.63466 0
      vertex -28.9428 -1.82092 0.25
      vertex -28.9428 -1.82092 0
    endloop
  endfacet
  facet normal -0.995559 -0.0941361 0
    outer loop
      vertex -28.9428 -1.82092 0.25
      vertex -28.7713 -3.63466 0
      vertex -28.7713 -3.63466 0.25
    endloop
  endfacet
  facet normal -0.750117 -0.661306 0
    outer loop
      vertex -21.1401 -19.8519 0
      vertex -22.3449 -18.4853 0.25
      vertex -22.3449 -18.4853 0
    endloop
  endfacet
  facet normal -0.750117 -0.661306 0
    outer loop
      vertex -22.3449 -18.4853 0.25
      vertex -21.1401 -19.8519 0
      vertex -21.1401 -19.8519 0.25
    endloop
  endfacet
  facet normal -0.790153 -0.61291 0
    outer loop
      vertex -22.3449 -18.4853 0
      vertex -23.4615 -17.0458 0.25
      vertex -23.4615 -17.0458 0
    endloop
  endfacet
  facet normal -0.790153 -0.61291 0
    outer loop
      vertex -23.4615 -17.0458 0.25
      vertex -22.3449 -18.4853 0
      vertex -22.3449 -18.4853 0.25
    endloop
  endfacet
  facet normal 0.995559 0.0941361 0
    outer loop
      vertex 28.9428 1.82092 0.25
      vertex 28.7713 3.63466 0
      vertex 28.7713 3.63466 0.25
    endloop
  endfacet
  facet normal 0.995559 0.0941361 0
    outer loop
      vertex 28.7713 3.63466 0
      vertex 28.9428 1.82092 0.25
      vertex 28.9428 1.82092 0
    endloop
  endfacet
  facet normal 0.940884 0.338729 0
    outer loop
      vertex 27.5806 8.96149 0.25
      vertex 26.9635 10.6756 0
      vertex 26.9635 10.6756 0.25
    endloop
  endfacet
  facet normal 0.940884 0.338729 0
    outer loop
      vertex 26.9635 10.6756 0
      vertex 27.5806 8.96149 0.25
      vertex 27.5806 8.96149 0
    endloop
  endfacet
  facet normal 0.860735 0.509053 0
    outer loop
      vertex 25.4129 13.9709 0.25
      vertex 24.4855 15.539 0
      vertex 24.4855 15.539 0.25
    endloop
  endfacet
  facet normal 0.860735 0.509053 0
    outer loop
      vertex 24.4855 15.539 0
      vertex 25.4129 13.9709 0.25
      vertex 25.4129 13.9709 0
    endloop
  endfacet
  facet normal 0.0941361 0.995559 -0
    outer loop
      vertex 3.63466 28.7713 0
      vertex 1.82092 28.9428 0.25
      vertex 3.63466 28.7713 0.25
    endloop
  endfacet
  facet normal 0.0941361 0.995559 0
    outer loop
      vertex 1.82092 28.9428 0.25
      vertex 3.63466 28.7713 0
      vertex 1.82092 28.9428 0
    endloop
  endfacet
  facet normal 0 0 1
    outer loop
      vertex 1.5 0 0.25
      vertex 29 0 0.25
      vertex 28.9428 1.82092 0.25
    endloop
  endfacet
  facet normal 0 0 1
    outer loop
      vertex 1.5 0 0.25
      vertex 28.9428 1.82092 0.25
      vertex 28.7713 3.63466 0.25
    endloop
  endfacet
  facet normal 0 0 1
    outer loop
      vertex 29 0 0.25
      vertex 1.5 0 0.25
      vertex 28.9428 -1.82092 0.25
    endloop
  endfacet
  facet normal 0 0 1
    outer loop
      vertex 1.5 0 0.25
      vertex 28.7713 3.63466 0.25
      vertex 28.4863 5.43406 0.25
    endloop
  endfacet
  facet normal 0 0 1
    outer loop
      vertex 28.9428 -1.82092 0.25
      vertex 1.5 0 0.25
      vertex 28.7713 -3.63466 0.25
    endloop
  endfacet
  facet normal 0 0 1
    outer loop
      vertex 1.42658 0.463525 0.25
      vertex 28.4863 5.43406 0.25
      vertex 28.0889 7.21201 0.25
    endloop
  endfacet
  facet normal 0 0 1
    outer loop
      vertex 28.7713 -3.63466 0.25
      vertex 1.5 0 0.25
      vertex 28.4863 -5.43406 0.25
    endloop
  endfacet
  facet normal 0 0 1
    outer loop
      vertex 1.42658 0.463525 0.25
      vertex 28.0889 7.21201 0.25
      vertex 27.5806 8.96149 0.25
    endloop
  endfacet
  facet normal -0 0 1
    outer loop
      vertex 1.42658 -0.463525 0.25
      vertex 28.4863 -5.43406 0.25
      vertex 1.5 0 0.25
    endloop
  endfacet
  facet normal 0 0 1
    outer loop
      vertex 1.42658 0.463525 0.25
      vertex 27.5806 8.96149 0.25
      vertex 26.9635 10.6756 0.25
    endloop
  endfacet
  facet normal 0 0 1
    outer loop
      vertex 28.4863 -5.43406 0.25
      vertex 1.42658 -0.463525 0.25
      vertex 28.0889 -7.21201 0.25
    endloop
  endfacet
  facet normal 0 0 1
    outer loop
      vertex 1.42658 0.463525 0.25
      vertex 26.9635 10.6756 0.25
      vertex 26.24 12.3476 0.25
    endloop
  endfacet
  facet normal 0 0 1
    outer loop
      vertex 28.0889 -7.21201 0.25
      vertex 1.42658 -0.463525 0.25
      vertex 27.5806 -8.96149 0.25
    endloop
  endfacet
  facet normal 0 0 1
    outer loop
      vertex 1.42658 0.463525 0.25
      vertex 26.24 12.3476 0.25
      vertex 25.4129 13.9709 0.25
    endloop
  endfacet
  facet normal 0 0 1
    outer loop
      vertex 27.5806 -8.96149 0.25
      vertex 1.42658 -0.463525 0.25
      vertex 26.9635 -10.6756 0.25
    endloop
  endfacet
  facet normal 0 0 1
    outer loop
      vertex 1.21352 0.881678 0.25
      vertex 25.4129 13.9709 0.25
      vertex 24.4855 15.539 0.25
    endloop
  endfacet
  facet normal 0 0 1
    outer loop
      vertex 26.9635 -10.6756 0.25
      vertex 1.42658 -0.463525 0.25
      vertex 26.24 -12.3476 0.25
    endloop
  endfacet
  facet normal 0 0 1
    outer loop
      vertex 1.21352 0.881678 0.25
      vertex 24.4855 15.539 0.25
      vertex 23.4615 17.0458 0.25
    endloop
  endfacet
  facet normal 0 0 1
    outer loop
      vertex 26.24 -12.3476 0.25
      vertex 1.42658 -0.463525 0.25
      vertex 25.4129 -13.9709 0.25
    endloop
  endfacet
  facet normal 0 0 1
    outer loop
      vertex 1.21352 0.881678 0.25
      vertex 23.4615 17.0458 0.25
      vertex 22.3449 18.4853 0.25
    endloop
  endfacet
  facet normal -0 0 1
    outer loop
      vertex 1.21352 -0.881678 0.25
      vertex 25.4129 -13.9709 0.25
      vertex 1.42658 -0.463525 0.25
    endloop
  endfacet
  facet normal 0 0 1
    outer loop
      vertex 1.21352 0.881678 0.25
      vertex 22.3449 18.4853 0.25
      vertex 21.1401 19.8519 0.25
    endloop
  endfacet
  facet normal 0 0 1
    outer loop
      vertex 25.4129 -13.9709 0.25
      vertex 1.21352 -0.881678 0.25
      vertex 24.4855 -15.539 0.25
    endloop
  endfacet
  facet normal 0 0 1
    outer loop
      vertex 1.21352 0.881678 0.25
      vertex 21.1401 19.8519 0.25
      vertex 19.8519 21.1401 0.25
    endloop
  endfacet
  facet normal 0 0 1
    outer loop
      vertex 24.4855 -15.539 0.25
      vertex 1.21352 -0.881678 0.25
      vertex 23.4615 -17.0458 0.25
    endloop
  endfacet
  facet normal 0 0 1
    outer loop
      vertex 0.881678 1.21352 0.25
      vertex 19.8519 21.1401 0.25
      vertex 18.4853 22.3449 0.25
    endloop
  endfacet
  facet normal 0 0 1
    outer loop
      vertex 23.4615 -17.0458 0.25
      vertex 1.21352 -0.881678 0.25
      vertex 22.3449 -18.4853 0.25
    endloop
  endfacet
  facet normal 0 0 1
    outer loop
      vertex 0.881678 1.21352 0.25
      vertex 18.4853 22.3449 0.25
      vertex 17.0458 23.4615 0.25
    endloop
  endfacet
  facet normal 0 0 1
    outer loop
      vertex 22.3449 -18.4853 0.25
      vertex 1.21352 -0.881678 0.25
      vertex 21.1401 -19.8519 0.25
    endloop
  endfacet
  facet normal 0 0 1
    outer loop
      vertex 0.881678 1.21352 0.25
      vertex 17.0458 23.4615 0.25
      vertex 15.539 24.4855 0.25
    endloop
  endfacet
  facet normal 0 0 1
    outer loop
      vertex 21.1401 -19.8519 0.25
      vertex 1.21352 -0.881678 0.25
      vertex 19.8519 -21.1401 0.25
    endloop
  endfacet
  facet normal 0 0 1
    outer loop
      vertex 0.881678 1.21352 0.25
      vertex 15.539 24.4855 0.25
      vertex 13.9709 25.4129 0.25
    endloop
  endfacet
  facet normal -0 0 1
    outer loop
      vertex 0.881678 -1.21352 0.25
      vertex 19.8519 -21.1401 0.25
      vertex 1.21352 -0.881678 0.25
    endloop
  endfacet
  facet normal 0 0 1
    outer loop
      vertex 0.881678 1.21352 0.25
      vertex 13.9709 25.4129 0.25
      vertex 12.3476 26.24 0.25
    endloop
  endfacet
  facet normal 0 0 1
    outer loop
      vertex 19.8519 -21.1401 0.25
      vertex 0.881678 -1.21352 0.25
      vertex 18.4853 -22.3449 0.25
    endloop
  endfacet
  facet normal 0 0 1
    outer loop
      vertex 0.463525 1.42658 0.25
      vertex 12.3476 26.24 0.25
      vertex 10.6756 26.9635 0.25
    endloop
  endfacet
  facet normal 0 0 1
    outer loop
      vertex 18.4853 -22.3449 0.25
      vertex 0.881678 -1.21352 0.25
      vertex 17.0458 -23.4615 0.25
    endloop
  endfacet
  facet normal 0 0 1
    outer loop
      vertex 0.463525 1.42658 0.25
      vertex 10.6756 26.9635 0.25
      vertex 8.96149 27.5806 0.25
    endloop
  endfacet
  facet normal 0 0 1
    outer loop
      vertex 17.0458 -23.4615 0.25
      vertex 0.881678 -1.21352 0.25
      vertex 15.539 -24.4855 0.25
    endloop
  endfacet
  facet normal 0 0 1
    outer loop
      vertex 0.463525 1.42658 0.25
      vertex 8.96149 27.5806 0.25
      vertex 7.21201 28.0889 0.25
    endloop
  endfacet
  facet normal 0 0 1
    outer loop
      vertex 15.539 -24.4855 0.25
      vertex 0.881678 -1.21352 0.25
      vertex 13.9709 -25.4129 0.25
    endloop
  endfacet
  facet normal 0 0 1
    outer loop
      vertex 0.463525 1.42658 0.25
      vertex 7.21201 28.0889 0.25
      vertex 5.43406 28.4863 0.25
    endloop
  endfacet
  facet normal 0 0 1
    outer loop
      vertex 13.9709 -25.4129 0.25
      vertex 0.881678 -1.21352 0.25
      vertex 12.3476 -26.24 0.25
    endloop
  endfacet
  facet normal 0 0 1
    outer loop
      vertex 0.463525 1.42658 0.25
      vertex 5.43406 28.4863 0.25
      vertex 3.63466 28.7713 0.25
    endloop
  endfacet
  facet normal -0 0 1
    outer loop
      vertex 0.463525 -1.42658 0.25
      vertex 12.3476 -26.24 0.25
      vertex 0.881678 -1.21352 0.25
    endloop
  endfacet
  facet normal 0 0 1
    outer loop
      vertex 0 1.5 0.25
      vertex 3.63466 28.7713 0.25
      vertex 1.82092 28.9428 0.25
    endloop
  endfacet
  facet normal 0 0 1
    outer loop
      vertex 12.3476 -26.24 0.25
      vertex 0.463525 -1.42658 0.25
      vertex 10.6756 -26.9635 0.25
    endloop
  endfacet
  facet normal 0 0 1
    outer loop
      vertex 10.6756 -26.9635 0.25
      vertex 0.463525 -1.42658 0.25
      vertex 8.96149 -27.5806 0.25
    endloop
  endfacet
  facet normal 0 0 1
    outer loop
      vertex 28.4863 5.43406 0.25
      vertex 1.42658 0.463525 0.25
      vertex 1.5 0 0.25
    endloop
  endfacet
  facet normal 0 0 1
    outer loop
      vertex 25.4129 13.9709 0.25
      vertex 1.21352 0.881678 0.25
      vertex 1.42658 0.463525 0.25
    endloop
  endfacet
  facet normal 0 0 1
    outer loop
      vertex 19.8519 21.1401 0.25
      vertex 0.881678 1.21352 0.25
      vertex 1.21352 0.881678 0.25
    endloop
  endfacet
  facet normal 0 0 1
    outer loop
      vertex 12.3476 26.24 0.25
      vertex 0.463525 1.42658 0.25
      vertex 0.881678 1.21352 0.25
    endloop
  endfacet
  facet normal 0 0 1
    outer loop
      vertex 0 1.5 0.25
      vertex 1.82092 28.9428 0.25
      vertex 0 29 0.25
    endloop
  endfacet
  facet normal 0 0 1
    outer loop
      vertex 3.63466 28.7713 0.25
      vertex 0 1.5 0.25
      vertex 0.463525 1.42658 0.25
    endloop
  endfacet
  facet normal -0 0 1
    outer loop
      vertex -1.82092 28.9428 0.25
      vertex 0 1.5 0.25
      vertex 0 29 0.25
    endloop
  endfacet
  facet normal -0 0 1
    outer loop
      vertex -3.63466 28.7713 0.25
      vertex 0 1.5 0.25
      vertex -1.82092 28.9428 0.25
    endloop
  endfacet
  facet normal 0 0 1
    outer loop
      vertex 0 1.5 0.25
      vertex -3.63466 28.7713 0.25
      vertex -0.463525 1.42658 0.25
    endloop
  endfacet
  facet normal -0 0 1
    outer loop
      vertex -5.43406 28.4863 0.25
      vertex -0.463525 1.42658 0.25
      vertex -3.63466 28.7713 0.25
    endloop
  endfacet
  facet normal -0 0 1
    outer loop
      vertex -7.21201 28.0889 0.25
      vertex -0.463525 1.42658 0.25
      vertex -5.43406 28.4863 0.25
    endloop
  endfacet
  facet normal -0 0 1
    outer loop
      vertex -8.96149 27.5806 0.25
      vertex -0.463525 1.42658 0.25
      vertex -7.21201 28.0889 0.25
    endloop
  endfacet
  facet normal 0 0 1
    outer loop
      vertex 8.96149 -27.5806 0.25
      vertex 0.463525 -1.42658 0.25
      vertex 7.21201 -28.0889 0.25
    endloop
  endfacet
  facet normal 0 0 1
    outer loop
      vertex 7.21201 -28.0889 0.25
      vertex 0.463525 -1.42658 0.25
      vertex 5.43406 -28.4863 0.25
    endloop
  endfacet
  facet normal 0 0 1
    outer loop
      vertex 5.43406 -28.4863 0.25
      vertex 0.463525 -1.42658 0.25
      vertex 3.63466 -28.7713 0.25
    endloop
  endfacet
  facet normal -0 0 1
    outer loop
      vertex 0 -1.5 0.25
      vertex 3.63466 -28.7713 0.25
      vertex 0.463525 -1.42658 0.25
    endloop
  endfacet
  facet normal 0 0 1
    outer loop
      vertex 3.63466 -28.7713 0.25
      vertex 0 -1.5 0.25
      vertex 1.82092 -28.9428 0.25
    endloop
  endfacet
  facet normal 0 0 1
    outer loop
      vertex 0 -1.5 0.25
      vertex 0 -29 0.25
      vertex 1.82092 -28.9428 0.25
    endloop
  endfacet
  facet normal 0 0 1
    outer loop
      vertex -3.63466 -28.7713 0.25
      vertex 0 -1.5 0.25
      vertex -0.463525 -1.42658 0.25
    endloop
  endfacet
  facet normal 0 0 1
    outer loop
      vertex -12.3476 -26.24 0.25
      vertex -0.463525 -1.42658 0.25
      vertex -0.881678 -1.21352 0.25
    endloop
  endfacet
  facet normal 0 0 1
    outer loop
      vertex -19.8519 -21.1401 0.25
      vertex -0.881678 -1.21352 0.25
      vertex -1.21352 -0.881678 0.25
    endloop
  endfacet
  facet normal 0 0 1
    outer loop
      vertex -25.4129 -13.9709 0.25
      vertex -1.21352 -0.881678 0.25
      vertex -1.42658 -0.463525 0.25
    endloop
  endfacet
  facet normal 0 0 1
    outer loop
      vertex -28.4863 -5.43406 0.25
      vertex -1.42658 -0.463525 0.25
      vertex -1.5 0 0.25
    endloop
  endfacet
  facet normal 0 0 1
    outer loop
      vertex 0 -1.5 0.25
      vertex -1.82092 -28.9428 0.25
      vertex 0 -29 0.25
    endloop
  endfacet
  facet normal -0 0 1
    outer loop
      vertex -10.6756 26.9635 0.25
      vertex -0.463525 1.42658 0.25
      vertex -8.96149 27.5806 0.25
    endloop
  endfacet
  facet normal -0 0 1
    outer loop
      vertex -12.3476 26.24 0.25
      vertex -0.463525 1.42658 0.25
      vertex -10.6756 26.9635 0.25
    endloop
  endfacet
  facet normal 0 0 1
    outer loop
      vertex 0 -1.5 0.25
      vertex -3.63466 -28.7713 0.25
      vertex -1.82092 -28.9428 0.25
    endloop
  endfacet
  facet normal 0 0 1
    outer loop
      vertex -0.463525 1.42658 0.25
      vertex -12.3476 26.24 0.25
      vertex -0.881678 1.21352 0.25
    endloop
  endfacet
  facet normal 0 0 1
    outer loop
      vertex -0.463525 -1.42658 0.25
      vertex -5.43406 -28.4863 0.25
      vertex -3.63466 -28.7713 0.25
    endloop
  endfacet
  facet normal -0 0 1
    outer loop
      vertex -13.9709 25.4129 0.25
      vertex -0.881678 1.21352 0.25
      vertex -12.3476 26.24 0.25
    endloop
  endfacet
  facet normal 0 0 1
    outer loop
      vertex -0.463525 -1.42658 0.25
      vertex -7.21201 -28.0889 0.25
      vertex -5.43406 -28.4863 0.25
    endloop
  endfacet
  facet normal -0 0 1
    outer loop
      vertex -15.539 24.4855 0.25
      vertex -0.881678 1.21352 0.25
      vertex -13.9709 25.4129 0.25
    endloop
  endfacet
  facet normal 0 0 1
    outer loop
      vertex -0.463525 -1.42658 0.25
      vertex -8.96149 -27.5806 0.25
      vertex -7.21201 -28.0889 0.25
    endloop
  endfacet
  facet normal -0 0 1
    outer loop
      vertex -17.0458 23.4615 0.25
      vertex -0.881678 1.21352 0.25
      vertex -15.539 24.4855 0.25
    endloop
  endfacet
  facet normal 0 0 1
    outer loop
      vertex -0.463525 -1.42658 0.25
      vertex -10.6756 -26.9635 0.25
      vertex -8.96149 -27.5806 0.25
    endloop
  endfacet
  facet normal -0 0 1
    outer loop
      vertex -18.4853 22.3449 0.25
      vertex -0.881678 1.21352 0.25
      vertex -17.0458 23.4615 0.25
    endloop
  endfacet
  facet normal 0 0 1
    outer loop
      vertex -0.463525 -1.42658 0.25
      vertex -12.3476 -26.24 0.25
      vertex -10.6756 -26.9635 0.25
    endloop
  endfacet
  facet normal -0 0 1
    outer loop
      vertex -19.8519 21.1401 0.25
      vertex -0.881678 1.21352 0.25
      vertex -18.4853 22.3449 0.25
    endloop
  endfacet
  facet normal 0 0 1
    outer loop
      vertex -0.881678 -1.21352 0.25
      vertex -13.9709 -25.4129 0.25
      vertex -12.3476 -26.24 0.25
    endloop
  endfacet
  facet normal 0 0 1
    outer loop
      vertex -0.881678 1.21352 0.25
      vertex -19.8519 21.1401 0.25
      vertex -1.21352 0.881678 0.25
    endloop
  endfacet
  facet normal 0 0 1
    outer loop
      vertex -0.881678 -1.21352 0.25
      vertex -15.539 -24.4855 0.25
      vertex -13.9709 -25.4129 0.25
    endloop
  endfacet
  facet normal -0 0 1
    outer loop
      vertex -21.1401 19.8519 0.25
      vertex -1.21352 0.881678 0.25
      vertex -19.8519 21.1401 0.25
    endloop
  endfacet
  facet normal 0 0 1
    outer loop
      vertex -0.881678 -1.21352 0.25
      vertex -17.0458 -23.4615 0.25
      vertex -15.539 -24.4855 0.25
    endloop
  endfacet
  facet normal -0 0 1
    outer loop
      vertex -22.3449 18.4853 0.25
      vertex -1.21352 0.881678 0.25
      vertex -21.1401 19.8519 0.25
    endloop
  endfacet
  facet normal 0 0 1
    outer loop
      vertex -0.881678 -1.21352 0.25
      vertex -18.4853 -22.3449 0.25
      vertex -17.0458 -23.4615 0.25
    endloop
  endfacet
  facet normal -0 0 1
    outer loop
      vertex -23.4615 17.0458 0.25
      vertex -1.21352 0.881678 0.25
      vertex -22.3449 18.4853 0.25
    endloop
  endfacet
  facet normal 0 0 1
    outer loop
      vertex -0.881678 -1.21352 0.25
      vertex -19.8519 -21.1401 0.25
      vertex -18.4853 -22.3449 0.25
    endloop
  endfacet
  facet normal -0 0 1
    outer loop
      vertex -24.4855 15.539 0.25
      vertex -1.21352 0.881678 0.25
      vertex -23.4615 17.0458 0.25
    endloop
  endfacet
  facet normal 0 0 1
    outer loop
      vertex -1.21352 -0.881678 0.25
      vertex -21.1401 -19.8519 0.25
      vertex -19.8519 -21.1401 0.25
    endloop
  endfacet
  facet normal -0 0 1
    outer loop
      vertex -25.4129 13.9709 0.25
      vertex -1.21352 0.881678 0.25
      vertex -24.4855 15.539 0.25
    endloop
  endfacet
  facet normal 0 0 1
    outer loop
      vertex -1.21352 -0.881678 0.25
      vertex -22.3449 -18.4853 0.25
      vertex -21.1401 -19.8519 0.25
    endloop
  endfacet
  facet normal 0 0 1
    outer loop
      vertex -1.21352 0.881678 0.25
      vertex -25.4129 13.9709 0.25
      vertex -1.42658 0.463525 0.25
    endloop
  endfacet
  facet normal 0 0 1
    outer loop
      vertex -1.21352 -0.881678 0.25
      vertex -23.4615 -17.0458 0.25
      vertex -22.3449 -18.4853 0.25
    endloop
  endfacet
  facet normal -0 0 1
    outer loop
      vertex -26.24 12.3476 0.25
      vertex -1.42658 0.463525 0.25
      vertex -25.4129 13.9709 0.25
    endloop
  endfacet
  facet normal 0 0 1
    outer loop
      vertex -1.21352 -0.881678 0.25
      vertex -24.4855 -15.539 0.25
      vertex -23.4615 -17.0458 0.25
    endloop
  endfacet
  facet normal -0 0 1
    outer loop
      vertex -26.9635 10.6756 0.25
      vertex -1.42658 0.463525 0.25
      vertex -26.24 12.3476 0.25
    endloop
  endfacet
  facet normal 0 0 1
    outer loop
      vertex -1.21352 -0.881678 0.25
      vertex -25.4129 -13.9709 0.25
      vertex -24.4855 -15.539 0.25
    endloop
  endfacet
  facet normal -0 0 1
    outer loop
      vertex -27.5806 8.96149 0.25
      vertex -1.42658 0.463525 0.25
      vertex -26.9635 10.6756 0.25
    endloop
  endfacet
  facet normal 0 0 1
    outer loop
      vertex -1.42658 -0.463525 0.25
      vertex -26.24 -12.3476 0.25
      vertex -25.4129 -13.9709 0.25
    endloop
  endfacet
  facet normal -0 0 1
    outer loop
      vertex -28.0889 7.21201 0.25
      vertex -1.42658 0.463525 0.25
      vertex -27.5806 8.96149 0.25
    endloop
  endfacet
  facet normal 0 0 1
    outer loop
      vertex -1.42658 -0.463525 0.25
      vertex -26.9635 -10.6756 0.25
      vertex -26.24 -12.3476 0.25
    endloop
  endfacet
  facet normal -0 0 1
    outer loop
      vertex -28.4863 5.43406 0.25
      vertex -1.42658 0.463525 0.25
      vertex -28.0889 7.21201 0.25
    endloop
  endfacet
  facet normal 0 0 1
    outer loop
      vertex -1.42658 -0.463525 0.25
      vertex -27.5806 -8.96149 0.25
      vertex -26.9635 -10.6756 0.25
    endloop
  endfacet
  facet normal 0 0 1
    outer loop
      vertex -1.42658 0.463525 0.25
      vertex -28.4863 5.43406 0.25
      vertex -1.5 0 0.25
    endloop
  endfacet
  facet normal 0 0 1
    outer loop
      vertex -1.42658 -0.463525 0.25
      vertex -28.0889 -7.21201 0.25
      vertex -27.5806 -8.96149 0.25
    endloop
  endfacet
  facet normal -0 0 1
    outer loop
      vertex -28.7713 3.63466 0.25
      vertex -1.5 0 0.25
      vertex -28.4863 5.43406 0.25
    endloop
  endfacet
  facet normal 0 0 1
    outer loop
      vertex -1.42658 -0.463525 0.25
      vertex -28.4863 -5.43406 0.25
      vertex -28.0889 -7.21201 0.25
    endloop
  endfacet
  facet normal -0 0 1
    outer loop
      vertex -28.9428 1.82092 0.25
      vertex -1.5 0 0.25
      vertex -28.7713 3.63466 0.25
    endloop
  endfacet
  facet normal 0 0 1
    outer loop
      vertex -1.5 0 0.25
      vertex -28.7713 -3.63466 0.25
      vertex -28.4863 -5.43406 0.25
    endloop
  endfacet
  facet normal 0 0 1
    outer loop
      vertex -29 0 0.25
      vertex -1.5 0 0.25
      vertex -28.9428 1.82092 0.25
    endloop
  endfacet
  facet normal 0 0 1
    outer loop
      vertex -1.5 0 0.25
      vertex -28.9428 -1.82092 0.25
      vertex -28.7713 -3.63466 0.25
    endloop
  endfacet
  facet normal 0 0 1
    outer loop
      vertex -1.5 0 0.25
      vertex -29 0 0.25
      vertex -28.9428 -1.82092 0.25
    endloop
  endfacet
  facet normal -0.995559 0.0941361 0
    outer loop
      vertex -28.9428 1.82092 0
      vertex -28.7713 3.63466 0.25
      vertex -28.7713 3.63466 0
    endloop
  endfacet
  facet normal -0.995559 0.0941361 0
    outer loop
      vertex -28.7713 3.63466 0.25
      vertex -28.9428 1.82092 0
      vertex -28.9428 1.82092 0.25
    endloop
  endfacet
  facet normal -0.917762 0.39713 0
    outer loop
      vertex -26.9635 10.6756 0
      vertex -26.24 12.3476 0.25
      vertex -26.24 12.3476 0
    endloop
  endfacet
  facet normal -0.917762 0.39713 0
    outer loop
      vertex -26.24 12.3476 0.25
      vertex -26.9635 10.6756 0
      vertex -26.9635 10.6756 0.25
    endloop
  endfacet
  facet normal -0.827086 0.562076 0
    outer loop
      vertex -24.4855 15.539 0
      vertex -23.4615 17.0458 0.25
      vertex -23.4615 17.0458 0
    endloop
  endfacet
  facet normal -0.827086 0.562076 0
    outer loop
      vertex -23.4615 17.0458 0.25
      vertex -24.4855 15.539 0
      vertex -24.4855 15.539 0.25
    endloop
  endfacet
  facet normal -0.453985 0.891009 0
    outer loop
      vertex -12.3476 26.24 0
      vertex -13.9709 25.4129 0.25
      vertex -12.3476 26.24 0.25
    endloop
  endfacet
  facet normal -0.453985 0.891009 0
    outer loop
      vertex -13.9709 25.4129 0.25
      vertex -12.3476 26.24 0
      vertex -13.9709 25.4129 0
    endloop
  endfacet
  facet normal 0.960289 -0.279006 0
    outer loop
      vertex 27.5806 -8.96149 0.25
      vertex 28.0889 -7.21201 0
      vertex 28.0889 -7.21201 0.25
    endloop
  endfacet
  facet normal 0.960289 -0.279006 0
    outer loop
      vertex 28.0889 -7.21201 0
      vertex 27.5806 -8.96149 0.25
      vertex 27.5806 -8.96149 0
    endloop
  endfacet
  facet normal 0.940884 -0.338729 0
    outer loop
      vertex 26.9635 -10.6756 0.25
      vertex 27.5806 -8.96149 0
      vertex 27.5806 -8.96149 0.25
    endloop
  endfacet
  facet normal 0.940884 -0.338729 0
    outer loop
      vertex 27.5806 -8.96149 0
      vertex 26.9635 -10.6756 0.25
      vertex 26.9635 -10.6756 0
    endloop
  endfacet
  facet normal 0.827086 -0.562076 0
    outer loop
      vertex 23.4615 -17.0458 0.25
      vertex 24.4855 -15.539 0
      vertex 24.4855 -15.539 0.25
    endloop
  endfacet
  facet normal 0.827086 -0.562076 0
    outer loop
      vertex 24.4855 -15.539 0
      vertex 23.4615 -17.0458 0.25
      vertex 23.4615 -17.0458 0
    endloop
  endfacet
  facet normal 0.279006 -0.960289 0
    outer loop
      vertex 7.21201 -28.0889 0
      vertex 8.96149 -27.5806 0.25
      vertex 7.21201 -28.0889 0.25
    endloop
  endfacet
  facet normal 0.279006 -0.960289 0
    outer loop
      vertex 8.96149 -27.5806 0.25
      vertex 7.21201 -28.0889 0
      vertex 8.96149 -27.5806 0
    endloop
  endfacet
  facet normal -0.218133 -0.975919 0
    outer loop
      vertex -7.21201 -28.0889 0
      vertex -5.43406 -28.4863 0.25
      vertex -7.21201 -28.0889 0.25
    endloop
  endfacet
  facet normal -0.218133 -0.975919 -0
    outer loop
      vertex -5.43406 -28.4863 0.25
      vertex -7.21201 -28.0889 0
      vertex -5.43406 -28.4863 0
    endloop
  endfacet
  facet normal -0.860735 -0.509053 0
    outer loop
      vertex -24.4855 -15.539 0
      vertex -25.4129 -13.9709 0.25
      vertex -25.4129 -13.9709 0
    endloop
  endfacet
  facet normal -0.860735 -0.509053 0
    outer loop
      vertex -25.4129 -13.9709 0.25
      vertex -24.4855 -15.539 0
      vertex -24.4855 -15.539 0.25
    endloop
  endfacet
  facet normal 0.790153 -0.61291 0
    outer loop
      vertex 22.3449 -18.4853 0.25
      vertex 23.4615 -17.0458 0
      vertex 23.4615 -17.0458 0.25
    endloop
  endfacet
  facet normal 0.790153 -0.61291 0
    outer loop
      vertex 23.4615 -17.0458 0
      vertex 22.3449 -18.4853 0.25
      vertex 22.3449 -18.4853 0
    endloop
  endfacet
  facet normal 0.891009 -0.453985 0
    outer loop
      vertex 25.4129 -13.9709 0.25
      vertex 26.24 -12.3476 0
      vertex 26.24 -12.3476 0.25
    endloop
  endfacet
  facet normal 0.891009 -0.453985 0
    outer loop
      vertex 26.24 -12.3476 0
      vertex 25.4129 -13.9709 0.25
      vertex 25.4129 -13.9709 0
    endloop
  endfacet
  facet normal -0.987687 -0.156445 0
    outer loop
      vertex 1.5 0 0
      vertex 1.42658 0.463525 0.25
      vertex 1.42658 0.463525 0
    endloop
  endfacet
  facet normal -0.987687 -0.156445 0
    outer loop
      vertex 1.42658 0.463525 0.25
      vertex 1.5 0 0
      vertex 1.5 0 0.25
    endloop
  endfacet
  facet normal 0.987687 -0.156445 0
    outer loop
      vertex -1.5 0 0.25
      vertex -1.42658 0.463525 0
      vertex -1.42658 0.463525 0.25
    endloop
  endfacet
  facet normal 0.987687 -0.156445 0
    outer loop
      vertex -1.42658 0.463525 0
      vertex -1.5 0 0.25
      vertex -1.5 0 0
    endloop
  endfacet
  facet normal -0.156445 -0.987687 0
    outer loop
      vertex 0 1.5 0
      vertex 0.463525 1.42658 0.25
      vertex 0 1.5 0.25
    endloop
  endfacet
  facet normal -0.156445 -0.987687 -0
    outer loop
      vertex 0.463525 1.42658 0.25
      vertex 0 1.5 0
      vertex 0.463525 1.42658 0
    endloop
  endfacet
  facet normal 0.156445 0.987687 -0
    outer loop
      vertex 0 -1.5 0
      vertex -0.463525 -1.42658 0.25
      vertex 0 -1.5 0.25
    endloop
  endfacet
  facet normal 0.156445 0.987687 0
    outer loop
      vertex -0.463525 -1.42658 0.25
      vertex 0 -1.5 0
      vertex -0.463525 -1.42658 0
    endloop
  endfacet
  facet normal -0.707107 -0.707107 0
    outer loop
      vertex 1.21352 0.881678 0
      vertex 0.881678 1.21352 0.25
      vertex 0.881678 1.21352 0
    endloop
  endfacet
  facet normal -0.707107 -0.707107 0
    outer loop
      vertex 0.881678 1.21352 0.25
      vertex 1.21352 0.881678 0
      vertex 1.21352 0.881678 0.25
    endloop
  endfacet
  facet normal -0.891006 -0.453991 0
    outer loop
      vertex 1.42658 0.463525 0
      vertex 1.21352 0.881678 0.25
      vertex 1.21352 0.881678 0
    endloop
  endfacet
  facet normal -0.891006 -0.453991 0
    outer loop
      vertex 1.21352 0.881678 0.25
      vertex 1.42658 0.463525 0
      vertex 1.42658 0.463525 0.25
    endloop
  endfacet
  facet normal -0.453991 -0.891006 0
    outer loop
      vertex 0.463525 1.42658 0
      vertex 0.881678 1.21352 0.25
      vertex 0.463525 1.42658 0.25
    endloop
  endfacet
  facet normal -0.453991 -0.891006 -0
    outer loop
      vertex 0.881678 1.21352 0.25
      vertex 0.463525 1.42658 0
      vertex 0.881678 1.21352 0
    endloop
  endfacet
  facet normal 0.453991 -0.891006 0
    outer loop
      vertex -0.881678 1.21352 0
      vertex -0.463525 1.42658 0.25
      vertex -0.881678 1.21352 0.25
    endloop
  endfacet
  facet normal 0.453991 -0.891006 0
    outer loop
      vertex -0.463525 1.42658 0.25
      vertex -0.881678 1.21352 0
      vertex -0.463525 1.42658 0
    endloop
  endfacet
  facet normal 0.707107 -0.707107 0
    outer loop
      vertex -1.21352 0.881678 0.25
      vertex -0.881678 1.21352 0
      vertex -0.881678 1.21352 0.25
    endloop
  endfacet
  facet normal 0.707107 -0.707107 0
    outer loop
      vertex -0.881678 1.21352 0
      vertex -1.21352 0.881678 0.25
      vertex -1.21352 0.881678 0
    endloop
  endfacet
  facet normal 0.156445 -0.987687 0
    outer loop
      vertex -0.463525 1.42658 0
      vertex 0 1.5 0.25
      vertex -0.463525 1.42658 0.25
    endloop
  endfacet
  facet normal 0.156445 -0.987687 0
    outer loop
      vertex 0 1.5 0.25
      vertex -0.463525 1.42658 0
      vertex 0 1.5 0
    endloop
  endfacet
  facet normal -0.891006 0.453991 0
    outer loop
      vertex 1.21352 -0.881678 0
      vertex 1.42658 -0.463525 0.25
      vertex 1.42658 -0.463525 0
    endloop
  endfacet
  facet normal -0.891006 0.453991 0
    outer loop
      vertex 1.42658 -0.463525 0.25
      vertex 1.21352 -0.881678 0
      vertex 1.21352 -0.881678 0.25
    endloop
  endfacet
  facet normal 0.707107 0.707107 0
    outer loop
      vertex -0.881678 -1.21352 0.25
      vertex -1.21352 -0.881678 0
      vertex -1.21352 -0.881678 0.25
    endloop
  endfacet
  facet normal 0.707107 0.707107 0
    outer loop
      vertex -1.21352 -0.881678 0
      vertex -0.881678 -1.21352 0.25
      vertex -0.881678 -1.21352 0
    endloop
  endfacet
  facet normal 0.987687 0.156445 0
    outer loop
      vertex -1.42658 -0.463525 0.25
      vertex -1.5 0 0
      vertex -1.5 0 0.25
    endloop
  endfacet
  facet normal 0.987687 0.156445 0
    outer loop
      vertex -1.5 0 0
      vertex -1.42658 -0.463525 0.25
      vertex -1.42658 -0.463525 0
    endloop
  endfacet
  facet normal 0.891006 -0.453991 0
    outer loop
      vertex -1.42658 0.463525 0.25
      vertex -1.21352 0.881678 0
      vertex -1.21352 0.881678 0.25
    endloop
  endfacet
  facet normal 0.891006 -0.453991 0
    outer loop
      vertex -1.21352 0.881678 0
      vertex -1.42658 0.463525 0.25
      vertex -1.42658 0.463525 0
    endloop
  endfacet
  facet normal -0.987687 0.156445 0
    outer loop
      vertex 1.42658 -0.463525 0
      vertex 1.5 0 0.25
      vertex 1.5 0 0
    endloop
  endfacet
  facet normal -0.987687 0.156445 0
    outer loop
      vertex 1.5 0 0.25
      vertex 1.42658 -0.463525 0
      vertex 1.42658 -0.463525 0.25
    endloop
  endfacet
  facet normal -0.156445 0.987687 0
    outer loop
      vertex 0.463525 -1.42658 0
      vertex 0 -1.5 0.25
      vertex 0.463525 -1.42658 0.25
    endloop
  endfacet
  facet normal -0.156445 0.987687 0
    outer loop
      vertex 0 -1.5 0.25
      vertex 0.463525 -1.42658 0
      vertex 0 -1.5 0
    endloop
  endfacet
  facet normal -0.707107 0.707107 0
    outer loop
      vertex 0.881678 -1.21352 0
      vertex 1.21352 -0.881678 0.25
      vertex 1.21352 -0.881678 0
    endloop
  endfacet
  facet normal -0.707107 0.707107 0
    outer loop
      vertex 1.21352 -0.881678 0.25
      vertex 0.881678 -1.21352 0
      vertex 0.881678 -1.21352 0.25
    endloop
  endfacet
  facet normal 0.453991 0.891006 -0
    outer loop
      vertex -0.463525 -1.42658 0
      vertex -0.881678 -1.21352 0.25
      vertex -0.463525 -1.42658 0.25
    endloop
  endfacet
  facet normal 0.453991 0.891006 0
    outer loop
      vertex -0.881678 -1.21352 0.25
      vertex -0.463525 -1.42658 0
      vertex -0.881678 -1.21352 0
    endloop
  endfacet
  facet normal 0.891006 0.453991 0
    outer loop
      vertex -1.21352 -0.881678 0.25
      vertex -1.42658 -0.463525 0
      vertex -1.42658 -0.463525 0.25
    endloop
  endfacet
  facet normal 0.891006 0.453991 0
    outer loop
      vertex -1.42658 -0.463525 0
      vertex -1.21352 -0.881678 0.25
      vertex -1.21352 -0.881678 0
    endloop
  endfacet
  facet normal -0.453991 0.891006 0
    outer loop
      vertex 0.881678 -1.21352 0
      vertex 0.463525 -1.42658 0.25
      vertex 0.881678 -1.21352 0.25
    endloop
  endfacet
  facet normal -0.453991 0.891006 0
    outer loop
      vertex 0.463525 -1.42658 0.25
      vertex 0.881678 -1.21352 0
      vertex 0.463525 -1.42658 0
    endloop
  endfacet
endsolid OpenSCAD_Model
