solid OpenSCAD_Model
  facet normal 0.92388 0.382682 0
    outer loop
      vertex 29.7034 0 0.5
      vertex 21.0035 21.0035 0
      vertex 21.0035 21.0035 0.5
    endloop
  endfacet
  facet normal 0.92388 0.382682 0
    outer loop
      vertex 21.0035 21.0035 0
      vertex 29.7034 0 0.5
      vertex 29.7034 0 0
    endloop
  endfacet
  facet normal -0.92388 0.382682 0
    outer loop
      vertex -29.7034 0 0
      vertex -21.0035 21.0035 0.5
      vertex -21.0035 21.0035 0
    endloop
  endfacet
  facet normal -0.92388 0.382682 0
    outer loop
      vertex -21.0035 21.0035 0.5
      vertex -29.7034 0 0
      vertex -29.7034 0 0.5
    endloop
  endfacet
  facet normal 0 0 -1
    outer loop
      vertex 2.28254 -0.74164 0
      vertex 29.7034 0 0
      vertex 21.0035 -21.0035 0
    endloop
  endfacet
  facet normal 0 0 -1
    outer loop
      vertex 2.28254 0.74164 0
      vertex 29.7034 0 0
      vertex 2.4 0 0
    endloop
  endfacet
  facet normal -0 0 -1
    outer loop
      vertex 29.7034 0 0
      vertex 2.28254 -0.74164 0
      vertex 2.4 0 0
    endloop
  endfacet
  facet normal 0 0 -1
    outer loop
      vertex 21.0035 -21.0035 0
      vertex 1.94164 -1.41068 0
      vertex 2.28254 -0.74164 0
    endloop
  endfacet
  facet normal 0 0 -1
    outer loop
      vertex 21.0035 -21.0035 0
      vertex 1.41068 -1.94164 0
      vertex 1.94164 -1.41068 0
    endloop
  endfacet
  facet normal 0 0 -1
    outer loop
      vertex 21.0035 -21.0035 0
      vertex 0.74164 -2.28254 0
      vertex 1.41068 -1.94164 0
    endloop
  endfacet
  facet normal 0 0 -1
    outer loop
      vertex 0 -29.7034 0
      vertex 0.74164 -2.28254 0
      vertex 21.0035 -21.0035 0
    endloop
  endfacet
  facet normal 0 0 -1
    outer loop
      vertex 0 -29.7034 0
      vertex 0 -2.4 0
      vertex 0.74164 -2.28254 0
    endloop
  endfacet
  facet normal 0 0 -1
    outer loop
      vertex 0 -29.7034 0
      vertex -0.74164 -2.28254 0
      vertex 0 -2.4 0
    endloop
  endfacet
  facet normal 0 0 -1
    outer loop
      vertex -21.0035 -21.0035 0
      vertex -0.74164 -2.28254 0
      vertex 0 -29.7034 0
    endloop
  endfacet
  facet normal -0 0 -1
    outer loop
      vertex -0.74164 -2.28254 0
      vertex -21.0035 -21.0035 0
      vertex -1.41068 -1.94164 0
    endloop
  endfacet
  facet normal -0 0 -1
    outer loop
      vertex -1.41068 -1.94164 0
      vertex -21.0035 -21.0035 0
      vertex -1.94164 -1.41068 0
    endloop
  endfacet
  facet normal -0 0 -1
    outer loop
      vertex -1.94164 -1.41068 0
      vertex -21.0035 -21.0035 0
      vertex -2.28254 -0.74164 0
    endloop
  endfacet
  facet normal 0 0 -1
    outer loop
      vertex -29.7034 0 0
      vertex -2.28254 -0.74164 0
      vertex -21.0035 -21.0035 0
    endloop
  endfacet
  facet normal 0 0 -1
    outer loop
      vertex 29.7034 0 0
      vertex 2.28254 0.74164 0
      vertex 21.0035 21.0035 0
    endloop
  endfacet
  facet normal 0 0 -1
    outer loop
      vertex 1.94164 1.41068 0
      vertex 21.0035 21.0035 0
      vertex 2.28254 0.74164 0
    endloop
  endfacet
  facet normal 0 0 -1
    outer loop
      vertex 1.41068 1.94164 0
      vertex 21.0035 21.0035 0
      vertex 1.94164 1.41068 0
    endloop
  endfacet
  facet normal 0 0 -1
    outer loop
      vertex 0.74164 2.28254 0
      vertex 21.0035 21.0035 0
      vertex 1.41068 1.94164 0
    endloop
  endfacet
  facet normal 0 0 -1
    outer loop
      vertex 0 29.7034 0
      vertex 0.74164 2.28254 0
      vertex 0 2.4 0
    endloop
  endfacet
  facet normal 0 0 -1
    outer loop
      vertex 0.74164 2.28254 0
      vertex 0 29.7034 0
      vertex 21.0035 21.0035 0
    endloop
  endfacet
  facet normal 0 0 -1
    outer loop
      vertex -0.74164 2.28254 0
      vertex 0 29.7034 0
      vertex 0 2.4 0
    endloop
  endfacet
  facet normal 0 0 -1
    outer loop
      vertex -21.0035 21.0035 0
      vertex -0.74164 2.28254 0
      vertex -1.41068 1.94164 0
    endloop
  endfacet
  facet normal 0 0 -1
    outer loop
      vertex -21.0035 21.0035 0
      vertex -1.41068 1.94164 0
      vertex -1.94164 1.41068 0
    endloop
  endfacet
  facet normal 0 0 -1
    outer loop
      vertex -21.0035 21.0035 0
      vertex -1.94164 1.41068 0
      vertex -2.28254 0.74164 0
    endloop
  endfacet
  facet normal 0 0 -1
    outer loop
      vertex -29.7034 0 0
      vertex -2.28254 0.74164 0
      vertex -2.4 0 0
    endloop
  endfacet
  facet normal 0 0 -1
    outer loop
      vertex -2.28254 -0.74164 0
      vertex -29.7034 0 0
      vertex -2.4 0 0
    endloop
  endfacet
  facet normal 0 0 -1
    outer loop
      vertex -0.74164 2.28254 0
      vertex -21.0035 21.0035 0
      vertex 0 29.7034 0
    endloop
  endfacet
  facet normal -0 0 -1
    outer loop
      vertex -2.28254 0.74164 0
      vertex -29.7034 0 0
      vertex -21.0035 21.0035 0
    endloop
  endfacet
  facet normal -0.382682 0.92388 0
    outer loop
      vertex 0 29.7034 0
      vertex -21.0035 21.0035 0.5
      vertex 0 29.7034 0.5
    endloop
  endfacet
  facet normal -0.382682 0.92388 0
    outer loop
      vertex -21.0035 21.0035 0.5
      vertex 0 29.7034 0
      vertex -21.0035 21.0035 0
    endloop
  endfacet
  facet normal 0.382682 0.92388 -0
    outer loop
      vertex 21.0035 21.0035 0
      vertex 0 29.7034 0.5
      vertex 21.0035 21.0035 0.5
    endloop
  endfacet
  facet normal 0.382682 0.92388 0
    outer loop
      vertex 0 29.7034 0.5
      vertex 21.0035 21.0035 0
      vertex 0 29.7034 0
    endloop
  endfacet
  facet normal -0 0 1
    outer loop
      vertex 2.28254 0.74164 0.5
      vertex 29.7034 0 0.5
      vertex 21.0035 21.0035 0.5
    endloop
  endfacet
  facet normal 0 0 1
    outer loop
      vertex 2.28254 -0.74164 0.5
      vertex 29.7034 0 0.5
      vertex 2.4 0 0.5
    endloop
  endfacet
  facet normal 0 0 1
    outer loop
      vertex 29.7034 0 0.5
      vertex 2.28254 0.74164 0.5
      vertex 2.4 0 0.5
    endloop
  endfacet
  facet normal 0 0 1
    outer loop
      vertex 21.0035 21.0035 0.5
      vertex 1.94164 1.41068 0.5
      vertex 2.28254 0.74164 0.5
    endloop
  endfacet
  facet normal 0 0 1
    outer loop
      vertex 21.0035 21.0035 0.5
      vertex 1.41068 1.94164 0.5
      vertex 1.94164 1.41068 0.5
    endloop
  endfacet
  facet normal 0 0 1
    outer loop
      vertex 21.0035 21.0035 0.5
      vertex 0.74164 2.28254 0.5
      vertex 1.41068 1.94164 0.5
    endloop
  endfacet
  facet normal 0 0 1
    outer loop
      vertex 0 29.7034 0.5
      vertex 0.74164 2.28254 0.5
      vertex 21.0035 21.0035 0.5
    endloop
  endfacet
  facet normal 0 0 1
    outer loop
      vertex 0 29.7034 0.5
      vertex 0 2.4 0.5
      vertex 0.74164 2.28254 0.5
    endloop
  endfacet
  facet normal 0 0 1
    outer loop
      vertex 0 29.7034 0.5
      vertex -0.74164 2.28254 0.5
      vertex 0 2.4 0.5
    endloop
  endfacet
  facet normal -0 0 1
    outer loop
      vertex -21.0035 21.0035 0.5
      vertex -0.74164 2.28254 0.5
      vertex 0 29.7034 0.5
    endloop
  endfacet
  facet normal 0 0 1
    outer loop
      vertex -0.74164 2.28254 0.5
      vertex -21.0035 21.0035 0.5
      vertex -1.41068 1.94164 0.5
    endloop
  endfacet
  facet normal 0 0 1
    outer loop
      vertex -1.41068 1.94164 0.5
      vertex -21.0035 21.0035 0.5
      vertex -1.94164 1.41068 0.5
    endloop
  endfacet
  facet normal 0 0 1
    outer loop
      vertex -1.94164 1.41068 0.5
      vertex -21.0035 21.0035 0.5
      vertex -2.28254 0.74164 0.5
    endloop
  endfacet
  facet normal 0 0 1
    outer loop
      vertex -29.7034 0 0.5
      vertex -2.28254 0.74164 0.5
      vertex -21.0035 21.0035 0.5
    endloop
  endfacet
  facet normal 0 0 1
    outer loop
      vertex 29.7034 0 0.5
      vertex 2.28254 -0.74164 0.5
      vertex 21.0035 -21.0035 0.5
    endloop
  endfacet
  facet normal -0 0 1
    outer loop
      vertex 1.94164 -1.41068 0.5
      vertex 21.0035 -21.0035 0.5
      vertex 2.28254 -0.74164 0.5
    endloop
  endfacet
  facet normal -0 0 1
    outer loop
      vertex 1.41068 -1.94164 0.5
      vertex 21.0035 -21.0035 0.5
      vertex 1.94164 -1.41068 0.5
    endloop
  endfacet
  facet normal -0 0 1
    outer loop
      vertex 0.74164 -2.28254 0.5
      vertex 21.0035 -21.0035 0.5
      vertex 1.41068 -1.94164 0.5
    endloop
  endfacet
  facet normal 0 0 1
    outer loop
      vertex 0 -29.7034 0.5
      vertex 0.74164 -2.28254 0.5
      vertex 0 -2.4 0.5
    endloop
  endfacet
  facet normal 0 0 1
    outer loop
      vertex 0.74164 -2.28254 0.5
      vertex 0 -29.7034 0.5
      vertex 21.0035 -21.0035 0.5
    endloop
  endfacet
  facet normal 0 0 1
    outer loop
      vertex -0.74164 -2.28254 0.5
      vertex 0 -29.7034 0.5
      vertex 0 -2.4 0.5
    endloop
  endfacet
  facet normal 0 0 1
    outer loop
      vertex -21.0035 -21.0035 0.5
      vertex -0.74164 -2.28254 0.5
      vertex -1.41068 -1.94164 0.5
    endloop
  endfacet
  facet normal 0 0 1
    outer loop
      vertex -21.0035 -21.0035 0.5
      vertex -1.41068 -1.94164 0.5
      vertex -1.94164 -1.41068 0.5
    endloop
  endfacet
  facet normal 0 0 1
    outer loop
      vertex -21.0035 -21.0035 0.5
      vertex -1.94164 -1.41068 0.5
      vertex -2.28254 -0.74164 0.5
    endloop
  endfacet
  facet normal -0 0 1
    outer loop
      vertex -29.7034 0 0.5
      vertex -2.28254 -0.74164 0.5
      vertex -2.4 0 0.5
    endloop
  endfacet
  facet normal 0 0 1
    outer loop
      vertex -2.28254 0.74164 0.5
      vertex -29.7034 0 0.5
      vertex -2.4 0 0.5
    endloop
  endfacet
  facet normal 0 0 1
    outer loop
      vertex -0.74164 -2.28254 0.5
      vertex -21.0035 -21.0035 0.5
      vertex 0 -29.7034 0.5
    endloop
  endfacet
  facet normal 0 0 1
    outer loop
      vertex -2.28254 -0.74164 0.5
      vertex -29.7034 0 0.5
      vertex -21.0035 -21.0035 0.5
    endloop
  endfacet
  facet normal 0.92388 -0.382682 0
    outer loop
      vertex 21.0035 -21.0035 0.5
      vertex 29.7034 0 0
      vertex 29.7034 0 0.5
    endloop
  endfacet
  facet normal 0.92388 -0.382682 0
    outer loop
      vertex 29.7034 0 0
      vertex 21.0035 -21.0035 0.5
      vertex 21.0035 -21.0035 0
    endloop
  endfacet
  facet normal 0.382682 -0.92388 0
    outer loop
      vertex 0 -29.7034 0
      vertex 21.0035 -21.0035 0.5
      vertex 0 -29.7034 0.5
    endloop
  endfacet
  facet normal 0.382682 -0.92388 0
    outer loop
      vertex 21.0035 -21.0035 0.5
      vertex 0 -29.7034 0
      vertex 21.0035 -21.0035 0
    endloop
  endfacet
  facet normal -0.382682 -0.92388 0
    outer loop
      vertex -21.0035 -21.0035 0
      vertex 0 -29.7034 0.5
      vertex -21.0035 -21.0035 0.5
    endloop
  endfacet
  facet normal -0.382682 -0.92388 -0
    outer loop
      vertex 0 -29.7034 0.5
      vertex -21.0035 -21.0035 0
      vertex 0 -29.7034 0
    endloop
  endfacet
  facet normal -0.92388 -0.382682 0
    outer loop
      vertex -21.0035 -21.0035 0
      vertex -29.7034 0 0.5
      vertex -29.7034 0 0
    endloop
  endfacet
  facet normal -0.92388 -0.382682 0
    outer loop
      vertex -29.7034 0 0.5
      vertex -21.0035 -21.0035 0
      vertex -21.0035 -21.0035 0.5
    endloop
  endfacet
  facet normal -0.987689 -0.156429 0
    outer loop
      vertex 2.4 0 0
      vertex 2.28254 0.74164 0.5
      vertex 2.28254 0.74164 0
    endloop
  endfacet
  facet normal -0.987689 -0.156429 0
    outer loop
      vertex 2.28254 0.74164 0.5
      vertex 2.4 0 0
      vertex 2.4 0 0.5
    endloop
  endfacet
  facet normal 0.987689 -0.156429 0
    outer loop
      vertex -2.4 0 0.5
      vertex -2.28254 0.74164 0
      vertex -2.28254 0.74164 0.5
    endloop
  endfacet
  facet normal 0.987689 -0.156429 0
    outer loop
      vertex -2.28254 0.74164 0
      vertex -2.4 0 0.5
      vertex -2.4 0 0
    endloop
  endfacet
  facet normal 0.156429 -0.987689 0
    outer loop
      vertex -0.74164 2.28254 0
      vertex 0 2.4 0.5
      vertex -0.74164 2.28254 0.5
    endloop
  endfacet
  facet normal 0.156429 -0.987689 0
    outer loop
      vertex 0 2.4 0.5
      vertex -0.74164 2.28254 0
      vertex 0 2.4 0
    endloop
  endfacet
  facet normal -0.156429 0.987689 0
    outer loop
      vertex 0.74164 -2.28254 0
      vertex 0 -2.4 0.5
      vertex 0.74164 -2.28254 0.5
    endloop
  endfacet
  facet normal -0.156429 0.987689 0
    outer loop
      vertex 0 -2.4 0.5
      vertex 0.74164 -2.28254 0
      vertex 0 -2.4 0
    endloop
  endfacet
  facet normal -0.453998 0.891003 0
    outer loop
      vertex 1.41068 -1.94164 0
      vertex 0.74164 -2.28254 0.5
      vertex 1.41068 -1.94164 0.5
    endloop
  endfacet
  facet normal -0.453998 0.891003 0
    outer loop
      vertex 0.74164 -2.28254 0.5
      vertex 1.41068 -1.94164 0
      vertex 0.74164 -2.28254 0
    endloop
  endfacet
  facet normal -0.453998 -0.891003 0
    outer loop
      vertex 0.74164 2.28254 0
      vertex 1.41068 1.94164 0.5
      vertex 0.74164 2.28254 0.5
    endloop
  endfacet
  facet normal -0.453998 -0.891003 -0
    outer loop
      vertex 1.41068 1.94164 0.5
      vertex 0.74164 2.28254 0
      vertex 1.41068 1.94164 0
    endloop
  endfacet
  facet normal -0.891003 -0.453998 0
    outer loop
      vertex 2.28254 0.74164 0
      vertex 1.94164 1.41068 0.5
      vertex 1.94164 1.41068 0
    endloop
  endfacet
  facet normal -0.891003 -0.453998 0
    outer loop
      vertex 1.94164 1.41068 0.5
      vertex 2.28254 0.74164 0
      vertex 2.28254 0.74164 0.5
    endloop
  endfacet
  facet normal -0.156429 -0.987689 0
    outer loop
      vertex 0 2.4 0
      vertex 0.74164 2.28254 0.5
      vertex 0 2.4 0.5
    endloop
  endfacet
  facet normal -0.156429 -0.987689 -0
    outer loop
      vertex 0.74164 2.28254 0.5
      vertex 0 2.4 0
      vertex 0.74164 2.28254 0
    endloop
  endfacet
  facet normal 0.707107 -0.707107 0
    outer loop
      vertex -1.94164 1.41068 0.5
      vertex -1.41068 1.94164 0
      vertex -1.41068 1.94164 0.5
    endloop
  endfacet
  facet normal 0.707107 -0.707107 0
    outer loop
      vertex -1.41068 1.94164 0
      vertex -1.94164 1.41068 0.5
      vertex -1.94164 1.41068 0
    endloop
  endfacet
  facet normal 0.891003 -0.453998 0
    outer loop
      vertex -2.28254 0.74164 0.5
      vertex -1.94164 1.41068 0
      vertex -1.94164 1.41068 0.5
    endloop
  endfacet
  facet normal 0.891003 -0.453998 0
    outer loop
      vertex -1.94164 1.41068 0
      vertex -2.28254 0.74164 0.5
      vertex -2.28254 0.74164 0
    endloop
  endfacet
  facet normal 0.453998 -0.891003 0
    outer loop
      vertex -1.41068 1.94164 0
      vertex -0.74164 2.28254 0.5
      vertex -1.41068 1.94164 0.5
    endloop
  endfacet
  facet normal 0.453998 -0.891003 0
    outer loop
      vertex -0.74164 2.28254 0.5
      vertex -1.41068 1.94164 0
      vertex -0.74164 2.28254 0
    endloop
  endfacet
  facet normal -0.987689 0.156429 0
    outer loop
      vertex 2.28254 -0.74164 0
      vertex 2.4 0 0.5
      vertex 2.4 0 0
    endloop
  endfacet
  facet normal -0.987689 0.156429 0
    outer loop
      vertex 2.4 0 0.5
      vertex 2.28254 -0.74164 0
      vertex 2.28254 -0.74164 0.5
    endloop
  endfacet
  facet normal -0.707107 -0.707107 0
    outer loop
      vertex 1.94164 1.41068 0
      vertex 1.41068 1.94164 0.5
      vertex 1.41068 1.94164 0
    endloop
  endfacet
  facet normal -0.707107 -0.707107 0
    outer loop
      vertex 1.41068 1.94164 0.5
      vertex 1.94164 1.41068 0
      vertex 1.94164 1.41068 0.5
    endloop
  endfacet
  facet normal 0.987689 0.156429 0
    outer loop
      vertex -2.28254 -0.74164 0.5
      vertex -2.4 0 0
      vertex -2.4 0 0.5
    endloop
  endfacet
  facet normal 0.987689 0.156429 0
    outer loop
      vertex -2.4 0 0
      vertex -2.28254 -0.74164 0.5
      vertex -2.28254 -0.74164 0
    endloop
  endfacet
  facet normal -0.707107 0.707107 0
    outer loop
      vertex 1.41068 -1.94164 0
      vertex 1.94164 -1.41068 0.5
      vertex 1.94164 -1.41068 0
    endloop
  endfacet
  facet normal -0.707107 0.707107 0
    outer loop
      vertex 1.94164 -1.41068 0.5
      vertex 1.41068 -1.94164 0
      vertex 1.41068 -1.94164 0.5
    endloop
  endfacet
  facet normal 0.891003 0.453998 0
    outer loop
      vertex -1.94164 -1.41068 0.5
      vertex -2.28254 -0.74164 0
      vertex -2.28254 -0.74164 0.5
    endloop
  endfacet
  facet normal 0.891003 0.453998 0
    outer loop
      vertex -2.28254 -0.74164 0
      vertex -1.94164 -1.41068 0.5
      vertex -1.94164 -1.41068 0
    endloop
  endfacet
  facet normal -0.891003 0.453998 0
    outer loop
      vertex 1.94164 -1.41068 0
      vertex 2.28254 -0.74164 0.5
      vertex 2.28254 -0.74164 0
    endloop
  endfacet
  facet normal -0.891003 0.453998 0
    outer loop
      vertex 2.28254 -0.74164 0.5
      vertex 1.94164 -1.41068 0
      vertex 1.94164 -1.41068 0.5
    endloop
  endfacet
  facet normal 0.156429 0.987689 -0
    outer loop
      vertex 0 -2.4 0
      vertex -0.74164 -2.28254 0.5
      vertex 0 -2.4 0.5
    endloop
  endfacet
  facet normal 0.156429 0.987689 0
    outer loop
      vertex -0.74164 -2.28254 0.5
      vertex 0 -2.4 0
      vertex -0.74164 -2.28254 0
    endloop
  endfacet
  facet normal 0.707107 0.707107 0
    outer loop
      vertex -1.41068 -1.94164 0.5
      vertex -1.94164 -1.41068 0
      vertex -1.94164 -1.41068 0.5
    endloop
  endfacet
  facet normal 0.707107 0.707107 0
    outer loop
      vertex -1.94164 -1.41068 0
      vertex -1.41068 -1.94164 0.5
      vertex -1.41068 -1.94164 0
    endloop
  endfacet
  facet normal 0.453998 0.891003 -0
    outer loop
      vertex -0.74164 -2.28254 0
      vertex -1.41068 -1.94164 0.5
      vertex -0.74164 -2.28254 0.5
    endloop
  endfacet
  facet normal 0.453998 0.891003 0
    outer loop
      vertex -1.41068 -1.94164 0.5
      vertex -0.74164 -2.28254 0
      vertex -1.41068 -1.94164 0
    endloop
  endfacet
endsolid OpenSCAD_Model
